G04 #@! TF.GenerationSoftware,KiCad,Pcbnew,8.0.8*
G04 #@! TF.CreationDate,2025-02-06T14:00:49-05:00*
G04 #@! TF.ProjectId,AAV_embedded,4141565f-656d-4626-9564-6465642e6b69,rev?*
G04 #@! TF.SameCoordinates,Original*
G04 #@! TF.FileFunction,Copper,L1,Top*
G04 #@! TF.FilePolarity,Positive*
%FSLAX46Y46*%
G04 Gerber Fmt 4.6, Leading zero omitted, Abs format (unit mm)*
G04 Created by KiCad (PCBNEW 8.0.8) date 2025-02-06 14:00:49*
%MOMM*%
%LPD*%
G01*
G04 APERTURE LIST*
G04 Aperture macros list*
%AMRoundRect*
0 Rectangle with rounded corners*
0 $1 Rounding radius*
0 $2 $3 $4 $5 $6 $7 $8 $9 X,Y pos of 4 corners*
0 Add a 4 corners polygon primitive as box body*
4,1,4,$2,$3,$4,$5,$6,$7,$8,$9,$2,$3,0*
0 Add four circle primitives for the rounded corners*
1,1,$1+$1,$2,$3*
1,1,$1+$1,$4,$5*
1,1,$1+$1,$6,$7*
1,1,$1+$1,$8,$9*
0 Add four rect primitives between the rounded corners*
20,1,$1+$1,$2,$3,$4,$5,0*
20,1,$1+$1,$4,$5,$6,$7,0*
20,1,$1+$1,$6,$7,$8,$9,0*
20,1,$1+$1,$8,$9,$2,$3,0*%
G04 Aperture macros list end*
G04 #@! TA.AperFunction,EtchedComponent*
%ADD10C,0.000000*%
G04 #@! TD*
G04 #@! TA.AperFunction,ComponentPad*
%ADD11C,1.600000*%
G04 #@! TD*
G04 #@! TA.AperFunction,SMDPad,CuDef*
%ADD12RoundRect,0.250000X0.312500X0.625000X-0.312500X0.625000X-0.312500X-0.625000X0.312500X-0.625000X0*%
G04 #@! TD*
G04 #@! TA.AperFunction,SMDPad,CuDef*
%ADD13RoundRect,0.250000X-0.312500X-0.625000X0.312500X-0.625000X0.312500X0.625000X-0.312500X0.625000X0*%
G04 #@! TD*
G04 #@! TA.AperFunction,SMDPad,CuDef*
%ADD14R,1.120000X2.160000*%
G04 #@! TD*
G04 #@! TA.AperFunction,ComponentPad*
%ADD15R,1.700000X1.700000*%
G04 #@! TD*
G04 #@! TA.AperFunction,ComponentPad*
%ADD16O,1.700000X1.700000*%
G04 #@! TD*
G04 #@! TA.AperFunction,SMDPad,CuDef*
%ADD17RoundRect,0.150000X-0.825000X-0.150000X0.825000X-0.150000X0.825000X0.150000X-0.825000X0.150000X0*%
G04 #@! TD*
G04 #@! TA.AperFunction,SMDPad,CuDef*
%ADD18RoundRect,0.250000X-0.650000X0.325000X-0.650000X-0.325000X0.650000X-0.325000X0.650000X0.325000X0*%
G04 #@! TD*
G04 #@! TA.AperFunction,SMDPad,CuDef*
%ADD19RoundRect,0.250000X0.625000X-0.312500X0.625000X0.312500X-0.625000X0.312500X-0.625000X-0.312500X0*%
G04 #@! TD*
G04 #@! TA.AperFunction,SMDPad,CuDef*
%ADD20RoundRect,0.243750X0.243750X0.456250X-0.243750X0.456250X-0.243750X-0.456250X0.243750X-0.456250X0*%
G04 #@! TD*
G04 #@! TA.AperFunction,SMDPad,CuDef*
%ADD21RoundRect,0.250000X-0.625000X0.312500X-0.625000X-0.312500X0.625000X-0.312500X0.625000X0.312500X0*%
G04 #@! TD*
G04 #@! TA.AperFunction,SMDPad,CuDef*
%ADD22R,1.000000X1.500000*%
G04 #@! TD*
G04 #@! TA.AperFunction,SMDPad,CuDef*
%ADD23RoundRect,0.250000X0.650000X-0.325000X0.650000X0.325000X-0.650000X0.325000X-0.650000X-0.325000X0*%
G04 #@! TD*
G04 #@! TA.AperFunction,SMDPad,CuDef*
%ADD24R,1.500000X1.000000*%
G04 #@! TD*
G04 #@! TA.AperFunction,SMDPad,CuDef*
%ADD25RoundRect,0.200000X0.200000X0.800000X-0.200000X0.800000X-0.200000X-0.800000X0.200000X-0.800000X0*%
G04 #@! TD*
G04 #@! TA.AperFunction,ComponentPad*
%ADD26C,1.500000*%
G04 #@! TD*
G04 #@! TA.AperFunction,ComponentPad*
%ADD27R,1.000000X1.000000*%
G04 #@! TD*
G04 #@! TA.AperFunction,ComponentPad*
%ADD28O,1.000000X1.000000*%
G04 #@! TD*
G04 #@! TA.AperFunction,SMDPad,CuDef*
%ADD29R,0.600000X1.700000*%
G04 #@! TD*
G04 #@! TA.AperFunction,SMDPad,CuDef*
%ADD30R,1.000000X2.700000*%
G04 #@! TD*
G04 #@! TA.AperFunction,ComponentPad*
%ADD31C,1.440000*%
G04 #@! TD*
G04 #@! TA.AperFunction,SMDPad,CuDef*
%ADD32RoundRect,0.250000X-0.325000X-0.650000X0.325000X-0.650000X0.325000X0.650000X-0.325000X0.650000X0*%
G04 #@! TD*
G04 #@! TA.AperFunction,ComponentPad*
%ADD33RoundRect,0.250000X-0.750000X0.600000X-0.750000X-0.600000X0.750000X-0.600000X0.750000X0.600000X0*%
G04 #@! TD*
G04 #@! TA.AperFunction,ComponentPad*
%ADD34O,2.000000X1.700000*%
G04 #@! TD*
G04 #@! TA.AperFunction,SMDPad,CuDef*
%ADD35RoundRect,0.075000X-0.075000X-0.300000X0.075000X-0.300000X0.075000X0.300000X-0.075000X0.300000X0*%
G04 #@! TD*
G04 #@! TA.AperFunction,SMDPad,CuDef*
%ADD36RoundRect,0.062500X-0.062500X-0.312500X0.062500X-0.312500X0.062500X0.312500X-0.062500X0.312500X0*%
G04 #@! TD*
G04 #@! TA.AperFunction,HeatsinkPad*
%ADD37O,0.950000X1.950000*%
G04 #@! TD*
G04 #@! TA.AperFunction,HeatsinkPad*
%ADD38O,0.950000X2.150000*%
G04 #@! TD*
G04 #@! TA.AperFunction,SMDPad,CuDef*
%ADD39RoundRect,0.150000X-0.875000X-0.150000X0.875000X-0.150000X0.875000X0.150000X-0.875000X0.150000X0*%
G04 #@! TD*
G04 #@! TA.AperFunction,SMDPad,CuDef*
%ADD40R,2.160000X1.120000*%
G04 #@! TD*
G04 #@! TA.AperFunction,SMDPad,CuDef*
%ADD41R,0.240000X0.900000*%
G04 #@! TD*
G04 #@! TA.AperFunction,SMDPad,CuDef*
%ADD42R,0.900000X0.240000*%
G04 #@! TD*
G04 #@! TA.AperFunction,SMDPad,CuDef*
%ADD43R,1.000000X2.900000*%
G04 #@! TD*
G04 #@! TA.AperFunction,SMDPad,CuDef*
%ADD44RoundRect,0.250000X0.325000X0.650000X-0.325000X0.650000X-0.325000X-0.650000X0.325000X-0.650000X0*%
G04 #@! TD*
G04 #@! TA.AperFunction,ComponentPad*
%ADD45C,6.000000*%
G04 #@! TD*
G04 #@! TA.AperFunction,SMDPad,CuDef*
%ADD46RoundRect,0.250000X0.312500X1.450000X-0.312500X1.450000X-0.312500X-1.450000X0.312500X-1.450000X0*%
G04 #@! TD*
G04 #@! TA.AperFunction,SMDPad,CuDef*
%ADD47R,0.300000X1.550000*%
G04 #@! TD*
G04 #@! TA.AperFunction,SMDPad,CuDef*
%ADD48R,1.200000X2.750000*%
G04 #@! TD*
G04 #@! TA.AperFunction,ComponentPad*
%ADD49R,2.800000X2.800000*%
G04 #@! TD*
G04 #@! TA.AperFunction,ComponentPad*
%ADD50C,2.800000*%
G04 #@! TD*
G04 #@! TA.AperFunction,SMDPad,CuDef*
%ADD51RoundRect,0.150000X0.512500X0.150000X-0.512500X0.150000X-0.512500X-0.150000X0.512500X-0.150000X0*%
G04 #@! TD*
G04 #@! TA.AperFunction,SMDPad,CuDef*
%ADD52RoundRect,0.243750X-0.243750X-0.456250X0.243750X-0.456250X0.243750X0.456250X-0.243750X0.456250X0*%
G04 #@! TD*
G04 #@! TA.AperFunction,SMDPad,CuDef*
%ADD53RoundRect,0.162500X0.617500X0.162500X-0.617500X0.162500X-0.617500X-0.162500X0.617500X-0.162500X0*%
G04 #@! TD*
G04 #@! TA.AperFunction,ViaPad*
%ADD54C,0.600000*%
G04 #@! TD*
G04 #@! TA.AperFunction,Conductor*
%ADD55C,0.200000*%
G04 #@! TD*
G04 #@! TA.AperFunction,Conductor*
%ADD56C,0.600000*%
G04 #@! TD*
G04 #@! TA.AperFunction,Conductor*
%ADD57C,5.000000*%
G04 #@! TD*
G04 #@! TA.AperFunction,Conductor*
%ADD58C,3.000000*%
G04 #@! TD*
G04 APERTURE END LIST*
D10*
G04 #@! TA.AperFunction,EtchedComponent*
G04 #@! TO.C,JP7*
G36*
X127050000Y-74500000D02*
G01*
X126550000Y-74500000D01*
X126550000Y-73900000D01*
X127050000Y-73900000D01*
X127050000Y-74500000D01*
G37*
G04 #@! TD.AperFunction*
G04 #@! TA.AperFunction,EtchedComponent*
G04 #@! TO.C,JP2*
G36*
X148500000Y-106550000D02*
G01*
X147900000Y-106550000D01*
X147900000Y-106050000D01*
X148500000Y-106050000D01*
X148500000Y-106550000D01*
G37*
G04 #@! TD.AperFunction*
G04 #@! TA.AperFunction,EtchedComponent*
G04 #@! TO.C,JP3*
G36*
X179500000Y-126100000D02*
G01*
X179000000Y-126100000D01*
X179000000Y-125500000D01*
X179500000Y-125500000D01*
X179500000Y-126100000D01*
G37*
G04 #@! TD.AperFunction*
G04 #@! TA.AperFunction,EtchedComponent*
G04 #@! TO.C,JP8*
G36*
X118300000Y-73157500D02*
G01*
X117800000Y-73157500D01*
X117800000Y-72557500D01*
X118300000Y-72557500D01*
X118300000Y-73157500D01*
G37*
G04 #@! TD.AperFunction*
G04 #@! TA.AperFunction,EtchedComponent*
G04 #@! TO.C,JP1*
G36*
X154500000Y-106050000D02*
G01*
X153900000Y-106050000D01*
X153900000Y-105550000D01*
X154500000Y-105550000D01*
X154500000Y-106050000D01*
G37*
G04 #@! TD.AperFunction*
G04 #@! TA.AperFunction,EtchedComponent*
G04 #@! TO.C,JP4*
G36*
X179450000Y-132250000D02*
G01*
X178950000Y-132250000D01*
X178950000Y-131650000D01*
X179450000Y-131650000D01*
X179450000Y-132250000D01*
G37*
G04 #@! TD.AperFunction*
G04 #@! TD*
D11*
G04 #@! TO.P,J22,4,4*
G04 #@! TO.N,GND*
X66200000Y-135350000D03*
G04 #@! TO.P,J22,3,3*
G04 #@! TO.N,+3.3V*
X64200000Y-135350000D03*
G04 #@! TO.P,J22,2,2*
G04 #@! TO.N,SDA _1_L*
X62200000Y-135350000D03*
G04 #@! TO.P,J22,1,1*
G04 #@! TO.N,SCL_1_L*
X60200000Y-135350000D03*
G04 #@! TD*
G04 #@! TO.P,J4,4,4*
G04 #@! TO.N,GND*
X76950000Y-135350000D03*
G04 #@! TO.P,J4,3,3*
G04 #@! TO.N,+5V*
X74950000Y-135350000D03*
G04 #@! TO.P,J4,2,2*
G04 #@! TO.N,SDA_1_H*
X72950000Y-135350000D03*
G04 #@! TO.P,J4,1,1*
G04 #@! TO.N,SCL_1_H*
X70950000Y-135350000D03*
G04 #@! TD*
D12*
G04 #@! TO.P,R16,1*
G04 #@! TO.N,DAC_THR*
X185512500Y-143100000D03*
G04 #@! TO.P,R16,2*
G04 #@! TO.N,Net-(R16-Pad2)*
X182587500Y-143100000D03*
G04 #@! TD*
D13*
G04 #@! TO.P,R2,1*
G04 #@! TO.N,Net-(R16-Pad2)*
X182537500Y-140500000D03*
G04 #@! TO.P,R2,2*
G04 #@! TO.N,A0*
X185462500Y-140500000D03*
G04 #@! TD*
D14*
G04 #@! TO.P,SW2,1*
G04 #@! TO.N,GND*
X119450000Y-113950000D03*
G04 #@! TO.P,SW2,2*
X116910000Y-113950000D03*
G04 #@! TO.P,SW2,3*
X114370000Y-113950000D03*
G04 #@! TO.P,SW2,4*
G04 #@! TO.N,/IO_EXP_A2*
X114370000Y-120680000D03*
G04 #@! TO.P,SW2,5*
G04 #@! TO.N,/IO_EXP_A1*
X116910000Y-120680000D03*
G04 #@! TO.P,SW2,6*
G04 #@! TO.N,/IO_EXP_A0*
X119450000Y-120680000D03*
G04 #@! TD*
D15*
G04 #@! TO.P,J14,1,Pin_1*
G04 #@! TO.N,ERR_BRK*
X169300000Y-89360000D03*
D16*
G04 #@! TO.P,J14,2,Pin_2*
G04 #@! TO.N,~{RST_BRK}*
X169300000Y-91900000D03*
G04 #@! TO.P,J14,3,Pin_3*
G04 #@! TO.N,SCL_LOW_5v*
X169300000Y-94440000D03*
G04 #@! TO.P,J14,4,Pin_4*
G04 #@! TO.N,SDA_LOW_5v*
X169300000Y-96980000D03*
G04 #@! TO.P,J14,5,Pin_5*
G04 #@! TO.N,GND*
X169300000Y-99520000D03*
G04 #@! TO.P,J14,6,Pin_6*
G04 #@! TO.N,TX_BRK_5v*
X169300000Y-102060000D03*
G04 #@! TO.P,J14,7,Pin_7*
G04 #@! TO.N,RX_DRV_5v*
X169300000Y-104600000D03*
G04 #@! TO.P,J14,8,Pin_8*
G04 #@! TO.N,RC_LOW_5v*
X169300000Y-107140000D03*
G04 #@! TO.P,J14,9,Pin_9*
G04 #@! TO.N,5v_reg_BRK*
X169300000Y-109680000D03*
G04 #@! TO.P,J14,10,Pin_10*
G04 #@! TO.N,GND*
X169300000Y-112220000D03*
G04 #@! TD*
D17*
G04 #@! TO.P,U7,1,D*
G04 #@! TO.N,Net-(JP1-C)*
X139725000Y-94845000D03*
G04 #@! TO.P,U7,2,GND*
G04 #@! TO.N,GND*
X139725000Y-96115000D03*
G04 #@! TO.P,U7,3,VCC*
G04 #@! TO.N,+3.3V*
X139725000Y-97385000D03*
G04 #@! TO.P,U7,4,R*
G04 #@! TO.N,Net-(JP2-C)*
X139725000Y-98655000D03*
G04 #@! TO.P,U7,5,Vref*
G04 #@! TO.N,unconnected-(U7-Vref-Pad5)*
X144675000Y-98655000D03*
G04 #@! TO.P,U7,6,CANL*
G04 #@! TO.N,Net-(J21-Pin_2)*
X144675000Y-97385000D03*
G04 #@! TO.P,U7,7,CANH*
G04 #@! TO.N,Net-(J21-Pin_1)*
X144675000Y-96115000D03*
G04 #@! TO.P,U7,8,Rs*
G04 #@! TO.N,CAN_SPD*
X144675000Y-94845000D03*
G04 #@! TD*
D15*
G04 #@! TO.P,J24,1,Pin_1*
G04 #@! TO.N,+3.3V*
X57100000Y-46360000D03*
D16*
G04 #@! TO.P,J24,2,Pin_2*
X57100000Y-48900000D03*
G04 #@! TO.P,J24,3,Pin_3*
X57100000Y-51440000D03*
G04 #@! TO.P,J24,4,Pin_4*
X57100000Y-53980000D03*
G04 #@! TO.P,J24,5,Pin_5*
X57100000Y-56520000D03*
G04 #@! TD*
D12*
G04 #@! TO.P,R27,1*
G04 #@! TO.N,5v_reg_BRK*
X163462500Y-102400000D03*
G04 #@! TO.P,R27,2*
G04 #@! TO.N,Net-(D5-A)*
X160537500Y-102400000D03*
G04 #@! TD*
D18*
G04 #@! TO.P,C3,1*
G04 #@! TO.N,+3.3V*
X137130000Y-97435000D03*
G04 #@! TO.P,C3,2*
G04 #@! TO.N,GND*
X137130000Y-100385000D03*
G04 #@! TD*
D15*
G04 #@! TO.P,J13,1,Pin_1*
G04 #@! TO.N,VM_LOW_revProtect*
X179300000Y-117335000D03*
D16*
G04 #@! TO.P,J13,2,Pin_2*
X181840000Y-117335000D03*
G04 #@! TO.P,J13,3,Pin_3*
G04 #@! TO.N,GND*
X184380000Y-117335000D03*
G04 #@! TD*
D19*
G04 #@! TO.P,R9,1*
G04 #@! TO.N,Net-(J3-CC1)*
X78110000Y-142262500D03*
G04 #@! TO.P,R9,2*
G04 #@! TO.N,GND*
X78110000Y-139337500D03*
G04 #@! TD*
D20*
G04 #@! TO.P,D2,1,K*
G04 #@! TO.N,GND*
X154825000Y-71475000D03*
G04 #@! TO.P,D2,2,A*
G04 #@! TO.N,Net-(D2-A)*
X152950000Y-71475000D03*
G04 #@! TD*
D19*
G04 #@! TO.P,R10,1*
G04 #@! TO.N,Net-(J3-CC2)*
X83000000Y-142262500D03*
G04 #@! TO.P,R10,2*
G04 #@! TO.N,GND*
X83000000Y-139337500D03*
G04 #@! TD*
D21*
G04 #@! TO.P,R13,1*
G04 #@! TO.N,SCL_1_H*
X120325000Y-134262500D03*
G04 #@! TO.P,R13,2*
G04 #@! TO.N,+5V*
X120325000Y-137187500D03*
G04 #@! TD*
D18*
G04 #@! TO.P,C11,1*
G04 #@! TO.N,+5V*
X147125000Y-87225000D03*
G04 #@! TO.P,C11,2*
G04 #@! TO.N,GND*
X147125000Y-90175000D03*
G04 #@! TD*
D22*
G04 #@! TO.P,JP7,1,A*
G04 #@! TO.N,TX2*
X127450000Y-74200000D03*
G04 #@! TO.P,JP7,2,C*
G04 #@! TO.N,TX_DRV_L*
X126150000Y-74200000D03*
G04 #@! TO.P,JP7,3,B*
G04 #@! TO.N,GPIO_INTERNAL_3*
X124850000Y-74200000D03*
G04 #@! TD*
D13*
G04 #@! TO.P,R7,1*
G04 #@! TO.N,+5V*
X99175000Y-136750000D03*
G04 #@! TO.P,R7,2*
G04 #@! TO.N,/IO_EXP_A0*
X102100000Y-136750000D03*
G04 #@! TD*
D19*
G04 #@! TO.P,R8,1*
G04 #@! TO.N,+3.3V*
X74225000Y-142287500D03*
G04 #@! TO.P,R8,2*
G04 #@! TO.N,~{RESET_uMOD}*
X74225000Y-139362500D03*
G04 #@! TD*
D11*
G04 #@! TO.P,J19,1,1*
G04 #@! TO.N,~{E-STOP-TRIG}*
X158150000Y-155500000D03*
G04 #@! TO.P,J19,2,2*
G04 #@! TO.N,~{E-STOP}*
X160150000Y-155500000D03*
G04 #@! TD*
D23*
G04 #@! TO.P,C5,1*
G04 #@! TO.N,/connectors/XTAL_2*
X143425000Y-119000000D03*
G04 #@! TO.P,C5,2*
G04 #@! TO.N,GND*
X143425000Y-116050000D03*
G04 #@! TD*
D24*
G04 #@! TO.P,JP2,1,A*
G04 #@! TO.N,CAN_RXD*
X148200000Y-105650000D03*
G04 #@! TO.P,JP2,2,C*
G04 #@! TO.N,Net-(JP2-C)*
X148200000Y-106950000D03*
G04 #@! TO.P,JP2,3,B*
G04 #@! TO.N,CAN_RXD_PI*
X148200000Y-108250000D03*
G04 #@! TD*
D15*
G04 #@! TO.P,J6,1,Pin_1*
G04 #@! TO.N,GPIO_INTERNAL_6*
X116320000Y-151950000D03*
D16*
G04 #@! TO.P,J6,2,Pin_2*
G04 #@! TO.N,GPIO_INTERNAL_5*
X118860000Y-151950000D03*
G04 #@! TO.P,J6,3,Pin_3*
G04 #@! TO.N,GPIO_INTERNAL_4*
X121400000Y-151950000D03*
G04 #@! TO.P,J6,4,Pin_4*
G04 #@! TO.N,GPIO_INTERNAL_3*
X123940000Y-151950000D03*
G04 #@! TO.P,J6,5,Pin_5*
G04 #@! TO.N,~{E-STOP-TRIG}*
X126480000Y-151950000D03*
G04 #@! TO.P,J6,6,Pin_6*
G04 #@! TO.N,ERR_L*
X129020000Y-151950000D03*
G04 #@! TO.P,J6,7,Pin_7*
G04 #@! TO.N,~{E-STOP}*
X131560000Y-151950000D03*
G04 #@! TD*
D22*
G04 #@! TO.P,JP3,1,A*
G04 #@! TO.N,Net-(JP3-A)*
X178600000Y-125800000D03*
G04 #@! TO.P,JP3,2,C*
G04 #@! TO.N,+5V*
X179900000Y-125800000D03*
G04 #@! TO.P,JP3,3,B*
G04 #@! TO.N,Net-(JP3-B)*
X181200000Y-125800000D03*
G04 #@! TD*
D15*
G04 #@! TO.P,J2,1,3V3*
G04 #@! TO.N,unconnected-(J2-3V3-Pad1)*
X53800000Y-119930000D03*
D16*
G04 #@! TO.P,J2,2,5V*
G04 #@! TO.N,Net-(F2-Pad2)*
X56340000Y-119930000D03*
G04 #@! TO.P,J2,3,SDA_I2C1/GPIO02*
G04 #@! TO.N,unconnected-(J2-SDA_I2C1{slash}GPIO02-Pad3)*
X53800000Y-117390000D03*
G04 #@! TO.P,J2,4,5V*
G04 #@! TO.N,Net-(F2-Pad2)*
X56340000Y-117390000D03*
G04 #@! TO.P,J2,5,SCL_I2C1/GPIO03*
G04 #@! TO.N,unconnected-(J2-SCL_I2C1{slash}GPIO03-Pad5)*
X53800000Y-114850000D03*
G04 #@! TO.P,J2,6,GND*
G04 #@! TO.N,GND*
X56340000Y-114850000D03*
G04 #@! TO.P,J2,7,GPCLK0/GPIO04*
G04 #@! TO.N,unconnected-(J2-GPCLK0{slash}GPIO04-Pad7)*
X53800000Y-112310000D03*
G04 #@! TO.P,J2,8,GPIO14/UART_TXD*
G04 #@! TO.N,uMod_RX1*
X56340000Y-112310000D03*
G04 #@! TO.P,J2,9,GND*
G04 #@! TO.N,GND*
X53800000Y-109770000D03*
G04 #@! TO.P,J2,10,GPIO15/UART_RXD*
G04 #@! TO.N,uMod_TX1*
X56340000Y-109770000D03*
G04 #@! TO.P,J2,11,GPIO17/SPI1_~{CE1}*
G04 #@! TO.N,unconnected-(J2-GPIO17{slash}SPI1_~{CE1}-Pad11)*
X53800000Y-107230000D03*
G04 #@! TO.P,J2,12,GPIO18/SPI1_~{CE0}/PCM_CLK/PWM0*
G04 #@! TO.N,unconnected-(J2-GPIO18{slash}SPI1_~{CE0}{slash}PCM_CLK{slash}PWM0-Pad12)*
X56340000Y-107230000D03*
G04 #@! TO.P,J2,13,GPIO27/SDIO_DAT3*
G04 #@! TO.N,unconnected-(J2-GPIO27{slash}SDIO_DAT3-Pad13)*
X53800000Y-104690000D03*
G04 #@! TO.P,J2,14,GND*
G04 #@! TO.N,GND*
X56340000Y-104690000D03*
G04 #@! TO.P,J2,15,GPIO22/SDIO_CLK*
G04 #@! TO.N,unconnected-(J2-GPIO22{slash}SDIO_CLK-Pad15)*
X53800000Y-102150000D03*
G04 #@! TO.P,J2,16,GPIO23/SDIO_CMD*
G04 #@! TO.N,unconnected-(J2-GPIO23{slash}SDIO_CMD-Pad16)*
X56340000Y-102150000D03*
G04 #@! TO.P,J2,17,3V3*
G04 #@! TO.N,unconnected-(J2-3V3-Pad1)_1*
X53800000Y-99610000D03*
G04 #@! TO.P,J2,18,GPIO24/SDIO_DAT0*
G04 #@! TO.N,unconnected-(J2-GPIO24{slash}SDIO_DAT0-Pad18)*
X56340000Y-99610000D03*
G04 #@! TO.P,J2,19,MOSI_SPI0/GPIO10*
G04 #@! TO.N,CAN_MOSI*
X53800000Y-97070000D03*
G04 #@! TO.P,J2,20,GND*
G04 #@! TO.N,GND*
X56340000Y-97070000D03*
G04 #@! TO.P,J2,21,MISO_SPI0/GPIO09*
G04 #@! TO.N,CAN_MISO*
X53800000Y-94530000D03*
G04 #@! TO.P,J2,22,GPIO25/SDIO_DAT1*
G04 #@! TO.N,unconnected-(J2-GPIO25{slash}SDIO_DAT1-Pad22)*
X56340000Y-94530000D03*
G04 #@! TO.P,J2,23,SCLK_SPI0/GPIO11*
G04 #@! TO.N,CAN_SCK*
X53800000Y-91990000D03*
G04 #@! TO.P,J2,24,~{CE0}_SPI0/GPIO08*
G04 #@! TO.N,CAN_CS*
X56340000Y-91990000D03*
G04 #@! TO.P,J2,25,GND*
G04 #@! TO.N,GND*
X53800000Y-89450000D03*
G04 #@! TO.P,J2,26,~{CE1}_SPI0/GPIO07*
G04 #@! TO.N,unconnected-(J2-~{CE1}_SPI0{slash}GPIO07-Pad26)*
X56340000Y-89450000D03*
G04 #@! TO.P,J2,27,ID_SD_I2C0/GPIO00*
G04 #@! TO.N,unconnected-(J2-ID_SD_I2C0{slash}GPIO00-Pad27)*
X53800000Y-86910000D03*
G04 #@! TO.P,J2,28,ID_SC_I2C0/GPIO01*
G04 #@! TO.N,unconnected-(J2-ID_SC_I2C0{slash}GPIO01-Pad28)*
X56340000Y-86910000D03*
G04 #@! TO.P,J2,29,GPCLK1/GPIO05*
G04 #@! TO.N,unconnected-(J2-GPCLK1{slash}GPIO05-Pad29)*
X53800000Y-84370000D03*
G04 #@! TO.P,J2,30,GND*
G04 #@! TO.N,GND*
X56340000Y-84370000D03*
G04 #@! TO.P,J2,31,GPCLK2/GPIO06*
G04 #@! TO.N,unconnected-(J2-GPCLK2{slash}GPIO06-Pad31)*
X53800000Y-81830000D03*
G04 #@! TO.P,J2,32,GPIO12/PWM0*
G04 #@! TO.N,unconnected-(J2-GPIO12{slash}PWM0-Pad32)*
X56340000Y-81830000D03*
G04 #@! TO.P,J2,33,GPIO13/PWM1*
G04 #@! TO.N,unconnected-(J2-GPIO13{slash}PWM1-Pad33)*
X53800000Y-79290000D03*
G04 #@! TO.P,J2,34,GND*
G04 #@! TO.N,GND*
X56340000Y-79290000D03*
G04 #@! TO.P,J2,35,GPIO19/SPI1_MISO/PCM_FS*
G04 #@! TO.N,unconnected-(J2-GPIO19{slash}SPI1_MISO{slash}PCM_FS-Pad35)*
X53800000Y-76750000D03*
G04 #@! TO.P,J2,36,GPIO16/SPI1_~{CE2}*
G04 #@! TO.N,unconnected-(J2-GPIO16{slash}SPI1_~{CE2}-Pad36)*
X56340000Y-76750000D03*
G04 #@! TO.P,J2,37,GPIO26/SDIO_DAT2*
G04 #@! TO.N,unconnected-(J2-GPIO26{slash}SDIO_DAT2-Pad37)*
X53800000Y-74210000D03*
G04 #@! TO.P,J2,38,GPIO20/SPI1_MOSI/PCM_DIN/PWM1*
G04 #@! TO.N,unconnected-(J2-GPIO20{slash}SPI1_MOSI{slash}PCM_DIN{slash}PWM1-Pad38)*
X56340000Y-74210000D03*
G04 #@! TO.P,J2,39,GND*
G04 #@! TO.N,GND*
X53800000Y-71670000D03*
G04 #@! TO.P,J2,40,GPIO21/SPI1_SCLK/PCM_DOUT*
G04 #@! TO.N,unconnected-(J2-GPIO21{slash}SPI1_SCLK{slash}PCM_DOUT-Pad40)*
X56340000Y-71670000D03*
G04 #@! TD*
D15*
G04 #@! TO.P,J34,1,Pin_1*
G04 #@! TO.N,GPIO_INTERNAL_6*
X144150000Y-53000000D03*
D16*
G04 #@! TO.P,J34,2,Pin_2*
G04 #@! TO.N,GPIO_INTERNAL_5*
X144150000Y-55540000D03*
G04 #@! TO.P,J34,3,Pin_3*
G04 #@! TO.N,GPIO_INTERNAL_4*
X141610000Y-53000000D03*
G04 #@! TO.P,J34,4,Pin_4*
G04 #@! TO.N,GPIO_INTERNAL_3*
X141610000Y-55540000D03*
G04 #@! TO.P,J34,5,Pin_5*
G04 #@! TO.N,~{E-STOP-TRIG}*
X139070000Y-53000000D03*
G04 #@! TO.P,J34,6,Pin_6*
G04 #@! TO.N,ERR_L*
X139070000Y-55540000D03*
G04 #@! TO.P,J34,7,Pin_7*
G04 #@! TO.N,~{E-STOP}*
X136530000Y-53000000D03*
G04 #@! TO.P,J34,8,Pin_8*
G04 #@! TO.N,RX2*
X136530000Y-55540000D03*
G04 #@! TO.P,J34,9,Pin_9*
G04 #@! TO.N,TX2*
X133990000Y-53000000D03*
G04 #@! TO.P,J34,10,Pin_10*
G04 #@! TO.N,CTS1*
X133990000Y-55540000D03*
G04 #@! TO.P,J34,11,Pin_11*
G04 #@! TO.N,RTS1*
X131450000Y-53000000D03*
G04 #@! TO.P,J34,12,Pin_12*
G04 #@! TO.N,uMod_RX1*
X131450000Y-55540000D03*
G04 #@! TO.P,J34,13,Pin_13*
G04 #@! TO.N,uMod_TX1*
X128910000Y-53000000D03*
G04 #@! TO.P,J34,14,Pin_14*
G04 #@! TO.N,D1{slash}CAM_TRIG*
X128910000Y-55540000D03*
G04 #@! TO.P,J34,15,Pin_15*
G04 #@! TO.N,D0*
X126370000Y-53000000D03*
G04 #@! TO.P,J34,16,Pin_16*
G04 #@! TO.N,PWM0*
X126370000Y-55540000D03*
G04 #@! TO.P,J34,17,Pin_17*
G04 #@! TO.N,PWM1*
X123830000Y-53000000D03*
G04 #@! TO.P,J34,18,Pin_18*
G04 #@! TO.N,A1*
X123830000Y-55540000D03*
G04 #@! TO.P,J34,19,Pin_19*
G04 #@! TO.N,A0*
X121290000Y-53000000D03*
G04 #@! TO.P,J34,20,Pin_20*
G04 #@! TO.N,SPI_~{CS}*
X121290000Y-55540000D03*
G04 #@! TO.P,J34,21,Pin_21*
G04 #@! TO.N,SPI_SDI*
X118750000Y-53000000D03*
G04 #@! TO.P,J34,22,Pin_22*
G04 #@! TO.N,SPI_SDO*
X118750000Y-55540000D03*
G04 #@! TO.P,J34,23,Pin_23*
G04 #@! TO.N,SPI_SCK*
X116210000Y-53000000D03*
G04 #@! TO.P,J34,24,Pin_24*
G04 #@! TO.N,SPI_~{CS1}{slash}SDIO_DATA3*
X116210000Y-55540000D03*
G04 #@! TO.P,J34,25,Pin_25*
G04 #@! TO.N,SDIO_DATA2*
X113670000Y-53000000D03*
G04 #@! TO.P,J34,26,Pin_26*
G04 #@! TO.N,SDIO_DATA1*
X113670000Y-55540000D03*
G04 #@! TO.P,J34,27,Pin_27*
G04 #@! TO.N,SPI_SDIO1{slash}SDIO_DATA0*
X111130000Y-53000000D03*
G04 #@! TO.P,J34,28,Pin_28*
G04 #@! TO.N,SPI_SDIO1{slash}SDIO_CMD*
X111130000Y-55540000D03*
G04 #@! TO.P,J34,29,Pin_29*
G04 #@! TO.N,SPI_SCK1{slash}SDIO_CLK*
X108590000Y-53000000D03*
G04 #@! TO.P,J34,30,Pin_30*
G04 #@! TO.N,GND*
X108590000Y-55540000D03*
G04 #@! TD*
D18*
G04 #@! TO.P,C4,1*
G04 #@! TO.N,+3.3V*
X160650000Y-111550000D03*
G04 #@! TO.P,C4,2*
G04 #@! TO.N,GND*
X160650000Y-114500000D03*
G04 #@! TD*
D25*
G04 #@! TO.P,SW9,1,1*
G04 #@! TO.N,GND*
X169950000Y-46850000D03*
G04 #@! TO.P,SW9,2,2*
G04 #@! TO.N,~{RST_STR}*
X165750000Y-46850000D03*
G04 #@! TD*
D26*
G04 #@! TO.P,Y1,1,1*
G04 #@! TO.N,/connectors/XTAL_2*
X139200000Y-117275000D03*
G04 #@! TO.P,Y1,2,2*
G04 #@! TO.N,/connectors/XTAL_1*
X139200000Y-122175000D03*
G04 #@! TD*
D27*
G04 #@! TO.P,J5,1,Pin_1*
G04 #@! TO.N,THR-*
X197370000Y-148600000D03*
D28*
G04 #@! TO.P,J5,2,Pin_2*
G04 #@! TO.N,/THR_STAT_A*
X196100000Y-148600000D03*
G04 #@! TD*
D29*
G04 #@! TO.P,J20,1,1*
G04 #@! TO.N,GPIO_EXT_0*
X142400000Y-152650000D03*
G04 #@! TO.P,J20,2,2*
G04 #@! TO.N,GPIO_EXT_5*
X143650000Y-152650000D03*
G04 #@! TO.P,J20,3,3*
G04 #@! TO.N,GPIO_EXT_4*
X144900000Y-152650000D03*
G04 #@! TO.P,J20,4,4*
G04 #@! TO.N,GPIO_EXT_3*
X146150000Y-152650000D03*
G04 #@! TO.P,J20,5,5*
G04 #@! TO.N,GPIO_EXT_2*
X147400000Y-152650000D03*
G04 #@! TO.P,J20,6,6*
G04 #@! TO.N,GPIO_EXT_1*
X148650000Y-152650000D03*
D30*
G04 #@! TO.P,J20,NC1*
G04 #@! TO.N,N/C*
X150500000Y-155850000D03*
G04 #@! TO.P,J20,NC2*
X140550000Y-155850000D03*
G04 #@! TD*
D31*
G04 #@! TO.P,POT1,1,CCW*
G04 #@! TO.N,Net-(JP3-A)*
X175630000Y-126100000D03*
G04 #@! TO.P,POT1,2,Wiper*
G04 #@! TO.N,Net-(JP4-A)*
X173090000Y-128640000D03*
G04 #@! TO.P,POT1,3,CW*
G04 #@! TO.N,unconnected-(POT1-CW-Pad3)*
X170550000Y-126100000D03*
G04 #@! TD*
D32*
G04 #@! TO.P,C10,1*
G04 #@! TO.N,GND*
X128175000Y-138050000D03*
G04 #@! TO.P,C10,2*
G04 #@! TO.N,+3.3V*
X131125000Y-138050000D03*
G04 #@! TD*
D33*
G04 #@! TO.P,J21,1,Pin_1*
G04 #@! TO.N,Net-(J21-Pin_1)*
X152550000Y-95000000D03*
D34*
G04 #@! TO.P,J21,2,Pin_2*
G04 #@! TO.N,Net-(J21-Pin_2)*
X152550000Y-97500000D03*
G04 #@! TD*
D15*
G04 #@! TO.P,J26,1,Pin_1*
G04 #@! TO.N,GND*
X66150000Y-46120000D03*
D16*
G04 #@! TO.P,J26,2,Pin_2*
X66150000Y-48660000D03*
G04 #@! TO.P,J26,3,Pin_3*
X66150000Y-51200000D03*
G04 #@! TO.P,J26,4,Pin_4*
X66150000Y-53740000D03*
G04 #@! TO.P,J26,5,Pin_5*
X66150000Y-56280000D03*
G04 #@! TD*
D18*
G04 #@! TO.P,C2,1*
G04 #@! TO.N,GND*
X178050000Y-140800000D03*
G04 #@! TO.P,C2,2*
G04 #@! TO.N,dac_v+*
X178050000Y-143750000D03*
G04 #@! TD*
D25*
G04 #@! TO.P,SW6,1,1*
G04 #@! TO.N,GND*
X117200000Y-103100000D03*
G04 #@! TO.P,SW6,2,2*
G04 #@! TO.N,~{RESET_uMOD}*
X113000000Y-103100000D03*
G04 #@! TD*
D35*
G04 #@! TO.P,J3,A1,GND*
G04 #@! TO.N,GND*
X75550000Y-151000000D03*
D36*
X76050000Y-151000000D03*
D35*
X82650000Y-151000000D03*
D36*
G04 #@! TO.P,J3,A4,VBUS*
G04 #@! TO.N,Net-(J3-VBUS-PadA4)*
X77850000Y-151000000D03*
G04 #@! TO.P,J3,A5,CC1*
G04 #@! TO.N,Net-(J3-CC1)*
X78350000Y-151000000D03*
G04 #@! TO.P,J3,A6,D+*
G04 #@! TO.N,USB-D+*
X78850000Y-151000000D03*
G04 #@! TO.P,J3,A7,D-*
G04 #@! TO.N,unconnected-(J3-D--PadA7)*
X79350000Y-151000000D03*
G04 #@! TO.P,J3,A8*
G04 #@! TO.N,N/C*
X79850000Y-151000000D03*
G04 #@! TO.P,J3,A9,VBUS*
G04 #@! TO.N,Net-(J3-VBUS-PadA4)*
X80350000Y-151000000D03*
G04 #@! TO.P,J3,A12,GND*
G04 #@! TO.N,GND*
X82150000Y-151000000D03*
G04 #@! TO.P,J3,B1,GND*
X82100000Y-152250000D03*
G04 #@! TO.P,J3,B4,VBUS*
G04 #@! TO.N,Net-(J3-VBUS-PadA4)*
X80600000Y-152250000D03*
G04 #@! TO.P,J3,B5,CC2*
G04 #@! TO.N,Net-(J3-CC2)*
X80100000Y-152250000D03*
G04 #@! TO.P,J3,B6,D+*
G04 #@! TO.N,unconnected-(J3-D+-PadB6)*
X79600000Y-152250000D03*
G04 #@! TO.P,J3,B7,D-*
G04 #@! TO.N,USB-D-*
X78600000Y-152250000D03*
G04 #@! TO.P,J3,B8*
G04 #@! TO.N,N/C*
X78100000Y-152250000D03*
G04 #@! TO.P,J3,B9,VBUS*
G04 #@! TO.N,Net-(J3-VBUS-PadA4)*
X77600000Y-152250000D03*
G04 #@! TO.P,J3,B12,GND*
G04 #@! TO.N,GND*
X76100000Y-152250000D03*
D37*
G04 #@! TO.P,J3,S1,SHIELD*
G04 #@! TO.N,unconnected-(J3-SHIELD-PadS1)*
X74650000Y-151175000D03*
D38*
X74650000Y-154375000D03*
D37*
X83550000Y-151175000D03*
D38*
X83550000Y-154375000D03*
G04 #@! TD*
D22*
G04 #@! TO.P,JP8,1,A*
G04 #@! TO.N,RX2*
X117400000Y-72857500D03*
G04 #@! TO.P,JP8,2,C*
G04 #@! TO.N,RX_DRV_L*
X118700000Y-72857500D03*
G04 #@! TO.P,JP8,3,B*
G04 #@! TO.N,GPIO_INTERNAL_4*
X120000000Y-72857500D03*
G04 #@! TD*
D13*
G04 #@! TO.P,R15,1*
G04 #@! TO.N,GND*
X178487500Y-134550000D03*
G04 #@! TO.P,R15,2*
G04 #@! TO.N,Net-(JP4-B)*
X181412500Y-134550000D03*
G04 #@! TD*
D19*
G04 #@! TO.P,R1,1*
G04 #@! TO.N,+3.3V*
X160675000Y-120062500D03*
G04 #@! TO.P,R1,2*
G04 #@! TO.N,/connectors/RESET*
X160675000Y-117137500D03*
G04 #@! TD*
D25*
G04 #@! TO.P,SW8,1,1*
G04 #@! TO.N,GND*
X179250000Y-46750000D03*
G04 #@! TO.P,SW8,2,2*
G04 #@! TO.N,~{RST_BRK}*
X175050000Y-46750000D03*
G04 #@! TD*
D13*
G04 #@! TO.P,R5,1*
G04 #@! TO.N,+5V*
X99175000Y-134100000D03*
G04 #@! TO.P,R5,2*
G04 #@! TO.N,/IO_EXP_A2*
X102100000Y-134100000D03*
G04 #@! TD*
D24*
G04 #@! TO.P,JP1,1,A*
G04 #@! TO.N,CAN_TXD*
X154200000Y-105150000D03*
G04 #@! TO.P,JP1,2,C*
G04 #@! TO.N,Net-(JP1-C)*
X154200000Y-106450000D03*
G04 #@! TO.P,JP1,3,B*
G04 #@! TO.N,CAN_TXD_PI*
X154200000Y-107750000D03*
G04 #@! TD*
D39*
G04 #@! TO.P,U6,1,TXCAN*
G04 #@! TO.N,CAN_TXD_PI*
X147650000Y-111540000D03*
G04 #@! TO.P,U6,2,RXCAN*
G04 #@! TO.N,CAN_RXD_PI*
X147650000Y-112810000D03*
G04 #@! TO.P,U6,3,CLKOUT/SOF*
G04 #@! TO.N,unconnected-(U6-CLKOUT{slash}SOF-Pad3)*
X147650000Y-114080000D03*
G04 #@! TO.P,U6,4,~{TX0RTS}*
G04 #@! TO.N,unconnected-(U6-~{TX0RTS}-Pad4)*
X147650000Y-115350000D03*
G04 #@! TO.P,U6,5,~{TX1RTS}*
G04 #@! TO.N,unconnected-(U6-~{TX1RTS}-Pad5)*
X147650000Y-116620000D03*
G04 #@! TO.P,U6,6,~{TX2RTS}*
G04 #@! TO.N,unconnected-(U6-~{TX2RTS}-Pad6)*
X147650000Y-117890000D03*
G04 #@! TO.P,U6,7,OSC2*
G04 #@! TO.N,/connectors/XTAL_2*
X147650000Y-119160000D03*
G04 #@! TO.P,U6,8,OSC1*
G04 #@! TO.N,/connectors/XTAL_1*
X147650000Y-120430000D03*
G04 #@! TO.P,U6,9,VSS*
G04 #@! TO.N,GND*
X147650000Y-121700000D03*
G04 #@! TO.P,U6,10,~{RX1BF}*
G04 #@! TO.N,unconnected-(U6-~{RX1BF}-Pad10)*
X156950000Y-121700000D03*
G04 #@! TO.P,U6,11,~{RX0BF}*
G04 #@! TO.N,unconnected-(U6-~{RX0BF}-Pad11)*
X156950000Y-120430000D03*
G04 #@! TO.P,U6,12,~{INT}*
G04 #@! TO.N,unconnected-(U6-~{INT}-Pad12)*
X156950000Y-119160000D03*
G04 #@! TO.P,U6,13,SCK*
G04 #@! TO.N,CAN_SCK*
X156950000Y-117890000D03*
G04 #@! TO.P,U6,14,SI*
G04 #@! TO.N,CAN_MOSI*
X156950000Y-116620000D03*
G04 #@! TO.P,U6,15,SO*
G04 #@! TO.N,CAN_MISO*
X156950000Y-115350000D03*
G04 #@! TO.P,U6,16,~{CS}*
G04 #@! TO.N,CAN_CS*
X156950000Y-114080000D03*
G04 #@! TO.P,U6,17,~{RESET}*
G04 #@! TO.N,/connectors/RESET*
X156950000Y-112810000D03*
G04 #@! TO.P,U6,18,VDD*
G04 #@! TO.N,+3.3V*
X156950000Y-111540000D03*
G04 #@! TD*
D19*
G04 #@! TO.P,R14,1*
G04 #@! TO.N,SDA_1_H*
X120300000Y-132537500D03*
G04 #@! TO.P,R14,2*
G04 #@! TO.N,+5V*
X120300000Y-129612500D03*
G04 #@! TD*
D25*
G04 #@! TO.P,SW7,1,1*
G04 #@! TO.N,GND*
X126550000Y-103100000D03*
G04 #@! TO.P,SW7,2,2*
G04 #@! TO.N,~{BOOT_uMOD}*
X122350000Y-103100000D03*
G04 #@! TD*
D40*
G04 #@! TO.P,SW5,1*
G04 #@! TO.N,THR+*
X198665000Y-138000000D03*
G04 #@! TO.P,SW5,2*
G04 #@! TO.N,/THR_STAT_SW*
X191935000Y-138000000D03*
G04 #@! TD*
D14*
G04 #@! TO.P,SW4,1*
G04 #@! TO.N,+5V*
X90100000Y-147850000D03*
G04 #@! TO.P,SW4,2*
G04 #@! TO.N,Net-(J3-VBUS-PadA4)*
X90100000Y-154580000D03*
G04 #@! TD*
D41*
G04 #@! TO.P,U5,1,VCCA*
G04 #@! TO.N,+3.3V*
X129400000Y-131500000D03*
D42*
G04 #@! TO.P,U5,2,A0*
G04 #@! TO.N,i2c_INT_L*
X128350000Y-132050000D03*
G04 #@! TO.P,U5,3,A1*
G04 #@! TO.N,SCL_1_L*
X128350000Y-132550000D03*
G04 #@! TO.P,U5,4,A2*
G04 #@! TO.N,SDA _1_L*
X128350000Y-133050000D03*
G04 #@! TO.P,U5,5,A3*
G04 #@! TO.N,~{E-STOP}*
X128350000Y-133550000D03*
G04 #@! TO.P,U5,6,A4*
G04 #@! TO.N,ERR_BRK_L*
X128350000Y-134050000D03*
G04 #@! TO.P,U5,7,A5*
G04 #@! TO.N,ERR_STR_L*
X128350000Y-134550000D03*
G04 #@! TO.P,U5,8,A6*
G04 #@! TO.N,TX_DRV_L*
X128350000Y-135050000D03*
G04 #@! TO.P,U5,9,A7*
G04 #@! TO.N,RX_DRV_L*
X128350000Y-135550000D03*
D41*
G04 #@! TO.P,U5,10,GND*
G04 #@! TO.N,GND*
X129400000Y-136100000D03*
G04 #@! TO.P,U5,11,~{OE}*
G04 #@! TO.N,+3.3V*
X129900000Y-136100000D03*
D42*
G04 #@! TO.P,U5,12,B7*
G04 #@! TO.N,RX_DRV_5v*
X130950000Y-135550000D03*
G04 #@! TO.P,U5,13,B6*
G04 #@! TO.N,TX_DRV_5v*
X130950000Y-135050000D03*
G04 #@! TO.P,U5,14,B5*
G04 #@! TO.N,ERR_STR*
X130950000Y-134550000D03*
G04 #@! TO.P,U5,15,B4*
G04 #@! TO.N,ERR_BRK*
X130950000Y-134050000D03*
G04 #@! TO.P,U5,16,B3*
G04 #@! TO.N,~{ERR}*
X130950000Y-133550000D03*
G04 #@! TO.P,U5,17,B2*
G04 #@! TO.N,SDA_1_H*
X130950000Y-133050000D03*
G04 #@! TO.P,U5,18,B1*
G04 #@! TO.N,SCL_1_H*
X130950000Y-132550000D03*
G04 #@! TO.P,U5,19,B0*
G04 #@! TO.N,i2c_INT_1_H*
X130950000Y-132050000D03*
D41*
G04 #@! TO.P,U5,20,VCCB*
G04 #@! TO.N,+5V*
X129900000Y-131500000D03*
D43*
G04 #@! TO.P,U5,21,NC*
G04 #@! TO.N,unconnected-(U5-NC-Pad21)*
X129650000Y-133800000D03*
G04 #@! TD*
D15*
G04 #@! TO.P,J10,1,+12V*
G04 #@! TO.N,tach_fbk_HIGH*
X169600000Y-73650000D03*
D16*
G04 #@! TO.P,J10,2,+12V*
G04 #@! TO.N,afbk_HIGH*
X167060000Y-73650000D03*
G04 #@! TO.P,J10,3,GND*
G04 #@! TO.N,5v_reg_HIGH*
X169600000Y-76190000D03*
G04 #@! TO.P,J10,4,GND*
G04 #@! TO.N,5v_aux_HIGH*
X167060000Y-76190000D03*
G04 #@! TO.P,J10,5,GND*
G04 #@! TO.N,GND*
X169600000Y-78730000D03*
G04 #@! TO.P,J10,6,GND*
X167060000Y-78730000D03*
G04 #@! TD*
D13*
G04 #@! TO.P,R28,1*
G04 #@! TO.N,ERR_BRK*
X160487500Y-97050000D03*
G04 #@! TO.P,R28,2*
G04 #@! TO.N,Net-(D6-A)*
X163412500Y-97050000D03*
G04 #@! TD*
D44*
G04 #@! TO.P,C9,1*
G04 #@! TO.N,GND*
X133425000Y-129100000D03*
G04 #@! TO.P,C9,2*
G04 #@! TO.N,+5V*
X130475000Y-129100000D03*
G04 #@! TD*
D39*
G04 #@! TO.P,U2,1,~{INT}*
G04 #@! TO.N,unconnected-(U2-~{INT}-Pad1)*
X107500000Y-131530000D03*
G04 #@! TO.P,U2,2,A1*
G04 #@! TO.N,/IO_EXP_A1*
X107500000Y-132800000D03*
G04 #@! TO.P,U2,3,A2*
G04 #@! TO.N,/IO_EXP_A2*
X107500000Y-134070000D03*
G04 #@! TO.P,U2,4,IO0_0*
G04 #@! TO.N,Fw{slash}Rv*
X107500000Y-135340000D03*
G04 #@! TO.P,U2,5,IO0_1*
G04 #@! TO.N,Brk_hi*
X107500000Y-136610000D03*
G04 #@! TO.P,U2,6,IO0_2*
G04 #@! TO.N,Brk_low*
X107500000Y-137880000D03*
G04 #@! TO.P,U2,7,IO0_3*
G04 #@! TO.N,GPIO_EXT_0*
X107500000Y-139150000D03*
G04 #@! TO.P,U2,8,IO0_4*
G04 #@! TO.N,GPIO_EXT_1*
X107500000Y-140420000D03*
G04 #@! TO.P,U2,9,IO0_5*
G04 #@! TO.N,GPIO_EXT_2*
X107500000Y-141690000D03*
G04 #@! TO.P,U2,10,IO0_6*
G04 #@! TO.N,GPIO_EXT_3*
X107500000Y-142960000D03*
G04 #@! TO.P,U2,11,IO0_7*
G04 #@! TO.N,GPIO_EXT_4*
X107500000Y-144230000D03*
G04 #@! TO.P,U2,12,VSS*
G04 #@! TO.N,GND*
X107500000Y-145500000D03*
G04 #@! TO.P,U2,13,IO1_0*
G04 #@! TO.N,GPIO_EXT_5*
X116800000Y-145500000D03*
G04 #@! TO.P,U2,14,IO1_1*
G04 #@! TO.N,GPIO_EXT_6*
X116800000Y-144230000D03*
G04 #@! TO.P,U2,15,IO1_2*
G04 #@! TO.N,~{RST_STR}*
X116800000Y-142960000D03*
G04 #@! TO.P,U2,16,IO1_3*
G04 #@! TO.N,~{RST_BRK}*
X116800000Y-141690000D03*
G04 #@! TO.P,U2,17,IO1_4*
G04 #@! TO.N,RC_FW-REV*
X116800000Y-140420000D03*
G04 #@! TO.P,U2,18,IO1_5*
G04 #@! TO.N,RC_EN*
X116800000Y-139150000D03*
G04 #@! TO.P,U2,19,IO1_6*
G04 #@! TO.N,RC_STR*
X116800000Y-137880000D03*
G04 #@! TO.P,U2,20,IO1_7*
G04 #@! TO.N,RC_THR{slash}RC_SINGLE*
X116800000Y-136610000D03*
G04 #@! TO.P,U2,21,A0*
G04 #@! TO.N,/IO_EXP_A0*
X116800000Y-135340000D03*
G04 #@! TO.P,U2,22,SCL*
G04 #@! TO.N,SCL_1_H*
X116800000Y-134070000D03*
G04 #@! TO.P,U2,23,SDA*
G04 #@! TO.N,SDA_1_H*
X116800000Y-132800000D03*
G04 #@! TO.P,U2,24,VDD*
G04 #@! TO.N,+5V*
X116800000Y-131530000D03*
G04 #@! TD*
D45*
G04 #@! TO.P,,1*
G04 #@! TO.N,N/C*
X131300000Y-64750000D03*
G04 #@! TD*
D15*
G04 #@! TO.P,J7,1,Pin_1*
G04 #@! TO.N,GPIO_EXT_4*
X108430000Y-152200000D03*
D16*
G04 #@! TO.P,J7,2,Pin_2*
G04 #@! TO.N,GPIO_EXT_3*
X105890000Y-152200000D03*
G04 #@! TO.P,J7,3,Pin_3*
G04 #@! TO.N,GPIO_EXT_2*
X103350000Y-152200000D03*
G04 #@! TO.P,J7,4,Pin_4*
G04 #@! TO.N,GPIO_EXT_1*
X100810000Y-152200000D03*
G04 #@! TO.P,J7,5,Pin_5*
G04 #@! TO.N,GPIO_EXT_0*
X98270000Y-152200000D03*
G04 #@! TD*
D40*
G04 #@! TO.P,SW10,1*
G04 #@! TO.N,Net-(R3-Pad1)*
X173085000Y-152180000D03*
G04 #@! TO.P,SW10,2*
G04 #@! TO.N,GND*
X173085000Y-154720000D03*
G04 #@! TO.P,SW10,3*
G04 #@! TO.N,/DAC_ADR0*
X179815000Y-154720000D03*
G04 #@! TO.P,SW10,4*
X179815000Y-152180000D03*
G04 #@! TD*
D22*
G04 #@! TO.P,JP4,1,A*
G04 #@! TO.N,Net-(JP4-A)*
X178550000Y-131950000D03*
G04 #@! TO.P,JP4,2,C*
G04 #@! TO.N,dac_v+*
X179850000Y-131950000D03*
G04 #@! TO.P,JP4,3,B*
G04 #@! TO.N,Net-(JP4-B)*
X181150000Y-131950000D03*
G04 #@! TD*
D20*
G04 #@! TO.P,D5,1,K*
G04 #@! TO.N,GND*
X163237500Y-104850000D03*
G04 #@! TO.P,D5,2,A*
G04 #@! TO.N,Net-(D5-A)*
X161362500Y-104850000D03*
G04 #@! TD*
D13*
G04 #@! TO.P,R6,1*
G04 #@! TO.N,+5V*
X99112500Y-131300000D03*
G04 #@! TO.P,R6,2*
G04 #@! TO.N,/IO_EXP_A1*
X102037500Y-131300000D03*
G04 #@! TD*
D46*
G04 #@! TO.P,F2,1*
G04 #@! TO.N,+5V*
X67250000Y-117350000D03*
G04 #@! TO.P,F2,2*
G04 #@! TO.N,Net-(F2-Pad2)*
X62975000Y-117350000D03*
G04 #@! TD*
D15*
G04 #@! TO.P,J25,1,Pin_1*
G04 #@! TO.N,+12V*
X52550000Y-46370000D03*
D16*
G04 #@! TO.P,J25,2,Pin_2*
X52550000Y-48910000D03*
G04 #@! TO.P,J25,3,Pin_3*
X52550000Y-51450000D03*
G04 #@! TO.P,J25,4,Pin_4*
X52550000Y-53990000D03*
G04 #@! TO.P,J25,5,Pin_5*
X52550000Y-56530000D03*
G04 #@! TD*
D15*
G04 #@! TO.P,J12,1,Pin_1*
G04 #@! TO.N,VM_HIGH_revProtect*
X172110000Y-78750000D03*
D16*
G04 #@! TO.P,J12,2,Pin_2*
X174650000Y-78750000D03*
G04 #@! TO.P,J12,3,Pin_3*
G04 #@! TO.N,GND*
X177190000Y-78750000D03*
G04 #@! TD*
D47*
G04 #@! TO.P,J33,1,GND*
G04 #@! TO.N,GND*
X135750000Y-90425000D03*
G04 #@! TO.P,J33,2,3.3V*
G04 #@! TO.N,+3.3V*
X135500000Y-82875000D03*
G04 #@! TO.P,J33,3,USB_D+*
G04 #@! TO.N,USB-D+*
X135250000Y-90425000D03*
G04 #@! TO.P,J33,4,3.3V_EN*
G04 #@! TO.N,3.3v_en*
X135000000Y-82875000D03*
G04 #@! TO.P,J33,5,USB_D-*
G04 #@! TO.N,USB-D-*
X134750000Y-90425000D03*
G04 #@! TO.P,J33,6,~{RESET}*
G04 #@! TO.N,~{RESET_uMOD}*
X134500000Y-82875000D03*
G04 #@! TO.P,J33,7,GND*
G04 #@! TO.N,GND*
X134250000Y-90425000D03*
G04 #@! TO.P,J33,8,G11*
G04 #@! TO.N,G11*
X134000000Y-82875000D03*
G04 #@! TO.P,J33,9,USB_VIN*
G04 #@! TO.N,+5V*
X133750000Y-90425000D03*
G04 #@! TO.P,J33,10,D0*
G04 #@! TO.N,D0*
X133500000Y-82875000D03*
G04 #@! TO.P,J33,11,~{BOOT}*
G04 #@! TO.N,~{BOOT_uMOD}*
X133250000Y-90425000D03*
G04 #@! TO.P,J33,12,I2C_SDA*
G04 #@! TO.N,SDA _1_L*
X133000000Y-82875000D03*
G04 #@! TO.P,J33,13,RTS1*
G04 #@! TO.N,RTS1*
X132750000Y-90425000D03*
G04 #@! TO.P,J33,14,I2C_SCL*
G04 #@! TO.N,SCL_1_L*
X132500000Y-82875000D03*
G04 #@! TO.P,J33,15,CTS1*
G04 #@! TO.N,CTS1*
X132250000Y-90425000D03*
G04 #@! TO.P,J33,16,I2C_~{INT}*
G04 #@! TO.N,i2c_INT_L*
X132000000Y-82875000D03*
G04 #@! TO.P,J33,17,TX1*
G04 #@! TO.N,uMod_TX1*
X131750000Y-90425000D03*
G04 #@! TO.P,J33,18,D1/CAM_TRIG*
G04 #@! TO.N,D1{slash}CAM_TRIG*
X131500000Y-82875000D03*
G04 #@! TO.P,J33,19,RX1*
G04 #@! TO.N,uMod_RX1*
X131250000Y-90425000D03*
G04 #@! TO.P,J33,20,RX2*
G04 #@! TO.N,RX2*
X131000000Y-82875000D03*
G04 #@! TO.P,J33,21,SWDCK*
G04 #@! TO.N,SWCLK{slash}TCK*
X130750000Y-90425000D03*
G04 #@! TO.P,J33,22,TX2*
G04 #@! TO.N,TX2*
X130500000Y-82875000D03*
G04 #@! TO.P,J33,23,SWDIO*
G04 #@! TO.N,SWDIO{slash}TMS*
X130250000Y-90425000D03*
G04 #@! TO.P,J33,32,PWM0*
G04 #@! TO.N,PWM0*
X128000000Y-82875000D03*
G04 #@! TO.P,J33,33,GND*
G04 #@! TO.N,GND*
X127750000Y-90425000D03*
G04 #@! TO.P,J33,34,A0*
G04 #@! TO.N,A0*
X127500000Y-82875000D03*
G04 #@! TO.P,J33,35,USBHOST_D+*
G04 #@! TO.N,USBHOST_D+*
X127250000Y-90425000D03*
G04 #@! TO.P,J33,36,GND*
G04 #@! TO.N,GND*
X127000000Y-82875000D03*
G04 #@! TO.P,J33,37,USBHOST_D-*
G04 #@! TO.N,USBHOST_D-*
X126750000Y-90425000D03*
G04 #@! TO.P,J33,38,A1*
G04 #@! TO.N,A1*
X126500000Y-82875000D03*
G04 #@! TO.P,J33,39,GND*
G04 #@! TO.N,GND*
X126250000Y-90425000D03*
G04 #@! TO.P,J33,40,G0/BUS0*
G04 #@! TO.N,~{E-STOP}*
X126000000Y-82875000D03*
G04 #@! TO.P,J33,41,CAN-RX*
G04 #@! TO.N,CAN_RXD*
X125750000Y-90425000D03*
G04 #@! TO.P,J33,42,G1/BUS1*
G04 #@! TO.N,ERR_L*
X125500000Y-82875000D03*
G04 #@! TO.P,J33,43,CAN-TX*
G04 #@! TO.N,CAN_TXD*
X125250000Y-90425000D03*
G04 #@! TO.P,J33,44,G2/BUS2*
G04 #@! TO.N,~{E-STOP-TRIG}*
X125000000Y-82875000D03*
G04 #@! TO.P,J33,45,GND*
G04 #@! TO.N,GND*
X124750000Y-90425000D03*
G04 #@! TO.P,J33,46,G3/BUS3*
G04 #@! TO.N,GPIO_INTERNAL_3*
X124500000Y-82875000D03*
G04 #@! TO.P,J33,47,PWM1*
G04 #@! TO.N,PWM1*
X124250000Y-90425000D03*
G04 #@! TO.P,J33,48,G4/BUS4*
G04 #@! TO.N,GPIO_INTERNAL_4*
X124000000Y-82875000D03*
G04 #@! TO.P,J33,49,BATT_VIN/3*
G04 #@! TO.N,BATT_VIN{slash}3*
X123750000Y-90425000D03*
G04 #@! TO.P,J33,50,AUD_BCLK*
G04 #@! TO.N,AUD_BCLK*
X123500000Y-82875000D03*
G04 #@! TO.P,J33,51,I2C_SDA1*
G04 #@! TO.N,I2C_SDA1*
X123250000Y-90425000D03*
G04 #@! TO.P,J33,52,AUD_LRCLK*
G04 #@! TO.N,AUD_LRCLK*
X123000000Y-82875000D03*
G04 #@! TO.P,J33,53,I2C_SCL1*
G04 #@! TO.N,I2C_SCL1*
X122750000Y-90425000D03*
G04 #@! TO.P,J33,54,AUD_IN/CAM_PCLK*
G04 #@! TO.N,AUD_IN{slash}CAM_PCLK*
X122500000Y-82875000D03*
G04 #@! TO.P,J33,55,SPI_~{CS}*
G04 #@! TO.N,SPI_~{CS}*
X122250000Y-90425000D03*
G04 #@! TO.P,J33,56,AUD_OUT/CAM_MCLK*
G04 #@! TO.N,AUD_OUT{slash}CAM_MCLK*
X122000000Y-82875000D03*
G04 #@! TO.P,J33,57,SPI_SCK*
G04 #@! TO.N,SPI_SCK*
X121750000Y-90425000D03*
G04 #@! TO.P,J33,58,AUD_MCLK*
G04 #@! TO.N,AUD_MCLK*
X121500000Y-82875000D03*
G04 #@! TO.P,J33,59,SPI_SDO*
G04 #@! TO.N,SPI_SDO*
X121250000Y-90425000D03*
G04 #@! TO.P,J33,60,SPI_SCK1/SDIO_CLK*
G04 #@! TO.N,SPI_SCK1{slash}SDIO_CLK*
X121000000Y-82875000D03*
G04 #@! TO.P,J33,61,SPI_SDI*
G04 #@! TO.N,SPI_SDI*
X120750000Y-90425000D03*
G04 #@! TO.P,J33,62,SPI_SDO1/SDIO_CMD*
G04 #@! TO.N,SPI_SDIO1{slash}SDIO_CMD*
X120500000Y-82875000D03*
G04 #@! TO.P,J33,63,G10/ADC_D+/CAM_VSYNC*
G04 #@! TO.N,G20{slash}ADC_D{slash}CAM_VSYNC*
X120250000Y-90425000D03*
G04 #@! TO.P,J33,64,SPI_SDI1/SDIO_DATA0*
G04 #@! TO.N,SPI_SDIO1{slash}SDIO_DATA0*
X120000000Y-82875000D03*
G04 #@! TO.P,J33,65,G9/ADC_D-/CAM_HSYNC*
G04 #@! TO.N,G9{slash}ADC_D{slash}CAM_HSYNC*
X119750000Y-90425000D03*
G04 #@! TO.P,J33,66,SDIO_DATA1*
G04 #@! TO.N,SDIO_DATA1*
X119500000Y-82875000D03*
G04 #@! TO.P,J33,67,G8*
G04 #@! TO.N,GPIO_INTERNAL_8*
X119250000Y-90425000D03*
G04 #@! TO.P,J33,68,SDIO_DATA2*
G04 #@! TO.N,SDIO_DATA2*
X119000000Y-82875000D03*
G04 #@! TO.P,J33,69,G7/BUS7*
G04 #@! TO.N,GPIO_INTERNAL_7*
X118750000Y-90425000D03*
G04 #@! TO.P,J33,70,SPI_~{CS1}/SDIO_DATA3*
G04 #@! TO.N,SPI_~{CS1}{slash}SDIO_DATA3*
X118500000Y-82875000D03*
G04 #@! TO.P,J33,71,G6/BUS6*
G04 #@! TO.N,GPIO_INTERNAL_6*
X118250000Y-90425000D03*
G04 #@! TO.P,J33,72,RTC_3V*
G04 #@! TO.N,RTC_3v*
X118000000Y-82875000D03*
G04 #@! TO.P,J33,73,G5/BUS5*
G04 #@! TO.N,GPIO_INTERNAL_5*
X117750000Y-90425000D03*
G04 #@! TO.P,J33,74,3.3V*
G04 #@! TO.N,+3.3V*
X117500000Y-82875000D03*
G04 #@! TO.P,J33,75,GND*
G04 #@! TO.N,GND*
X117250000Y-90425000D03*
D48*
G04 #@! TO.P,J33,A1*
G04 #@! TO.N,N/C*
X136850000Y-89650000D03*
G04 #@! TO.P,J33,A2*
X116150000Y-89650000D03*
G04 #@! TD*
D15*
G04 #@! TO.P,J27,1,Pin_1*
G04 #@! TO.N,+12V*
X52300000Y-140170000D03*
D16*
G04 #@! TO.P,J27,2,Pin_2*
X52300000Y-142710000D03*
G04 #@! TO.P,J27,3,Pin_3*
X52300000Y-145250000D03*
G04 #@! TO.P,J27,4,Pin_4*
X52300000Y-147790000D03*
G04 #@! TO.P,J27,5,Pin_5*
X52300000Y-150330000D03*
G04 #@! TD*
D12*
G04 #@! TO.P,R26,1*
G04 #@! TO.N,ERR_STR*
X155175000Y-58400000D03*
G04 #@! TO.P,R26,2*
G04 #@! TO.N,Net-(D4-A)*
X152250000Y-58400000D03*
G04 #@! TD*
D21*
G04 #@! TO.P,R3,1*
G04 #@! TO.N,Net-(R3-Pad1)*
X169800000Y-152325000D03*
G04 #@! TO.P,R3,2*
G04 #@! TO.N,+5V*
X169800000Y-155250000D03*
G04 #@! TD*
D49*
G04 #@! TO.P,J18,1,Pin_1*
G04 #@! TO.N,+12V*
X96900000Y-50300000D03*
D50*
G04 #@! TO.P,J18,2,Pin_2*
G04 #@! TO.N,GND*
X101900000Y-50300000D03*
G04 #@! TD*
D51*
G04 #@! TO.P,U1,1,VOUT*
G04 #@! TO.N,DAC_THR*
X173587500Y-144700000D03*
G04 #@! TO.P,U1,2,VA*
G04 #@! TO.N,dac_v+*
X173587500Y-143750000D03*
G04 #@! TO.P,U1,3,GND*
G04 #@! TO.N,GND*
X173587500Y-142800000D03*
G04 #@! TO.P,U1,4,SDA*
G04 #@! TO.N,SDA_1_H*
X171312500Y-142800000D03*
G04 #@! TO.P,U1,5,SCL*
G04 #@! TO.N,SCL_1_H*
X171312500Y-143750000D03*
G04 #@! TO.P,U1,6,ADR0*
G04 #@! TO.N,/DAC_ADR0*
X171312500Y-144700000D03*
G04 #@! TD*
D12*
G04 #@! TO.P,R11,1*
G04 #@! TO.N,SCL_1_L*
X126862500Y-115750000D03*
G04 #@! TO.P,R11,2*
G04 #@! TO.N,+3.3V*
X123937500Y-115750000D03*
G04 #@! TD*
G04 #@! TO.P,R12,1*
G04 #@! TO.N,SDA _1_L*
X126842500Y-118060000D03*
G04 #@! TO.P,R12,2*
G04 #@! TO.N,+3.3V*
X123917500Y-118060000D03*
G04 #@! TD*
D20*
G04 #@! TO.P,D4,1,K*
G04 #@! TO.N,GND*
X154737500Y-56000000D03*
G04 #@! TO.P,D4,2,A*
G04 #@! TO.N,Net-(D4-A)*
X152862500Y-56000000D03*
G04 #@! TD*
D12*
G04 #@! TO.P,R25,1*
G04 #@! TO.N,5v_reg_STR*
X155325000Y-69000000D03*
G04 #@! TO.P,R25,2*
G04 #@! TO.N,Net-(D2-A)*
X152400000Y-69000000D03*
G04 #@! TD*
D15*
G04 #@! TO.P,J28,1,Pin_1*
G04 #@! TO.N,+3.3V*
X56900000Y-140170000D03*
D16*
G04 #@! TO.P,J28,2,Pin_2*
X56900000Y-142710000D03*
G04 #@! TO.P,J28,3,Pin_3*
X56900000Y-145250000D03*
G04 #@! TO.P,J28,4,Pin_4*
X56900000Y-147790000D03*
G04 #@! TO.P,J28,5,Pin_5*
X56900000Y-150330000D03*
G04 #@! TD*
D49*
G04 #@! TO.P,J16,1,Pin_1*
G04 #@! TO.N,+5V*
X73650000Y-50300000D03*
D50*
G04 #@! TO.P,J16,2,Pin_2*
G04 #@! TO.N,GND*
X78650000Y-50300000D03*
G04 #@! TD*
D49*
G04 #@! TO.P,J17,1,Pin_1*
G04 #@! TO.N,+3.3V*
X85150000Y-50300000D03*
D50*
G04 #@! TO.P,J17,2,Pin_2*
G04 #@! TO.N,GND*
X90150000Y-50300000D03*
G04 #@! TD*
D23*
G04 #@! TO.P,C6,1*
G04 #@! TO.N,GND*
X143425000Y-123650000D03*
G04 #@! TO.P,C6,2*
G04 #@! TO.N,/connectors/XTAL_1*
X143425000Y-120700000D03*
G04 #@! TD*
D15*
G04 #@! TO.P,J29,1,Pin_1*
G04 #@! TO.N,+5V*
X61500000Y-140170000D03*
D16*
G04 #@! TO.P,J29,2,Pin_2*
X61500000Y-142710000D03*
G04 #@! TO.P,J29,3,Pin_3*
X61500000Y-145250000D03*
G04 #@! TO.P,J29,4,Pin_4*
X61500000Y-147790000D03*
G04 #@! TO.P,J29,5,Pin_5*
X61500000Y-150330000D03*
G04 #@! TD*
D15*
G04 #@! TO.P,J15,1,Pin_1*
G04 #@! TO.N,Brk_hi*
X202825000Y-148825000D03*
D16*
G04 #@! TO.P,J15,2,Pin_2*
G04 #@! TO.N,Brk_low*
X202825000Y-151365000D03*
G04 #@! TO.P,J15,3,Pin_3*
G04 #@! TO.N,Fw{slash}Rv*
X202825000Y-153905000D03*
G04 #@! TD*
D27*
G04 #@! TO.P,J1,1,VTref*
G04 #@! TO.N,+3.3V*
X141880000Y-72050000D03*
D28*
G04 #@! TO.P,J1,2,SWDIO/TMS*
G04 #@! TO.N,SWDIO{slash}TMS*
X141880000Y-70780000D03*
G04 #@! TO.P,J1,3,GND*
G04 #@! TO.N,GND*
X143150000Y-72050000D03*
G04 #@! TO.P,J1,4,SWCLK/TCK*
G04 #@! TO.N,SWCLK{slash}TCK*
X143150000Y-70780000D03*
G04 #@! TO.P,J1,5,GND*
G04 #@! TO.N,GND*
X144420000Y-72050000D03*
G04 #@! TO.P,J1,6,SWO/TDO*
G04 #@! TO.N,SW0{slash}TD0*
X144420000Y-70780000D03*
G04 #@! TO.P,J1,7,KEY*
G04 #@! TO.N,unconnected-(J1-KEY-Pad7)*
X145690000Y-72050000D03*
G04 #@! TO.P,J1,8,NC/TDI*
G04 #@! TO.N,NC{slash}TDI*
X145690000Y-70780000D03*
G04 #@! TO.P,J1,9,GNDDetect*
G04 #@! TO.N,GND*
X146960000Y-72050000D03*
G04 #@! TO.P,J1,10,~{RESET}*
G04 #@! TO.N,~{RESET_uMOD}*
X146960000Y-70780000D03*
G04 #@! TD*
D15*
G04 #@! TO.P,J23,1,Pin_1*
G04 #@! TO.N,+5V*
X61700000Y-46360000D03*
D16*
G04 #@! TO.P,J23,2,Pin_2*
X61700000Y-48900000D03*
G04 #@! TO.P,J23,3,Pin_3*
X61700000Y-51440000D03*
G04 #@! TO.P,J23,4,Pin_4*
X61700000Y-53980000D03*
G04 #@! TO.P,J23,5,Pin_5*
X61700000Y-56520000D03*
G04 #@! TD*
D15*
G04 #@! TO.P,J30,1,Pin_1*
G04 #@! TO.N,GND*
X66100000Y-140170000D03*
D16*
G04 #@! TO.P,J30,2,Pin_2*
X66100000Y-142710000D03*
G04 #@! TO.P,J30,3,Pin_3*
X66100000Y-145250000D03*
G04 #@! TO.P,J30,4,Pin_4*
X66100000Y-147790000D03*
G04 #@! TO.P,J30,5,Pin_5*
X66100000Y-150330000D03*
G04 #@! TD*
D31*
G04 #@! TO.P,POT2,1,CCW*
G04 #@! TO.N,Net-(JP4-A)*
X175440000Y-131710000D03*
G04 #@! TO.P,POT2,2,Wiper*
G04 #@! TO.N,GND*
X172900000Y-134250000D03*
G04 #@! TO.P,POT2,3,CW*
G04 #@! TO.N,unconnected-(POT2-CW-Pad3)*
X170360000Y-131710000D03*
G04 #@! TD*
D52*
G04 #@! TO.P,D3,1,K*
G04 #@! TO.N,/THR_STAT_A*
X196512500Y-145975000D03*
G04 #@! TO.P,D3,2,A*
G04 #@! TO.N,/THR_STAT_K*
X198387500Y-145975000D03*
G04 #@! TD*
D15*
G04 #@! TO.P,J9,1,Pin_1*
G04 #@! TO.N,ERR_STR*
X162050000Y-50810000D03*
D16*
G04 #@! TO.P,J9,2,Pin_2*
G04 #@! TO.N,~{RST_STR}*
X162050000Y-53350000D03*
G04 #@! TO.P,J9,3,Pin_3*
G04 #@! TO.N,SCL_HIGH_5v*
X162050000Y-55890000D03*
G04 #@! TO.P,J9,4,Pin_4*
G04 #@! TO.N,SDA_HIGH_5v*
X162050000Y-58430000D03*
G04 #@! TO.P,J9,5,Pin_5*
G04 #@! TO.N,GND*
X162050000Y-60970000D03*
G04 #@! TO.P,J9,6,Pin_6*
G04 #@! TO.N,TX_STR_5v*
X162050000Y-63510000D03*
G04 #@! TO.P,J9,7,Pin_7*
G04 #@! TO.N,RX_DRV_5v*
X162050000Y-66050000D03*
G04 #@! TO.P,J9,8,Pin_8*
G04 #@! TO.N,RC_HIGH_5v*
X162050000Y-68590000D03*
G04 #@! TO.P,J9,9,Pin_9*
G04 #@! TO.N,5v_reg_STR*
X162050000Y-71130000D03*
G04 #@! TO.P,J9,10,Pin_10*
G04 #@! TO.N,GND*
X162050000Y-73670000D03*
G04 #@! TD*
D32*
G04 #@! TO.P,C8,1*
G04 #@! TO.N,GND*
X113900000Y-129375000D03*
G04 #@! TO.P,C8,2*
G04 #@! TO.N,+5V*
X116850000Y-129375000D03*
G04 #@! TD*
D13*
G04 #@! TO.P,R21,1*
G04 #@! TO.N,/THR_STAT_SW*
X195987500Y-143625000D03*
G04 #@! TO.P,R21,2*
G04 #@! TO.N,/THR_STAT_K*
X198912500Y-143625000D03*
G04 #@! TD*
G04 #@! TO.P,R4,1*
G04 #@! TO.N,Net-(JP4-B)*
X178437500Y-128500000D03*
G04 #@! TO.P,R4,2*
G04 #@! TO.N,Net-(JP3-B)*
X181362500Y-128500000D03*
G04 #@! TD*
D52*
G04 #@! TO.P,D6,1,K*
G04 #@! TO.N,GND*
X161312500Y-94650000D03*
G04 #@! TO.P,D6,2,A*
G04 #@! TO.N,Net-(D6-A)*
X163187500Y-94650000D03*
G04 #@! TD*
D18*
G04 #@! TO.P,C1,1*
G04 #@! TO.N,GND*
X175725000Y-140800000D03*
G04 #@! TO.P,C1,2*
G04 #@! TO.N,dac_v+*
X175725000Y-143750000D03*
G04 #@! TD*
D53*
G04 #@! TO.P,U3,1*
G04 #@! TO.N,TX_BRK_5v*
X152050000Y-87200000D03*
G04 #@! TO.P,U3,2*
G04 #@! TO.N,TX_STR_5v*
X152050000Y-86250000D03*
G04 #@! TO.P,U3,3,GND*
G04 #@! TO.N,GND*
X152050000Y-85300000D03*
G04 #@! TO.P,U3,4*
G04 #@! TO.N,TX_DRV_5v*
X149350000Y-85300000D03*
G04 #@! TO.P,U3,5,VCC*
G04 #@! TO.N,+5V*
X149350000Y-87200000D03*
G04 #@! TD*
D15*
G04 #@! TO.P,J32,1,Pin_1*
G04 #@! TO.N,+3.3V*
X109000000Y-48640000D03*
D16*
G04 #@! TO.P,J32,2,Pin_2*
G04 #@! TO.N,~{RESET_uMOD}*
X109000000Y-46100000D03*
G04 #@! TO.P,J32,3,Pin_3*
G04 #@! TO.N,~{BOOT_uMOD}*
X111540000Y-48640000D03*
G04 #@! TO.P,J32,4,Pin_4*
G04 #@! TO.N,3.3v_en*
X111540000Y-46100000D03*
G04 #@! TO.P,J32,5,Pin_5*
G04 #@! TO.N,RTC_3v*
X114080000Y-48640000D03*
G04 #@! TO.P,J32,6,Pin_6*
G04 #@! TO.N,unconnected-(J32-Pin_6-Pad6)*
X114080000Y-46100000D03*
G04 #@! TO.P,J32,7,Pin_7*
G04 #@! TO.N,unconnected-(J32-Pin_7-Pad7)*
X116620000Y-48640000D03*
G04 #@! TO.P,J32,8,Pin_8*
G04 #@! TO.N,unconnected-(J32-Pin_8-Pad8)*
X116620000Y-46100000D03*
G04 #@! TO.P,J32,9,Pin_9*
G04 #@! TO.N,USBHOST_D-*
X119160000Y-48640000D03*
G04 #@! TO.P,J32,10,Pin_10*
G04 #@! TO.N,USBHOST_D+*
X119160000Y-46100000D03*
G04 #@! TO.P,J32,11,Pin_11*
G04 #@! TO.N,CAN_TXD*
X121700000Y-48640000D03*
G04 #@! TO.P,J32,12,Pin_12*
G04 #@! TO.N,CAN_RXD*
X121700000Y-46100000D03*
G04 #@! TO.P,J32,13,Pin_13*
G04 #@! TO.N,SWDIO{slash}TMS*
X124240000Y-48640000D03*
G04 #@! TO.P,J32,14,Pin_14*
G04 #@! TO.N,SWCLK{slash}TCK*
X124240000Y-46100000D03*
G04 #@! TO.P,J32,15,Pin_15*
G04 #@! TO.N,AUD_MCLK*
X126780000Y-48640000D03*
G04 #@! TO.P,J32,16,Pin_16*
G04 #@! TO.N,AUD_OUT{slash}CAM_MCLK*
X126780000Y-46100000D03*
G04 #@! TO.P,J32,17,Pin_17*
G04 #@! TO.N,AUD_IN{slash}CAM_PCLK*
X129320000Y-48640000D03*
G04 #@! TO.P,J32,18,Pin_18*
G04 #@! TO.N,AUD_LRCLK*
X129320000Y-46100000D03*
G04 #@! TO.P,J32,19,Pin_19*
G04 #@! TO.N,AUD_BCLK*
X131860000Y-48640000D03*
G04 #@! TO.P,J32,20,Pin_20*
G04 #@! TO.N,SCL_1_L*
X131860000Y-46100000D03*
G04 #@! TO.P,J32,21,Pin_21*
G04 #@! TO.N,SDA _1_L*
X134400000Y-48640000D03*
G04 #@! TO.P,J32,22,Pin_22*
G04 #@! TO.N,i2c_INT_L*
X134400000Y-46100000D03*
G04 #@! TO.P,J32,23,Pin_23*
G04 #@! TO.N,GPIO_INTERNAL_7*
X136940000Y-48640000D03*
G04 #@! TO.P,J32,24,Pin_24*
G04 #@! TO.N,GPIO_INTERNAL_8*
X136940000Y-46100000D03*
G04 #@! TO.P,J32,25,Pin_25*
G04 #@! TO.N,G9{slash}ADC_D{slash}CAM_HSYNC*
X139480000Y-48640000D03*
G04 #@! TO.P,J32,26,Pin_26*
G04 #@! TO.N,G20{slash}ADC_D{slash}CAM_VSYNC*
X139480000Y-46100000D03*
G04 #@! TO.P,J32,27,Pin_27*
G04 #@! TO.N,G11*
X142020000Y-48640000D03*
G04 #@! TO.P,J32,28,Pin_28*
G04 #@! TO.N,BATT_VIN{slash}3*
X142020000Y-46100000D03*
G04 #@! TO.P,J32,29,Pin_29*
G04 #@! TO.N,I2C_SDA1*
X144560000Y-48640000D03*
G04 #@! TO.P,J32,30,Pin_30*
G04 #@! TO.N,I2C_SCL1*
X144560000Y-46100000D03*
G04 #@! TD*
D15*
G04 #@! TO.P,J8,1,Pin_1*
G04 #@! TO.N,THR+*
X202550000Y-138010000D03*
D16*
G04 #@! TO.P,J8,2,Pin_2*
G04 #@! TO.N,DAC_THR*
X202550000Y-140550000D03*
G04 #@! TO.P,J8,3,Pin_3*
G04 #@! TO.N,THR-*
X202550000Y-143090000D03*
G04 #@! TD*
D15*
G04 #@! TO.P,J11,1,+12V*
G04 #@! TO.N,tach_fbk_LOW*
X176790000Y-112250000D03*
D16*
G04 #@! TO.P,J11,2,+12V*
G04 #@! TO.N,afbk_LOW*
X174250000Y-112250000D03*
G04 #@! TO.P,J11,3,GND*
G04 #@! TO.N,5v_reg_LOW*
X176790000Y-114790000D03*
G04 #@! TO.P,J11,4,GND*
G04 #@! TO.N,5v_aux_LOW*
X174250000Y-114790000D03*
G04 #@! TO.P,J11,5,GND*
G04 #@! TO.N,GND*
X176790000Y-117330000D03*
G04 #@! TO.P,J11,6,GND*
X174250000Y-117330000D03*
G04 #@! TD*
D54*
G04 #@! TO.N,SDA _1_L*
X126720000Y-131750000D03*
G04 #@! TO.N,SCL_1_L*
X127430000Y-131000000D03*
G04 #@! TO.N,SCL_1_H*
X116800000Y-134070000D03*
G04 #@! TO.N,SDA_1_H*
X116800000Y-132800000D03*
G04 #@! TO.N,A0*
X185462500Y-140500000D03*
G04 #@! TO.N,GND*
X137170000Y-101840000D03*
X178075000Y-139450000D03*
X127030000Y-138050000D03*
X148675000Y-90200000D03*
X145750000Y-121700000D03*
X178550000Y-134400000D03*
X126550000Y-103100000D03*
X169950000Y-46850000D03*
X143425000Y-114875000D03*
X126798438Y-92796000D03*
X179250000Y-46750000D03*
X159030000Y-94640000D03*
X173625000Y-141875000D03*
X126650000Y-85050000D03*
X105760000Y-145510000D03*
X134800000Y-129100000D03*
X156800000Y-71500000D03*
X155300000Y-55900000D03*
X123750000Y-92050000D03*
X135749998Y-89050000D03*
X137985000Y-96115000D03*
X117150000Y-103100000D03*
X143450000Y-124900000D03*
X153475000Y-85325000D03*
X82990000Y-138020000D03*
X113875000Y-127750000D03*
X76600000Y-153710000D03*
X117700000Y-88825000D03*
X175700000Y-139450000D03*
X160650000Y-115650000D03*
X172950000Y-154650000D03*
X163475000Y-104800000D03*
X114350000Y-115675000D03*
X78110000Y-138060000D03*
G04 #@! TO.N,+3.3V*
X132475000Y-138050000D03*
X123875000Y-120075000D03*
X144600000Y-75550000D03*
X136500000Y-82600000D03*
X117450000Y-81000000D03*
X102850000Y-79450000D03*
X135325000Y-97400000D03*
X74270000Y-143730000D03*
X160700000Y-121200000D03*
X160650000Y-110300000D03*
X129000000Y-130375000D03*
X98250000Y-61250000D03*
G04 #@! TO.N,+5V*
X116800000Y-127550000D03*
X90100000Y-147850000D03*
X99175000Y-138425000D03*
X145425000Y-87175000D03*
X169850000Y-155250000D03*
X133694511Y-92200000D03*
X69050000Y-117250000D03*
X120325000Y-135950000D03*
X179850000Y-124050000D03*
X130450000Y-127550000D03*
X120270000Y-128470000D03*
G04 #@! TO.N,SWCLK{slash}TCK*
X134550000Y-76300000D03*
X134550000Y-77500000D03*
X138392438Y-61200000D03*
G04 #@! TO.N,SWDIO{slash}TMS*
X138525000Y-65425000D03*
G04 #@! TO.N,Net-(J3-CC2)*
X79825735Y-153200000D03*
X81400000Y-148280000D03*
G04 #@! TO.N,USB-D-*
X79000000Y-146650000D03*
X79028782Y-153130253D03*
G04 #@! TO.N,i2c_INT_L*
X140485049Y-88535049D03*
X128780000Y-125770000D03*
X130301209Y-124244645D03*
X140485049Y-85550000D03*
X137792438Y-59292438D03*
X140049265Y-91799265D03*
G04 #@! TO.N,GPIO_INTERNAL_5*
X133050000Y-50900000D03*
X115638235Y-93461765D03*
X106123000Y-51558586D03*
X136200000Y-50851470D03*
X118750000Y-51550000D03*
X117200000Y-101250000D03*
X111400000Y-80800000D03*
G04 #@! TO.N,SCL_1_L*
X130440834Y-86139363D03*
X128475000Y-96625000D03*
X132407438Y-57057438D03*
X129730735Y-92120735D03*
X132950000Y-81050000D03*
X128913834Y-86113215D03*
G04 #@! TO.N,GPIO_INTERNAL_3*
X107750000Y-106125000D03*
X98670000Y-156300000D03*
X107724265Y-111950000D03*
X124700000Y-74200000D03*
X130999264Y-76149265D03*
X124450000Y-78642484D03*
X101110000Y-156750000D03*
X126750000Y-72400000D03*
G04 #@! TO.N,GPIO_INTERNAL_6*
X116288235Y-94111765D03*
X118150000Y-101150000D03*
G04 #@! TO.N,SDA _1_L*
X130000000Y-123050000D03*
X133086657Y-84118329D03*
X133734999Y-87635000D03*
X132899265Y-72000000D03*
X131374265Y-97124265D03*
X126840000Y-123550000D03*
G04 #@! TO.N,CAN_MISO*
X155150000Y-115375000D03*
X60662500Y-92112500D03*
G04 #@! TO.N,GPIO_INTERNAL_4*
X119900000Y-74600000D03*
X106900000Y-107075000D03*
X119836880Y-75800000D03*
X106899265Y-112825000D03*
X132700000Y-61450000D03*
X121669530Y-65650000D03*
X120000000Y-72857500D03*
G04 #@! TO.N,GPIO_EXT_2*
X147340000Y-150990000D03*
X109175000Y-141675000D03*
G04 #@! TO.N,GPIO_EXT_4*
X109160000Y-144230000D03*
X144900000Y-151180000D03*
G04 #@! TO.N,GPIO_EXT_1*
X109160000Y-140410000D03*
X148650000Y-151000000D03*
G04 #@! TO.N,GPIO_EXT_3*
X146150000Y-150980000D03*
X109180000Y-142930000D03*
G04 #@! TO.N,GPIO_EXT_5*
X143620000Y-151150000D03*
X118390000Y-145480000D03*
G04 #@! TO.N,GPIO_EXT_0*
X131190000Y-139780000D03*
X142320000Y-151230000D03*
X132020000Y-146830000D03*
X109130000Y-139190000D03*
G04 #@! TO.N,SCL_1_H*
X122540000Y-130240000D03*
X132990000Y-132540000D03*
X132980315Y-136172526D03*
G04 #@! TO.N,SDA_1_H*
X121925000Y-129300000D03*
X133760000Y-133450000D03*
X133780000Y-136150000D03*
G04 #@! TO.N,Brk_low*
X187012500Y-150687500D03*
G04 #@! TO.N,Brk_hi*
X114200000Y-136950000D03*
X109075000Y-136650000D03*
G04 #@! TO.N,CAN_CS*
X155125000Y-114100000D03*
G04 #@! TO.N,uMod_TX1*
X102527000Y-60700000D03*
X103050000Y-109770000D03*
X103000000Y-108570000D03*
G04 #@! TO.N,uMod_RX1*
X61150000Y-109170000D03*
X109012562Y-58437438D03*
X119550000Y-63100000D03*
X114450000Y-63550000D03*
X103783235Y-62416765D03*
G04 #@! TO.N,CAN_MOSI*
X155125000Y-116675000D03*
X61200000Y-93650000D03*
G04 #@! TO.N,CAN_SCK*
X155175000Y-117900000D03*
G04 #@! TO.N,CAN_TXD*
X125760713Y-88075161D03*
X125400000Y-92100000D03*
X128697819Y-67898623D03*
X151850000Y-103800000D03*
G04 #@! TO.N,TX_DRV_L*
X130717076Y-124928062D03*
X126230000Y-126790000D03*
X140013669Y-92683391D03*
X126250000Y-74300000D03*
X132732108Y-79682108D03*
X141426471Y-87550000D03*
G04 #@! TO.N,ERR_L*
X121723530Y-76775000D03*
X131037552Y-74949265D03*
X129900000Y-74050000D03*
X124500000Y-97550000D03*
X125325000Y-147275000D03*
G04 #@! TO.N,RX_DRV_L*
X124504530Y-70427000D03*
X131400000Y-125600000D03*
X142040000Y-86800000D03*
X139998412Y-93483248D03*
X133405046Y-79050000D03*
X125510000Y-127880000D03*
G04 #@! TO.N,~{RESET_uMOD}*
X146850000Y-49950000D03*
X122300000Y-95773000D03*
X124490000Y-95400000D03*
G04 #@! TO.N,~{BOOT_uMOD}*
X128539328Y-86820145D03*
X122350000Y-103100000D03*
X129000000Y-91400000D03*
X132650000Y-92200000D03*
X132650000Y-99600000D03*
X122600000Y-85800000D03*
X105781011Y-46731011D03*
X132400000Y-106100000D03*
G04 #@! TO.N,CAN_RXD*
X146950000Y-103275000D03*
X117350000Y-58000000D03*
X129374265Y-68325735D03*
X126198438Y-92150001D03*
X126358124Y-88675161D03*
G04 #@! TO.N,~{RST_STR}*
X148000000Y-92350000D03*
X123400000Y-110500000D03*
X132400000Y-109700000D03*
X139100000Y-102000000D03*
G04 #@! TO.N,TX_STR_5v*
X158300000Y-80550000D03*
G04 #@! TO.N,RX_DRV_5v*
X166050000Y-105325000D03*
G04 #@! TO.N,TX_BRK_5v*
X161850000Y-87200000D03*
G04 #@! TO.N,~{RST_BRK}*
X148750000Y-57225000D03*
X133450000Y-99400000D03*
X147450000Y-79300000D03*
X121625000Y-108850000D03*
X146400000Y-82550000D03*
X132625000Y-107200000D03*
G04 #@! TO.N,5v_reg_BRK*
X165050000Y-108850000D03*
G04 #@! TO.N,ERR_BRK*
X165350000Y-88075000D03*
X139725000Y-131575000D03*
X135500000Y-132090000D03*
G04 #@! TO.N,~{E-STOP}*
X119800000Y-155050000D03*
X126710000Y-133650000D03*
X127360000Y-146080000D03*
X108675000Y-105400000D03*
X126430000Y-136350000D03*
X108675000Y-111075000D03*
G04 #@! TO.N,~{E-STOP-TRIG}*
X125175000Y-148075000D03*
X121550000Y-74050000D03*
X136642306Y-70043776D03*
X122323530Y-77375000D03*
X123893973Y-96143972D03*
X127800000Y-154450000D03*
X132650000Y-69150000D03*
G04 #@! TO.N,/DAC_ADR0*
X172275000Y-150400000D03*
X171900000Y-147800000D03*
G04 #@! TO.N,A0*
X126150000Y-71050000D03*
X166700000Y-93125000D03*
X163200000Y-135475000D03*
X136404000Y-78650000D03*
X147450000Y-78400000D03*
X129799264Y-77325739D03*
X115200000Y-60050000D03*
G04 #@! TO.N,G9{slash}ADC_D{slash}CAM_HSYNC*
X115200000Y-94748052D03*
G04 #@! TO.N,AUD_OUT{slash}CAM_MCLK*
X120379754Y-77270246D03*
G04 #@! TO.N,USBHOST_D-*
X127200000Y-89050000D03*
X116700000Y-58800000D03*
X130773529Y-68876470D03*
G04 #@! TO.N,AUD_LRCLK*
X123100000Y-81300000D03*
G04 #@! TO.N,I2C_SCL1*
X112800000Y-98550000D03*
G04 #@! TO.N,AUD_BCLK*
X123577530Y-79550000D03*
G04 #@! TO.N,AUD_IN{slash}CAM_PCLK*
X122600000Y-80419051D03*
G04 #@! TO.N,AUD_MCLK*
X119330489Y-77069511D03*
G04 #@! TO.N,G20{slash}ADC_D{slash}CAM_VSYNC*
X115600000Y-95650000D03*
X107946000Y-64261713D03*
G04 #@! TO.N,BATT_VIN{slash}3*
X103500000Y-52000000D03*
X145250000Y-43950000D03*
X113000000Y-84300000D03*
X121300000Y-88635000D03*
G04 #@! TO.N,3.3v_en*
X115924265Y-80900000D03*
X134195668Y-84717304D03*
G04 #@! TO.N,G11*
X134550000Y-80650000D03*
G04 #@! TO.N,I2C_SDA1*
X112200000Y-99300000D03*
G04 #@! TO.N,SPI_SDIO1{slash}SDIO_DATA0*
X112249265Y-73650735D03*
G04 #@! TO.N,D0*
X133642822Y-80650000D03*
X126544192Y-61305580D03*
G04 #@! TO.N,A1*
X124177530Y-61372239D03*
X126624265Y-80074265D03*
G04 #@! TO.N,SPI_~{CS1}{slash}SDIO_DATA3*
X114474265Y-75875735D03*
G04 #@! TO.N,TX2*
X127550000Y-75650000D03*
X130413279Y-81478530D03*
X134900000Y-58650000D03*
G04 #@! TO.N,D1{slash}CAM_TRIG*
X133659265Y-78209265D03*
X125800000Y-59950000D03*
G04 #@! TO.N,RTS1*
X138900003Y-83450000D03*
X129460000Y-58677000D03*
G04 #@! TO.N,SPI_SDI*
X114625000Y-96673530D03*
G04 #@! TO.N,PWM0*
X132237552Y-74448530D03*
X125000000Y-60700000D03*
G04 #@! TO.N,SPI_SCK*
X109755126Y-51900000D03*
X114043561Y-97272706D03*
G04 #@! TO.N,SDIO_DATA2*
X113674265Y-75075735D03*
G04 #@! TO.N,CTS1*
X138100000Y-83450000D03*
X132349265Y-58499265D03*
G04 #@! TO.N,SPI_SDIO1{slash}SDIO_CMD*
X112743000Y-72819935D03*
G04 #@! TO.N,SPI_~{CS}*
X119850000Y-51450000D03*
X113449265Y-97872706D03*
G04 #@! TO.N,RX2*
X117600000Y-71050000D03*
X120473000Y-62050000D03*
X128850000Y-59400000D03*
X130990000Y-80878530D03*
X128150000Y-76200000D03*
G04 #@! TO.N,PWM1*
X112525735Y-77874265D03*
X123833528Y-88635000D03*
X119500000Y-58650000D03*
X114900000Y-81800000D03*
G04 #@! TO.N,SDIO_DATA1*
X113673530Y-74226470D03*
G04 #@! TO.N,SPI_SDO*
X116595112Y-96426948D03*
X111250000Y-58600000D03*
G04 #@! TO.N,USBHOST_D+*
X115700000Y-59250000D03*
X127550000Y-92150000D03*
X131768598Y-69120069D03*
G04 #@! TD*
D55*
G04 #@! TO.N,~{RESET_uMOD}*
X122300000Y-95773000D02*
X122300000Y-96337552D01*
X122300000Y-96337552D02*
X118741552Y-99896000D01*
X118741552Y-99896000D02*
X116104000Y-99896000D01*
X110227000Y-105773000D02*
X110227000Y-106310448D01*
X116104000Y-99896000D02*
X110227000Y-105773000D01*
X106137448Y-110400000D02*
X104450000Y-110400000D01*
X110227000Y-106310448D02*
X106137448Y-110400000D01*
X104450000Y-110400000D02*
X75487500Y-139362500D01*
X75487500Y-139362500D02*
X74225000Y-139362500D01*
G04 #@! TO.N,DAC_THR*
X185512500Y-143100000D02*
X185512500Y-142182500D01*
X185512500Y-142182500D02*
X190555000Y-137140000D01*
X190555000Y-137140000D02*
X195590000Y-137140000D01*
X195590000Y-137140000D02*
X199000000Y-140550000D01*
X199000000Y-140550000D02*
X202550000Y-140550000D01*
G04 #@! TO.N,Net-(R16-Pad2)*
X182587500Y-143100000D02*
X182587500Y-140550000D01*
X182587500Y-140550000D02*
X182537500Y-140500000D01*
G04 #@! TO.N,DAC_THR*
X173587500Y-144700000D02*
X183912500Y-144700000D01*
X183912500Y-144700000D02*
X185512500Y-143100000D01*
G04 #@! TO.N,GND*
X134600000Y-89050000D02*
X134300000Y-89350000D01*
X155300000Y-55900000D02*
X154837500Y-55900000D01*
X128150000Y-90725000D02*
X127800000Y-90375000D01*
X119450000Y-113950000D02*
X116910000Y-113950000D01*
X134300000Y-89350000D02*
X134300000Y-90375000D01*
X124150000Y-92050000D02*
X123750000Y-92050000D01*
X178487500Y-134550000D02*
X178487500Y-134462500D01*
X127050000Y-84650000D02*
X127050000Y-82825000D01*
X76100000Y-153210000D02*
X76100000Y-152100000D01*
X127752529Y-92796000D02*
X128150000Y-92398529D01*
X114350000Y-115675000D02*
X114350000Y-113970000D01*
X126650000Y-85050000D02*
X127050000Y-84650000D01*
X160452500Y-94640000D02*
X160462500Y-94650000D01*
X126300000Y-91403034D02*
X126300000Y-90375000D01*
X152050000Y-85300000D02*
X153450000Y-85300000D01*
X117300000Y-89225000D02*
X117700000Y-88825000D01*
X82650000Y-151000000D02*
X82150000Y-151000000D01*
X76600000Y-153710000D02*
X77090000Y-154200000D01*
D56*
X143425000Y-116050000D02*
X143425000Y-114875000D01*
D55*
X135749998Y-89050000D02*
X134600000Y-89050000D01*
X82990000Y-138020000D02*
X82990000Y-139327500D01*
X107490000Y-145510000D02*
X107500000Y-145500000D01*
X76100000Y-151640000D02*
X76100000Y-152250000D01*
X163475000Y-104625000D02*
X163300000Y-104450000D01*
X82100000Y-151560000D02*
X82150000Y-151510000D01*
X117300000Y-90375000D02*
X117300000Y-89225000D01*
X128175000Y-138050000D02*
X127030000Y-138050000D01*
X116910000Y-113950000D02*
X114370000Y-113950000D01*
X75550000Y-151000000D02*
X76050000Y-151000000D01*
X128900000Y-138050000D02*
X128175000Y-138050000D01*
X155287500Y-56000000D02*
X155287500Y-55912500D01*
D56*
X160650000Y-114500000D02*
X160650000Y-115650000D01*
X113900000Y-127775000D02*
X113875000Y-127750000D01*
D55*
X82100000Y-152870000D02*
X82100000Y-152250000D01*
X76050000Y-151590000D02*
X76100000Y-151640000D01*
X80770000Y-154200000D02*
X82100000Y-152870000D01*
X173085000Y-154720000D02*
X173020000Y-154720000D01*
X76050000Y-151000000D02*
X76050000Y-151590000D01*
X114350000Y-113970000D02*
X114370000Y-113950000D01*
X178487500Y-134462500D02*
X178550000Y-134400000D01*
X156775000Y-71475000D02*
X154825000Y-71475000D01*
D56*
X113900000Y-129375000D02*
X113900000Y-127775000D01*
X143425000Y-124875000D02*
X143450000Y-124900000D01*
D55*
X124750000Y-90425000D02*
X124750000Y-91450000D01*
D56*
X175725000Y-139475000D02*
X175700000Y-139450000D01*
X143425000Y-123650000D02*
X143425000Y-124875000D01*
D55*
X82100000Y-152250000D02*
X82100000Y-151560000D01*
X163475000Y-104625000D02*
X163475000Y-104800000D01*
X135800000Y-89300000D02*
X135800000Y-90375000D01*
X137130000Y-101800000D02*
X137170000Y-101840000D01*
D56*
X173625000Y-141875000D02*
X173625000Y-142762500D01*
D55*
X156800000Y-71500000D02*
X156775000Y-71475000D01*
X159030000Y-94640000D02*
X160452500Y-94640000D01*
X129400000Y-136100000D02*
X129400000Y-137550000D01*
D56*
X133425000Y-129100000D02*
X134800000Y-129100000D01*
X175725000Y-140800000D02*
X175725000Y-139475000D01*
D55*
X77090000Y-154200000D02*
X80770000Y-154200000D01*
X135749998Y-89249998D02*
X135800000Y-89300000D01*
X135749998Y-89050000D02*
X135749998Y-89249998D01*
X153450000Y-85300000D02*
X153475000Y-85325000D01*
D56*
X147650000Y-121700000D02*
X145750000Y-121700000D01*
D55*
X126798438Y-91901472D02*
X126300000Y-91403034D01*
X148650000Y-90175000D02*
X148675000Y-90200000D01*
X154837500Y-55900000D02*
X154737500Y-56000000D01*
X128150000Y-92398529D02*
X128150000Y-90725000D01*
X160462500Y-94650000D02*
X161312500Y-94650000D01*
X78110000Y-138060000D02*
X78110000Y-139337500D01*
X124750000Y-91450000D02*
X124150000Y-92050000D01*
X137985000Y-96115000D02*
X139725000Y-96115000D01*
X117200000Y-103100000D02*
X117150000Y-103100000D01*
X76600000Y-153710000D02*
X76100000Y-153210000D01*
D56*
X173625000Y-142762500D02*
X173587500Y-142800000D01*
D55*
X105760000Y-145510000D02*
X107490000Y-145510000D01*
X82990000Y-139327500D02*
X83000000Y-139337500D01*
D56*
X178050000Y-140800000D02*
X178050000Y-139475000D01*
D55*
X82150000Y-151510000D02*
X82150000Y-151000000D01*
X126798438Y-92796000D02*
X126798438Y-91901472D01*
X129400000Y-137550000D02*
X128900000Y-138050000D01*
D56*
X178050000Y-139475000D02*
X178075000Y-139450000D01*
D55*
X137130000Y-100385000D02*
X137130000Y-101800000D01*
X147125000Y-90175000D02*
X148650000Y-90175000D01*
X155287500Y-55912500D02*
X155300000Y-55900000D01*
X173020000Y-154720000D02*
X172950000Y-154650000D01*
D56*
X175725000Y-140800000D02*
X178050000Y-140800000D01*
D55*
X126798438Y-92796000D02*
X127752529Y-92796000D01*
G04 #@! TO.N,+3.3V*
X135325000Y-97400000D02*
X135340000Y-97385000D01*
X129900000Y-137600000D02*
X130350000Y-138050000D01*
X74225000Y-143685000D02*
X74270000Y-143730000D01*
X160675000Y-121175000D02*
X160700000Y-121200000D01*
X129400000Y-131500000D02*
X129400000Y-130775000D01*
X160675000Y-120062500D02*
X160675000Y-121175000D01*
X137180000Y-97385000D02*
X137130000Y-97435000D01*
X131125000Y-138050000D02*
X132475000Y-138050000D01*
X129400000Y-130775000D02*
X129000000Y-130375000D01*
X117550000Y-81100000D02*
X117450000Y-81000000D01*
D56*
X160650000Y-111550000D02*
X160650000Y-110300000D01*
D55*
X130350000Y-138050000D02*
X131125000Y-138050000D01*
D56*
X123937500Y-118040000D02*
X123917500Y-118060000D01*
X123937500Y-115750000D02*
X123937500Y-118040000D01*
D55*
X136500000Y-82600000D02*
X136275000Y-82825000D01*
X117550000Y-82825000D02*
X117550000Y-81100000D01*
X135340000Y-97385000D02*
X139725000Y-97385000D01*
X129900000Y-136100000D02*
X129900000Y-137600000D01*
D56*
X156950000Y-111540000D02*
X160640000Y-111540000D01*
X123917500Y-118060000D02*
X123917500Y-120032500D01*
X123917500Y-120032500D02*
X123875000Y-120075000D01*
D55*
X136275000Y-82825000D02*
X135550000Y-82825000D01*
D56*
X160640000Y-111540000D02*
X160650000Y-111550000D01*
D55*
X129000000Y-130375000D02*
X129025000Y-130400000D01*
X74225000Y-142287500D02*
X74225000Y-143685000D01*
G04 #@! TO.N,+5V*
X149350000Y-87200000D02*
X145450000Y-87200000D01*
X68950000Y-117350000D02*
X69050000Y-117250000D01*
X145450000Y-87200000D02*
X145425000Y-87175000D01*
X116830000Y-131500000D02*
X116800000Y-131530000D01*
X67250000Y-117350000D02*
X68950000Y-117350000D01*
X179900000Y-124100000D02*
X179850000Y-124050000D01*
X169800000Y-155250000D02*
X169850000Y-155250000D01*
D56*
X99175000Y-136750000D02*
X99175000Y-138425000D01*
D55*
X120300000Y-129612500D02*
X120300000Y-128500000D01*
X120300000Y-128500000D02*
X120270000Y-128470000D01*
D56*
X99112500Y-136687500D02*
X99175000Y-136750000D01*
D55*
X130450000Y-130375000D02*
X129900000Y-130925000D01*
X149325000Y-87225000D02*
X149350000Y-87200000D01*
X120325000Y-135950000D02*
X120325000Y-137187500D01*
X130450000Y-130375000D02*
X130450000Y-127550000D01*
X133694511Y-92200000D02*
X133800000Y-92094511D01*
D56*
X99112500Y-131300000D02*
X99112500Y-136687500D01*
D55*
X133800000Y-92094511D02*
X133800000Y-90375000D01*
D56*
X116800000Y-131530000D02*
X116800000Y-127550000D01*
D55*
X129900000Y-130925000D02*
X129900000Y-131500000D01*
X179900000Y-125800000D02*
X179900000Y-124100000D01*
G04 #@! TO.N,dac_v+*
X179850000Y-131950000D02*
X179850000Y-143187500D01*
D56*
X173587500Y-143750000D02*
X178050000Y-143750000D01*
D55*
X179287500Y-143750000D02*
X178050000Y-143750000D01*
X179850000Y-143187500D02*
X179287500Y-143750000D01*
G04 #@! TO.N,SWCLK{slash}TCK*
X130800000Y-89134314D02*
X130800000Y-90375000D01*
X130000000Y-85731668D02*
X129840834Y-85890834D01*
X129813279Y-81206721D02*
X129813279Y-81727059D01*
X142490000Y-69310000D02*
X143150000Y-69970000D01*
X129840834Y-88175148D02*
X130800000Y-89134314D01*
X141990000Y-69310000D02*
X142490000Y-69310000D01*
X130000000Y-81913780D02*
X130000000Y-85731668D01*
X143150000Y-69970000D02*
X143150000Y-70780000D01*
X133520000Y-77500000D02*
X129813279Y-81206721D01*
X134550000Y-76300000D02*
X135000000Y-76300000D01*
X129840834Y-85890834D02*
X129840834Y-88175148D01*
X134550000Y-77500000D02*
X133520000Y-77500000D01*
X135000000Y-76300000D02*
X141990000Y-69310000D01*
X129813279Y-81727059D02*
X130000000Y-81913780D01*
G04 #@! TO.N,SWDIO{slash}TMS*
X129650000Y-85619220D02*
X129513834Y-85755386D01*
X129650000Y-82026228D02*
X129650000Y-85619220D01*
X135300000Y-76900000D02*
X133657552Y-76900000D01*
X141880000Y-70780000D02*
X141420000Y-70780000D01*
X141420000Y-70780000D02*
X135300000Y-76900000D01*
X129486279Y-81071273D02*
X129486279Y-81862507D01*
X133657552Y-76900000D02*
X129486279Y-81071273D01*
X129513834Y-85755386D02*
X129513834Y-89588834D01*
X129486279Y-81862507D02*
X129650000Y-82026228D01*
X129513834Y-89588834D02*
X130300000Y-90375000D01*
G04 #@! TO.N,USB-D+*
X87743969Y-130706032D02*
X87743968Y-130706032D01*
X86344658Y-133379667D02*
X86259806Y-133464520D01*
X117000000Y-100550000D02*
X114400000Y-103150000D01*
X88677354Y-129772650D02*
X88592499Y-129857502D01*
X123293973Y-95747498D02*
X123293973Y-96456027D01*
X83501319Y-134948682D02*
X83501318Y-134948682D01*
X82652789Y-135797212D02*
X82498736Y-135951264D01*
X85198378Y-133591034D02*
X85496139Y-133888795D01*
X81000000Y-145600000D02*
X78850000Y-147750000D01*
X85071874Y-134313061D02*
X84774114Y-134015301D01*
X88592499Y-129857502D02*
X88592498Y-129857502D01*
X81000000Y-137450000D02*
X81000000Y-145600000D01*
X134050000Y-93200000D02*
X131902942Y-93200000D01*
X89441028Y-129348384D02*
X89738788Y-129646144D01*
X130652942Y-94450000D02*
X124591471Y-94450000D01*
X86895438Y-131893974D02*
X87193217Y-132191753D01*
X85920394Y-133464521D02*
X85622644Y-133166771D01*
X87193216Y-132531165D02*
X87108364Y-132616018D01*
X114400000Y-104050000D02*
X89441028Y-129008972D01*
X89738787Y-129985556D02*
X89653935Y-130070409D01*
X84349849Y-134100152D02*
X84349848Y-134100152D01*
X82737643Y-135712361D02*
X82652789Y-135797212D01*
X87828824Y-130621180D02*
X87743969Y-130706032D01*
X83586174Y-134863830D02*
X83501319Y-134948682D01*
X135300000Y-90375000D02*
X135300000Y-91950000D01*
X87743968Y-131045444D02*
X88041747Y-131343223D01*
X82498736Y-135951264D02*
X81000000Y-137450000D01*
X86768952Y-132616019D02*
X86471174Y-132318241D01*
X84647627Y-135076756D02*
X84562775Y-135161609D01*
X89314523Y-130070410D02*
X89016764Y-129772651D01*
X84223363Y-135161610D02*
X83925584Y-134863831D01*
X85283234Y-133166770D02*
X85198379Y-133251622D01*
X87617482Y-131767489D02*
X87319704Y-131469711D01*
X83799148Y-135925336D02*
X83714294Y-136010191D01*
X83501318Y-135288094D02*
X83799148Y-135585924D01*
X86046909Y-132403092D02*
X86046908Y-132403092D01*
X88890258Y-130834087D02*
X88805406Y-130918940D01*
X86895439Y-131554562D02*
X86895438Y-131554562D01*
X88465994Y-130918941D02*
X88168234Y-130621181D01*
X135300000Y-91950000D02*
X134050000Y-93200000D01*
X123293973Y-96456027D02*
X119200000Y-100550000D01*
X88041746Y-131682635D02*
X87956894Y-131767488D01*
X85496138Y-134228207D02*
X85411286Y-134313060D01*
X86131764Y-132318240D02*
X86046909Y-132403092D01*
X124591471Y-94450000D02*
X123293973Y-95747498D01*
X83374884Y-136010190D02*
X83077055Y-135712361D01*
X114400000Y-103150000D02*
X114400000Y-104050000D01*
X86980294Y-131469710D02*
X86895439Y-131554562D01*
X88592498Y-130196914D02*
X88890259Y-130494675D01*
X119200000Y-100550000D02*
X117000000Y-100550000D01*
X86046908Y-132742504D02*
X86344659Y-133040255D01*
X85198379Y-133251622D02*
X85198378Y-133251622D01*
X84434704Y-134015300D02*
X84349849Y-134100152D01*
X84349848Y-134439564D02*
X84647628Y-134737344D01*
X78850000Y-147750000D02*
X78850000Y-151000000D01*
X131902942Y-93200000D02*
X130652942Y-94450000D01*
X88805406Y-130918940D02*
G75*
G02*
X88465994Y-130918940I-169706J169740D01*
G01*
X84774114Y-134015301D02*
G75*
G03*
X84434695Y-134015291I-169714J-169699D01*
G01*
X85622644Y-133166771D02*
G75*
G03*
X85283196Y-133166731I-169744J-169729D01*
G01*
X85411286Y-134313060D02*
G75*
G02*
X85071895Y-134313041I-169686J169660D01*
G01*
X83077055Y-135712361D02*
G75*
G03*
X82737643Y-135712361I-169706J-169708D01*
G01*
X87319704Y-131469711D02*
G75*
G03*
X86980296Y-131469711I-169704J-169689D01*
G01*
X88592498Y-129857502D02*
G75*
G03*
X88592506Y-130196906I169702J-169698D01*
G01*
X86344659Y-133040255D02*
G75*
G02*
X86344698Y-133379707I-169659J-169745D01*
G01*
X84562775Y-135161609D02*
G75*
G02*
X84223395Y-135161579I-169675J169709D01*
G01*
X87108364Y-132616018D02*
G75*
G02*
X86768995Y-132615977I-169664J169718D01*
G01*
X86471174Y-132318241D02*
G75*
G03*
X86131796Y-132318271I-169674J-169659D01*
G01*
X83501318Y-134948682D02*
G75*
G03*
X83501306Y-135288106I169682J-169718D01*
G01*
X83714294Y-136010191D02*
G75*
G02*
X83374895Y-136010180I-169694J169691D01*
G01*
X83925584Y-134863831D02*
G75*
G03*
X83586196Y-134863851I-169684J-169669D01*
G01*
X84647628Y-134737344D02*
G75*
G02*
X84647578Y-135076706I-169728J-169656D01*
G01*
X89653935Y-130070409D02*
G75*
G02*
X89314495Y-130070439I-169735J169709D01*
G01*
X86895438Y-131554562D02*
G75*
G03*
X86895406Y-131894006I169662J-169738D01*
G01*
X83799148Y-135585924D02*
G75*
G02*
X83799118Y-135925306I-169748J-169676D01*
G01*
X88168234Y-130621181D02*
G75*
G03*
X87828796Y-130621151I-169734J-169719D01*
G01*
X85496139Y-133888795D02*
G75*
G02*
X85496138Y-134228207I-169739J-169705D01*
G01*
X89016764Y-129772651D02*
G75*
G03*
X88677395Y-129772691I-169664J-169749D01*
G01*
X86046908Y-132403092D02*
G75*
G03*
X86046906Y-132742506I169692J-169708D01*
G01*
X88041747Y-131343223D02*
G75*
G02*
X88041718Y-131682607I-169747J-169677D01*
G01*
X88890259Y-130494675D02*
G75*
G02*
X88890278Y-130834107I-169659J-169725D01*
G01*
X89738788Y-129646144D02*
G75*
G02*
X89738738Y-129985506I-169688J-169656D01*
G01*
X85198378Y-133251622D02*
G75*
G03*
X85198406Y-133591006I169722J-169678D01*
G01*
X89441028Y-129008972D02*
G75*
G03*
X89441006Y-129348406I169672J-169728D01*
G01*
X87956894Y-131767488D02*
G75*
G02*
X87617495Y-131767477I-169694J169688D01*
G01*
X86259806Y-133464520D02*
G75*
G02*
X85920394Y-133464520I-169706J169720D01*
G01*
X87193217Y-132191753D02*
G75*
G02*
X87193258Y-132531206I-169717J-169747D01*
G01*
X84349848Y-134100152D02*
G75*
G03*
X84349806Y-134439606I169652J-169748D01*
G01*
X87743968Y-130706032D02*
G75*
G03*
X87744006Y-131045406I169732J-169668D01*
G01*
G04 #@! TO.N,unconnected-(J3-SHIELD-PadS1)*
X74650000Y-151175000D02*
X74650000Y-154375000D01*
X75075000Y-154800000D02*
X83125000Y-154800000D01*
X83550000Y-154375000D02*
X83550000Y-151175000D01*
X83125000Y-154800000D02*
X83550000Y-154375000D01*
X74650000Y-154375000D02*
X75075000Y-154800000D01*
G04 #@! TO.N,Net-(J3-CC2)*
X81400000Y-143862500D02*
X83000000Y-142262500D01*
X81400000Y-148280000D02*
X81400000Y-143862500D01*
X80100000Y-152925735D02*
X80100000Y-152250000D01*
X79825735Y-153200000D02*
X80100000Y-152925735D01*
G04 #@! TO.N,Net-(J3-CC1)*
X78350000Y-142502500D02*
X78350000Y-151000000D01*
X78110000Y-142262500D02*
X78350000Y-142502500D01*
G04 #@! TO.N,Net-(J3-VBUS-PadA4)*
X80350000Y-151000000D02*
X80350000Y-151400000D01*
X77600000Y-153400000D02*
X78000000Y-153800000D01*
X90100000Y-154400000D02*
X90100000Y-154580000D01*
X80600000Y-153300000D02*
X80600000Y-152250000D01*
X77600000Y-152250000D02*
X77600000Y-153400000D01*
X80350000Y-151400000D02*
X80600000Y-151650000D01*
X80600000Y-151650000D02*
X80600000Y-152250000D01*
X85040000Y-149340000D02*
X90100000Y-154400000D01*
X77850000Y-151560000D02*
X77850000Y-151000000D01*
X77600000Y-151810000D02*
X77850000Y-151560000D01*
X80350000Y-150250000D02*
X81260000Y-149340000D01*
X78000000Y-153800000D02*
X80100000Y-153800000D01*
X80100000Y-153800000D02*
X80600000Y-153300000D01*
X77600000Y-152250000D02*
X77600000Y-151810000D01*
X81260000Y-149340000D02*
X85040000Y-149340000D01*
X80350000Y-151000000D02*
X80350000Y-150250000D01*
G04 #@! TO.N,USB-D-*
X84844981Y-132465608D02*
X84600012Y-132220639D01*
X80250000Y-137400000D02*
X82299390Y-135350610D01*
X85608658Y-132041345D02*
X85693510Y-131956491D01*
X83751469Y-132729744D02*
X83836322Y-132644892D01*
X85693510Y-131956491D02*
X87001659Y-130648341D01*
X79000000Y-145696814D02*
X80250000Y-144446814D01*
X78600000Y-152701471D02*
X79028782Y-153130253D01*
X78600000Y-152250000D02*
X78600000Y-152701471D01*
X83063068Y-134586935D02*
X83147920Y-134502081D01*
X84760129Y-132889874D02*
X84844980Y-132805021D01*
X113950000Y-103862648D02*
X113950000Y-102900000D01*
X133987552Y-92800000D02*
X134800000Y-91987552D01*
X82478712Y-134341992D02*
X82723656Y-134586936D01*
X82902961Y-133578296D02*
X82987814Y-133493444D01*
X84600011Y-131881229D02*
X84684866Y-131796375D01*
X83327226Y-133493443D02*
X83572187Y-133738404D01*
X84175734Y-132644891D02*
X84420717Y-132889874D01*
X131737256Y-92800000D02*
X133987552Y-92800000D01*
X124529023Y-94050000D02*
X130487256Y-94050000D01*
X87001659Y-130648341D02*
X87030002Y-130619998D01*
X82299391Y-135011198D02*
X82054448Y-134766255D01*
X87192650Y-130619998D02*
X113950000Y-103862648D01*
X80250000Y-144446814D02*
X80250000Y-137400000D01*
X83996451Y-133314138D02*
X83751469Y-133069156D01*
X116627000Y-100223000D02*
X118877000Y-100223000D01*
X82054447Y-134426845D02*
X82139302Y-134341991D01*
X122966973Y-95612050D02*
X124529023Y-94050000D01*
X130487256Y-94050000D02*
X131737256Y-92800000D01*
X113950000Y-102900000D02*
X116627000Y-100223000D01*
X134800000Y-91987552D02*
X134800000Y-90375000D01*
X85024276Y-131796376D02*
X85269246Y-132041346D01*
X83996450Y-133653551D02*
X83996450Y-133653550D01*
X84844980Y-132805021D02*
X84844980Y-132805020D01*
X83911599Y-133738404D02*
X83996450Y-133653551D01*
X122966973Y-96133027D02*
X122966973Y-95612050D01*
X83147921Y-134162668D02*
X82902961Y-133917708D01*
X79000000Y-146650000D02*
X79000000Y-145696814D01*
X118877000Y-100223000D02*
X122966973Y-96133027D01*
X83147920Y-134502081D02*
X83147920Y-134502080D01*
X87030002Y-130619998D02*
X87192650Y-130619998D01*
X83751469Y-133069156D02*
G75*
G02*
X83751519Y-132729794I169731J169656D01*
G01*
X84684866Y-131796375D02*
G75*
G02*
X85024305Y-131796346I169734J-169725D01*
G01*
X84600012Y-132220639D02*
G75*
G02*
X84599977Y-131881196I169688J169739D01*
G01*
X83572187Y-133738404D02*
G75*
G03*
X83911599Y-133738404I169706J169701D01*
G01*
X84844980Y-132805020D02*
G75*
G03*
X84844995Y-132465594I-169680J169720D01*
G01*
X84420717Y-132889874D02*
G75*
G03*
X84760129Y-132889874I169706J169701D01*
G01*
X82299390Y-135350610D02*
G75*
G03*
X82299395Y-135011194I-169690J169710D01*
G01*
X82902961Y-133917708D02*
G75*
G02*
X82902959Y-133578294I169739J169708D01*
G01*
X85269246Y-132041346D02*
G75*
G03*
X85608706Y-132041394I169754J169746D01*
G01*
X83996450Y-133653550D02*
G75*
G03*
X83996495Y-133314095I-169750J169750D01*
G01*
X82054448Y-134766255D02*
G75*
G02*
X82054397Y-134426796I169752J169755D01*
G01*
X82987814Y-133493444D02*
G75*
G02*
X83327205Y-133493463I169686J-169656D01*
G01*
X83836322Y-132644892D02*
G75*
G02*
X84175705Y-132644919I169678J-169708D01*
G01*
X82139302Y-134341991D02*
G75*
G02*
X82478706Y-134341998I169698J-169709D01*
G01*
X82723656Y-134586936D02*
G75*
G03*
X83063106Y-134586974I169744J169736D01*
G01*
X83147920Y-134502080D02*
G75*
G03*
X83147895Y-134162694I-169720J169680D01*
G01*
D56*
G04 #@! TO.N,/connectors/XTAL_2*
X141085000Y-119160000D02*
X139200000Y-117275000D01*
X147650000Y-119160000D02*
X141085000Y-119160000D01*
G04 #@! TO.N,/connectors/XTAL_1*
X140945000Y-120430000D02*
X139200000Y-122175000D01*
X147650000Y-120430000D02*
X140945000Y-120430000D01*
D55*
G04 #@! TO.N,i2c_INT_L*
X130600000Y-123945854D02*
X130600000Y-99120000D01*
X140480000Y-88530000D02*
X140485049Y-88535049D01*
X139766421Y-91799265D02*
X140049265Y-91799265D01*
X128780000Y-125780000D02*
X128350000Y-126210000D01*
X130600000Y-99120000D02*
X136480000Y-93240000D01*
X132050000Y-81812448D02*
X132077000Y-81785448D01*
X138160000Y-80050000D02*
X140480000Y-82370000D01*
X128350000Y-126210000D02*
X128350000Y-132050000D01*
X132077000Y-81023000D02*
X132817892Y-80282108D01*
X130301209Y-124244645D02*
X130600000Y-123945854D01*
X133212745Y-80050000D02*
X138160000Y-80050000D01*
X138325686Y-93240000D02*
X139766421Y-91799265D01*
X128780000Y-125770000D02*
X128780000Y-125780000D01*
X132817892Y-80282108D02*
X132980637Y-80282108D01*
X132050000Y-82825000D02*
X132050000Y-81812448D01*
X132980637Y-80282108D02*
X133212745Y-80050000D01*
X132077000Y-81785448D02*
X132077000Y-81023000D01*
X136480000Y-93240000D02*
X138325686Y-93240000D01*
X140480000Y-82370000D02*
X140480000Y-88530000D01*
G04 #@! TO.N,GPIO_INTERNAL_5*
X118750000Y-51550000D02*
X119450000Y-50850000D01*
X116488235Y-93461765D02*
X117800000Y-92150000D01*
X106396000Y-53806656D02*
X105050000Y-55152656D01*
X117800000Y-92150000D02*
X117800000Y-90375000D01*
X96000000Y-154452942D02*
X96847058Y-155300000D01*
X136200000Y-50851470D02*
X141087816Y-50851470D01*
X117200000Y-101387352D02*
X114890000Y-103697352D01*
X111650000Y-111765686D02*
X96000000Y-127415686D01*
X105050000Y-60324896D02*
X110600000Y-65874896D01*
X110600000Y-78250000D02*
X111400000Y-79050000D01*
X133000000Y-50850000D02*
X133050000Y-50900000D01*
X142760000Y-52523654D02*
X142760000Y-54150000D01*
X117200000Y-101250000D02*
X117200000Y-101387352D01*
X114890000Y-103697352D02*
X114890000Y-104390000D01*
X106396000Y-51831586D02*
X106396000Y-53806656D01*
X105050000Y-55152656D02*
X105050000Y-60324896D01*
X114890000Y-104390000D02*
X111650000Y-107630000D01*
X117840000Y-155300000D02*
X118860000Y-154280000D01*
X96847058Y-155300000D02*
X117840000Y-155300000D01*
X115638235Y-93461765D02*
X116488235Y-93461765D01*
X111650000Y-107630000D02*
X111650000Y-111765686D01*
X141087816Y-50851470D02*
X142760000Y-52523654D01*
X119450000Y-50850000D02*
X133000000Y-50850000D01*
X110600000Y-65874896D02*
X110600000Y-78250000D01*
X142760000Y-54150000D02*
X144150000Y-55540000D01*
X96000000Y-127415686D02*
X96000000Y-154452942D01*
X106123000Y-51558586D02*
X106396000Y-51831586D01*
X111400000Y-79050000D02*
X111400000Y-80800000D01*
X118860000Y-154280000D02*
X118860000Y-151950000D01*
G04 #@! TO.N,/IO_EXP_A2*
X110475000Y-132675000D02*
X110475000Y-121925000D01*
X111720000Y-120680000D02*
X114370000Y-120680000D01*
X107500000Y-134070000D02*
X102130000Y-134070000D01*
X107500000Y-134070000D02*
X109080000Y-134070000D01*
X102130000Y-134070000D02*
X102100000Y-134100000D01*
X110475000Y-121925000D02*
X111720000Y-120680000D01*
X109080000Y-134070000D02*
X110475000Y-132675000D01*
G04 #@! TO.N,/IO_EXP_A1*
X109625000Y-118900000D02*
X109625000Y-132121469D01*
X110325000Y-118200000D02*
X109625000Y-118900000D01*
X116910000Y-118610000D02*
X116500000Y-118200000D01*
X116500000Y-118200000D02*
X110325000Y-118200000D01*
X116910000Y-120680000D02*
X116910000Y-118610000D01*
X108946469Y-132800000D02*
X107500000Y-132800000D01*
X104300000Y-131300000D02*
X102037500Y-131300000D01*
X109625000Y-132121469D02*
X108946469Y-132800000D01*
X105800000Y-132800000D02*
X104300000Y-131300000D01*
X107500000Y-132800000D02*
X105800000Y-132800000D01*
G04 #@! TO.N,SCL_1_L*
X133010000Y-47250000D02*
X131860000Y-46100000D01*
X132840000Y-56624876D02*
X132840000Y-52523654D01*
X130440834Y-85959166D02*
X132550000Y-83850000D01*
X129750000Y-90950000D02*
X129750000Y-90287448D01*
X127320000Y-125830000D02*
X128250000Y-124900000D01*
X133010000Y-49116346D02*
X133010000Y-47250000D01*
X129750000Y-90287448D02*
X129186834Y-89724282D01*
X132550000Y-83850000D02*
X132550000Y-82825000D01*
X126862500Y-115750000D02*
X128240000Y-115750000D01*
X129186834Y-89724282D02*
X129186834Y-86386215D01*
X128475000Y-96625000D02*
X128250000Y-96850000D01*
X128250000Y-96850000D02*
X128250000Y-115740000D01*
X128350000Y-132550000D02*
X127730000Y-132550000D01*
X127730000Y-132550000D02*
X127320000Y-132140000D01*
X132500000Y-82875000D02*
X132500000Y-81500000D01*
X129730735Y-90969265D02*
X129750000Y-90950000D01*
X132500000Y-81500000D02*
X132950000Y-81050000D01*
X133650000Y-51713654D02*
X133650000Y-49756346D01*
X128240000Y-115750000D02*
X128250000Y-115740000D01*
X127320000Y-132140000D02*
X127320000Y-125830000D01*
X129730735Y-92120735D02*
X129730735Y-90969265D01*
X130440834Y-86139363D02*
X130440834Y-85959166D01*
X128250000Y-124900000D02*
X128250000Y-115740000D01*
X133650000Y-49756346D02*
X133010000Y-49116346D01*
X132407438Y-57057438D02*
X132840000Y-56624876D01*
X129186834Y-86386215D02*
X128913834Y-86113215D01*
X132840000Y-52523654D02*
X133650000Y-51713654D01*
G04 #@! TO.N,GPIO_INTERNAL_3*
X134337082Y-73197532D02*
X134421934Y-73112678D01*
X126100000Y-72400000D02*
X124850000Y-73650000D01*
X107750000Y-102075000D02*
X107750000Y-106125000D01*
X133449865Y-73158846D02*
X133534720Y-73073992D01*
X123940000Y-154840000D02*
X123940000Y-151950000D01*
X130999264Y-76149265D02*
X131385346Y-76149265D01*
X96715686Y-156300000D02*
X98670000Y-156300000D01*
X124850000Y-73650000D02*
X124850000Y-74200000D01*
X133874130Y-73073993D02*
X133997670Y-73197533D01*
X95200000Y-154784314D02*
X96715686Y-156300000D01*
X107724265Y-114325735D02*
X95200000Y-126850000D01*
X124450000Y-78642484D02*
X124550000Y-78742484D01*
X113924686Y-88953349D02*
X113924686Y-89278663D01*
X121890000Y-156890000D02*
X123940000Y-154840000D01*
X113650000Y-94228780D02*
X113650000Y-96175000D01*
X113650000Y-89878663D02*
X113650000Y-94228780D01*
X142900000Y-56830000D02*
X141610000Y-55540000D01*
X113650000Y-88365686D02*
X113650000Y-88678663D01*
X115288686Y-86727000D02*
X113650000Y-88365686D01*
X113650000Y-89553349D02*
X113650000Y-89878663D01*
X95200000Y-126850000D02*
X95200000Y-154784314D01*
X133573405Y-73621795D02*
X133449866Y-73498256D01*
X113650000Y-96175000D02*
X107750000Y-102075000D01*
X126750000Y-72400000D02*
X126100000Y-72400000D01*
X101250000Y-156890000D02*
X121890000Y-156890000D01*
X107724265Y-111950000D02*
X107724265Y-114325735D01*
X123873000Y-86727000D02*
X115288686Y-86727000D01*
X101110000Y-156750000D02*
X101250000Y-156890000D01*
X134421934Y-73112678D02*
X135653558Y-71881053D01*
X124550000Y-78742484D02*
X124550000Y-86050000D01*
X124700000Y-74200000D02*
X124850000Y-74200000D01*
X124550000Y-86050000D02*
X123873000Y-86727000D01*
X142900000Y-64634611D02*
X142900000Y-56830000D01*
X131385346Y-76149265D02*
X133573404Y-73961207D01*
X135653558Y-71881053D02*
X142900000Y-64634611D01*
X124850000Y-74200000D02*
X124950000Y-74300000D01*
X133997670Y-73197533D02*
G75*
G03*
X134337106Y-73197557I169730J169733D01*
G01*
X133534720Y-73073992D02*
G75*
G02*
X133874105Y-73074017I169680J-169708D01*
G01*
X113787343Y-88816006D02*
G75*
G02*
X113924594Y-88953349I-43J-137294D01*
G01*
X113924686Y-89278663D02*
G75*
G02*
X113787343Y-89416086I-137386J-37D01*
G01*
X113650000Y-88678663D02*
G75*
G03*
X113787343Y-88816000I137300J-37D01*
G01*
X133573404Y-73961207D02*
G75*
G03*
X133573406Y-73621794I-169704J169707D01*
G01*
X113787343Y-89416006D02*
G75*
G03*
X113650006Y-89553349I-43J-137294D01*
G01*
X133449866Y-73498256D02*
G75*
G02*
X133449914Y-73158895I169734J169656D01*
G01*
G04 #@! TO.N,GPIO_INTERNAL_6*
X144350000Y-63712656D02*
X144350000Y-56966346D01*
X145300000Y-56016346D02*
X145300000Y-54150000D01*
X131973000Y-76089656D02*
X144350000Y-63712656D01*
X127100000Y-85600000D02*
X127348529Y-85600000D01*
X116611235Y-93788765D02*
X116623683Y-93788765D01*
X116320000Y-151950000D02*
X116320000Y-153780000D01*
X125950000Y-86750000D02*
X127100000Y-85600000D01*
X116320000Y-153780000D02*
X115300000Y-154800000D01*
X128450000Y-84498529D02*
X128450000Y-80562448D01*
X131973000Y-77039448D02*
X131973000Y-76089656D01*
X144350000Y-56966346D02*
X145300000Y-56016346D01*
X116623683Y-93788765D02*
X118300000Y-92112448D01*
X96400000Y-127581372D02*
X112175000Y-111806372D01*
X145300000Y-54150000D02*
X144150000Y-53000000D01*
X115300000Y-154800000D02*
X115250000Y-154750000D01*
X118300000Y-92112448D02*
X118300000Y-90375000D01*
X125312448Y-86750000D02*
X125950000Y-86750000D01*
X112175000Y-111806372D02*
X112175000Y-110675000D01*
X119270471Y-87381000D02*
X124681448Y-87381000D01*
X96862744Y-154750000D02*
X96400000Y-154287256D01*
X124681448Y-87381000D02*
X125312448Y-86750000D01*
X118250000Y-90425000D02*
X118300000Y-90375000D01*
X115250000Y-154750000D02*
X96862744Y-154750000D01*
X118300000Y-90375000D02*
X118300000Y-88351471D01*
X116288235Y-94111765D02*
X116611235Y-93788765D01*
X127348529Y-85600000D02*
X128450000Y-84498529D01*
X128450000Y-80562448D02*
X131973000Y-77039448D01*
X112175000Y-110675000D02*
X118150000Y-104700000D01*
X118150000Y-104700000D02*
X118150000Y-101150000D01*
X96400000Y-154287256D02*
X96400000Y-127581372D01*
X118300000Y-88351471D02*
X119270471Y-87381000D01*
G04 #@! TO.N,SDA _1_L*
X137450000Y-66650000D02*
X137450000Y-59798529D01*
X136350000Y-51850000D02*
X134400000Y-49900000D01*
X134400000Y-49900000D02*
X134400000Y-48640000D01*
X137192438Y-59540967D02*
X137192438Y-56503908D01*
X137680000Y-56016346D02*
X137680000Y-52523654D01*
X130000000Y-98600000D02*
X130000000Y-123050000D01*
X137680000Y-52523654D02*
X137006346Y-51850000D01*
X137006346Y-51850000D02*
X136350000Y-51850000D01*
X133086657Y-86986658D02*
X133086657Y-84118329D01*
X126830000Y-132330000D02*
X127550000Y-133050000D01*
X131374265Y-97124265D02*
X131374265Y-97225735D01*
X137192438Y-56503908D02*
X137680000Y-56016346D01*
X133086657Y-84118329D02*
X133050000Y-84081672D01*
X127550000Y-133050000D02*
X128350000Y-133050000D01*
X132899265Y-72000000D02*
X134750000Y-70149265D01*
X126840000Y-123550000D02*
X126842500Y-123547500D01*
X134750000Y-69350000D02*
X137450000Y-66650000D01*
X133734999Y-87635000D02*
X133086657Y-86986658D01*
X126830000Y-123560000D02*
X126830000Y-132330000D01*
X133050000Y-84081672D02*
X133050000Y-82825000D01*
X134750000Y-70149265D02*
X134750000Y-69350000D01*
X126842500Y-123547500D02*
X126842500Y-118060000D01*
X131374265Y-97225735D02*
X130000000Y-98600000D01*
X126840000Y-123550000D02*
X126830000Y-123560000D01*
X137450000Y-59798529D02*
X137192438Y-59540967D01*
G04 #@! TO.N,CAN_MISO*
X55030000Y-93300000D02*
X53800000Y-94530000D01*
X60662500Y-92112500D02*
X59475000Y-93300000D01*
X59475000Y-93300000D02*
X55030000Y-93300000D01*
X155175000Y-115350000D02*
X155150000Y-115375000D01*
X156950000Y-115350000D02*
X155175000Y-115350000D01*
G04 #@! TO.N,GPIO_INTERNAL_4*
X122650000Y-78550000D02*
X123550000Y-78550000D01*
X124201471Y-79242484D02*
X124223000Y-79242484D01*
X126080562Y-64613336D02*
X129243898Y-61450000D01*
X119900000Y-75800000D02*
X119836880Y-75800000D01*
X124827852Y-65650000D02*
X125043898Y-65650000D01*
X99810000Y-156940000D02*
X100600000Y-156150000D01*
X123550000Y-78550000D02*
X123850000Y-78850000D01*
X118831794Y-86400000D02*
X118431794Y-86400000D01*
X94800000Y-154950000D02*
X96790000Y-156940000D01*
X120020000Y-156150000D02*
X121400000Y-154770000D01*
X123850000Y-78850000D02*
X123850000Y-78891013D01*
X123200000Y-86400000D02*
X119631794Y-86400000D01*
X121400000Y-154770000D02*
X121400000Y-151950000D01*
X96790000Y-156940000D02*
X99810000Y-156940000D01*
X124519448Y-65650000D02*
X124827852Y-65650000D01*
X114000000Y-86400000D02*
X113880667Y-86519333D01*
X106899265Y-112825000D02*
X106899265Y-114450735D01*
X124223000Y-81627000D02*
X124050000Y-81800000D01*
X121669530Y-65650000D02*
X123627852Y-65650000D01*
X113880667Y-86519333D02*
X112850000Y-87550000D01*
X119431794Y-86200000D02*
X119031794Y-86200000D01*
X112850000Y-87550000D02*
X112850000Y-95600000D01*
X124050000Y-81800000D02*
X124050000Y-85550000D01*
X94800000Y-126550000D02*
X94800000Y-154950000D01*
X106875000Y-101575000D02*
X106875000Y-107050000D01*
X117951794Y-85453223D02*
X117831794Y-85453223D01*
X117231794Y-86400000D02*
X114000000Y-86400000D01*
X118191794Y-86160000D02*
X118191794Y-85693223D01*
X112850000Y-95600000D02*
X106875000Y-101575000D01*
X106875000Y-107050000D02*
X106900000Y-107075000D01*
X123850000Y-78891013D02*
X124201471Y-79242484D01*
X120709898Y-76609898D02*
X122650000Y-78550000D01*
X129243898Y-61450000D02*
X132700000Y-61450000D01*
X120709898Y-76609898D02*
X120293614Y-76193614D01*
X106899265Y-114450735D02*
X94800000Y-126550000D01*
X119900000Y-74600000D02*
X119900000Y-73000000D01*
X125043898Y-65650000D02*
X126080562Y-64613336D01*
X123919448Y-65358404D02*
X124227852Y-65358404D01*
X100600000Y-156150000D02*
X120020000Y-156150000D01*
X124223000Y-79242484D02*
X124223000Y-81627000D01*
X117351794Y-86400000D02*
X117231794Y-86400000D01*
X117591794Y-85693223D02*
X117591794Y-86160000D01*
X124050000Y-85550000D02*
X123200000Y-86400000D01*
X120293614Y-76193614D02*
X119900000Y-75800000D01*
X123627852Y-65650000D02*
G75*
G03*
X123773700Y-65504202I48J145800D01*
G01*
X124227852Y-65358404D02*
G75*
G02*
X124373696Y-65504202I48J-145796D01*
G01*
X118191794Y-85693223D02*
G75*
G03*
X117951794Y-85453206I-239994J23D01*
G01*
X117591794Y-86160000D02*
G75*
G02*
X117351794Y-86399994I-239994J0D01*
G01*
X118931794Y-86300000D02*
G75*
G02*
X118831794Y-86399994I-99994J0D01*
G01*
X118431794Y-86400000D02*
G75*
G02*
X118191800Y-86160000I6J240000D01*
G01*
X123773650Y-65504202D02*
G75*
G02*
X123919448Y-65358450I145750J2D01*
G01*
X124373650Y-65504202D02*
G75*
G03*
X124519448Y-65649950I145750J2D01*
G01*
X119631794Y-86400000D02*
G75*
G02*
X119531800Y-86300000I6J100000D01*
G01*
X117831794Y-85453223D02*
G75*
G03*
X117591823Y-85693223I6J-239977D01*
G01*
X119531794Y-86300000D02*
G75*
G03*
X119431794Y-86200006I-99994J0D01*
G01*
X119031794Y-86200000D02*
G75*
G03*
X118931800Y-86300000I6J-100000D01*
G01*
G04 #@! TO.N,THR-*
X202550000Y-145100000D02*
X202550000Y-143090000D01*
X197370000Y-148600000D02*
X199050000Y-148600000D01*
X199050000Y-148600000D02*
X202550000Y-145100000D01*
G04 #@! TO.N,GPIO_EXT_2*
X147400000Y-151050000D02*
X147340000Y-150990000D01*
X147400000Y-152650000D02*
X147400000Y-151050000D01*
X109160000Y-141690000D02*
X109175000Y-141675000D01*
X105135000Y-141690000D02*
X107500000Y-141690000D01*
X103350000Y-152200000D02*
X103350000Y-143475000D01*
X107500000Y-141690000D02*
X109160000Y-141690000D01*
X103350000Y-143475000D02*
X105135000Y-141690000D01*
G04 #@! TO.N,GPIO_EXT_4*
X110310000Y-151490000D02*
X110310000Y-144980000D01*
X108430000Y-152200000D02*
X109600000Y-152200000D01*
X109160000Y-144230000D02*
X107500000Y-144230000D01*
X109600000Y-152200000D02*
X110310000Y-151490000D01*
X110310000Y-144980000D02*
X109560000Y-144230000D01*
X109560000Y-144230000D02*
X109160000Y-144230000D01*
X144900000Y-152650000D02*
X144900000Y-151180000D01*
G04 #@! TO.N,GPIO_EXT_1*
X107500000Y-140420000D02*
X109150000Y-140420000D01*
X109150000Y-140420000D02*
X109160000Y-140410000D01*
X148650000Y-151000000D02*
X148650000Y-152650000D01*
X100810000Y-143415000D02*
X100810000Y-152200000D01*
X103805000Y-140420000D02*
X100810000Y-143415000D01*
X107500000Y-140420000D02*
X103805000Y-140420000D01*
G04 #@! TO.N,GPIO_EXT_3*
X107500000Y-142960000D02*
X109150000Y-142960000D01*
X105640000Y-142960000D02*
X107500000Y-142960000D01*
X104800000Y-151110000D02*
X104800000Y-143800000D01*
X146150000Y-152650000D02*
X146150000Y-150980000D01*
X104800000Y-143800000D02*
X105640000Y-142960000D01*
X105890000Y-152200000D02*
X104800000Y-151110000D01*
X109150000Y-142960000D02*
X109180000Y-142930000D01*
G04 #@! TO.N,GPIO_EXT_5*
X143620000Y-152620000D02*
X143650000Y-152650000D01*
X116800000Y-145500000D02*
X118370000Y-145500000D01*
X118370000Y-145500000D02*
X118390000Y-145480000D01*
X143620000Y-151150000D02*
X143620000Y-152620000D01*
G04 #@! TO.N,GPIO_EXT_0*
X109090000Y-139150000D02*
X109130000Y-139190000D01*
X142320000Y-152570000D02*
X142400000Y-152650000D01*
X101750000Y-139150000D02*
X107500000Y-139150000D01*
X98270000Y-152200000D02*
X98270000Y-142630000D01*
X142320000Y-151230000D02*
X142320000Y-152570000D01*
X107500000Y-139150000D02*
X109090000Y-139150000D01*
X98270000Y-142630000D02*
X101750000Y-139150000D01*
X132020000Y-146830000D02*
X131190000Y-146000000D01*
X131190000Y-146000000D02*
X131190000Y-139780000D01*
G04 #@! TO.N,VM_LOW_revProtect*
X179300000Y-117335000D02*
X181840000Y-117335000D01*
G04 #@! TO.N,SCL_1_H*
X122450000Y-130330000D02*
X122450000Y-133550000D01*
X132980315Y-136172526D02*
X132980315Y-137360315D01*
X122450000Y-133550000D02*
X121930000Y-134070000D01*
X122540000Y-130240000D02*
X122450000Y-130330000D01*
X139370000Y-143750000D02*
X171312500Y-143750000D01*
X132980000Y-132550000D02*
X130950000Y-132550000D01*
X120132500Y-134070000D02*
X120325000Y-134262500D01*
X132990000Y-132540000D02*
X132980000Y-132550000D01*
X121930000Y-134070000D02*
X116800000Y-134070000D01*
X132980315Y-137360315D02*
X139370000Y-143750000D01*
G04 #@! TO.N,SDA_1_H*
X133780000Y-136855000D02*
X139725000Y-142800000D01*
X133760000Y-133450000D02*
X132310000Y-133450000D01*
X139725000Y-142800000D02*
X171312500Y-142800000D01*
X132310000Y-133450000D02*
X131910000Y-133050000D01*
X131910000Y-133050000D02*
X130950000Y-133050000D01*
X121925000Y-129300000D02*
X121925000Y-132350000D01*
X121925000Y-132350000D02*
X121475000Y-132800000D01*
X121475000Y-132800000D02*
X116800000Y-132800000D01*
X133780000Y-136150000D02*
X133780000Y-136855000D01*
G04 #@! TO.N,/IO_EXP_A0*
X116800000Y-135340000D02*
X116785000Y-135325000D01*
X113000000Y-124125000D02*
X111750000Y-125375000D01*
X116785000Y-135325000D02*
X115105000Y-135325000D01*
X106434448Y-134740000D02*
X104424448Y-136750000D01*
X111750000Y-125375000D02*
X111750000Y-133700000D01*
X114520000Y-134740000D02*
X110700000Y-134740000D01*
X118475000Y-124125000D02*
X113000000Y-124125000D01*
X104424448Y-136750000D02*
X102100000Y-136750000D01*
X115105000Y-135325000D02*
X114520000Y-134740000D01*
X111750000Y-133700000D02*
X110710000Y-134740000D01*
X119450000Y-120680000D02*
X119450000Y-123150000D01*
X110710000Y-134740000D02*
X110700000Y-134740000D01*
X110700000Y-134740000D02*
X106434448Y-134740000D01*
X119450000Y-123150000D02*
X118475000Y-124125000D01*
D56*
G04 #@! TO.N,/THR_STAT_K*
X198912500Y-143625000D02*
X198912500Y-145950000D01*
X198912500Y-145950000D02*
X198937500Y-145975000D01*
G04 #@! TO.N,/THR_STAT_A*
X195962500Y-145975000D02*
X195962500Y-148462500D01*
X195962500Y-148462500D02*
X196100000Y-148600000D01*
D55*
G04 #@! TO.N,/THR_STAT_SW*
X191935000Y-142410000D02*
X193150000Y-143625000D01*
X191672500Y-137737500D02*
X191935000Y-138000000D01*
X191935000Y-138000000D02*
X191935000Y-142410000D01*
X193150000Y-143625000D02*
X195987500Y-143625000D01*
G04 #@! TO.N,THR+*
X202550000Y-138010000D02*
X198675000Y-138010000D01*
X198675000Y-138010000D02*
X198665000Y-138000000D01*
G04 #@! TO.N,Brk_low*
X111255000Y-137880000D02*
X107500000Y-137880000D01*
X113100000Y-146625000D02*
X113100000Y-139725000D01*
X113100000Y-139725000D02*
X111255000Y-137880000D01*
X187012500Y-150687500D02*
X186125000Y-149800000D01*
X186125000Y-149800000D02*
X116275000Y-149800000D01*
X116275000Y-149800000D02*
X113100000Y-146625000D01*
G04 #@! TO.N,Brk_hi*
X114500000Y-146000000D02*
X117175000Y-148675000D01*
X109035000Y-136610000D02*
X109075000Y-136650000D01*
X202250000Y-149400000D02*
X202825000Y-148825000D01*
X187850000Y-149400000D02*
X202250000Y-149400000D01*
X107500000Y-136610000D02*
X109035000Y-136610000D01*
X114200000Y-136950000D02*
X114500000Y-137250000D01*
X187125000Y-148675000D02*
X187850000Y-149400000D01*
X114500000Y-137250000D02*
X114500000Y-146000000D01*
X117175000Y-148675000D02*
X187125000Y-148675000D01*
G04 #@! TO.N,Fw{slash}Rv*
X186775000Y-149175000D02*
X191505000Y-153905000D01*
X113725000Y-146300000D02*
X116600000Y-149175000D01*
X116600000Y-149175000D02*
X186775000Y-149175000D01*
X110890000Y-135340000D02*
X113725000Y-138175000D01*
X113725000Y-138175000D02*
X113725000Y-146300000D01*
X191505000Y-153905000D02*
X202825000Y-153905000D01*
X107500000Y-135340000D02*
X110890000Y-135340000D01*
G04 #@! TO.N,CAN_CS*
X156950000Y-114080000D02*
X155145000Y-114080000D01*
X155145000Y-114080000D02*
X155125000Y-114100000D01*
G04 #@! TO.N,uMod_TX1*
X56340000Y-109770000D02*
X103050000Y-109770000D01*
X121700000Y-95113332D02*
X121700000Y-96475104D01*
X107900000Y-95104858D02*
X107660000Y-95104858D01*
X103000000Y-108570000D02*
X103070000Y-108500000D01*
X107006886Y-97264858D02*
X107006886Y-97144858D01*
X107900000Y-94144858D02*
X107900000Y-89914880D01*
X107900000Y-68000000D02*
X103183235Y-63283235D01*
X124393575Y-93723000D02*
X123724418Y-94392157D01*
X112500000Y-101800000D02*
X109900000Y-104400000D01*
X122421175Y-94392157D02*
X121700000Y-95113332D01*
X107006886Y-98464858D02*
X107006886Y-98344858D01*
X107660000Y-95104858D02*
X107246886Y-95104858D01*
X108353102Y-96304858D02*
X107900000Y-96304858D01*
X103183235Y-63283235D02*
X103183235Y-62244119D01*
X106221000Y-101304104D02*
X107900000Y-99625104D01*
X108353120Y-97504858D02*
X107900000Y-97504858D01*
X123724418Y-94392157D02*
X122421175Y-94392157D01*
X106305000Y-109770000D02*
X103050000Y-109770000D01*
X131800000Y-90375000D02*
X131800000Y-91400000D01*
X107900000Y-94264858D02*
X107900000Y-94144858D01*
X107900000Y-95704858D02*
X108353120Y-95704858D01*
X113737552Y-101800000D02*
X112500000Y-101800000D01*
X107660000Y-98104858D02*
X107900000Y-98104858D01*
X107660000Y-98704858D02*
X107246886Y-98704858D01*
X102527000Y-61587884D02*
X102527000Y-60700000D01*
X104087552Y-108500000D02*
X106221000Y-106366552D01*
X108593102Y-96664858D02*
X108593102Y-96544858D01*
X107006886Y-96064858D02*
X107006886Y-95944858D01*
X107246886Y-96904858D02*
X107900000Y-96904858D01*
X107246886Y-98104858D02*
X107660000Y-98104858D01*
X107006886Y-94864858D02*
X107006886Y-94744858D01*
X109900000Y-106175000D02*
X106305000Y-109770000D01*
X107900000Y-96304858D02*
X107246886Y-96304858D01*
X109900000Y-104400000D02*
X109900000Y-106175000D01*
X103183235Y-62244119D02*
X102527000Y-61587884D01*
X131800000Y-91400000D02*
X129477000Y-93723000D01*
X129477000Y-93723000D02*
X124393575Y-93723000D01*
X115968552Y-99569000D02*
X113737552Y-101800000D01*
X107900000Y-98104858D02*
X108353120Y-98104858D01*
X107900000Y-89914880D02*
X107900000Y-68000000D01*
X108593120Y-97864858D02*
X108593120Y-97744858D01*
X107246886Y-94504858D02*
X107660000Y-94504858D01*
X118606104Y-99569000D02*
X115968552Y-99569000D01*
X103070000Y-108500000D02*
X104087552Y-108500000D01*
X107900000Y-96904858D02*
X108353102Y-96904858D01*
X108353120Y-95104858D02*
X107900000Y-95104858D01*
X108593120Y-95464858D02*
X108593120Y-95344858D01*
X107900000Y-97504858D02*
X107246886Y-97504858D01*
X106221000Y-106366552D02*
X106221000Y-101304104D01*
X121700000Y-96475104D02*
X118606104Y-99569000D01*
X107900000Y-99625104D02*
X107900000Y-98944858D01*
X107246886Y-95704858D02*
X107900000Y-95704858D01*
X107246886Y-97504858D02*
G75*
G02*
X107006942Y-97264858I14J239958D01*
G01*
X107246886Y-98704858D02*
G75*
G02*
X107006942Y-98464858I14J239958D01*
G01*
X107246886Y-96304858D02*
G75*
G02*
X107006942Y-96064858I14J239958D01*
G01*
X108353120Y-95704858D02*
G75*
G03*
X108593058Y-95464858I-20J239958D01*
G01*
X107246886Y-95104858D02*
G75*
G02*
X107006942Y-94864858I14J239958D01*
G01*
X108593102Y-96544858D02*
G75*
G03*
X108353102Y-96304898I-240002J-42D01*
G01*
X108353120Y-98104858D02*
G75*
G03*
X108593058Y-97864858I-20J239958D01*
G01*
X108593120Y-97744858D02*
G75*
G03*
X108353120Y-97504880I-240020J-42D01*
G01*
X107006886Y-97144858D02*
G75*
G02*
X107246886Y-96904886I240014J-42D01*
G01*
X108593120Y-95344858D02*
G75*
G03*
X108353120Y-95104880I-240020J-42D01*
G01*
X107006886Y-98344858D02*
G75*
G02*
X107246886Y-98104886I240014J-42D01*
G01*
X107660000Y-94504858D02*
G75*
G03*
X107899958Y-94264858I0J239958D01*
G01*
X108353102Y-96904858D02*
G75*
G03*
X108593058Y-96664858I-2J239958D01*
G01*
X107900000Y-98944858D02*
G75*
G03*
X107660000Y-98704900I-240000J-42D01*
G01*
X107006886Y-95944858D02*
G75*
G02*
X107246886Y-95704886I240014J-42D01*
G01*
X107006886Y-94744858D02*
G75*
G02*
X107246886Y-94504886I240014J-42D01*
G01*
G04 #@! TO.N,GPIO_INTERNAL_8*
X145036346Y-47490000D02*
X141543654Y-47490000D01*
X141543654Y-47490000D02*
X141533654Y-47500000D01*
X125522896Y-87464448D02*
X126685552Y-87464448D01*
X146700000Y-50648529D02*
X146250000Y-50198529D01*
X124952344Y-88035000D02*
X125522896Y-87464448D01*
X146250000Y-50198529D02*
X146250000Y-48703654D01*
X126685552Y-87464448D02*
X129159279Y-84990721D01*
X138330000Y-47490000D02*
X136940000Y-46100000D01*
X139956346Y-47490000D02*
X138330000Y-47490000D01*
X132627000Y-77468104D02*
X132627000Y-76360552D01*
X129159279Y-84990721D02*
X129159279Y-80778065D01*
X139966346Y-47500000D02*
X139956346Y-47490000D01*
X130550000Y-79387344D02*
X130707760Y-79387344D01*
X132627000Y-76360552D02*
X146700000Y-62287552D01*
X120615000Y-88035000D02*
X124952344Y-88035000D01*
X119250000Y-90425000D02*
X119250000Y-89400000D01*
X146700000Y-62287552D02*
X146700000Y-50648529D01*
X119250000Y-89400000D02*
X120615000Y-88035000D01*
X130707760Y-79387344D02*
X132627000Y-77468104D01*
X141533654Y-47500000D02*
X139966346Y-47500000D01*
X146250000Y-48703654D02*
X145036346Y-47490000D01*
X129159279Y-80778065D02*
X130550000Y-79387344D01*
G04 #@! TO.N,GPIO_INTERNAL_7*
X125387448Y-87137448D02*
X126498529Y-87137448D01*
X145650000Y-62875104D02*
X145650000Y-52200000D01*
X124816896Y-87708000D02*
X125387448Y-87137448D01*
X128812448Y-80662448D02*
X132300000Y-77174896D01*
X145650000Y-52200000D02*
X143850000Y-50400000D01*
X119792000Y-87708000D02*
X124816896Y-87708000D01*
X128812448Y-84823529D02*
X128812448Y-80662448D01*
X138700000Y-50400000D02*
X136940000Y-48640000D01*
X126498529Y-87137448D02*
X128812448Y-84823529D01*
X132300000Y-77174896D02*
X132300000Y-76225104D01*
X118750000Y-90425000D02*
X118750000Y-88750000D01*
X132300000Y-76225104D02*
X145650000Y-62875104D01*
X118750000Y-88750000D02*
X119792000Y-87708000D01*
X143850000Y-50400000D02*
X138700000Y-50400000D01*
G04 #@! TO.N,VM_HIGH_revProtect*
X174650000Y-78750000D02*
X172110000Y-78750000D01*
G04 #@! TO.N,uMod_RX1*
X121373000Y-94814552D02*
X122122395Y-94065157D01*
X131097827Y-58203644D02*
X131450000Y-58203644D01*
X110037438Y-58437438D02*
X114450000Y-62850000D01*
X114450000Y-62850000D02*
X114450000Y-63550000D01*
X109050000Y-96233524D02*
X109050000Y-94409256D01*
X109050000Y-67683530D02*
X103783235Y-62416765D01*
X109012562Y-58437438D02*
X110037438Y-58437438D01*
X131450000Y-58203644D02*
X131450000Y-55540000D01*
X105955000Y-109170000D02*
X109275000Y-105850000D01*
X109050000Y-90500304D02*
X109050000Y-67683530D01*
X130746356Y-58555115D02*
X131097827Y-58203644D01*
X123588970Y-94065157D02*
X124258127Y-93396000D01*
X106548000Y-106502000D02*
X106548000Y-101439552D01*
X119800000Y-62850000D02*
X127150000Y-62850000D01*
X109050000Y-92181174D02*
X109050000Y-91046586D01*
X109050000Y-98937552D02*
X109050000Y-96233524D01*
X106548000Y-101439552D02*
X109050000Y-98937552D01*
X121373000Y-96339656D02*
X121373000Y-94814552D01*
X109050000Y-94409256D02*
X109050000Y-93630340D01*
X119550000Y-63100000D02*
X119800000Y-62850000D01*
X122122395Y-94065157D02*
X123588970Y-94065157D01*
X129304000Y-93396000D02*
X131250000Y-91450000D01*
X101750000Y-109170000D02*
X103880000Y-109170000D01*
X103880000Y-109170000D02*
X106548000Y-106502000D01*
X109275000Y-105850000D02*
X109275000Y-103900104D01*
X109275000Y-103900104D02*
X113933104Y-99242000D01*
X109050000Y-92181174D02*
X109050000Y-93038472D01*
X109050000Y-91046586D02*
X109050000Y-90500304D01*
X124258127Y-93396000D02*
X129304000Y-93396000D01*
X131250000Y-90425000D02*
X131300000Y-90375000D01*
X101750000Y-109170000D02*
X105955000Y-109170000D01*
X109050000Y-93630340D02*
X109050000Y-93038472D01*
X131250000Y-91450000D02*
X131250000Y-90425000D01*
X118470656Y-99242000D02*
X121373000Y-96339656D01*
X130746356Y-59253644D02*
X130746356Y-58555115D01*
X127150000Y-62850000D02*
X130746356Y-59253644D01*
X61150000Y-109170000D02*
X101750000Y-109170000D01*
X113933104Y-99242000D02*
X118470656Y-99242000D01*
G04 #@! TO.N,CAN_MOSI*
X58155000Y-95920000D02*
X54950000Y-95920000D01*
X156950000Y-116620000D02*
X155180000Y-116620000D01*
X155180000Y-116620000D02*
X155125000Y-116675000D01*
X60425000Y-93650000D02*
X58155000Y-95920000D01*
X61200000Y-93650000D02*
X60425000Y-93650000D01*
X54950000Y-95920000D02*
X53800000Y-97070000D01*
G04 #@! TO.N,CAN_SCK*
X156950000Y-117890000D02*
X155185000Y-117890000D01*
X155185000Y-117890000D02*
X155175000Y-117900000D01*
G04 #@! TO.N,CAN_TXD*
X153200000Y-105150000D02*
X151850000Y-103800000D01*
X123171001Y-68000000D02*
X118900000Y-63728999D01*
X120811471Y-48640000D02*
X121700000Y-48640000D01*
X154200000Y-105150000D02*
X154200000Y-105100000D01*
X128596442Y-68000000D02*
X123171001Y-68000000D01*
X118900000Y-63728999D02*
X118900000Y-57016346D01*
X119900000Y-55000000D02*
X119050000Y-54150000D01*
X119050000Y-54150000D02*
X118273654Y-54150000D01*
X118900000Y-57016346D02*
X119900000Y-56016346D01*
X128697819Y-67898623D02*
X128596442Y-68000000D01*
X117600000Y-51851471D02*
X120811471Y-48640000D01*
X117600000Y-53476346D02*
X117600000Y-51851471D01*
X119900000Y-56016346D02*
X119900000Y-55000000D01*
X125250000Y-88585874D02*
X125760713Y-88075161D01*
X154200000Y-105150000D02*
X153200000Y-105150000D01*
X125400000Y-92100000D02*
X125300000Y-92000000D01*
X154200000Y-105100000D02*
X154250000Y-105050000D01*
X125300000Y-92000000D02*
X125300000Y-90375000D01*
X125250000Y-90425000D02*
X125250000Y-88585874D01*
X118273654Y-54150000D02*
X117600000Y-53476346D01*
G04 #@! TO.N,TX_DRV_L*
X136850000Y-93580000D02*
X131200000Y-99230000D01*
X132764216Y-79650000D02*
X138580000Y-79650000D01*
X126110000Y-133970000D02*
X127190000Y-135050000D01*
X139447981Y-92683391D02*
X138551372Y-93580000D01*
X127190000Y-135050000D02*
X128350000Y-135050000D01*
X132732108Y-79682108D02*
X132764216Y-79650000D01*
X138551372Y-93580000D02*
X136850000Y-93580000D01*
X140013669Y-92683391D02*
X139447981Y-92683391D01*
X131200000Y-124445138D02*
X130717076Y-124928062D01*
X138580000Y-79650000D02*
X141420000Y-82490000D01*
X141420000Y-87543529D02*
X141426471Y-87550000D01*
X126110000Y-126910000D02*
X126110000Y-133970000D01*
X131200000Y-99230000D02*
X131200000Y-124445138D01*
X126230000Y-126790000D02*
X126110000Y-126910000D01*
X141420000Y-82490000D02*
X141420000Y-87543529D01*
G04 #@! TO.N,ERR_L*
X132850000Y-72600000D02*
X133147794Y-72600000D01*
X124500000Y-98850000D02*
X124500000Y-97550000D01*
X136304018Y-69443776D02*
X136304018Y-69245982D01*
X124910000Y-146860000D02*
X124910000Y-127261471D01*
X124910000Y-127261471D02*
X125550000Y-126621471D01*
X139070000Y-56420000D02*
X139070000Y-55540000D01*
X131989023Y-73848530D02*
X131989023Y-73460977D01*
X125550000Y-126621471D02*
X125550000Y-99900000D01*
X139850000Y-65700000D02*
X139850000Y-57200000D01*
X139850000Y-57200000D02*
X139070000Y-56420000D01*
X129100000Y-74850000D02*
X129100000Y-76098529D01*
X131037552Y-74800001D02*
X131989023Y-73848530D01*
X125325000Y-147275000D02*
X124910000Y-146860000D01*
X131037552Y-74949265D02*
X131037552Y-74800001D01*
X129100000Y-76098529D02*
X126998529Y-78200000D01*
X136304018Y-69245982D02*
X139850000Y-65700000D01*
X121723530Y-76775000D02*
X124125000Y-76775000D01*
X129900000Y-74050000D02*
X129100000Y-74850000D01*
X126998529Y-78200000D02*
X125550000Y-78200000D01*
X125550000Y-78200000D02*
X125550000Y-82825000D01*
X133147794Y-72600000D02*
X136304018Y-69443776D01*
X125550000Y-99900000D02*
X124500000Y-98850000D01*
X131989023Y-73460977D02*
X132850000Y-72600000D01*
X124125000Y-76775000D02*
X125550000Y-78200000D01*
G04 #@! TO.N,RX_DRV_L*
X123124030Y-71807500D02*
X119192500Y-71807500D01*
X124504530Y-70427000D02*
X123124030Y-71807500D01*
X131400000Y-125600000D02*
X131800000Y-125200000D01*
X133605046Y-79250000D02*
X133405046Y-79050000D01*
X137130000Y-94000000D02*
X138697057Y-94000000D01*
X131800000Y-125200000D02*
X131800000Y-99330000D01*
X139223528Y-93473529D02*
X139233247Y-93483248D01*
X138697057Y-94000000D02*
X139223528Y-93473529D01*
X131800000Y-99330000D02*
X137130000Y-94000000D01*
X125510000Y-134200000D02*
X125510000Y-127880000D01*
X142020000Y-86780000D02*
X142020000Y-82170000D01*
X139233247Y-93483248D02*
X139998412Y-93483248D01*
X142020000Y-82170000D02*
X139100000Y-79250000D01*
X128350000Y-135550000D02*
X126860000Y-135550000D01*
X142040000Y-86800000D02*
X142020000Y-86780000D01*
X118700000Y-72300000D02*
X118700000Y-72857500D01*
X126860000Y-135550000D02*
X125510000Y-134200000D01*
X119192500Y-71807500D02*
X118700000Y-72300000D01*
X139100000Y-79250000D02*
X133605046Y-79250000D01*
G04 #@! TO.N,~{RESET_uMOD}*
X147605000Y-70780000D02*
X148050000Y-71225000D01*
X139885049Y-89983579D02*
X139759314Y-90109314D01*
X135870000Y-91910000D02*
X137958628Y-91910000D01*
X134180000Y-93600000D02*
X135870000Y-91910000D01*
X147700000Y-50800000D02*
X147700000Y-70040000D01*
X146960000Y-70780000D02*
X147605000Y-70780000D01*
X130425000Y-95850000D02*
X132675000Y-93600000D01*
X147700000Y-70040000D02*
X146960000Y-70780000D01*
X135900000Y-80400000D02*
X137684314Y-80400000D01*
X134550000Y-81750000D02*
X135900000Y-80400000D01*
X148050000Y-81818628D02*
X139759314Y-90109314D01*
X134550000Y-82825000D02*
X134550000Y-81750000D01*
X132675000Y-93600000D02*
X134180000Y-93600000D01*
X146850000Y-49950000D02*
X147700000Y-50800000D01*
X139885049Y-82600735D02*
X139885049Y-89983579D01*
X124490000Y-95400000D02*
X124940000Y-95850000D01*
X148050000Y-71225000D02*
X148050000Y-81818628D01*
X124940000Y-95850000D02*
X130425000Y-95850000D01*
X137958628Y-91910000D02*
X139759314Y-90109314D01*
X137684314Y-80400000D02*
X139885049Y-82600735D01*
G04 #@! TO.N,~{BOOT_uMOD}*
X109842000Y-67006242D02*
X104346000Y-61510242D01*
X116300000Y-83100000D02*
X112851471Y-83100000D01*
X104346000Y-48166022D02*
X105781011Y-46731011D01*
X132650000Y-92050000D02*
X132650000Y-92200000D01*
X110800000Y-80551471D02*
X109842000Y-79593471D01*
X128859834Y-87140651D02*
X128539328Y-86820145D01*
X104346000Y-61510242D02*
X104346000Y-48166022D01*
X122600000Y-85800000D02*
X119000000Y-85800000D01*
X132650000Y-99600000D02*
X132650000Y-105850000D01*
X133250000Y-91450000D02*
X132650000Y-92050000D01*
X132650000Y-105850000D02*
X132400000Y-106100000D01*
X133250000Y-90425000D02*
X133250000Y-91450000D01*
X119000000Y-85800000D02*
X116300000Y-83100000D01*
X110800000Y-81048529D02*
X110800000Y-80551471D01*
X109842000Y-79593471D02*
X109842000Y-67006242D01*
X128859834Y-91259834D02*
X128859834Y-87140651D01*
X112851471Y-83100000D02*
X110800000Y-81048529D01*
X129000000Y-91400000D02*
X128859834Y-91259834D01*
G04 #@! TO.N,CAN_RXD*
X148200000Y-104125000D02*
X148200000Y-105650000D01*
X125750000Y-90425000D02*
X125750000Y-89283285D01*
X126198437Y-92150000D02*
X126198437Y-92049908D01*
X117350000Y-62641447D02*
X117350000Y-58000000D01*
X129100000Y-68600000D02*
X123308553Y-68600000D01*
X126198438Y-92150001D02*
X126198437Y-92150000D01*
X126198437Y-92049908D02*
X125800000Y-91651471D01*
X147350000Y-103275000D02*
X148200000Y-104125000D01*
X129374265Y-68325735D02*
X129100000Y-68600000D01*
X123308553Y-68600000D02*
X117350000Y-62641447D01*
X125800000Y-91651471D02*
X125800000Y-90375000D01*
X146950000Y-103275000D02*
X147350000Y-103275000D01*
X125750000Y-89283285D02*
X126358124Y-88675161D01*
G04 #@! TO.N,~{RST_STR}*
X123400000Y-110500000D02*
X122724265Y-111175735D01*
X132400000Y-108700000D02*
X132400000Y-109700000D01*
X160900000Y-49660000D02*
X160900000Y-52200000D01*
X148950000Y-92350000D02*
X148000000Y-92350000D01*
X116800000Y-142960000D02*
X122640000Y-142960000D01*
X159530000Y-59820000D02*
X152650000Y-66700000D01*
X165750000Y-46850000D02*
X165750000Y-56356346D01*
X160900000Y-52200000D02*
X162050000Y-53350000D01*
X165750000Y-56356346D02*
X162286346Y-59820000D01*
X162286346Y-59820000D02*
X159530000Y-59820000D01*
X150430000Y-83572762D02*
X150430000Y-90870000D01*
X122724265Y-120399265D02*
X122762500Y-120437500D01*
X139100000Y-102000000D02*
X132400000Y-108700000D01*
X122724265Y-111175735D02*
X122724265Y-120399265D01*
X163710000Y-46850000D02*
X160900000Y-49660000D01*
X122640000Y-142960000D02*
X123875000Y-141725000D01*
X148877000Y-82019762D02*
X150430000Y-83572762D01*
X148877000Y-70473000D02*
X148877000Y-82019762D01*
X150430000Y-90870000D02*
X148950000Y-92350000D01*
X165750000Y-46850000D02*
X163710000Y-46850000D01*
X123875000Y-141725000D02*
X123875000Y-121550000D01*
X152650000Y-66700000D02*
X148877000Y-70473000D01*
X123875000Y-121550000D02*
X122762500Y-120437500D01*
G04 #@! TO.N,TX_STR_5v*
X158300000Y-85325000D02*
X157375000Y-86250000D01*
X157375000Y-86250000D02*
X152050000Y-86250000D01*
X158300000Y-80550000D02*
X158300000Y-85325000D01*
G04 #@! TO.N,RX_DRV_5v*
X166050000Y-105325000D02*
X166050000Y-82460000D01*
X166050000Y-105325000D02*
X166050000Y-119075000D01*
X162150000Y-122975000D02*
X162150000Y-134700000D01*
X166050000Y-82460000D02*
X165030000Y-81440000D01*
X161300000Y-135550000D02*
X130950000Y-135550000D01*
X166050000Y-119075000D02*
X162150000Y-122975000D01*
X165030000Y-81440000D02*
X165030000Y-69030000D01*
X162150000Y-134700000D02*
X161300000Y-135550000D01*
X165030000Y-69030000D02*
X162050000Y-66050000D01*
G04 #@! TO.N,5v_reg_STR*
X162050000Y-71130000D02*
X158605000Y-71130000D01*
X158605000Y-71130000D02*
X156475000Y-69000000D01*
X156475000Y-69000000D02*
X155325000Y-69000000D01*
G04 #@! TO.N,ERR_STR*
X163200000Y-56366346D02*
X162526346Y-57040000D01*
X155175000Y-58400000D02*
X157650000Y-60875000D01*
X148550000Y-81884314D02*
X137964314Y-92470000D01*
X137964314Y-92470000D02*
X136030000Y-92470000D01*
X162050000Y-50810000D02*
X163200000Y-51960000D01*
X132925000Y-94000000D02*
X128850000Y-98075000D01*
X136100000Y-133480000D02*
X135030000Y-134550000D01*
X135030000Y-134550000D02*
X130950000Y-134550000D01*
X128850000Y-124950000D02*
X130875000Y-126975000D01*
X133745000Y-126975000D02*
X136100000Y-129330000D01*
X148550000Y-70250000D02*
X148550000Y-81884314D01*
X136030000Y-92470000D02*
X134500000Y-94000000D01*
X157650000Y-60875000D02*
X157650000Y-61150000D01*
X128850000Y-98075000D02*
X128850000Y-124950000D01*
X130875000Y-126975000D02*
X133745000Y-126975000D01*
X134500000Y-94000000D02*
X132925000Y-94000000D01*
X163200000Y-51960000D02*
X163200000Y-56366346D01*
X161760000Y-57040000D02*
X157650000Y-61150000D01*
X136100000Y-129330000D02*
X136100000Y-133480000D01*
X162526346Y-57040000D02*
X161760000Y-57040000D01*
X157650000Y-61150000D02*
X148550000Y-70250000D01*
G04 #@! TO.N,TX_BRK_5v*
X161850000Y-87200000D02*
X152050000Y-87200000D01*
G04 #@! TO.N,~{RST_BRK}*
X122385000Y-141690000D02*
X116800000Y-141690000D01*
X148750000Y-57225000D02*
X148675000Y-57225000D01*
X121625000Y-120500000D02*
X123250000Y-122125000D01*
X160425000Y-45550000D02*
X173850000Y-45550000D01*
X148750000Y-57225000D02*
X160425000Y-45550000D01*
X147450000Y-79300000D02*
X146400000Y-80350000D01*
X121625000Y-108850000D02*
X121625000Y-120500000D01*
X146400000Y-80350000D02*
X146400000Y-82550000D01*
X123250000Y-140825000D02*
X122385000Y-141690000D01*
X173850000Y-45550000D02*
X175050000Y-46750000D01*
X133450000Y-99400000D02*
X133500000Y-99450000D01*
X133500000Y-99450000D02*
X133500000Y-106325000D01*
X133500000Y-106325000D02*
X132625000Y-107200000D01*
X123250000Y-122125000D02*
X123250000Y-140825000D01*
G04 #@! TO.N,5v_reg_BRK*
X165050000Y-103987500D02*
X163462500Y-102400000D01*
X165050000Y-108850000D02*
X165050000Y-103987500D01*
G04 #@! TO.N,ERR_BRK*
X165325000Y-88050000D02*
X158450000Y-88050000D01*
X156350000Y-109800000D02*
X150200000Y-115950000D01*
X160487500Y-97050000D02*
X157250000Y-97050000D01*
X158450000Y-88050000D02*
X156350000Y-90150000D01*
X165350000Y-88075000D02*
X165325000Y-88050000D01*
X134630000Y-134050000D02*
X130950000Y-134050000D01*
X156350000Y-90150000D02*
X156350000Y-109800000D01*
X135500000Y-132090000D02*
X135500000Y-133180000D01*
X157250000Y-97050000D02*
X156350000Y-97950000D01*
X150200000Y-130090000D02*
X148715000Y-131575000D01*
X148715000Y-131575000D02*
X139725000Y-131575000D01*
X135500000Y-133180000D02*
X134630000Y-134050000D01*
X150200000Y-115950000D02*
X150200000Y-130090000D01*
D57*
G04 #@! TO.N,+12V*
X90356737Y-61243263D02*
X55243263Y-61243263D01*
X96900000Y-50300000D02*
X96900000Y-54700000D01*
X91000000Y-60600000D02*
X90356737Y-61243263D01*
X96900000Y-54700000D02*
X91000000Y-60600000D01*
D58*
X52300000Y-126919885D02*
X52300000Y-150330000D01*
X50950000Y-125569885D02*
X52300000Y-126919885D01*
X50950000Y-61000000D02*
X50950000Y-125569885D01*
D55*
G04 #@! TO.N,~{E-STOP}*
X134400000Y-69650000D02*
X134400000Y-68800000D01*
X137123000Y-66077000D02*
X137123000Y-59933977D01*
X114600000Y-95850000D02*
X114600000Y-88675000D01*
X126710000Y-133650000D02*
X126810000Y-133550000D01*
X126430000Y-136350000D02*
X126430000Y-145060000D01*
X128288529Y-78250000D02*
X128640000Y-77898529D01*
X135140000Y-55063654D02*
X135100000Y-55023654D01*
X126000000Y-82875000D02*
X126000000Y-79850000D01*
X130437552Y-74700736D02*
X130789023Y-74349265D01*
X95600000Y-154618628D02*
X96681372Y-155700000D01*
X95600000Y-127250000D02*
X95600000Y-154618628D01*
X135100000Y-54430000D02*
X136530000Y-53000000D01*
X108675000Y-105400000D02*
X108675000Y-101775000D01*
X130789023Y-73260977D02*
X134400000Y-69650000D01*
X96681372Y-155700000D02*
X119150000Y-155700000D01*
X135100000Y-55023654D02*
X135100000Y-54430000D01*
X137123000Y-59933977D02*
X136865438Y-59676415D01*
X135140000Y-56016346D02*
X135140000Y-55063654D01*
X124546000Y-87054000D02*
X126050000Y-85550000D01*
X136865438Y-59676415D02*
X136865438Y-57741784D01*
X114600000Y-88675000D02*
X116221000Y-87054000D01*
X128640000Y-77060000D02*
X130437552Y-75262448D01*
X119150000Y-155700000D02*
X119800000Y-155050000D01*
X108675000Y-114175000D02*
X95600000Y-127250000D01*
X116221000Y-87054000D02*
X124546000Y-87054000D01*
X108675000Y-101775000D02*
X114600000Y-95850000D01*
X127600000Y-78250000D02*
X128288529Y-78250000D01*
X136865438Y-57741784D02*
X135140000Y-56016346D01*
X108675000Y-111075000D02*
X108675000Y-114175000D01*
X127360000Y-145990000D02*
X127360000Y-146080000D01*
X126430000Y-145060000D02*
X127360000Y-145990000D01*
X126810000Y-133550000D02*
X128350000Y-133550000D01*
X126000000Y-79850000D02*
X127600000Y-78250000D01*
X130789023Y-74349265D02*
X130789023Y-73260977D01*
X128640000Y-77898529D02*
X128640000Y-77060000D01*
X134400000Y-68800000D02*
X137123000Y-66077000D01*
X126050000Y-85550000D02*
X126050000Y-82825000D01*
X130437552Y-75262448D02*
X130437552Y-74700736D01*
G04 #@! TO.N,Net-(J21-Pin_2)*
X152550000Y-97500000D02*
X144790000Y-97500000D01*
X144790000Y-97500000D02*
X144675000Y-97385000D01*
G04 #@! TO.N,Net-(J21-Pin_1)*
X152550000Y-95000000D02*
X151435000Y-96115000D01*
X151435000Y-96115000D02*
X144675000Y-96115000D01*
G04 #@! TO.N,CAN_TXD_PI*
X151440000Y-107750000D02*
X147650000Y-111540000D01*
X154200000Y-107750000D02*
X151440000Y-107750000D01*
G04 #@! TO.N,Net-(JP1-C)*
X141410000Y-92950000D02*
X139725000Y-94635000D01*
X139725000Y-94635000D02*
X139725000Y-94845000D01*
X152634744Y-92950000D02*
X144114593Y-92950000D01*
X154200000Y-106450000D02*
X155150000Y-106450000D01*
X155900000Y-105700000D02*
X155900000Y-96215256D01*
X155150000Y-106450000D02*
X155900000Y-105700000D01*
X155900000Y-96215256D02*
X152634744Y-92950000D01*
X144114593Y-92950000D02*
X141410000Y-92950000D01*
G04 #@! TO.N,CAN_RXD_PI*
X148200000Y-108250000D02*
X146000000Y-110450000D01*
X147110000Y-112810000D02*
X147650000Y-112810000D01*
X146000000Y-111700000D02*
X147110000Y-112810000D01*
X146000000Y-110450000D02*
X146000000Y-111700000D01*
G04 #@! TO.N,TX_DRV_5v*
X137060000Y-133540000D02*
X135550000Y-135050000D01*
X138130000Y-92870000D02*
X136230000Y-92870000D01*
X136230000Y-92870000D02*
X134700000Y-94400000D01*
X129400000Y-98250000D02*
X129400000Y-124459515D01*
X145700000Y-85300000D02*
X138130000Y-92870000D01*
X135550000Y-135050000D02*
X130950000Y-135050000D01*
X149350000Y-85300000D02*
X145700000Y-85300000D01*
X137060000Y-129285000D02*
X137060000Y-133540000D01*
X133250000Y-94400000D02*
X129400000Y-98250000D01*
X129400000Y-124459515D02*
X131140485Y-126200000D01*
X131140485Y-126200000D02*
X133975000Y-126200000D01*
X133975000Y-126200000D02*
X137060000Y-129285000D01*
X134700000Y-94400000D02*
X133250000Y-94400000D01*
G04 #@! TO.N,~{E-STOP-TRIG}*
X121550000Y-73843978D02*
X121550000Y-74050000D01*
X141200000Y-65400000D02*
X141200000Y-56756346D01*
X130000000Y-71800000D02*
X123593978Y-71800000D01*
X132650000Y-69150000D02*
X130000000Y-71800000D01*
X125050000Y-78162448D02*
X125050000Y-82825000D01*
X136642306Y-70043776D02*
X136642306Y-69957694D01*
X140460000Y-54390000D02*
X139070000Y-53000000D01*
X124400000Y-147300000D02*
X124400000Y-126775000D01*
X122323530Y-77375000D02*
X124262552Y-77375000D01*
X124262552Y-77375000D02*
X125050000Y-78162448D01*
X123893973Y-96143972D02*
X123900000Y-96149999D01*
X125025000Y-126150000D02*
X125025000Y-100300000D01*
X140460000Y-56016346D02*
X140460000Y-54390000D01*
X127800000Y-154450000D02*
X126480000Y-153130000D01*
X125175000Y-148075000D02*
X124400000Y-147300000D01*
X123893973Y-99168973D02*
X123893973Y-96143972D01*
X136642306Y-69957694D02*
X141200000Y-65400000D01*
X141200000Y-56756346D02*
X140460000Y-56016346D01*
X125025000Y-100300000D02*
X123893973Y-99168973D01*
X123593978Y-71800000D02*
X121550000Y-73843978D01*
X126480000Y-153130000D02*
X126480000Y-151950000D01*
X124400000Y-126775000D02*
X125025000Y-126150000D01*
G04 #@! TO.N,Net-(F2-Pad2)*
X62975000Y-117350000D02*
X56380000Y-117350000D01*
X56380000Y-117350000D02*
X56340000Y-117390000D01*
X56340000Y-119930000D02*
X56340000Y-117390000D01*
G04 #@! TO.N,Net-(D2-A)*
X152425000Y-71475000D02*
X152950000Y-71475000D01*
X152400000Y-71450000D02*
X152425000Y-71475000D01*
X152400000Y-69000000D02*
X152400000Y-71450000D01*
X152400000Y-71450000D02*
X152400000Y-71475000D01*
G04 #@! TO.N,Net-(D4-A)*
X152312500Y-58337500D02*
X152250000Y-58400000D01*
X152312500Y-56000000D02*
X152862500Y-56000000D01*
X152312500Y-56000000D02*
X152312500Y-58337500D01*
G04 #@! TO.N,Net-(D5-A)*
X160500000Y-102437500D02*
X160537500Y-102400000D01*
X160500000Y-104800000D02*
X160550000Y-104800000D01*
X160500000Y-104800000D02*
X160500000Y-102437500D01*
X160600000Y-104850000D02*
X161362500Y-104850000D01*
X160550000Y-104800000D02*
X160600000Y-104850000D01*
G04 #@! TO.N,Net-(D6-A)*
X163412500Y-94675000D02*
X163437500Y-94650000D01*
X163412500Y-97050000D02*
X163412500Y-94675000D01*
G04 #@! TO.N,Net-(R3-Pad1)*
X169945000Y-152180000D02*
X169800000Y-152325000D01*
X173085000Y-152180000D02*
X169945000Y-152180000D01*
G04 #@! TO.N,/DAC_ADR0*
X172275000Y-150400000D02*
X178875000Y-150400000D01*
X178875000Y-150400000D02*
X179815000Y-151340000D01*
X171900000Y-145287500D02*
X171900000Y-147800000D01*
X179815000Y-151340000D02*
X179815000Y-152180000D01*
X179815000Y-154720000D02*
X179815000Y-152180000D01*
X171312500Y-144700000D02*
X171900000Y-145287500D01*
G04 #@! TO.N,/connectors/RESET*
X157060000Y-112700000D02*
X156950000Y-112810000D01*
X158410000Y-112810000D02*
X158900000Y-113300000D01*
X158900000Y-116700000D02*
X159337500Y-117137500D01*
X159337500Y-117137500D02*
X160675000Y-117137500D01*
X158900000Y-113300000D02*
X158900000Y-116700000D01*
X156950000Y-112810000D02*
X158410000Y-112810000D01*
G04 #@! TO.N,A0*
X136404000Y-78650000D02*
X137204000Y-77850000D01*
X166700000Y-118887448D02*
X166700000Y-93125000D01*
X146450000Y-78050000D02*
X147100000Y-78050000D01*
X126150000Y-71050000D02*
X124927000Y-69827000D01*
X147100000Y-78050000D02*
X147450000Y-78400000D01*
X124927000Y-69827000D02*
X120777000Y-69827000D01*
X127550000Y-80537552D02*
X127550000Y-82825000D01*
X163200000Y-135475000D02*
X163200000Y-122387448D01*
X120777000Y-69827000D02*
X115200000Y-64250000D01*
X163200000Y-122387448D02*
X166700000Y-118887448D01*
X129799264Y-78288288D02*
X127550000Y-80537552D01*
X137204000Y-77850000D02*
X146250000Y-77850000D01*
X115200000Y-64250000D02*
X115200000Y-60050000D01*
X146250000Y-77850000D02*
X146450000Y-78050000D01*
X129799264Y-77325739D02*
X129799264Y-78288288D01*
G04 #@! TO.N,G9{slash}ADC_D{slash}CAM_HSYNC*
X119750000Y-90425000D02*
X119750000Y-91498529D01*
X119750000Y-91498529D02*
X116500477Y-94748052D01*
X116500477Y-94748052D02*
X115200000Y-94748052D01*
G04 #@! TO.N,AUD_OUT{slash}CAM_MCLK*
X122000000Y-78890492D02*
X120379754Y-77270246D01*
X122000000Y-82875000D02*
X122000000Y-78890492D01*
G04 #@! TO.N,USBHOST_D-*
X116700000Y-62800000D02*
X116700000Y-58800000D01*
X126750000Y-89500000D02*
X127200000Y-89050000D01*
X126750000Y-90425000D02*
X126750000Y-89500000D01*
X130773529Y-68876470D02*
X130722999Y-68927000D01*
X122827000Y-68927000D02*
X116700000Y-62800000D01*
X130722999Y-68927000D02*
X122827000Y-68927000D01*
G04 #@! TO.N,AUD_LRCLK*
X123000000Y-81400000D02*
X123000000Y-82875000D01*
X123100000Y-81300000D02*
X123000000Y-81400000D01*
G04 #@! TO.N,RTC_3v*
X114080000Y-48640000D02*
X112370000Y-50350000D01*
X107050000Y-50523000D02*
X107050000Y-54077552D01*
X118050000Y-80300000D02*
X118050000Y-82825000D01*
X106323000Y-58273000D02*
X111649265Y-63599265D01*
X111649265Y-73899265D02*
X118050000Y-80300000D01*
X111649265Y-63599265D02*
X111649265Y-73899265D01*
X112370000Y-50350000D02*
X107223000Y-50350000D01*
X107050000Y-54077552D02*
X106323000Y-54804552D01*
X107223000Y-50350000D02*
X107050000Y-50523000D01*
X118050000Y-82825000D02*
X118000000Y-82875000D01*
X106323000Y-54804552D02*
X106323000Y-58273000D01*
G04 #@! TO.N,I2C_SCL1*
X117849112Y-96946373D02*
X116595779Y-98199706D01*
X113970794Y-98199706D02*
X113697794Y-98472706D01*
X122750000Y-91612448D02*
X117849112Y-96513336D01*
X113200736Y-98472706D02*
X113039015Y-98310985D01*
X116595779Y-98199706D02*
X113970794Y-98199706D01*
X117849112Y-96513336D02*
X117849112Y-96946373D01*
X113697794Y-98472706D02*
X113200736Y-98472706D01*
X122750000Y-90425000D02*
X122750000Y-91612448D01*
X113039015Y-98310985D02*
X112800000Y-98550000D01*
G04 #@! TO.N,AUD_BCLK*
X123700000Y-81548529D02*
X123700000Y-79672470D01*
X123700000Y-79672470D02*
X123577530Y-79550000D01*
X123500000Y-82875000D02*
X123500000Y-81748529D01*
X123500000Y-81748529D02*
X123700000Y-81548529D01*
G04 #@! TO.N,AUD_IN{slash}CAM_PCLK*
X122500000Y-80519051D02*
X122500000Y-82875000D01*
X122600000Y-80419051D02*
X122500000Y-80519051D01*
G04 #@! TO.N,AUD_MCLK*
X121500000Y-79239022D02*
X121500000Y-82875000D01*
X119330489Y-77069511D02*
X121500000Y-79239022D01*
G04 #@! TO.N,G20{slash}ADC_D{slash}CAM_VSYNC*
X139100000Y-44300000D02*
X139480000Y-44680000D01*
X104673000Y-60796426D02*
X104673000Y-48687552D01*
X120250000Y-90425000D02*
X120250000Y-91460977D01*
X139100000Y-44200000D02*
X139100000Y-44300000D01*
X109160552Y-44200000D02*
X139100000Y-44200000D01*
X139480000Y-44680000D02*
X139480000Y-46100000D01*
X107946000Y-64261713D02*
X107946000Y-64069426D01*
X107946000Y-64069426D02*
X104673000Y-60796426D01*
X120250000Y-91460977D02*
X116060977Y-95650000D01*
X116060977Y-95650000D02*
X115600000Y-95650000D01*
X104673000Y-48687552D02*
X109160552Y-44200000D01*
G04 #@! TO.N,BATT_VIN{slash}3*
X144170000Y-43950000D02*
X142020000Y-46100000D01*
X103500000Y-61285000D02*
X109515000Y-67300000D01*
X122985000Y-88635000D02*
X121300000Y-88635000D01*
X123750000Y-89400000D02*
X122985000Y-88635000D01*
X109975000Y-81275000D02*
X113000000Y-84300000D01*
X109515000Y-67300000D02*
X109515000Y-80815000D01*
X109515000Y-80815000D02*
X109975000Y-81275000D01*
X123750000Y-90425000D02*
X123750000Y-89400000D01*
X145250000Y-43950000D02*
X144170000Y-43950000D01*
X103500000Y-52000000D02*
X103500000Y-61285000D01*
G04 #@! TO.N,3.3v_en*
X106723000Y-50973000D02*
X105523000Y-49773000D01*
X135000000Y-84457477D02*
X135000000Y-82875000D01*
X105523000Y-48300000D02*
X106346000Y-47477000D01*
X106723000Y-53942104D02*
X106723000Y-50973000D01*
X105996000Y-59496000D02*
X105996000Y-54669104D01*
X106346000Y-47477000D02*
X110163000Y-47477000D01*
X134195668Y-84717304D02*
X134740173Y-84717304D01*
X115924265Y-80424265D02*
X111322265Y-75822265D01*
X110163000Y-47477000D02*
X111540000Y-46100000D01*
X134740173Y-84717304D02*
X135000000Y-84457477D01*
X111322265Y-64822265D02*
X105996000Y-59496000D01*
X115924265Y-80900000D02*
X115924265Y-80424265D01*
X105996000Y-54669104D02*
X106723000Y-53942104D01*
X111322265Y-75822265D02*
X111322265Y-64822265D01*
X105523000Y-49773000D02*
X105523000Y-48300000D01*
G04 #@! TO.N,G11*
X134000000Y-82875000D02*
X134000000Y-81200000D01*
X134000000Y-81200000D02*
X134550000Y-80650000D01*
G04 #@! TO.N,I2C_SDA1*
X123250000Y-90425000D02*
X123250000Y-91574896D01*
X116357933Y-98900000D02*
X113298529Y-98900000D01*
X113298529Y-98900000D02*
X112898529Y-99300000D01*
X118176112Y-96648784D02*
X118176112Y-97081821D01*
X123250000Y-91574896D02*
X118176112Y-96648784D01*
X118176112Y-97081821D02*
X116357933Y-98900000D01*
X112898529Y-99300000D02*
X112200000Y-99300000D01*
G04 #@! TO.N,SPI_SDIO1{slash}SDIO_DATA0*
X120000000Y-79628045D02*
X120000000Y-82875000D01*
X113998425Y-73626470D02*
X120000000Y-79628045D01*
X112273530Y-73626470D02*
X113998425Y-73626470D01*
X112249265Y-73650735D02*
X112273530Y-73626470D01*
G04 #@! TO.N,D0*
X129146346Y-54150000D02*
X127520000Y-54150000D01*
X127520000Y-54150000D02*
X126370000Y-53000000D01*
X130060000Y-55063654D02*
X129146346Y-54150000D01*
X128231972Y-61305580D02*
X130060000Y-59477552D01*
X133500000Y-82875000D02*
X133550000Y-82825000D01*
X126544192Y-61305580D02*
X128231972Y-61305580D01*
X130060000Y-59477552D02*
X130060000Y-55063654D01*
X133550000Y-80742822D02*
X133642822Y-80650000D01*
X133550000Y-82825000D02*
X133550000Y-80742822D01*
G04 #@! TO.N,A1*
X124200000Y-61349769D02*
X124200000Y-55910000D01*
X124177530Y-61372239D02*
X124200000Y-61349769D01*
X126624265Y-80074265D02*
X126500000Y-80198530D01*
X126500000Y-80198530D02*
X126500000Y-82875000D01*
X124200000Y-55910000D02*
X123830000Y-55540000D01*
G04 #@! TO.N,SPI_~{CS1}{slash}SDIO_DATA3*
X118500000Y-82875000D02*
X118500000Y-79901470D01*
X118500000Y-79901470D02*
X114474265Y-75875735D01*
G04 #@! TO.N,TX2*
X132898529Y-69750000D02*
X132850000Y-69750000D01*
X135550000Y-67050000D02*
X133250000Y-69350000D01*
X136469282Y-59780000D02*
X136469282Y-59900000D01*
X134900000Y-58650000D02*
X135499598Y-59249598D01*
X130413279Y-82688279D02*
X130550000Y-82825000D01*
X134580714Y-60380000D02*
X134580714Y-60500000D01*
X134580739Y-62780000D02*
X134580739Y-62900000D01*
X130413279Y-81478530D02*
X130413279Y-82688279D01*
X135550000Y-61340000D02*
X134820739Y-61340000D01*
X134820714Y-60740000D02*
X135550000Y-60740000D01*
X133250000Y-69398529D02*
X132898529Y-69750000D01*
X134820739Y-61940000D02*
X135550000Y-61940000D01*
X135790000Y-60140000D02*
X135550000Y-60140000D01*
X135550000Y-64100000D02*
X135550000Y-65527653D01*
X134580739Y-61580000D02*
X134580739Y-61700000D01*
X136519286Y-60980000D02*
X136519286Y-61100000D01*
X135499598Y-59249598D02*
X135550000Y-59300000D01*
X133250000Y-69350000D02*
X133250000Y-69398529D01*
X135550000Y-62540000D02*
X134820739Y-62540000D01*
X135550000Y-63980000D02*
X135550000Y-64100000D01*
X135790000Y-63140000D02*
X136279286Y-63140000D01*
X128400000Y-74200000D02*
X127450000Y-74200000D01*
X135550000Y-60740000D02*
X136279286Y-60740000D01*
X136279286Y-61340000D02*
X135550000Y-61340000D01*
X135550000Y-61940000D02*
X136279286Y-61940000D01*
X134820739Y-63140000D02*
X135550000Y-63140000D01*
X136519286Y-63380000D02*
X136519286Y-63500000D01*
X136279286Y-62540000D02*
X135550000Y-62540000D01*
X132850000Y-69750000D02*
X128400000Y-74200000D01*
X135790000Y-59540000D02*
X136229282Y-59540000D01*
X135550000Y-65527653D02*
X135550000Y-67050000D01*
X135550000Y-63140000D02*
X135790000Y-63140000D01*
X127550000Y-75650000D02*
X127550000Y-74300000D01*
X135550000Y-60140000D02*
X134820714Y-60140000D01*
X136229282Y-60140000D02*
X135790000Y-60140000D01*
X136279286Y-63740000D02*
X135790000Y-63740000D01*
X136519286Y-62180000D02*
X136519286Y-62300000D01*
X136519286Y-62300000D02*
G75*
G02*
X136279286Y-62539986I-239986J0D01*
G01*
X135790000Y-63740000D02*
G75*
G03*
X135550000Y-63980000I0J-240000D01*
G01*
X136279286Y-63140000D02*
G75*
G02*
X136519300Y-63380000I14J-240000D01*
G01*
X134820739Y-61340000D02*
G75*
G03*
X134580700Y-61580000I-39J-240000D01*
G01*
X134820714Y-60140000D02*
G75*
G03*
X134580700Y-60380000I-14J-240000D01*
G01*
X134820739Y-62540000D02*
G75*
G03*
X134580700Y-62780000I-39J-240000D01*
G01*
X136469282Y-59900000D02*
G75*
G02*
X136229282Y-60139982I-239982J0D01*
G01*
X136519286Y-61100000D02*
G75*
G02*
X136279286Y-61339986I-239986J0D01*
G01*
X136279286Y-60740000D02*
G75*
G02*
X136519300Y-60980000I14J-240000D01*
G01*
X136279286Y-61940000D02*
G75*
G02*
X136519300Y-62180000I14J-240000D01*
G01*
X136519286Y-63500000D02*
G75*
G02*
X136279286Y-63739986I-239986J0D01*
G01*
X134580739Y-61700000D02*
G75*
G03*
X134820739Y-61939961I239961J0D01*
G01*
X135550000Y-59300000D02*
G75*
G03*
X135790000Y-59540000I240000J0D01*
G01*
X136229282Y-59540000D02*
G75*
G02*
X136469300Y-59780000I18J-240000D01*
G01*
X134580714Y-60500000D02*
G75*
G03*
X134820714Y-60739986I239986J0D01*
G01*
X134580739Y-62900000D02*
G75*
G03*
X134820739Y-63139961I239961J0D01*
G01*
G04 #@! TO.N,D1{slash}CAM_TRIG*
X131500000Y-81900000D02*
X131500000Y-82875000D01*
X133356422Y-78209265D02*
X131750000Y-79815687D01*
X131750000Y-79815687D02*
X131750000Y-81650000D01*
X125800000Y-59950000D02*
X125800000Y-58650000D01*
X131750000Y-81650000D02*
X131500000Y-81900000D01*
X133659265Y-78209265D02*
X133356422Y-78209265D01*
X125800000Y-58650000D02*
X128910000Y-55540000D01*
G04 #@! TO.N,RTS1*
X133627448Y-89350000D02*
X134950448Y-88027000D01*
X134950448Y-88027000D02*
X135485448Y-88027000D01*
X132750000Y-90425000D02*
X132750000Y-89350000D01*
X135485448Y-88027000D02*
X138900003Y-84612445D01*
X132750000Y-89350000D02*
X133627448Y-89350000D01*
X138900003Y-84612445D02*
X138900003Y-83450000D01*
G04 #@! TO.N,SPI_SDI*
X114625000Y-96673530D02*
X115500000Y-96673530D01*
X120750000Y-91423530D02*
X120750000Y-90425000D01*
X115500000Y-96673530D02*
X120750000Y-91423530D01*
G04 #@! TO.N,PWM0*
X124950000Y-60650000D02*
X124950000Y-56960000D01*
X131500735Y-75549265D02*
X130750735Y-75549265D01*
X124950000Y-56960000D02*
X126370000Y-55540000D01*
X130399264Y-75900736D02*
X130399264Y-78150736D01*
X130399264Y-78150736D02*
X128000000Y-80550000D01*
X125000000Y-60700000D02*
X124950000Y-60650000D01*
X132237552Y-74448530D02*
X132237552Y-74812448D01*
X130750735Y-75549265D02*
X130399264Y-75900736D01*
X128000000Y-80550000D02*
X128000000Y-82875000D01*
X132237552Y-74812448D02*
X131500735Y-75549265D01*
G04 #@! TO.N,SPI_SCK*
X116597059Y-97273530D02*
X117195112Y-96675477D01*
X117195112Y-96675477D02*
X117195112Y-96204888D01*
X120200000Y-93200000D02*
X120200000Y-92898426D01*
X115060000Y-51850000D02*
X116210000Y-53000000D01*
X120200000Y-92898426D02*
X121750000Y-91348426D01*
X117195112Y-96204888D02*
X120200000Y-93200000D01*
X114376471Y-97273530D02*
X116597059Y-97273530D01*
X121750000Y-91348426D02*
X121750000Y-90425000D01*
X109805126Y-51850000D02*
X115060000Y-51850000D01*
X114375647Y-97272706D02*
X114376471Y-97273530D01*
X114043561Y-97272706D02*
X114375647Y-97272706D01*
X109755126Y-51900000D02*
X109805126Y-51850000D01*
G04 #@! TO.N,SDIO_DATA2*
X113674265Y-75224265D02*
X113674265Y-75075735D01*
X119000000Y-82875000D02*
X119000000Y-79552941D01*
X113750000Y-75300000D02*
X113674265Y-75224265D01*
X119000000Y-79552941D02*
X114722794Y-75275735D01*
X113774265Y-75275735D02*
X113750000Y-75300000D01*
X114722794Y-75275735D02*
X113774265Y-75275735D01*
G04 #@! TO.N,SPI_SCK1{slash}SDIO_CLK*
X115800000Y-73250000D02*
X115800000Y-66350000D01*
X106650000Y-57200000D02*
X106650000Y-54940000D01*
X118730489Y-77318040D02*
X118730489Y-76180489D01*
X121000000Y-82875000D02*
X121000000Y-79201470D01*
X121000000Y-79201470D02*
X119468041Y-77669511D01*
X119081960Y-77669511D02*
X118730489Y-77318040D01*
X118730489Y-76180489D02*
X115800000Y-73250000D01*
X106650000Y-54940000D02*
X108590000Y-53000000D01*
X115800000Y-66350000D02*
X106650000Y-57200000D01*
X119468041Y-77669511D02*
X119081960Y-77669511D01*
G04 #@! TO.N,CTS1*
X138100000Y-83450000D02*
X138100000Y-84950000D01*
X138100000Y-84950000D02*
X135350000Y-87700000D01*
X134815000Y-87700000D02*
X134280000Y-88235000D01*
X132349265Y-57964140D02*
X133990000Y-56323405D01*
X135350000Y-87700000D02*
X134815000Y-87700000D01*
X133486472Y-88235000D02*
X133401472Y-88150000D01*
X133401472Y-88150000D02*
X132250000Y-88150000D01*
X133990000Y-56323405D02*
X133990000Y-55540000D01*
X132349265Y-58499265D02*
X132349265Y-57964140D01*
X134280000Y-88235000D02*
X133486472Y-88235000D01*
X132250000Y-88150000D02*
X132250000Y-90425000D01*
G04 #@! TO.N,SPI_SDIO1{slash}SDIO_CMD*
X113769935Y-72819935D02*
X120500000Y-79550000D01*
X120500000Y-79550000D02*
X120500000Y-82875000D01*
X112743000Y-72819935D02*
X113769935Y-72819935D01*
G04 #@! TO.N,SPI_~{CS}*
X122250000Y-90425000D02*
X122250000Y-91650000D01*
X122250000Y-91650000D02*
X117522112Y-96377888D01*
X117522112Y-96810925D02*
X116460331Y-97872706D01*
X119850000Y-51450000D02*
X119850000Y-51800000D01*
X119850000Y-51800000D02*
X119900000Y-51850000D01*
X119900000Y-51850000D02*
X119900000Y-54150000D01*
X119900000Y-54150000D02*
X121290000Y-55540000D01*
X117522112Y-96377888D02*
X117522112Y-96810925D01*
X116460331Y-97872706D02*
X113449265Y-97872706D01*
G04 #@! TO.N,RX2*
X121850000Y-75200000D02*
X123012448Y-75200000D01*
X120000000Y-75200000D02*
X120650000Y-75200000D01*
X131050000Y-80938530D02*
X131050000Y-82825000D01*
X130990000Y-80878530D02*
X131050000Y-80938530D01*
X127500000Y-76850000D02*
X128150000Y-76200000D01*
X117300000Y-73000000D02*
X117300000Y-73150000D01*
X124662448Y-76850000D02*
X127500000Y-76850000D01*
X117600000Y-71050000D02*
X117600000Y-72657500D01*
X120473000Y-62050000D02*
X120523000Y-62000000D01*
X121496972Y-75200000D02*
X121850000Y-75200000D01*
X120523000Y-62000000D02*
X125001243Y-62000000D01*
X125001243Y-62000000D02*
X127601243Y-59400000D01*
X119255913Y-75105913D02*
X119350000Y-75200000D01*
X120896972Y-74953028D02*
X121250000Y-74953028D01*
X119350000Y-75200000D02*
X120000000Y-75200000D01*
X117600000Y-72657500D02*
X117400000Y-72857500D01*
X127601243Y-59400000D02*
X128850000Y-59400000D01*
X117300000Y-73150000D02*
X119255913Y-75105913D01*
X123012448Y-75200000D02*
X124662448Y-76850000D01*
X120773486Y-75076514D02*
G75*
G02*
X120896972Y-74952986I123514J14D01*
G01*
X121250000Y-74953028D02*
G75*
G02*
X121373472Y-75076514I0J-123472D01*
G01*
X120650000Y-75200000D02*
G75*
G03*
X120773500Y-75076514I0J123500D01*
G01*
X121373486Y-75076514D02*
G75*
G03*
X121496972Y-75200014I123514J14D01*
G01*
G04 #@! TO.N,PWM1*
X114900000Y-81050000D02*
X112600000Y-78750000D01*
X112600000Y-78750000D02*
X112600000Y-77850000D01*
X122680000Y-55776346D02*
X122680000Y-54150000D01*
X124250000Y-89051472D02*
X123833528Y-88635000D01*
X119806346Y-58650000D02*
X122680000Y-55776346D01*
X124250000Y-90425000D02*
X124250000Y-89051472D01*
X112600000Y-77850000D02*
X112575735Y-77874265D01*
X112575735Y-77874265D02*
X112525735Y-77874265D01*
X114900000Y-81800000D02*
X114900000Y-81050000D01*
X119500000Y-58650000D02*
X119806346Y-58650000D01*
X122680000Y-54150000D02*
X123830000Y-53000000D01*
G04 #@! TO.N,SDIO_DATA1*
X119500000Y-79590493D02*
X119500000Y-82875000D01*
X114135977Y-74226470D02*
X119500000Y-79590493D01*
X113673530Y-74226470D02*
X114135977Y-74226470D01*
G04 #@! TO.N,SPI_SDO*
X111250000Y-58600000D02*
X115690000Y-58600000D01*
X116595112Y-96040866D02*
X121250000Y-91385978D01*
X121250000Y-91385978D02*
X121250000Y-90425000D01*
X116595112Y-96426948D02*
X116595112Y-96040866D01*
X115690000Y-58600000D02*
X118750000Y-55540000D01*
G04 #@! TO.N,USBHOST_D+*
X122200000Y-69500000D02*
X115850000Y-63150000D01*
X131768598Y-69120069D02*
X131388667Y-69500000D01*
X115850000Y-59400000D02*
X115700000Y-59250000D01*
X127250000Y-91850000D02*
X127550000Y-92150000D01*
X127250000Y-90425000D02*
X127250000Y-91850000D01*
X115850000Y-63150000D02*
X115850000Y-59400000D01*
X131388667Y-69500000D02*
X122200000Y-69500000D01*
G04 #@! TO.N,Net-(JP3-B)*
X181362500Y-125962500D02*
X181200000Y-125800000D01*
X181362500Y-128500000D02*
X181362500Y-125962500D01*
G04 #@! TO.N,Net-(JP3-A)*
X175630000Y-126100000D02*
X178300000Y-126100000D01*
X178300000Y-126100000D02*
X178600000Y-125800000D01*
G04 #@! TO.N,Net-(JP4-B)*
X181150000Y-131950000D02*
X181150000Y-134287500D01*
X178437500Y-128500000D02*
X181150000Y-131212500D01*
X181150000Y-134287500D02*
X181412500Y-134550000D01*
X181150000Y-131212500D02*
X181150000Y-131950000D01*
G04 #@! TO.N,Net-(JP4-A)*
X173090000Y-128640000D02*
X175440000Y-130990000D01*
X175440000Y-131710000D02*
X178310000Y-131710000D01*
X175440000Y-130990000D02*
X175440000Y-131710000D01*
X178310000Y-131710000D02*
X178550000Y-131950000D01*
G04 #@! TO.N,Net-(JP2-C)*
X148750000Y-106950000D02*
X148200000Y-106950000D01*
X139725000Y-100545000D02*
X140705000Y-101525000D01*
X149700000Y-106000000D02*
X148750000Y-106950000D01*
X149700000Y-102725000D02*
X149700000Y-106000000D01*
X140705000Y-101525000D02*
X148500000Y-101525000D01*
X139725000Y-98655000D02*
X139725000Y-100545000D01*
X148500000Y-101525000D02*
X149700000Y-102725000D01*
G04 #@! TD*
G04 #@! TA.AperFunction,Conductor*
G04 #@! TO.N,+12V*
G36*
X52800000Y-56096988D02*
G01*
X52742993Y-56064075D01*
X52615826Y-56030000D01*
X52484174Y-56030000D01*
X52357007Y-56064075D01*
X52300000Y-56096988D01*
X52300000Y-54423012D01*
X52357007Y-54455925D01*
X52484174Y-54490000D01*
X52615826Y-54490000D01*
X52742993Y-54455925D01*
X52800000Y-54423012D01*
X52800000Y-56096988D01*
G37*
G04 #@! TD.AperFunction*
G04 #@! TA.AperFunction,Conductor*
G36*
X52800000Y-53556988D02*
G01*
X52742993Y-53524075D01*
X52615826Y-53490000D01*
X52484174Y-53490000D01*
X52357007Y-53524075D01*
X52300000Y-53556988D01*
X52300000Y-51883012D01*
X52357007Y-51915925D01*
X52484174Y-51950000D01*
X52615826Y-51950000D01*
X52742993Y-51915925D01*
X52800000Y-51883012D01*
X52800000Y-53556988D01*
G37*
G04 #@! TD.AperFunction*
G04 #@! TA.AperFunction,Conductor*
G36*
X52800000Y-51016988D02*
G01*
X52742993Y-50984075D01*
X52615826Y-50950000D01*
X52484174Y-50950000D01*
X52357007Y-50984075D01*
X52300000Y-51016988D01*
X52300000Y-49343012D01*
X52357007Y-49375925D01*
X52484174Y-49410000D01*
X52615826Y-49410000D01*
X52742993Y-49375925D01*
X52800000Y-49343012D01*
X52800000Y-51016988D01*
G37*
G04 #@! TD.AperFunction*
G04 #@! TA.AperFunction,Conductor*
G36*
X52800000Y-48476988D02*
G01*
X52742993Y-48444075D01*
X52615826Y-48410000D01*
X52484174Y-48410000D01*
X52357007Y-48444075D01*
X52300000Y-48476988D01*
X52300000Y-46803012D01*
X52357007Y-46835925D01*
X52484174Y-46870000D01*
X52615826Y-46870000D01*
X52742993Y-46835925D01*
X52800000Y-46803012D01*
X52800000Y-48476988D01*
G37*
G04 #@! TD.AperFunction*
G04 #@! TA.AperFunction,Conductor*
G36*
X55194486Y-43670185D02*
G01*
X55240241Y-43722989D01*
X55251446Y-43774211D01*
X55262275Y-48446507D01*
X55299712Y-64601135D01*
X55280183Y-64668220D01*
X55227485Y-64714097D01*
X55176134Y-64725421D01*
X48574922Y-64747873D01*
X48507816Y-64728417D01*
X48461881Y-64675769D01*
X48450500Y-64623874D01*
X48450500Y-45472155D01*
X51200000Y-45472155D01*
X51200000Y-46120000D01*
X52116988Y-46120000D01*
X52084075Y-46177007D01*
X52050000Y-46304174D01*
X52050000Y-46435826D01*
X52084075Y-46562993D01*
X52116988Y-46620000D01*
X51200000Y-46620000D01*
X51200000Y-47267844D01*
X51206401Y-47327372D01*
X51206403Y-47327379D01*
X51256645Y-47462086D01*
X51256649Y-47462093D01*
X51342809Y-47577187D01*
X51342812Y-47577190D01*
X51457906Y-47663350D01*
X51457913Y-47663354D01*
X51589986Y-47712614D01*
X51645920Y-47754485D01*
X51670337Y-47819949D01*
X51655486Y-47888222D01*
X51634335Y-47916477D01*
X51511886Y-48038926D01*
X51376400Y-48232420D01*
X51376399Y-48232422D01*
X51276570Y-48446507D01*
X51276567Y-48446513D01*
X51219364Y-48659999D01*
X51219364Y-48660000D01*
X52116988Y-48660000D01*
X52084075Y-48717007D01*
X52050000Y-48844174D01*
X52050000Y-48975826D01*
X52084075Y-49102993D01*
X52116988Y-49160000D01*
X51219364Y-49160000D01*
X51276567Y-49373486D01*
X51276570Y-49373492D01*
X51376399Y-49587578D01*
X51511894Y-49781082D01*
X51678917Y-49948105D01*
X51865031Y-50078425D01*
X51908656Y-50133003D01*
X51915848Y-50202501D01*
X51884326Y-50264856D01*
X51865031Y-50281575D01*
X51678922Y-50411890D01*
X51678920Y-50411891D01*
X51511891Y-50578920D01*
X51511886Y-50578926D01*
X51376400Y-50772420D01*
X51376399Y-50772422D01*
X51276570Y-50986507D01*
X51276567Y-50986513D01*
X51219364Y-51199999D01*
X51219364Y-51200000D01*
X52116988Y-51200000D01*
X52084075Y-51257007D01*
X52050000Y-51384174D01*
X52050000Y-51515826D01*
X52084075Y-51642993D01*
X52116988Y-51700000D01*
X51219364Y-51700000D01*
X51276567Y-51913486D01*
X51276570Y-51913492D01*
X51376399Y-52127578D01*
X51511894Y-52321082D01*
X51678917Y-52488105D01*
X51865031Y-52618425D01*
X51908656Y-52673003D01*
X51915848Y-52742501D01*
X51884326Y-52804856D01*
X51865031Y-52821575D01*
X51678922Y-52951890D01*
X51678920Y-52951891D01*
X51511891Y-53118920D01*
X51511886Y-53118926D01*
X51376400Y-53312420D01*
X51376399Y-53312422D01*
X51276570Y-53526507D01*
X51276567Y-53526513D01*
X51219364Y-53739999D01*
X51219364Y-53740000D01*
X52116988Y-53740000D01*
X52084075Y-53797007D01*
X52050000Y-53924174D01*
X52050000Y-54055826D01*
X52084075Y-54182993D01*
X52116988Y-54240000D01*
X51219364Y-54240000D01*
X51276567Y-54453486D01*
X51276570Y-54453492D01*
X51376399Y-54667578D01*
X51511894Y-54861082D01*
X51678917Y-55028105D01*
X51865031Y-55158425D01*
X51908656Y-55213003D01*
X51915848Y-55282501D01*
X51884326Y-55344856D01*
X51865031Y-55361575D01*
X51678922Y-55491890D01*
X51678920Y-55491891D01*
X51511891Y-55658920D01*
X51511886Y-55658926D01*
X51376400Y-55852420D01*
X51376399Y-55852422D01*
X51276570Y-56066507D01*
X51276567Y-56066513D01*
X51219364Y-56279999D01*
X51219364Y-56280000D01*
X52116988Y-56280000D01*
X52084075Y-56337007D01*
X52050000Y-56464174D01*
X52050000Y-56595826D01*
X52084075Y-56722993D01*
X52116988Y-56780000D01*
X51219364Y-56780000D01*
X51276567Y-56993486D01*
X51276570Y-56993492D01*
X51376399Y-57207578D01*
X51511894Y-57401082D01*
X51678917Y-57568105D01*
X51872421Y-57703600D01*
X52086507Y-57803429D01*
X52086516Y-57803433D01*
X52300000Y-57860634D01*
X52300000Y-56963012D01*
X52357007Y-56995925D01*
X52484174Y-57030000D01*
X52615826Y-57030000D01*
X52742993Y-56995925D01*
X52800000Y-56963012D01*
X52800000Y-57860633D01*
X53013483Y-57803433D01*
X53013492Y-57803429D01*
X53227578Y-57703600D01*
X53421082Y-57568105D01*
X53588105Y-57401082D01*
X53723600Y-57207578D01*
X53823429Y-56993492D01*
X53823432Y-56993486D01*
X53880636Y-56780000D01*
X52983012Y-56780000D01*
X53015925Y-56722993D01*
X53050000Y-56595826D01*
X53050000Y-56464174D01*
X53015925Y-56337007D01*
X52983012Y-56280000D01*
X53880636Y-56280000D01*
X53880635Y-56279999D01*
X53823432Y-56066513D01*
X53823429Y-56066507D01*
X53723600Y-55852422D01*
X53723599Y-55852420D01*
X53588113Y-55658926D01*
X53588108Y-55658920D01*
X53421082Y-55491894D01*
X53234968Y-55361575D01*
X53191344Y-55306998D01*
X53184151Y-55237499D01*
X53215673Y-55175145D01*
X53234968Y-55158425D01*
X53421082Y-55028105D01*
X53588105Y-54861082D01*
X53723600Y-54667578D01*
X53823429Y-54453492D01*
X53823432Y-54453486D01*
X53880636Y-54240000D01*
X52983012Y-54240000D01*
X53015925Y-54182993D01*
X53050000Y-54055826D01*
X53050000Y-53924174D01*
X53015925Y-53797007D01*
X52983012Y-53740000D01*
X53880636Y-53740000D01*
X53880635Y-53739999D01*
X53823432Y-53526513D01*
X53823429Y-53526507D01*
X53723600Y-53312422D01*
X53723599Y-53312420D01*
X53588113Y-53118926D01*
X53588108Y-53118920D01*
X53421082Y-52951894D01*
X53234968Y-52821575D01*
X53191344Y-52766998D01*
X53184151Y-52697499D01*
X53215673Y-52635145D01*
X53234968Y-52618425D01*
X53421082Y-52488105D01*
X53588105Y-52321082D01*
X53723600Y-52127578D01*
X53823429Y-51913492D01*
X53823432Y-51913486D01*
X53880636Y-51700000D01*
X52983012Y-51700000D01*
X53015925Y-51642993D01*
X53050000Y-51515826D01*
X53050000Y-51384174D01*
X53015925Y-51257007D01*
X52983012Y-51200000D01*
X53880636Y-51200000D01*
X53880635Y-51199999D01*
X53823432Y-50986513D01*
X53823429Y-50986507D01*
X53723600Y-50772422D01*
X53723599Y-50772420D01*
X53588113Y-50578926D01*
X53588108Y-50578920D01*
X53421082Y-50411894D01*
X53234968Y-50281575D01*
X53191344Y-50226998D01*
X53184151Y-50157499D01*
X53215673Y-50095145D01*
X53234968Y-50078425D01*
X53421082Y-49948105D01*
X53588105Y-49781082D01*
X53723600Y-49587578D01*
X53823429Y-49373492D01*
X53823432Y-49373486D01*
X53880636Y-49160000D01*
X52983012Y-49160000D01*
X53015925Y-49102993D01*
X53050000Y-48975826D01*
X53050000Y-48844174D01*
X53015925Y-48717007D01*
X52983012Y-48660000D01*
X53880636Y-48660000D01*
X53880635Y-48659999D01*
X53823432Y-48446513D01*
X53823429Y-48446507D01*
X53723600Y-48232422D01*
X53723599Y-48232420D01*
X53588113Y-48038926D01*
X53588108Y-48038920D01*
X53465665Y-47916477D01*
X53432180Y-47855154D01*
X53437164Y-47785462D01*
X53479036Y-47729529D01*
X53510013Y-47712614D01*
X53642086Y-47663354D01*
X53642093Y-47663350D01*
X53757187Y-47577190D01*
X53757190Y-47577187D01*
X53843350Y-47462093D01*
X53843354Y-47462086D01*
X53893596Y-47327379D01*
X53893598Y-47327372D01*
X53899999Y-47267844D01*
X53900000Y-47267827D01*
X53900000Y-46620000D01*
X52983012Y-46620000D01*
X53015925Y-46562993D01*
X53050000Y-46435826D01*
X53050000Y-46304174D01*
X53015925Y-46177007D01*
X52983012Y-46120000D01*
X53900000Y-46120000D01*
X53900000Y-45472172D01*
X53899999Y-45472155D01*
X53893598Y-45412627D01*
X53893596Y-45412620D01*
X53843354Y-45277913D01*
X53843350Y-45277906D01*
X53757190Y-45162812D01*
X53757187Y-45162809D01*
X53642093Y-45076649D01*
X53642086Y-45076645D01*
X53507379Y-45026403D01*
X53507372Y-45026401D01*
X53447844Y-45020000D01*
X52800000Y-45020000D01*
X52800000Y-45936988D01*
X52742993Y-45904075D01*
X52615826Y-45870000D01*
X52484174Y-45870000D01*
X52357007Y-45904075D01*
X52300000Y-45936988D01*
X52300000Y-45020000D01*
X51652155Y-45020000D01*
X51592627Y-45026401D01*
X51592620Y-45026403D01*
X51457913Y-45076645D01*
X51457906Y-45076649D01*
X51342812Y-45162809D01*
X51342809Y-45162812D01*
X51256649Y-45277906D01*
X51256645Y-45277913D01*
X51206403Y-45412620D01*
X51206401Y-45412627D01*
X51200000Y-45472155D01*
X48450500Y-45472155D01*
X48450500Y-43774500D01*
X48470185Y-43707461D01*
X48522989Y-43661706D01*
X48574500Y-43650500D01*
X55127447Y-43650500D01*
X55194486Y-43670185D01*
G37*
G04 #@! TD.AperFunction*
G04 #@! TD*
M02*
