%TF.GenerationSoftware,KiCad,Pcbnew,8.0.8*%
%TF.CreationDate,2025-02-06T14:00:49-05:00*%
%TF.ProjectId,AAV_embedded,4141565f-656d-4626-9564-6465642e6b69,rev?*%
%TF.SameCoordinates,Original*%
%TF.FileFunction,Drillmap*%
%TF.FilePolarity,Positive*%
%FSLAX45Y45*%
G04 Gerber Fmt 4.5, Leading zero omitted, Abs format (unit mm)*
G04 Created by KiCad (PCBNEW 8.0.8) date 2025-02-06 14:00:49*
%MOMM*%
%LPD*%
G01*
G04 APERTURE LIST*
%ADD10C,0.050000*%
%ADD11C,0.200000*%
%ADD12C,0.100000*%
%ADD13C,0.140000*%
%ADD14C,0.380000*%
G04 APERTURE END LIST*
D10*
X17720416Y-5200000D02*
G75*
G02*
X17479584Y-5200000I-120416J0D01*
G01*
X17479584Y-5200000D02*
G75*
G02*
X17720416Y-5200000I120416J0D01*
G01*
X16455399Y-7745000D02*
G75*
G02*
X16204601Y-7745000I-125399J0D01*
G01*
X16204601Y-7745000D02*
G75*
G02*
X16455399Y-7745000I125399J0D01*
G01*
X20265000Y-5200000D02*
G75*
G02*
X20015000Y-5200000I-125000J0D01*
G01*
X20015000Y-5200000D02*
G75*
G02*
X20265000Y-5200000I125000J0D01*
G01*
X18445399Y-9060000D02*
G75*
G02*
X18194601Y-9060000I-125399J0D01*
G01*
X18194601Y-9060000D02*
G75*
G02*
X18445399Y-9060000I125399J0D01*
G01*
X20220934Y-9060000D02*
G75*
G02*
X19979066Y-9060000I-120934J0D01*
G01*
X19979066Y-9060000D02*
G75*
G02*
X20220934Y-9060000I120934J0D01*
G01*
X18644192Y-15500000D02*
G75*
G02*
X18355808Y-15500000I-144192J0D01*
G01*
X18355808Y-15500000D02*
G75*
G02*
X18644192Y-15500000I144192J0D01*
G01*
X21149192Y-5004192D02*
G75*
G02*
X20860808Y-5004192I-144192J0D01*
G01*
X20860808Y-5004192D02*
G75*
G02*
X21149192Y-5004192I144192J0D01*
G01*
X10549192Y-12485000D02*
G75*
G02*
X10260808Y-12485000I-144192J0D01*
G01*
X10260808Y-12485000D02*
G75*
G02*
X10549192Y-12485000I144192J0D01*
G01*
X7144192Y-15500000D02*
G75*
G02*
X6855808Y-15500000I-144192J0D01*
G01*
X6855808Y-15500000D02*
G75*
G02*
X7144192Y-15500000I144192J0D01*
G01*
X10549192Y-6680000D02*
G75*
G02*
X10260808Y-6680000I-144192J0D01*
G01*
X10260808Y-6680000D02*
G75*
G02*
X10549192Y-6680000I144192J0D01*
G01*
X5650902Y-12480000D02*
G75*
G02*
X5362518Y-12480000I-144192J0D01*
G01*
X5362518Y-12480000D02*
G75*
G02*
X5650902Y-12480000I144192J0D01*
G01*
X20222577Y-11605000D02*
G75*
G02*
X19977424Y-11605000I-122577J0D01*
G01*
X19977424Y-11605000D02*
G75*
G02*
X20222577Y-11605000I122577J0D01*
G01*
X17171655Y-11605000D02*
G75*
G02*
X16928345Y-11605000I-121655J0D01*
G01*
X16928345Y-11605000D02*
G75*
G02*
X17171655Y-11605000I121655J0D01*
G01*
X5649192Y-6680000D02*
G75*
G02*
X5360808Y-6680000I-144192J0D01*
G01*
X5360808Y-6680000D02*
G75*
G02*
X5649192Y-6680000I144192J0D01*
G01*
X7154192Y-5700000D02*
G75*
G02*
X6865808Y-5700000I-144192J0D01*
G01*
X6865808Y-5700000D02*
G75*
G02*
X7154192Y-5700000I144192J0D01*
G01*
X4795000Y-4315000D02*
X21620000Y-4315000D01*
X21620000Y-15785000D01*
X4795000Y-15785000D01*
X4795000Y-4315000D01*
X20265100Y-7740000D02*
G75*
G02*
X20014900Y-7740000I-125100J0D01*
G01*
X20014900Y-7740000D02*
G75*
G02*
X20265100Y-7740000I125100J0D01*
G01*
D11*
D12*
X6051250Y-9196250D02*
X6081250Y-9226250D01*
X6081250Y-9196250D02*
X6051250Y-9226250D01*
X6100000Y-10902000D02*
X6130000Y-10932000D01*
X6130000Y-10902000D02*
X6100000Y-10932000D01*
X6105000Y-9350000D02*
X6135000Y-9380000D01*
X6135000Y-9350000D02*
X6105000Y-9380000D01*
X6890000Y-11710000D02*
X6920000Y-11740000D01*
X6920000Y-11710000D02*
X6890000Y-11740000D01*
X7412000Y-14358000D02*
X7442000Y-14388000D01*
X7442000Y-14358000D02*
X7412000Y-14388000D01*
X7645000Y-15356000D02*
X7675000Y-15386000D01*
X7675000Y-15356000D02*
X7645000Y-15386000D01*
X7796000Y-13791000D02*
X7826000Y-13821000D01*
X7826000Y-13791000D02*
X7796000Y-13821000D01*
X7885000Y-14650000D02*
X7915000Y-14680000D01*
X7915000Y-14650000D02*
X7885000Y-14680000D01*
X7887878Y-15298025D02*
X7917878Y-15328025D01*
X7917878Y-15298025D02*
X7887878Y-15328025D01*
X7967573Y-15305000D02*
X7997573Y-15335000D01*
X7997573Y-15305000D02*
X7967573Y-15335000D01*
X8125000Y-14813000D02*
X8155000Y-14843000D01*
X8155000Y-14813000D02*
X8125000Y-14843000D01*
X8284000Y-13787000D02*
X8314000Y-13817000D01*
X8314000Y-13787000D02*
X8284000Y-13817000D01*
X8995000Y-14770000D02*
X9025000Y-14800000D01*
X9025000Y-14770000D02*
X8995000Y-14800000D01*
X9810000Y-6110000D02*
X9840000Y-6140000D01*
X9840000Y-6110000D02*
X9810000Y-6140000D01*
X9852000Y-15615000D02*
X9882000Y-15645000D01*
X9882000Y-15615000D02*
X9852000Y-15645000D01*
X9902500Y-13827500D02*
X9932500Y-13857500D01*
X9932500Y-13827500D02*
X9902500Y-13857500D01*
X10096000Y-15660000D02*
X10126000Y-15690000D01*
X10126000Y-15660000D02*
X10096000Y-15690000D01*
X10237700Y-6055000D02*
X10267700Y-6085000D01*
X10267700Y-6055000D02*
X10237700Y-6085000D01*
X10270000Y-7930000D02*
X10300000Y-7960000D01*
X10300000Y-7930000D02*
X10270000Y-7960000D01*
X10285000Y-10842000D02*
X10315000Y-10872000D01*
X10315000Y-10842000D02*
X10285000Y-10872000D01*
X10290000Y-10962000D02*
X10320000Y-10992000D01*
X10320000Y-10962000D02*
X10290000Y-10992000D01*
X10335000Y-5185000D02*
X10365000Y-5215000D01*
X10365000Y-5185000D02*
X10335000Y-5215000D01*
X10363324Y-6226676D02*
X10393324Y-6256676D01*
X10393324Y-6226676D02*
X10363324Y-6256676D01*
X10561000Y-14536000D02*
X10591000Y-14566000D01*
X10591000Y-14536000D02*
X10561000Y-14566000D01*
X10563101Y-4658101D02*
X10593101Y-4688101D01*
X10593101Y-4658101D02*
X10563101Y-4688101D01*
X10597300Y-5140859D02*
X10627300Y-5170859D01*
X10627300Y-5140859D02*
X10597300Y-5170859D01*
X10674927Y-11267500D02*
X10704927Y-11297500D01*
X10704927Y-11267500D02*
X10674927Y-11297500D01*
X10675000Y-10692500D02*
X10705000Y-10722500D01*
X10705000Y-10692500D02*
X10675000Y-10722500D01*
X10757427Y-11180000D02*
X10787427Y-11210000D01*
X10787427Y-11180000D02*
X10757427Y-11210000D01*
X10760000Y-10597500D02*
X10790000Y-10627500D01*
X10790000Y-10597500D02*
X10760000Y-10627500D01*
X10779600Y-6411171D02*
X10809600Y-6441171D01*
X10809600Y-6411171D02*
X10779600Y-6441171D01*
X10852500Y-10525000D02*
X10882500Y-10555000D01*
X10882500Y-10525000D02*
X10852500Y-10555000D01*
X10852500Y-11092500D02*
X10882500Y-11122500D01*
X10882500Y-11092500D02*
X10852500Y-11122500D01*
X10886256Y-5828744D02*
X10916256Y-5858744D01*
X10916256Y-5828744D02*
X10886256Y-5858744D01*
X10892500Y-13650000D02*
X10922500Y-13680000D01*
X10922500Y-13650000D02*
X10892500Y-13680000D01*
X10898000Y-13904000D02*
X10928000Y-13934000D01*
X10928000Y-13904000D02*
X10898000Y-13934000D01*
X10901000Y-14026000D02*
X10931000Y-14056000D01*
X10931000Y-14026000D02*
X10901000Y-14056000D01*
X10901000Y-14408000D02*
X10931000Y-14438000D01*
X10931000Y-14408000D02*
X10901000Y-14438000D01*
X10902500Y-14152500D02*
X10932500Y-14182500D01*
X10932500Y-14152500D02*
X10902500Y-14182500D01*
X10903000Y-14278000D02*
X10933000Y-14308000D01*
X10933000Y-14278000D02*
X10903000Y-14308000D01*
X10960513Y-5175000D02*
X10990513Y-5205000D01*
X10990513Y-5175000D02*
X10960513Y-5205000D01*
X11110000Y-5845000D02*
X11140000Y-5875000D01*
X11140000Y-5845000D02*
X11110000Y-5875000D01*
X11125000Y-8065000D02*
X11155000Y-8095000D01*
X11155000Y-8065000D02*
X11125000Y-8095000D01*
X11205000Y-9915000D02*
X11235000Y-9945000D01*
X11235000Y-9915000D02*
X11205000Y-9945000D01*
X11209926Y-7350073D02*
X11239926Y-7380073D01*
X11239926Y-7350073D02*
X11209926Y-7380073D01*
X11237573Y-7772426D02*
X11267573Y-7802426D01*
X11267573Y-7772426D02*
X11237573Y-7802426D01*
X11259300Y-7266993D02*
X11289300Y-7296993D01*
X11289300Y-7266993D02*
X11259300Y-7296993D01*
X11265000Y-9840000D02*
X11295000Y-9870000D01*
X11295000Y-9840000D02*
X11265000Y-9870000D01*
X11285000Y-8415000D02*
X11315000Y-8445000D01*
X11315000Y-8415000D02*
X11285000Y-8445000D01*
X11329926Y-9772271D02*
X11359926Y-9802271D01*
X11359926Y-9772271D02*
X11329926Y-9802271D01*
X11352353Y-7407647D02*
X11382353Y-7437647D01*
X11382353Y-7407647D02*
X11352353Y-7437647D01*
X11352426Y-7492573D02*
X11382426Y-7522573D01*
X11382426Y-7492573D02*
X11352426Y-7522573D01*
X11372500Y-12760000D02*
X11402500Y-12790000D01*
X11402500Y-12760000D02*
X11372500Y-12790000D01*
X11389356Y-9712271D02*
X11419356Y-9742271D01*
X11419356Y-9712271D02*
X11389356Y-9742271D01*
X11405000Y-13680000D02*
X11435000Y-13710000D01*
X11435000Y-13680000D02*
X11405000Y-13710000D01*
X11420000Y-11552500D02*
X11450000Y-11582500D01*
X11450000Y-11552500D02*
X11420000Y-11582500D01*
X11430000Y-6340000D02*
X11460000Y-6370000D01*
X11460000Y-6340000D02*
X11430000Y-6370000D01*
X11432426Y-7572573D02*
X11462426Y-7602573D01*
X11462426Y-7572573D02*
X11432426Y-7602573D01*
X11447500Y-9652353D02*
X11477500Y-9682353D01*
X11477500Y-9652353D02*
X11447500Y-9682353D01*
X11475000Y-8165000D02*
X11505000Y-8195000D01*
X11505000Y-8165000D02*
X11475000Y-8195000D01*
X11505000Y-5990000D02*
X11535000Y-6020000D01*
X11535000Y-5990000D02*
X11505000Y-6020000D01*
X11505000Y-9459805D02*
X11535000Y-9489805D01*
X11535000Y-9459805D02*
X11505000Y-9489805D01*
X11545000Y-9550000D02*
X11575000Y-9580000D01*
X11575000Y-9550000D02*
X11545000Y-9580000D01*
X11548823Y-9331177D02*
X11578823Y-9361177D01*
X11578823Y-9331177D02*
X11548823Y-9361177D01*
X11555000Y-5910000D02*
X11585000Y-5940000D01*
X11585000Y-5910000D02*
X11555000Y-5940000D01*
X11577426Y-8075000D02*
X11607426Y-8105000D01*
X11607426Y-8075000D02*
X11577426Y-8105000D01*
X11613823Y-9396177D02*
X11643823Y-9426177D01*
X11643823Y-9396177D02*
X11613823Y-9426177D01*
X11644511Y-9627695D02*
X11674511Y-9657695D01*
X11674511Y-9627695D02*
X11644511Y-9657695D01*
X11655000Y-5865000D02*
X11685000Y-5895000D01*
X11685000Y-5865000D02*
X11655000Y-5895000D01*
X11665000Y-12740000D02*
X11695000Y-12770000D01*
X11695000Y-12740000D02*
X11665000Y-12770000D01*
X11665000Y-13265000D02*
X11695000Y-13295000D01*
X11695000Y-13265000D02*
X11665000Y-13295000D01*
X11665000Y-13392000D02*
X11695000Y-13422000D01*
X11695000Y-13392000D02*
X11665000Y-13422000D01*
X11700000Y-10295000D02*
X11730000Y-10325000D01*
X11730000Y-10295000D02*
X11700000Y-10325000D01*
X11705000Y-10110000D02*
X11735000Y-10140000D01*
X11735000Y-10110000D02*
X11705000Y-10140000D01*
X11720000Y-5785000D02*
X11750000Y-5815000D01*
X11750000Y-5785000D02*
X11720000Y-5815000D01*
X11730000Y-8085000D02*
X11760000Y-8115000D01*
X11760000Y-8085000D02*
X11730000Y-8115000D01*
X11745000Y-7090000D02*
X11775000Y-7120000D01*
X11775000Y-7090000D02*
X11745000Y-7120000D01*
X11755000Y-8867500D02*
X11785000Y-8897500D01*
X11785000Y-8867500D02*
X11755000Y-8897500D01*
X11800000Y-10100000D02*
X11830000Y-10130000D01*
X11830000Y-10100000D02*
X11800000Y-10130000D01*
X11824000Y-14533000D02*
X11854000Y-14563000D01*
X11854000Y-14533000D02*
X11824000Y-14563000D01*
X11860000Y-5140000D02*
X11890000Y-5170000D01*
X11890000Y-5140000D02*
X11860000Y-5170000D01*
X11918049Y-7691951D02*
X11948049Y-7721951D01*
X11948049Y-7691951D02*
X11918049Y-7721951D01*
X11935000Y-5850000D02*
X11965000Y-5880000D01*
X11965000Y-5850000D02*
X11935000Y-5880000D01*
X11940000Y-6295000D02*
X11970000Y-6325000D01*
X11970000Y-6295000D02*
X11940000Y-6325000D01*
X11965000Y-15490000D02*
X11995000Y-15520000D01*
X11995000Y-15490000D02*
X11965000Y-15520000D01*
X11968688Y-7565000D02*
X11998688Y-7595000D01*
X11998688Y-7565000D02*
X11968688Y-7595000D01*
X11970000Y-5130000D02*
X12000000Y-5160000D01*
X12000000Y-5130000D02*
X11970000Y-5160000D01*
X11975000Y-7445000D02*
X12005000Y-7475000D01*
X12005000Y-7445000D02*
X11975000Y-7475000D01*
X11985000Y-7270750D02*
X12015000Y-7300750D01*
X12015000Y-7270750D02*
X11985000Y-7300750D01*
X12012000Y-12832000D02*
X12042000Y-12862000D01*
X12042000Y-12832000D02*
X12012000Y-12862000D01*
X12017500Y-13580000D02*
X12047500Y-13610000D01*
X12047500Y-13580000D02*
X12017500Y-13610000D01*
X12022975Y-7712025D02*
X12052975Y-7742025D01*
X12052975Y-7712025D02*
X12022975Y-7742025D01*
X12032300Y-6190000D02*
X12062300Y-6220000D01*
X12062300Y-6190000D02*
X12032300Y-6220000D01*
X12115000Y-8848500D02*
X12145000Y-8878500D01*
X12145000Y-8848500D02*
X12115000Y-8878500D01*
X12140000Y-7390000D02*
X12170000Y-7420000D01*
X12170000Y-7390000D02*
X12140000Y-7420000D01*
X12147500Y-10870000D02*
X12177500Y-10900000D01*
X12177500Y-10870000D02*
X12147500Y-10900000D01*
X12151953Y-6550000D02*
X12181953Y-6580000D01*
X12181953Y-6550000D02*
X12151953Y-6580000D01*
X12157353Y-7662500D02*
X12187353Y-7692500D01*
X12187353Y-7662500D02*
X12157353Y-7692500D01*
X12177500Y-12915000D02*
X12207500Y-12945000D01*
X12207500Y-12915000D02*
X12177500Y-12945000D01*
X12215000Y-9562300D02*
X12245000Y-9592300D01*
X12245000Y-9562300D02*
X12215000Y-9592300D01*
X12217353Y-7722500D02*
X12247353Y-7752500D01*
X12247353Y-7722500D02*
X12217353Y-7752500D01*
X12220000Y-10295000D02*
X12250000Y-10325000D01*
X12250000Y-10295000D02*
X12220000Y-10325000D01*
X12239000Y-13009000D02*
X12269000Y-13039000D01*
X12269000Y-13009000D02*
X12239000Y-13039000D01*
X12245000Y-8026905D02*
X12275000Y-8056905D01*
X12275000Y-8026905D02*
X12245000Y-8056905D01*
X12245000Y-8565000D02*
X12275000Y-8595000D01*
X12275000Y-8565000D02*
X12245000Y-8595000D01*
X12295000Y-8115000D02*
X12325000Y-8145000D01*
X12325000Y-8115000D02*
X12295000Y-8145000D01*
X12325000Y-11035000D02*
X12355000Y-11065000D01*
X12355000Y-11035000D02*
X12325000Y-11065000D01*
X12342753Y-7940000D02*
X12372753Y-7970000D01*
X12372753Y-7940000D02*
X12342753Y-7970000D01*
X12360000Y-9190000D02*
X12390000Y-9220000D01*
X12390000Y-9190000D02*
X12360000Y-9220000D01*
X12368353Y-8848500D02*
X12398353Y-8878500D01*
X12398353Y-8848500D02*
X12368353Y-8878500D01*
X12372500Y-11992500D02*
X12402500Y-12022500D01*
X12402500Y-11992500D02*
X12372500Y-12022500D01*
X12374397Y-9599397D02*
X12404397Y-9629397D01*
X12404397Y-9599397D02*
X12374397Y-9629397D01*
X12402753Y-6122224D02*
X12432753Y-6152224D01*
X12432753Y-6122224D02*
X12402753Y-6152224D01*
X12430000Y-7849248D02*
X12460000Y-7879248D01*
X12460000Y-7849248D02*
X12430000Y-7879248D01*
X12434000Y-9525000D02*
X12464000Y-9555000D01*
X12464000Y-9525000D02*
X12434000Y-9555000D01*
X12435000Y-9740000D02*
X12465000Y-9770000D01*
X12465000Y-9740000D02*
X12435000Y-9770000D01*
X12435453Y-7027700D02*
X12465453Y-7057700D01*
X12465453Y-7027700D02*
X12435453Y-7057700D01*
X12455000Y-7405000D02*
X12485000Y-7435000D01*
X12485000Y-7405000D02*
X12455000Y-7435000D01*
X12485000Y-6055000D02*
X12515000Y-6085000D01*
X12515000Y-6055000D02*
X12485000Y-6085000D01*
X12502500Y-14792500D02*
X12532500Y-14822500D01*
X12532500Y-14792500D02*
X12502500Y-14822500D01*
X12517500Y-14712500D02*
X12547500Y-14742500D01*
X12547500Y-14712500D02*
X12517500Y-14742500D01*
X12525000Y-9195000D02*
X12555000Y-9225000D01*
X12555000Y-9195000D02*
X12525000Y-9225000D01*
X12536000Y-12773000D02*
X12566000Y-12803000D01*
X12566000Y-12773000D02*
X12536000Y-12803000D01*
X12561071Y-8792516D02*
X12591071Y-8822516D01*
X12591071Y-8792516D02*
X12561071Y-8822516D01*
X12565000Y-5980000D02*
X12595000Y-6010000D01*
X12595000Y-5980000D02*
X12565000Y-6010000D01*
X12600000Y-7090000D02*
X12630000Y-7120000D01*
X12630000Y-7090000D02*
X12600000Y-7120000D01*
X12604844Y-9200000D02*
X12634844Y-9230000D01*
X12634844Y-9200000D02*
X12604844Y-9230000D01*
X12608000Y-12664000D02*
X12638000Y-12694000D01*
X12638000Y-12664000D02*
X12608000Y-12694000D01*
X12610000Y-7415000D02*
X12640000Y-7445000D01*
X12640000Y-7415000D02*
X12610000Y-7445000D01*
X12620812Y-8852516D02*
X12650812Y-8882516D01*
X12650812Y-8852516D02*
X12620812Y-8882516D01*
X12628000Y-13620000D02*
X12658000Y-13650000D01*
X12658000Y-13620000D02*
X12628000Y-13650000D01*
X12639419Y-6115558D02*
X12669419Y-6145558D01*
X12669419Y-6115558D02*
X12639419Y-6145558D01*
X12640000Y-10295000D02*
X12670000Y-10325000D01*
X12670000Y-10295000D02*
X12640000Y-10325000D01*
X12647426Y-7992426D02*
X12677426Y-8022426D01*
X12677426Y-7992426D02*
X12647426Y-8022426D01*
X12650000Y-8490000D02*
X12680000Y-8520000D01*
X12680000Y-8490000D02*
X12650000Y-8520000D01*
X12656000Y-13350000D02*
X12686000Y-13380000D01*
X12686000Y-13350000D02*
X12656000Y-13380000D01*
X12657000Y-13160000D02*
X12687000Y-13190000D01*
X12687000Y-13160000D02*
X12657000Y-13190000D01*
X12660000Y-7225000D02*
X12690000Y-7255000D01*
X12690000Y-7225000D02*
X12660000Y-7255000D01*
X12664844Y-9264600D02*
X12694844Y-9294600D01*
X12694844Y-9264600D02*
X12664844Y-9294600D01*
X12669000Y-12340000D02*
X12699000Y-12370000D01*
X12699000Y-12340000D02*
X12669000Y-12370000D01*
X12688000Y-13790000D02*
X12718000Y-13820000D01*
X12718000Y-13790000D02*
X12688000Y-13820000D01*
X12705000Y-8890000D02*
X12735000Y-8920000D01*
X12735000Y-8890000D02*
X12705000Y-8920000D01*
X12721000Y-14593000D02*
X12751000Y-14623000D01*
X12751000Y-14593000D02*
X12721000Y-14623000D01*
X12728000Y-13085000D02*
X12758000Y-13115000D01*
X12758000Y-13085000D02*
X12728000Y-13115000D01*
X12740000Y-7550000D02*
X12770000Y-7580000D01*
X12770000Y-7550000D02*
X12740000Y-7580000D01*
X12740000Y-9200000D02*
X12770000Y-9230000D01*
X12770000Y-9200000D02*
X12740000Y-9230000D01*
X12765000Y-15430000D02*
X12795000Y-15460000D01*
X12795000Y-15430000D02*
X12765000Y-15460000D01*
X12800000Y-7605000D02*
X12830000Y-7635000D01*
X12830000Y-7605000D02*
X12800000Y-7635000D01*
X12832500Y-9647500D02*
X12862500Y-9677500D01*
X12862500Y-9647500D02*
X12832500Y-9677500D01*
X12838933Y-8667015D02*
X12868933Y-8697015D01*
X12868933Y-8667015D02*
X12838933Y-8697015D01*
X12854782Y-6774862D02*
X12884782Y-6804862D01*
X12884782Y-6774862D02*
X12854782Y-6804862D01*
X12863000Y-12562000D02*
X12893000Y-12592000D01*
X12893000Y-12562000D02*
X12863000Y-12592000D01*
X12870000Y-5925000D02*
X12900000Y-5955000D01*
X12900000Y-5925000D02*
X12870000Y-5955000D01*
X12876383Y-8596322D02*
X12906383Y-8626322D01*
X12906383Y-8596322D02*
X12876383Y-8626322D01*
X12885000Y-9125000D02*
X12915000Y-9155000D01*
X12915000Y-9125000D02*
X12885000Y-9155000D01*
X12885000Y-13022500D02*
X12915000Y-13052500D01*
X12915000Y-13022500D02*
X12885000Y-13052500D01*
X12922426Y-6817573D02*
X12952426Y-6847573D01*
X12952426Y-6817573D02*
X12922426Y-6847573D01*
X12931000Y-5852700D02*
X12961000Y-5882700D01*
X12961000Y-5852700D02*
X12931000Y-5882700D01*
X12958073Y-9197074D02*
X12988073Y-9227074D01*
X12988073Y-9197074D02*
X12958073Y-9227074D01*
X12964926Y-7717574D02*
X12994926Y-7747574D01*
X12994926Y-7717574D02*
X12964926Y-7747574D01*
X12975000Y-7390000D02*
X13005000Y-7420000D01*
X13005000Y-7390000D02*
X12975000Y-7420000D01*
X12985000Y-12290000D02*
X13015000Y-12320000D01*
X13015000Y-12290000D02*
X12985000Y-12320000D01*
X13015121Y-12409464D02*
X13045121Y-12439464D01*
X13045121Y-12409464D02*
X13015121Y-12439464D01*
X13026328Y-8132853D02*
X13056328Y-8162853D01*
X13056328Y-8132853D02*
X13026328Y-8162853D01*
X13029083Y-8598936D02*
X13059083Y-8628936D01*
X13059083Y-8598936D02*
X13029083Y-8628936D01*
X13030000Y-12740000D02*
X13060000Y-12770000D01*
X13060000Y-12740000D02*
X13030000Y-12770000D01*
X13056708Y-12477806D02*
X13086708Y-12507806D01*
X13086708Y-12477806D02*
X13056708Y-12507806D01*
X13062353Y-6872647D02*
X13092353Y-6902647D01*
X13092353Y-6872647D02*
X13062353Y-6902647D01*
X13084000Y-8072853D02*
X13114000Y-8102853D01*
X13114000Y-8072853D02*
X13084000Y-8102853D01*
X13084926Y-7599926D02*
X13114926Y-7629926D01*
X13114926Y-7599926D02*
X13084926Y-7629926D01*
X13088755Y-7479926D02*
X13118755Y-7509926D01*
X13118755Y-7479926D02*
X13088755Y-7509926D01*
X13104000Y-13963000D02*
X13134000Y-13993000D01*
X13134000Y-13963000D02*
X13104000Y-13993000D01*
X13122426Y-9697427D02*
X13152426Y-9727427D01*
X13152426Y-9697427D02*
X13122426Y-9727427D01*
X13125000Y-12545000D02*
X13155000Y-12575000D01*
X13155000Y-12545000D02*
X13125000Y-12575000D01*
X13161860Y-6897007D02*
X13191860Y-6927007D01*
X13191860Y-6897007D02*
X13161860Y-6927007D01*
X13187000Y-14668000D02*
X13217000Y-14698000D01*
X13217000Y-14668000D02*
X13187000Y-14698000D01*
X13208755Y-7429853D02*
X13238755Y-7459853D01*
X13238755Y-7429853D02*
X13208755Y-7459853D01*
X13219926Y-5834926D02*
X13249926Y-5864926D01*
X13249926Y-5834926D02*
X13219926Y-5864926D01*
X13225000Y-10595000D02*
X13255000Y-10625000D01*
X13255000Y-10595000D02*
X13225000Y-10625000D01*
X13225000Y-10955000D02*
X13255000Y-10985000D01*
X13255000Y-10955000D02*
X13225000Y-10985000D01*
X13225744Y-5690744D02*
X13255744Y-5720744D01*
X13255744Y-5690744D02*
X13225744Y-5720744D01*
X13232500Y-13790000D02*
X13262500Y-13820000D01*
X13262500Y-13790000D02*
X13232500Y-13820000D01*
X13247500Y-10705000D02*
X13277500Y-10735000D01*
X13277500Y-10705000D02*
X13247500Y-10735000D01*
X13250000Y-6900000D02*
X13280000Y-6930000D01*
X13280000Y-6900000D02*
X13250000Y-6930000D01*
X13250000Y-9205000D02*
X13280000Y-9235000D01*
X13280000Y-9205000D02*
X13250000Y-9235000D01*
X13250000Y-9945000D02*
X13280000Y-9975000D01*
X13280000Y-9945000D02*
X13250000Y-9975000D01*
X13255000Y-6130000D02*
X13285000Y-6160000D01*
X13285000Y-6130000D02*
X13255000Y-6160000D01*
X13258211Y-7953211D02*
X13288211Y-7983211D01*
X13288211Y-7953211D02*
X13258211Y-7983211D01*
X13274926Y-7185000D02*
X13304926Y-7215000D01*
X13304926Y-7185000D02*
X13274926Y-7215000D01*
X13280000Y-8090000D02*
X13310000Y-8120000D01*
X13310000Y-8090000D02*
X13280000Y-8120000D01*
X13283031Y-13602253D02*
X13313031Y-13632253D01*
X13313031Y-13602253D02*
X13283031Y-13632253D01*
X13284000Y-13239000D02*
X13314000Y-13269000D01*
X13314000Y-13239000D02*
X13284000Y-13269000D01*
X13290000Y-5075000D02*
X13320000Y-5105000D01*
X13320000Y-5075000D02*
X13290000Y-5105000D01*
X13293666Y-8396833D02*
X13323666Y-8426833D01*
X13323666Y-8396833D02*
X13293666Y-8426833D01*
X13325505Y-7890000D02*
X13355505Y-7920000D01*
X13355505Y-7890000D02*
X13325505Y-7920000D01*
X13330000Y-9925000D02*
X13360000Y-9955000D01*
X13360000Y-9925000D02*
X13330000Y-9955000D01*
X13349282Y-8050000D02*
X13379282Y-8080000D01*
X13379282Y-8050000D02*
X13349282Y-8080000D01*
X13350926Y-7805926D02*
X13380926Y-7835926D01*
X13380926Y-7805926D02*
X13350926Y-7835926D01*
X13354451Y-9205000D02*
X13384451Y-9235000D01*
X13384451Y-9205000D02*
X13354451Y-9235000D01*
X13358500Y-8748500D02*
X13388500Y-8778500D01*
X13388500Y-8748500D02*
X13358500Y-8778500D01*
X13361000Y-13330000D02*
X13391000Y-13360000D01*
X13391000Y-13330000D02*
X13361000Y-13360000D01*
X13363000Y-13600000D02*
X13393000Y-13630000D01*
X13393000Y-13600000D02*
X13363000Y-13630000D01*
X13404567Y-8456730D02*
X13434567Y-8486730D01*
X13434567Y-8456730D02*
X13404567Y-8486730D01*
X13440000Y-7615000D02*
X13470000Y-7645000D01*
X13470000Y-7615000D02*
X13440000Y-7645000D01*
X13440000Y-7735000D02*
X13470000Y-7765000D01*
X13470000Y-7735000D02*
X13440000Y-7765000D01*
X13440000Y-8050000D02*
X13470000Y-8080000D01*
X13470000Y-8050000D02*
X13440000Y-8080000D01*
X13465000Y-12895000D02*
X13495000Y-12925000D01*
X13495000Y-12895000D02*
X13465000Y-12925000D01*
X13475000Y-5850000D02*
X13505000Y-5880000D01*
X13505000Y-5850000D02*
X13475000Y-5880000D01*
X13517500Y-9725000D02*
X13547500Y-9755000D01*
X13547500Y-9725000D02*
X13517500Y-9755000D01*
X13535000Y-13194000D02*
X13565000Y-13224000D01*
X13565000Y-13194000D02*
X13535000Y-13224000D01*
X13560000Y-8890000D02*
X13590000Y-8920000D01*
X13590000Y-8890000D02*
X13560000Y-8920000D01*
X13605000Y-5070147D02*
X13635000Y-5100147D01*
X13635000Y-5070147D02*
X13605000Y-5100147D01*
X13625400Y-7850000D02*
X13655400Y-7880000D01*
X13655400Y-7850000D02*
X13625400Y-7880000D01*
X13635000Y-8245000D02*
X13665000Y-8275000D01*
X13665000Y-8245000D02*
X13635000Y-8275000D01*
X13649231Y-6989378D02*
X13679231Y-7019378D01*
X13679231Y-6989378D02*
X13649231Y-7019378D01*
X13702000Y-10169000D02*
X13732000Y-10199000D01*
X13732000Y-10169000D02*
X13702000Y-10199000D01*
X13764244Y-5914244D02*
X13794244Y-5944244D01*
X13794244Y-5914244D02*
X13764244Y-5944244D01*
X13783500Y-9596500D02*
X13813500Y-9626500D01*
X13813500Y-9596500D02*
X13783500Y-9626500D01*
X13795000Y-8330000D02*
X13825000Y-8360000D01*
X13825000Y-8330000D02*
X13795000Y-8360000D01*
X13824244Y-6105000D02*
X13854244Y-6135000D01*
X13854244Y-6105000D02*
X13824244Y-6135000D01*
X13837500Y-6527500D02*
X13867500Y-6557500D01*
X13867500Y-6527500D02*
X13837500Y-6557500D01*
X13875000Y-8330000D02*
X13905000Y-8360000D01*
X13905000Y-8330000D02*
X13875000Y-8360000D01*
X13895000Y-10185000D02*
X13925000Y-10215000D01*
X13925000Y-10185000D02*
X13895000Y-10215000D01*
X13957500Y-13142500D02*
X13987500Y-13172500D01*
X13987500Y-13142500D02*
X13957500Y-13172500D01*
X13984841Y-9333325D02*
X14014841Y-9363325D01*
X14014841Y-9333325D02*
X13984841Y-9363325D01*
X13986367Y-9253339D02*
X14016367Y-9283339D01*
X14016367Y-9253339D02*
X13986367Y-9283339D01*
X13989926Y-9164927D02*
X14019926Y-9194927D01*
X14019926Y-9164927D02*
X13989926Y-9194927D01*
X14033505Y-8540000D02*
X14063505Y-8570000D01*
X14063505Y-8540000D02*
X14033505Y-8570000D01*
X14033505Y-8838505D02*
X14063505Y-8868505D01*
X14063505Y-8838505D02*
X14033505Y-8868505D01*
X14127647Y-8740000D02*
X14157647Y-8770000D01*
X14157647Y-8740000D02*
X14127647Y-8770000D01*
X14189000Y-8665000D02*
X14219000Y-8695000D01*
X14219000Y-8665000D02*
X14189000Y-8695000D01*
X14217000Y-15108000D02*
X14247000Y-15138000D01*
X14247000Y-15108000D02*
X14217000Y-15138000D01*
X14327500Y-11472500D02*
X14357500Y-11502500D01*
X14357500Y-11472500D02*
X14327500Y-11502500D01*
X14330000Y-12475000D02*
X14360000Y-12505000D01*
X14360000Y-12475000D02*
X14330000Y-12505000D01*
X14347000Y-15100000D02*
X14377000Y-15130000D01*
X14377000Y-15100000D02*
X14347000Y-15130000D01*
X14445000Y-7540000D02*
X14475000Y-7570000D01*
X14475000Y-7540000D02*
X14445000Y-7570000D01*
X14475000Y-15103000D02*
X14505000Y-15133000D01*
X14505000Y-15103000D02*
X14475000Y-15133000D01*
X14510000Y-4380000D02*
X14540000Y-4410000D01*
X14540000Y-4380000D02*
X14510000Y-4410000D01*
X14527500Y-8702500D02*
X14557500Y-8732500D01*
X14557500Y-8702500D02*
X14527500Y-8732500D01*
X14560000Y-12155000D02*
X14590000Y-12185000D01*
X14590000Y-12155000D02*
X14560000Y-12185000D01*
X14600000Y-15083000D02*
X14630000Y-15113000D01*
X14630000Y-15083000D02*
X14600000Y-15113000D01*
X14625000Y-8240000D02*
X14655000Y-8270000D01*
X14655000Y-8240000D02*
X14625000Y-8270000D01*
X14670000Y-4980000D02*
X14700000Y-5010000D01*
X14700000Y-4980000D02*
X14670000Y-5010000D01*
X14680000Y-10312500D02*
X14710000Y-10342500D01*
X14710000Y-10312500D02*
X14680000Y-10342500D01*
X14719000Y-15084000D02*
X14749000Y-15114000D01*
X14749000Y-15084000D02*
X14719000Y-15114000D01*
X14730000Y-7825000D02*
X14760000Y-7855000D01*
X14760000Y-7825000D02*
X14730000Y-7855000D01*
X14730000Y-7915000D02*
X14760000Y-7945000D01*
X14760000Y-7915000D02*
X14730000Y-7945000D01*
X14785000Y-9220000D02*
X14815000Y-9250000D01*
X14815000Y-9220000D02*
X14785000Y-9250000D01*
X14850000Y-15085000D02*
X14880000Y-15115000D01*
X14880000Y-15085000D02*
X14850000Y-15115000D01*
X14852500Y-9005000D02*
X14882500Y-9035000D01*
X14882500Y-9005000D02*
X14852500Y-9035000D01*
X14860000Y-5707500D02*
X14890000Y-5737500D01*
X14890000Y-5707500D02*
X14860000Y-5737500D01*
X15170000Y-10365000D02*
X15200000Y-10395000D01*
X15200000Y-10365000D02*
X15170000Y-10395000D01*
X15332500Y-8517500D02*
X15362500Y-8547500D01*
X15362500Y-8517500D02*
X15332500Y-8547500D01*
X15497500Y-11395000D02*
X15527500Y-11425000D01*
X15527500Y-11395000D02*
X15497500Y-11425000D01*
X15497500Y-11652500D02*
X15527500Y-11682500D01*
X15527500Y-11652500D02*
X15497500Y-11682500D01*
X15500000Y-11522500D02*
X15530000Y-11552500D01*
X15530000Y-11522500D02*
X15500000Y-11552500D01*
X15502500Y-11775000D02*
X15532500Y-11805000D01*
X15532500Y-11775000D02*
X15502500Y-11805000D01*
X15515000Y-5575000D02*
X15545000Y-5605000D01*
X15545000Y-5575000D02*
X15515000Y-5605000D01*
X15665000Y-7135000D02*
X15695000Y-7165000D01*
X15695000Y-7135000D02*
X15665000Y-7165000D01*
X15815000Y-8040000D02*
X15845000Y-8070000D01*
X15845000Y-8040000D02*
X15815000Y-8070000D01*
X15888000Y-9449000D02*
X15918000Y-9479000D01*
X15918000Y-9449000D02*
X15888000Y-9479000D01*
X16050000Y-11015000D02*
X16080000Y-11045000D01*
X16080000Y-11015000D02*
X16050000Y-11045000D01*
X16050000Y-11550000D02*
X16080000Y-11580000D01*
X16080000Y-11550000D02*
X16050000Y-11580000D01*
X16055000Y-12105000D02*
X16085000Y-12135000D01*
X16085000Y-12105000D02*
X16055000Y-12135000D01*
X16170000Y-8705000D02*
X16200000Y-8735000D01*
X16200000Y-8705000D02*
X16170000Y-8735000D01*
X16305000Y-13532500D02*
X16335000Y-13562500D01*
X16335000Y-13532500D02*
X16305000Y-13562500D01*
X16332500Y-10465000D02*
X16362500Y-10495000D01*
X16362500Y-10465000D02*
X16332500Y-10495000D01*
X16490000Y-10870000D02*
X16520000Y-10900000D01*
X16520000Y-10870000D02*
X16490000Y-10900000D01*
X16520000Y-8792500D02*
X16550000Y-8822500D01*
X16550000Y-8792500D02*
X16520000Y-8822500D01*
X16590000Y-10517500D02*
X16620000Y-10547500D01*
X16620000Y-10517500D02*
X16590000Y-10547500D01*
X16655000Y-9297500D02*
X16685000Y-9327500D01*
X16685000Y-9297500D02*
X16655000Y-9327500D01*
X16970000Y-15510000D02*
X17000000Y-15540000D01*
X17000000Y-15510000D02*
X16970000Y-15540000D01*
X16980000Y-4670000D02*
X17010000Y-4700000D01*
X17010000Y-4670000D02*
X16980000Y-4700000D01*
X17175000Y-14765000D02*
X17205000Y-14795000D01*
X17205000Y-14765000D02*
X17175000Y-14795000D01*
X17212500Y-15025000D02*
X17242500Y-15055000D01*
X17242500Y-15025000D02*
X17212500Y-15055000D01*
X17280000Y-15450000D02*
X17310000Y-15480000D01*
X17310000Y-15450000D02*
X17280000Y-15480000D01*
X17347500Y-14172500D02*
X17377500Y-14202500D01*
X17377500Y-14172500D02*
X17347500Y-14202500D01*
X17555000Y-13930000D02*
X17585000Y-13960000D01*
X17585000Y-13930000D02*
X17555000Y-13960000D01*
X17792500Y-13930000D02*
X17822500Y-13960000D01*
X17822500Y-13930000D02*
X17792500Y-13960000D01*
X17840000Y-13425000D02*
X17870000Y-13455000D01*
X17870000Y-13425000D02*
X17840000Y-13455000D01*
X17910000Y-4660000D02*
X17940000Y-4690000D01*
X17940000Y-4660000D02*
X17910000Y-4690000D01*
X17970000Y-12390000D02*
X18000000Y-12420000D01*
X18000000Y-12390000D02*
X17970000Y-12420000D01*
X18531250Y-14035000D02*
X18561250Y-14065000D01*
X18561250Y-14035000D02*
X18531250Y-14065000D01*
X18686250Y-15053750D02*
X18716250Y-15083750D01*
X18716250Y-15053750D02*
X18686250Y-15083750D01*
X7487500Y-15117500D02*
G75*
G02*
X7442500Y-15117500I-22500J0D01*
G01*
X7442500Y-15117500D02*
G75*
G02*
X7487500Y-15117500I22500J0D01*
G01*
X7442500Y-15067500D02*
X7442500Y-15167500D01*
X7487500Y-15167500D02*
G75*
G02*
X7442500Y-15167500I-22500J0D01*
G01*
X7487500Y-15167500D02*
X7487500Y-15067500D01*
X7487500Y-15067500D02*
G75*
G03*
X7442500Y-15067500I-22500J0D01*
G01*
X7487500Y-15437500D02*
G75*
G02*
X7442500Y-15437500I-22500J0D01*
G01*
X7442500Y-15437500D02*
G75*
G02*
X7487500Y-15437500I22500J0D01*
G01*
X7442500Y-15377500D02*
X7442500Y-15497500D01*
X7487500Y-15497500D02*
G75*
G02*
X7442500Y-15497500I-22500J0D01*
G01*
X7487500Y-15497500D02*
X7487500Y-15377500D01*
X7487500Y-15377500D02*
G75*
G03*
X7442500Y-15377500I-22500J0D01*
G01*
X8377500Y-15117500D02*
G75*
G02*
X8332500Y-15117500I-22500J0D01*
G01*
X8332500Y-15117500D02*
G75*
G02*
X8377500Y-15117500I22500J0D01*
G01*
X8332500Y-15067500D02*
X8332500Y-15167500D01*
X8377500Y-15167500D02*
G75*
G02*
X8332500Y-15167500I-22500J0D01*
G01*
X8377500Y-15167500D02*
X8377500Y-15067500D01*
X8377500Y-15067500D02*
G75*
G03*
X8332500Y-15067500I-22500J0D01*
G01*
X8377500Y-15437500D02*
G75*
G02*
X8332500Y-15437500I-22500J0D01*
G01*
X8332500Y-15437500D02*
G75*
G02*
X8377500Y-15437500I22500J0D01*
G01*
X8332500Y-15377500D02*
X8332500Y-15497500D01*
X8377500Y-15497500D02*
G75*
G02*
X8332500Y-15497500I-22500J0D01*
G01*
X8377500Y-15497500D02*
X8377500Y-15377500D01*
X8377500Y-15377500D02*
G75*
G03*
X8332500Y-15377500I-22500J0D01*
G01*
X14188000Y-7045500D02*
X14188000Y-7110500D01*
X14155500Y-7078000D02*
X14220500Y-7078000D01*
X14188000Y-7172500D02*
X14188000Y-7237500D01*
X14155500Y-7205000D02*
X14220500Y-7205000D01*
X14315000Y-7045500D02*
X14315000Y-7110500D01*
X14282500Y-7078000D02*
X14347500Y-7078000D01*
X14315000Y-7172500D02*
X14315000Y-7237500D01*
X14282500Y-7205000D02*
X14347500Y-7205000D01*
X14442000Y-7045500D02*
X14442000Y-7110500D01*
X14409500Y-7078000D02*
X14474500Y-7078000D01*
X14442000Y-7172500D02*
X14442000Y-7237500D01*
X14409500Y-7205000D02*
X14474500Y-7205000D01*
X14569000Y-7045500D02*
X14569000Y-7110500D01*
X14536500Y-7078000D02*
X14601500Y-7078000D01*
X14569000Y-7172500D02*
X14569000Y-7237500D01*
X14536500Y-7205000D02*
X14601500Y-7205000D01*
X14696000Y-7045500D02*
X14696000Y-7110500D01*
X14663500Y-7078000D02*
X14728500Y-7078000D01*
X14696000Y-7172500D02*
X14696000Y-7237500D01*
X14663500Y-7205000D02*
X14728500Y-7205000D01*
X19610000Y-14827500D02*
X19610000Y-14892500D01*
X19577500Y-14860000D02*
X19642500Y-14860000D01*
X19737000Y-14827500D02*
X19737000Y-14892500D01*
X19704500Y-14860000D02*
X19769500Y-14860000D01*
X6044749Y-13559749D02*
X6044749Y-13510251D01*
X5995251Y-13510251D01*
X5995251Y-13559749D01*
X6044749Y-13559749D01*
X6244749Y-13559749D02*
X6244749Y-13510251D01*
X6195251Y-13510251D01*
X6195251Y-13559749D01*
X6244749Y-13559749D01*
X6444749Y-13559749D02*
X6444749Y-13510251D01*
X6395251Y-13510251D01*
X6395251Y-13559749D01*
X6444749Y-13559749D01*
X6644749Y-13559749D02*
X6644749Y-13510251D01*
X6595251Y-13510251D01*
X6595251Y-13559749D01*
X6644749Y-13559749D01*
X7119749Y-13559749D02*
X7119749Y-13510251D01*
X7070251Y-13510251D01*
X7070251Y-13559749D01*
X7119749Y-13559749D01*
X7319749Y-13559749D02*
X7319749Y-13510251D01*
X7270251Y-13510251D01*
X7270251Y-13559749D01*
X7319749Y-13559749D01*
X7519749Y-13559749D02*
X7519749Y-13510251D01*
X7470251Y-13510251D01*
X7470251Y-13559749D01*
X7519749Y-13559749D01*
X7719749Y-13559749D02*
X7719749Y-13510251D01*
X7670251Y-13510251D01*
X7670251Y-13559749D01*
X7719749Y-13559749D01*
X15839749Y-15574749D02*
X15839749Y-15525251D01*
X15790251Y-15525251D01*
X15790251Y-15574749D01*
X15839749Y-15574749D01*
X16039749Y-15574749D02*
X16039749Y-15525251D01*
X15990251Y-15525251D01*
X15990251Y-15574749D01*
X16039749Y-15574749D01*
X13920000Y-11767500D02*
X13960000Y-11727500D01*
X13920000Y-11687500D01*
X13880000Y-11727500D01*
X13920000Y-11767500D01*
X13920000Y-12257500D02*
X13960000Y-12217500D01*
X13920000Y-12177500D01*
X13880000Y-12217500D01*
X13920000Y-12257500D01*
X17036000Y-13211000D02*
X17076000Y-13171000D01*
X17036000Y-13131000D01*
X16996000Y-13171000D01*
X17036000Y-13211000D01*
X17055000Y-12650000D02*
X17095000Y-12610000D01*
X17055000Y-12570000D01*
X17015000Y-12610000D01*
X17055000Y-12650000D01*
X17290000Y-13465000D02*
X17330000Y-13425000D01*
X17290000Y-13385000D01*
X17250000Y-13425000D01*
X17290000Y-13465000D01*
X17309000Y-12904000D02*
X17349000Y-12864000D01*
X17309000Y-12824000D01*
X17269000Y-12864000D01*
X17309000Y-12904000D01*
X17544000Y-13211000D02*
X17584000Y-13171000D01*
X17544000Y-13131000D01*
X17504000Y-13171000D01*
X17544000Y-13211000D01*
X17563000Y-12650000D02*
X17603000Y-12610000D01*
X17563000Y-12570000D01*
X17523000Y-12610000D01*
X17563000Y-12650000D01*
X5180000Y-13967000D02*
X5280000Y-14067000D01*
X5280000Y-13967000D02*
X5180000Y-14067000D01*
X5280000Y-14017000D02*
G75*
G02*
X5180000Y-14017000I-50000J0D01*
G01*
X5180000Y-14017000D02*
G75*
G02*
X5280000Y-14017000I50000J0D01*
G01*
X5180000Y-14221000D02*
X5280000Y-14321000D01*
X5280000Y-14221000D02*
X5180000Y-14321000D01*
X5280000Y-14271000D02*
G75*
G02*
X5180000Y-14271000I-50000J0D01*
G01*
X5180000Y-14271000D02*
G75*
G02*
X5280000Y-14271000I50000J0D01*
G01*
X5180000Y-14475000D02*
X5280000Y-14575000D01*
X5280000Y-14475000D02*
X5180000Y-14575000D01*
X5280000Y-14525000D02*
G75*
G02*
X5180000Y-14525000I-50000J0D01*
G01*
X5180000Y-14525000D02*
G75*
G02*
X5280000Y-14525000I50000J0D01*
G01*
X5180000Y-14729000D02*
X5280000Y-14829000D01*
X5280000Y-14729000D02*
X5180000Y-14829000D01*
X5280000Y-14779000D02*
G75*
G02*
X5180000Y-14779000I-50000J0D01*
G01*
X5180000Y-14779000D02*
G75*
G02*
X5280000Y-14779000I50000J0D01*
G01*
X5180000Y-14983000D02*
X5280000Y-15083000D01*
X5280000Y-14983000D02*
X5180000Y-15083000D01*
X5280000Y-15033000D02*
G75*
G02*
X5180000Y-15033000I-50000J0D01*
G01*
X5180000Y-15033000D02*
G75*
G02*
X5280000Y-15033000I50000J0D01*
G01*
X5205000Y-4587000D02*
X5305000Y-4687000D01*
X5305000Y-4587000D02*
X5205000Y-4687000D01*
X5305000Y-4637000D02*
G75*
G02*
X5205000Y-4637000I-50000J0D01*
G01*
X5205000Y-4637000D02*
G75*
G02*
X5305000Y-4637000I50000J0D01*
G01*
X5205000Y-4841000D02*
X5305000Y-4941000D01*
X5305000Y-4841000D02*
X5205000Y-4941000D01*
X5305000Y-4891000D02*
G75*
G02*
X5205000Y-4891000I-50000J0D01*
G01*
X5205000Y-4891000D02*
G75*
G02*
X5305000Y-4891000I50000J0D01*
G01*
X5205000Y-5095000D02*
X5305000Y-5195000D01*
X5305000Y-5095000D02*
X5205000Y-5195000D01*
X5305000Y-5145000D02*
G75*
G02*
X5205000Y-5145000I-50000J0D01*
G01*
X5205000Y-5145000D02*
G75*
G02*
X5305000Y-5145000I50000J0D01*
G01*
X5205000Y-5349000D02*
X5305000Y-5449000D01*
X5305000Y-5349000D02*
X5205000Y-5449000D01*
X5305000Y-5399000D02*
G75*
G02*
X5205000Y-5399000I-50000J0D01*
G01*
X5205000Y-5399000D02*
G75*
G02*
X5305000Y-5399000I50000J0D01*
G01*
X5205000Y-5603000D02*
X5305000Y-5703000D01*
X5305000Y-5603000D02*
X5205000Y-5703000D01*
X5305000Y-5653000D02*
G75*
G02*
X5205000Y-5653000I-50000J0D01*
G01*
X5205000Y-5653000D02*
G75*
G02*
X5305000Y-5653000I50000J0D01*
G01*
X5330000Y-7117000D02*
X5430000Y-7217000D01*
X5430000Y-7117000D02*
X5330000Y-7217000D01*
X5430000Y-7167000D02*
G75*
G02*
X5330000Y-7167000I-50000J0D01*
G01*
X5330000Y-7167000D02*
G75*
G02*
X5430000Y-7167000I50000J0D01*
G01*
X5330000Y-7371000D02*
X5430000Y-7471000D01*
X5430000Y-7371000D02*
X5330000Y-7471000D01*
X5430000Y-7421000D02*
G75*
G02*
X5330000Y-7421000I-50000J0D01*
G01*
X5330000Y-7421000D02*
G75*
G02*
X5430000Y-7421000I50000J0D01*
G01*
X5330000Y-7625000D02*
X5430000Y-7725000D01*
X5430000Y-7625000D02*
X5330000Y-7725000D01*
X5430000Y-7675000D02*
G75*
G02*
X5330000Y-7675000I-50000J0D01*
G01*
X5330000Y-7675000D02*
G75*
G02*
X5430000Y-7675000I50000J0D01*
G01*
X5330000Y-7879000D02*
X5430000Y-7979000D01*
X5430000Y-7879000D02*
X5330000Y-7979000D01*
X5430000Y-7929000D02*
G75*
G02*
X5330000Y-7929000I-50000J0D01*
G01*
X5330000Y-7929000D02*
G75*
G02*
X5430000Y-7929000I50000J0D01*
G01*
X5330000Y-8133000D02*
X5430000Y-8233000D01*
X5430000Y-8133000D02*
X5330000Y-8233000D01*
X5430000Y-8183000D02*
G75*
G02*
X5330000Y-8183000I-50000J0D01*
G01*
X5330000Y-8183000D02*
G75*
G02*
X5430000Y-8183000I50000J0D01*
G01*
X5330000Y-8387000D02*
X5430000Y-8487000D01*
X5430000Y-8387000D02*
X5330000Y-8487000D01*
X5430000Y-8437000D02*
G75*
G02*
X5330000Y-8437000I-50000J0D01*
G01*
X5330000Y-8437000D02*
G75*
G02*
X5430000Y-8437000I50000J0D01*
G01*
X5330000Y-8641000D02*
X5430000Y-8741000D01*
X5430000Y-8641000D02*
X5330000Y-8741000D01*
X5430000Y-8691000D02*
G75*
G02*
X5330000Y-8691000I-50000J0D01*
G01*
X5330000Y-8691000D02*
G75*
G02*
X5430000Y-8691000I50000J0D01*
G01*
X5330000Y-8895000D02*
X5430000Y-8995000D01*
X5430000Y-8895000D02*
X5330000Y-8995000D01*
X5430000Y-8945000D02*
G75*
G02*
X5330000Y-8945000I-50000J0D01*
G01*
X5330000Y-8945000D02*
G75*
G02*
X5430000Y-8945000I50000J0D01*
G01*
X5330000Y-9149000D02*
X5430000Y-9249000D01*
X5430000Y-9149000D02*
X5330000Y-9249000D01*
X5430000Y-9199000D02*
G75*
G02*
X5330000Y-9199000I-50000J0D01*
G01*
X5330000Y-9199000D02*
G75*
G02*
X5430000Y-9199000I50000J0D01*
G01*
X5330000Y-9403000D02*
X5430000Y-9503000D01*
X5430000Y-9403000D02*
X5330000Y-9503000D01*
X5430000Y-9453000D02*
G75*
G02*
X5330000Y-9453000I-50000J0D01*
G01*
X5330000Y-9453000D02*
G75*
G02*
X5430000Y-9453000I50000J0D01*
G01*
X5330000Y-9657000D02*
X5430000Y-9757000D01*
X5430000Y-9657000D02*
X5330000Y-9757000D01*
X5430000Y-9707000D02*
G75*
G02*
X5330000Y-9707000I-50000J0D01*
G01*
X5330000Y-9707000D02*
G75*
G02*
X5430000Y-9707000I50000J0D01*
G01*
X5330000Y-9911000D02*
X5430000Y-10011000D01*
X5430000Y-9911000D02*
X5330000Y-10011000D01*
X5430000Y-9961000D02*
G75*
G02*
X5330000Y-9961000I-50000J0D01*
G01*
X5330000Y-9961000D02*
G75*
G02*
X5430000Y-9961000I50000J0D01*
G01*
X5330000Y-10165000D02*
X5430000Y-10265000D01*
X5430000Y-10165000D02*
X5330000Y-10265000D01*
X5430000Y-10215000D02*
G75*
G02*
X5330000Y-10215000I-50000J0D01*
G01*
X5330000Y-10215000D02*
G75*
G02*
X5430000Y-10215000I50000J0D01*
G01*
X5330000Y-10419000D02*
X5430000Y-10519000D01*
X5430000Y-10419000D02*
X5330000Y-10519000D01*
X5430000Y-10469000D02*
G75*
G02*
X5330000Y-10469000I-50000J0D01*
G01*
X5330000Y-10469000D02*
G75*
G02*
X5430000Y-10469000I50000J0D01*
G01*
X5330000Y-10673000D02*
X5430000Y-10773000D01*
X5430000Y-10673000D02*
X5330000Y-10773000D01*
X5430000Y-10723000D02*
G75*
G02*
X5330000Y-10723000I-50000J0D01*
G01*
X5330000Y-10723000D02*
G75*
G02*
X5430000Y-10723000I50000J0D01*
G01*
X5330000Y-10927000D02*
X5430000Y-11027000D01*
X5430000Y-10927000D02*
X5330000Y-11027000D01*
X5430000Y-10977000D02*
G75*
G02*
X5330000Y-10977000I-50000J0D01*
G01*
X5330000Y-10977000D02*
G75*
G02*
X5430000Y-10977000I50000J0D01*
G01*
X5330000Y-11181000D02*
X5430000Y-11281000D01*
X5430000Y-11181000D02*
X5330000Y-11281000D01*
X5430000Y-11231000D02*
G75*
G02*
X5330000Y-11231000I-50000J0D01*
G01*
X5330000Y-11231000D02*
G75*
G02*
X5430000Y-11231000I50000J0D01*
G01*
X5330000Y-11435000D02*
X5430000Y-11535000D01*
X5430000Y-11435000D02*
X5330000Y-11535000D01*
X5430000Y-11485000D02*
G75*
G02*
X5330000Y-11485000I-50000J0D01*
G01*
X5330000Y-11485000D02*
G75*
G02*
X5430000Y-11485000I50000J0D01*
G01*
X5330000Y-11689000D02*
X5430000Y-11789000D01*
X5430000Y-11689000D02*
X5330000Y-11789000D01*
X5430000Y-11739000D02*
G75*
G02*
X5330000Y-11739000I-50000J0D01*
G01*
X5330000Y-11739000D02*
G75*
G02*
X5430000Y-11739000I50000J0D01*
G01*
X5330000Y-11943000D02*
X5430000Y-12043000D01*
X5430000Y-11943000D02*
X5330000Y-12043000D01*
X5430000Y-11993000D02*
G75*
G02*
X5330000Y-11993000I-50000J0D01*
G01*
X5330000Y-11993000D02*
G75*
G02*
X5430000Y-11993000I50000J0D01*
G01*
X5584000Y-7117000D02*
X5684000Y-7217000D01*
X5684000Y-7117000D02*
X5584000Y-7217000D01*
X5684000Y-7167000D02*
G75*
G02*
X5584000Y-7167000I-50000J0D01*
G01*
X5584000Y-7167000D02*
G75*
G02*
X5684000Y-7167000I50000J0D01*
G01*
X5584000Y-7371000D02*
X5684000Y-7471000D01*
X5684000Y-7371000D02*
X5584000Y-7471000D01*
X5684000Y-7421000D02*
G75*
G02*
X5584000Y-7421000I-50000J0D01*
G01*
X5584000Y-7421000D02*
G75*
G02*
X5684000Y-7421000I50000J0D01*
G01*
X5584000Y-7625000D02*
X5684000Y-7725000D01*
X5684000Y-7625000D02*
X5584000Y-7725000D01*
X5684000Y-7675000D02*
G75*
G02*
X5584000Y-7675000I-50000J0D01*
G01*
X5584000Y-7675000D02*
G75*
G02*
X5684000Y-7675000I50000J0D01*
G01*
X5584000Y-7879000D02*
X5684000Y-7979000D01*
X5684000Y-7879000D02*
X5584000Y-7979000D01*
X5684000Y-7929000D02*
G75*
G02*
X5584000Y-7929000I-50000J0D01*
G01*
X5584000Y-7929000D02*
G75*
G02*
X5684000Y-7929000I50000J0D01*
G01*
X5584000Y-8133000D02*
X5684000Y-8233000D01*
X5684000Y-8133000D02*
X5584000Y-8233000D01*
X5684000Y-8183000D02*
G75*
G02*
X5584000Y-8183000I-50000J0D01*
G01*
X5584000Y-8183000D02*
G75*
G02*
X5684000Y-8183000I50000J0D01*
G01*
X5584000Y-8387000D02*
X5684000Y-8487000D01*
X5684000Y-8387000D02*
X5584000Y-8487000D01*
X5684000Y-8437000D02*
G75*
G02*
X5584000Y-8437000I-50000J0D01*
G01*
X5584000Y-8437000D02*
G75*
G02*
X5684000Y-8437000I50000J0D01*
G01*
X5584000Y-8641000D02*
X5684000Y-8741000D01*
X5684000Y-8641000D02*
X5584000Y-8741000D01*
X5684000Y-8691000D02*
G75*
G02*
X5584000Y-8691000I-50000J0D01*
G01*
X5584000Y-8691000D02*
G75*
G02*
X5684000Y-8691000I50000J0D01*
G01*
X5584000Y-8895000D02*
X5684000Y-8995000D01*
X5684000Y-8895000D02*
X5584000Y-8995000D01*
X5684000Y-8945000D02*
G75*
G02*
X5584000Y-8945000I-50000J0D01*
G01*
X5584000Y-8945000D02*
G75*
G02*
X5684000Y-8945000I50000J0D01*
G01*
X5584000Y-9149000D02*
X5684000Y-9249000D01*
X5684000Y-9149000D02*
X5584000Y-9249000D01*
X5684000Y-9199000D02*
G75*
G02*
X5584000Y-9199000I-50000J0D01*
G01*
X5584000Y-9199000D02*
G75*
G02*
X5684000Y-9199000I50000J0D01*
G01*
X5584000Y-9403000D02*
X5684000Y-9503000D01*
X5684000Y-9403000D02*
X5584000Y-9503000D01*
X5684000Y-9453000D02*
G75*
G02*
X5584000Y-9453000I-50000J0D01*
G01*
X5584000Y-9453000D02*
G75*
G02*
X5684000Y-9453000I50000J0D01*
G01*
X5584000Y-9657000D02*
X5684000Y-9757000D01*
X5684000Y-9657000D02*
X5584000Y-9757000D01*
X5684000Y-9707000D02*
G75*
G02*
X5584000Y-9707000I-50000J0D01*
G01*
X5584000Y-9707000D02*
G75*
G02*
X5684000Y-9707000I50000J0D01*
G01*
X5584000Y-9911000D02*
X5684000Y-10011000D01*
X5684000Y-9911000D02*
X5584000Y-10011000D01*
X5684000Y-9961000D02*
G75*
G02*
X5584000Y-9961000I-50000J0D01*
G01*
X5584000Y-9961000D02*
G75*
G02*
X5684000Y-9961000I50000J0D01*
G01*
X5584000Y-10165000D02*
X5684000Y-10265000D01*
X5684000Y-10165000D02*
X5584000Y-10265000D01*
X5684000Y-10215000D02*
G75*
G02*
X5584000Y-10215000I-50000J0D01*
G01*
X5584000Y-10215000D02*
G75*
G02*
X5684000Y-10215000I50000J0D01*
G01*
X5584000Y-10419000D02*
X5684000Y-10519000D01*
X5684000Y-10419000D02*
X5584000Y-10519000D01*
X5684000Y-10469000D02*
G75*
G02*
X5584000Y-10469000I-50000J0D01*
G01*
X5584000Y-10469000D02*
G75*
G02*
X5684000Y-10469000I50000J0D01*
G01*
X5584000Y-10673000D02*
X5684000Y-10773000D01*
X5684000Y-10673000D02*
X5584000Y-10773000D01*
X5684000Y-10723000D02*
G75*
G02*
X5584000Y-10723000I-50000J0D01*
G01*
X5584000Y-10723000D02*
G75*
G02*
X5684000Y-10723000I50000J0D01*
G01*
X5584000Y-10927000D02*
X5684000Y-11027000D01*
X5684000Y-10927000D02*
X5584000Y-11027000D01*
X5684000Y-10977000D02*
G75*
G02*
X5584000Y-10977000I-50000J0D01*
G01*
X5584000Y-10977000D02*
G75*
G02*
X5684000Y-10977000I50000J0D01*
G01*
X5584000Y-11181000D02*
X5684000Y-11281000D01*
X5684000Y-11181000D02*
X5584000Y-11281000D01*
X5684000Y-11231000D02*
G75*
G02*
X5584000Y-11231000I-50000J0D01*
G01*
X5584000Y-11231000D02*
G75*
G02*
X5684000Y-11231000I50000J0D01*
G01*
X5584000Y-11435000D02*
X5684000Y-11535000D01*
X5684000Y-11435000D02*
X5584000Y-11535000D01*
X5684000Y-11485000D02*
G75*
G02*
X5584000Y-11485000I-50000J0D01*
G01*
X5584000Y-11485000D02*
G75*
G02*
X5684000Y-11485000I50000J0D01*
G01*
X5584000Y-11689000D02*
X5684000Y-11789000D01*
X5684000Y-11689000D02*
X5584000Y-11789000D01*
X5684000Y-11739000D02*
G75*
G02*
X5584000Y-11739000I-50000J0D01*
G01*
X5584000Y-11739000D02*
G75*
G02*
X5684000Y-11739000I50000J0D01*
G01*
X5584000Y-11943000D02*
X5684000Y-12043000D01*
X5684000Y-11943000D02*
X5584000Y-12043000D01*
X5684000Y-11993000D02*
G75*
G02*
X5584000Y-11993000I-50000J0D01*
G01*
X5584000Y-11993000D02*
G75*
G02*
X5684000Y-11993000I50000J0D01*
G01*
X5640000Y-13967000D02*
X5740000Y-14067000D01*
X5740000Y-13967000D02*
X5640000Y-14067000D01*
X5740000Y-14017000D02*
G75*
G02*
X5640000Y-14017000I-50000J0D01*
G01*
X5640000Y-14017000D02*
G75*
G02*
X5740000Y-14017000I50000J0D01*
G01*
X5640000Y-14221000D02*
X5740000Y-14321000D01*
X5740000Y-14221000D02*
X5640000Y-14321000D01*
X5740000Y-14271000D02*
G75*
G02*
X5640000Y-14271000I-50000J0D01*
G01*
X5640000Y-14271000D02*
G75*
G02*
X5740000Y-14271000I50000J0D01*
G01*
X5640000Y-14475000D02*
X5740000Y-14575000D01*
X5740000Y-14475000D02*
X5640000Y-14575000D01*
X5740000Y-14525000D02*
G75*
G02*
X5640000Y-14525000I-50000J0D01*
G01*
X5640000Y-14525000D02*
G75*
G02*
X5740000Y-14525000I50000J0D01*
G01*
X5640000Y-14729000D02*
X5740000Y-14829000D01*
X5740000Y-14729000D02*
X5640000Y-14829000D01*
X5740000Y-14779000D02*
G75*
G02*
X5640000Y-14779000I-50000J0D01*
G01*
X5640000Y-14779000D02*
G75*
G02*
X5740000Y-14779000I50000J0D01*
G01*
X5640000Y-14983000D02*
X5740000Y-15083000D01*
X5740000Y-14983000D02*
X5640000Y-15083000D01*
X5740000Y-15033000D02*
G75*
G02*
X5640000Y-15033000I-50000J0D01*
G01*
X5640000Y-15033000D02*
G75*
G02*
X5740000Y-15033000I50000J0D01*
G01*
X5660000Y-4586000D02*
X5760000Y-4686000D01*
X5760000Y-4586000D02*
X5660000Y-4686000D01*
X5760000Y-4636000D02*
G75*
G02*
X5660000Y-4636000I-50000J0D01*
G01*
X5660000Y-4636000D02*
G75*
G02*
X5760000Y-4636000I50000J0D01*
G01*
X5660000Y-4840000D02*
X5760000Y-4940000D01*
X5760000Y-4840000D02*
X5660000Y-4940000D01*
X5760000Y-4890000D02*
G75*
G02*
X5660000Y-4890000I-50000J0D01*
G01*
X5660000Y-4890000D02*
G75*
G02*
X5760000Y-4890000I50000J0D01*
G01*
X5660000Y-5094000D02*
X5760000Y-5194000D01*
X5760000Y-5094000D02*
X5660000Y-5194000D01*
X5760000Y-5144000D02*
G75*
G02*
X5660000Y-5144000I-50000J0D01*
G01*
X5660000Y-5144000D02*
G75*
G02*
X5760000Y-5144000I50000J0D01*
G01*
X5660000Y-5348000D02*
X5760000Y-5448000D01*
X5760000Y-5348000D02*
X5660000Y-5448000D01*
X5760000Y-5398000D02*
G75*
G02*
X5660000Y-5398000I-50000J0D01*
G01*
X5660000Y-5398000D02*
G75*
G02*
X5760000Y-5398000I50000J0D01*
G01*
X5660000Y-5602000D02*
X5760000Y-5702000D01*
X5760000Y-5602000D02*
X5660000Y-5702000D01*
X5760000Y-5652000D02*
G75*
G02*
X5660000Y-5652000I-50000J0D01*
G01*
X5660000Y-5652000D02*
G75*
G02*
X5760000Y-5652000I50000J0D01*
G01*
X6100000Y-13967000D02*
X6200000Y-14067000D01*
X6200000Y-13967000D02*
X6100000Y-14067000D01*
X6200000Y-14017000D02*
G75*
G02*
X6100000Y-14017000I-50000J0D01*
G01*
X6100000Y-14017000D02*
G75*
G02*
X6200000Y-14017000I50000J0D01*
G01*
X6100000Y-14221000D02*
X6200000Y-14321000D01*
X6200000Y-14221000D02*
X6100000Y-14321000D01*
X6200000Y-14271000D02*
G75*
G02*
X6100000Y-14271000I-50000J0D01*
G01*
X6100000Y-14271000D02*
G75*
G02*
X6200000Y-14271000I50000J0D01*
G01*
X6100000Y-14475000D02*
X6200000Y-14575000D01*
X6200000Y-14475000D02*
X6100000Y-14575000D01*
X6200000Y-14525000D02*
G75*
G02*
X6100000Y-14525000I-50000J0D01*
G01*
X6100000Y-14525000D02*
G75*
G02*
X6200000Y-14525000I50000J0D01*
G01*
X6100000Y-14729000D02*
X6200000Y-14829000D01*
X6200000Y-14729000D02*
X6100000Y-14829000D01*
X6200000Y-14779000D02*
G75*
G02*
X6100000Y-14779000I-50000J0D01*
G01*
X6100000Y-14779000D02*
G75*
G02*
X6200000Y-14779000I50000J0D01*
G01*
X6100000Y-14983000D02*
X6200000Y-15083000D01*
X6200000Y-14983000D02*
X6100000Y-15083000D01*
X6200000Y-15033000D02*
G75*
G02*
X6100000Y-15033000I-50000J0D01*
G01*
X6100000Y-15033000D02*
G75*
G02*
X6200000Y-15033000I50000J0D01*
G01*
X6120000Y-4586000D02*
X6220000Y-4686000D01*
X6220000Y-4586000D02*
X6120000Y-4686000D01*
X6220000Y-4636000D02*
G75*
G02*
X6120000Y-4636000I-50000J0D01*
G01*
X6120000Y-4636000D02*
G75*
G02*
X6220000Y-4636000I50000J0D01*
G01*
X6120000Y-4840000D02*
X6220000Y-4940000D01*
X6220000Y-4840000D02*
X6120000Y-4940000D01*
X6220000Y-4890000D02*
G75*
G02*
X6120000Y-4890000I-50000J0D01*
G01*
X6120000Y-4890000D02*
G75*
G02*
X6220000Y-4890000I50000J0D01*
G01*
X6120000Y-5094000D02*
X6220000Y-5194000D01*
X6220000Y-5094000D02*
X6120000Y-5194000D01*
X6220000Y-5144000D02*
G75*
G02*
X6120000Y-5144000I-50000J0D01*
G01*
X6120000Y-5144000D02*
G75*
G02*
X6220000Y-5144000I50000J0D01*
G01*
X6120000Y-5348000D02*
X6220000Y-5448000D01*
X6220000Y-5348000D02*
X6120000Y-5448000D01*
X6220000Y-5398000D02*
G75*
G02*
X6120000Y-5398000I-50000J0D01*
G01*
X6120000Y-5398000D02*
G75*
G02*
X6220000Y-5398000I50000J0D01*
G01*
X6120000Y-5602000D02*
X6220000Y-5702000D01*
X6220000Y-5602000D02*
X6120000Y-5702000D01*
X6220000Y-5652000D02*
G75*
G02*
X6120000Y-5652000I-50000J0D01*
G01*
X6120000Y-5652000D02*
G75*
G02*
X6220000Y-5652000I50000J0D01*
G01*
X6560000Y-13967000D02*
X6660000Y-14067000D01*
X6660000Y-13967000D02*
X6560000Y-14067000D01*
X6660000Y-14017000D02*
G75*
G02*
X6560000Y-14017000I-50000J0D01*
G01*
X6560000Y-14017000D02*
G75*
G02*
X6660000Y-14017000I50000J0D01*
G01*
X6560000Y-14221000D02*
X6660000Y-14321000D01*
X6660000Y-14221000D02*
X6560000Y-14321000D01*
X6660000Y-14271000D02*
G75*
G02*
X6560000Y-14271000I-50000J0D01*
G01*
X6560000Y-14271000D02*
G75*
G02*
X6660000Y-14271000I50000J0D01*
G01*
X6560000Y-14475000D02*
X6660000Y-14575000D01*
X6660000Y-14475000D02*
X6560000Y-14575000D01*
X6660000Y-14525000D02*
G75*
G02*
X6560000Y-14525000I-50000J0D01*
G01*
X6560000Y-14525000D02*
G75*
G02*
X6660000Y-14525000I50000J0D01*
G01*
X6560000Y-14729000D02*
X6660000Y-14829000D01*
X6660000Y-14729000D02*
X6560000Y-14829000D01*
X6660000Y-14779000D02*
G75*
G02*
X6560000Y-14779000I-50000J0D01*
G01*
X6560000Y-14779000D02*
G75*
G02*
X6660000Y-14779000I50000J0D01*
G01*
X6560000Y-14983000D02*
X6660000Y-15083000D01*
X6660000Y-14983000D02*
X6560000Y-15083000D01*
X6660000Y-15033000D02*
G75*
G02*
X6560000Y-15033000I-50000J0D01*
G01*
X6560000Y-15033000D02*
G75*
G02*
X6660000Y-15033000I50000J0D01*
G01*
X6565000Y-4562000D02*
X6665000Y-4662000D01*
X6665000Y-4562000D02*
X6565000Y-4662000D01*
X6665000Y-4612000D02*
G75*
G02*
X6565000Y-4612000I-50000J0D01*
G01*
X6565000Y-4612000D02*
G75*
G02*
X6665000Y-4612000I50000J0D01*
G01*
X6565000Y-4816000D02*
X6665000Y-4916000D01*
X6665000Y-4816000D02*
X6565000Y-4916000D01*
X6665000Y-4866000D02*
G75*
G02*
X6565000Y-4866000I-50000J0D01*
G01*
X6565000Y-4866000D02*
G75*
G02*
X6665000Y-4866000I50000J0D01*
G01*
X6565000Y-5070000D02*
X6665000Y-5170000D01*
X6665000Y-5070000D02*
X6565000Y-5170000D01*
X6665000Y-5120000D02*
G75*
G02*
X6565000Y-5120000I-50000J0D01*
G01*
X6565000Y-5120000D02*
G75*
G02*
X6665000Y-5120000I50000J0D01*
G01*
X6565000Y-5324000D02*
X6665000Y-5424000D01*
X6665000Y-5324000D02*
X6565000Y-5424000D01*
X6665000Y-5374000D02*
G75*
G02*
X6565000Y-5374000I-50000J0D01*
G01*
X6565000Y-5374000D02*
G75*
G02*
X6665000Y-5374000I50000J0D01*
G01*
X6565000Y-5578000D02*
X6665000Y-5678000D01*
X6665000Y-5578000D02*
X6565000Y-5678000D01*
X6665000Y-5628000D02*
G75*
G02*
X6565000Y-5628000I-50000J0D01*
G01*
X6565000Y-5628000D02*
G75*
G02*
X6665000Y-5628000I50000J0D01*
G01*
X9777000Y-15170000D02*
X9877000Y-15270000D01*
X9877000Y-15170000D02*
X9777000Y-15270000D01*
X9877000Y-15220000D02*
G75*
G02*
X9777000Y-15220000I-50000J0D01*
G01*
X9777000Y-15220000D02*
G75*
G02*
X9877000Y-15220000I50000J0D01*
G01*
X10031000Y-15170000D02*
X10131000Y-15270000D01*
X10131000Y-15170000D02*
X10031000Y-15270000D01*
X10131000Y-15220000D02*
G75*
G02*
X10031000Y-15220000I-50000J0D01*
G01*
X10031000Y-15220000D02*
G75*
G02*
X10131000Y-15220000I50000J0D01*
G01*
X10285000Y-15170000D02*
X10385000Y-15270000D01*
X10385000Y-15170000D02*
X10285000Y-15270000D01*
X10385000Y-15220000D02*
G75*
G02*
X10285000Y-15220000I-50000J0D01*
G01*
X10285000Y-15220000D02*
G75*
G02*
X10385000Y-15220000I50000J0D01*
G01*
X10539000Y-15170000D02*
X10639000Y-15270000D01*
X10639000Y-15170000D02*
X10539000Y-15270000D01*
X10639000Y-15220000D02*
G75*
G02*
X10539000Y-15220000I-50000J0D01*
G01*
X10539000Y-15220000D02*
G75*
G02*
X10639000Y-15220000I50000J0D01*
G01*
X10793000Y-15170000D02*
X10893000Y-15270000D01*
X10893000Y-15170000D02*
X10793000Y-15270000D01*
X10893000Y-15220000D02*
G75*
G02*
X10793000Y-15220000I-50000J0D01*
G01*
X10793000Y-15220000D02*
G75*
G02*
X10893000Y-15220000I50000J0D01*
G01*
X10809000Y-5250000D02*
X10909000Y-5350000D01*
X10909000Y-5250000D02*
X10809000Y-5350000D01*
X10909000Y-5300000D02*
G75*
G02*
X10809000Y-5300000I-50000J0D01*
G01*
X10809000Y-5300000D02*
G75*
G02*
X10909000Y-5300000I50000J0D01*
G01*
X10809000Y-5504000D02*
X10909000Y-5604000D01*
X10909000Y-5504000D02*
X10809000Y-5604000D01*
X10909000Y-5554000D02*
G75*
G02*
X10809000Y-5554000I-50000J0D01*
G01*
X10809000Y-5554000D02*
G75*
G02*
X10909000Y-5554000I50000J0D01*
G01*
X10850000Y-4560000D02*
X10950000Y-4660000D01*
X10950000Y-4560000D02*
X10850000Y-4660000D01*
X10950000Y-4610000D02*
G75*
G02*
X10850000Y-4610000I-50000J0D01*
G01*
X10850000Y-4610000D02*
G75*
G02*
X10950000Y-4610000I50000J0D01*
G01*
X10850000Y-4814000D02*
X10950000Y-4914000D01*
X10950000Y-4814000D02*
X10850000Y-4914000D01*
X10950000Y-4864000D02*
G75*
G02*
X10850000Y-4864000I-50000J0D01*
G01*
X10850000Y-4864000D02*
G75*
G02*
X10950000Y-4864000I50000J0D01*
G01*
X11063000Y-5250000D02*
X11163000Y-5350000D01*
X11163000Y-5250000D02*
X11063000Y-5350000D01*
X11163000Y-5300000D02*
G75*
G02*
X11063000Y-5300000I-50000J0D01*
G01*
X11063000Y-5300000D02*
G75*
G02*
X11163000Y-5300000I50000J0D01*
G01*
X11063000Y-5504000D02*
X11163000Y-5604000D01*
X11163000Y-5504000D02*
X11063000Y-5604000D01*
X11163000Y-5554000D02*
G75*
G02*
X11063000Y-5554000I-50000J0D01*
G01*
X11063000Y-5554000D02*
G75*
G02*
X11163000Y-5554000I50000J0D01*
G01*
X11104000Y-4560000D02*
X11204000Y-4660000D01*
X11204000Y-4560000D02*
X11104000Y-4660000D01*
X11204000Y-4610000D02*
G75*
G02*
X11104000Y-4610000I-50000J0D01*
G01*
X11104000Y-4610000D02*
G75*
G02*
X11204000Y-4610000I50000J0D01*
G01*
X11104000Y-4814000D02*
X11204000Y-4914000D01*
X11204000Y-4814000D02*
X11104000Y-4914000D01*
X11204000Y-4864000D02*
G75*
G02*
X11104000Y-4864000I-50000J0D01*
G01*
X11104000Y-4864000D02*
G75*
G02*
X11204000Y-4864000I50000J0D01*
G01*
X11317000Y-5250000D02*
X11417000Y-5350000D01*
X11417000Y-5250000D02*
X11317000Y-5350000D01*
X11417000Y-5300000D02*
G75*
G02*
X11317000Y-5300000I-50000J0D01*
G01*
X11317000Y-5300000D02*
G75*
G02*
X11417000Y-5300000I50000J0D01*
G01*
X11317000Y-5504000D02*
X11417000Y-5604000D01*
X11417000Y-5504000D02*
X11317000Y-5604000D01*
X11417000Y-5554000D02*
G75*
G02*
X11317000Y-5554000I-50000J0D01*
G01*
X11317000Y-5554000D02*
G75*
G02*
X11417000Y-5554000I50000J0D01*
G01*
X11358000Y-4560000D02*
X11458000Y-4660000D01*
X11458000Y-4560000D02*
X11358000Y-4660000D01*
X11458000Y-4610000D02*
G75*
G02*
X11358000Y-4610000I-50000J0D01*
G01*
X11358000Y-4610000D02*
G75*
G02*
X11458000Y-4610000I50000J0D01*
G01*
X11358000Y-4814000D02*
X11458000Y-4914000D01*
X11458000Y-4814000D02*
X11358000Y-4914000D01*
X11458000Y-4864000D02*
G75*
G02*
X11358000Y-4864000I-50000J0D01*
G01*
X11358000Y-4864000D02*
G75*
G02*
X11458000Y-4864000I50000J0D01*
G01*
X11571000Y-5250000D02*
X11671000Y-5350000D01*
X11671000Y-5250000D02*
X11571000Y-5350000D01*
X11671000Y-5300000D02*
G75*
G02*
X11571000Y-5300000I-50000J0D01*
G01*
X11571000Y-5300000D02*
G75*
G02*
X11671000Y-5300000I50000J0D01*
G01*
X11571000Y-5504000D02*
X11671000Y-5604000D01*
X11671000Y-5504000D02*
X11571000Y-5604000D01*
X11671000Y-5554000D02*
G75*
G02*
X11571000Y-5554000I-50000J0D01*
G01*
X11571000Y-5554000D02*
G75*
G02*
X11671000Y-5554000I50000J0D01*
G01*
X11582000Y-15145000D02*
X11682000Y-15245000D01*
X11682000Y-15145000D02*
X11582000Y-15245000D01*
X11682000Y-15195000D02*
G75*
G02*
X11582000Y-15195000I-50000J0D01*
G01*
X11582000Y-15195000D02*
G75*
G02*
X11682000Y-15195000I50000J0D01*
G01*
X11612000Y-4560000D02*
X11712000Y-4660000D01*
X11712000Y-4560000D02*
X11612000Y-4660000D01*
X11712000Y-4610000D02*
G75*
G02*
X11612000Y-4610000I-50000J0D01*
G01*
X11612000Y-4610000D02*
G75*
G02*
X11712000Y-4610000I50000J0D01*
G01*
X11612000Y-4814000D02*
X11712000Y-4914000D01*
X11712000Y-4814000D02*
X11612000Y-4914000D01*
X11712000Y-4864000D02*
G75*
G02*
X11612000Y-4864000I-50000J0D01*
G01*
X11612000Y-4864000D02*
G75*
G02*
X11712000Y-4864000I50000J0D01*
G01*
X11825000Y-5250000D02*
X11925000Y-5350000D01*
X11925000Y-5250000D02*
X11825000Y-5350000D01*
X11925000Y-5300000D02*
G75*
G02*
X11825000Y-5300000I-50000J0D01*
G01*
X11825000Y-5300000D02*
G75*
G02*
X11925000Y-5300000I50000J0D01*
G01*
X11825000Y-5504000D02*
X11925000Y-5604000D01*
X11925000Y-5504000D02*
X11825000Y-5604000D01*
X11925000Y-5554000D02*
G75*
G02*
X11825000Y-5554000I-50000J0D01*
G01*
X11825000Y-5554000D02*
G75*
G02*
X11925000Y-5554000I50000J0D01*
G01*
X11836000Y-15145000D02*
X11936000Y-15245000D01*
X11936000Y-15145000D02*
X11836000Y-15245000D01*
X11936000Y-15195000D02*
G75*
G02*
X11836000Y-15195000I-50000J0D01*
G01*
X11836000Y-15195000D02*
G75*
G02*
X11936000Y-15195000I50000J0D01*
G01*
X11866000Y-4560000D02*
X11966000Y-4660000D01*
X11966000Y-4560000D02*
X11866000Y-4660000D01*
X11966000Y-4610000D02*
G75*
G02*
X11866000Y-4610000I-50000J0D01*
G01*
X11866000Y-4610000D02*
G75*
G02*
X11966000Y-4610000I50000J0D01*
G01*
X11866000Y-4814000D02*
X11966000Y-4914000D01*
X11966000Y-4814000D02*
X11866000Y-4914000D01*
X11966000Y-4864000D02*
G75*
G02*
X11866000Y-4864000I-50000J0D01*
G01*
X11866000Y-4864000D02*
G75*
G02*
X11966000Y-4864000I50000J0D01*
G01*
X12079000Y-5250000D02*
X12179000Y-5350000D01*
X12179000Y-5250000D02*
X12079000Y-5350000D01*
X12179000Y-5300000D02*
G75*
G02*
X12079000Y-5300000I-50000J0D01*
G01*
X12079000Y-5300000D02*
G75*
G02*
X12179000Y-5300000I50000J0D01*
G01*
X12079000Y-5504000D02*
X12179000Y-5604000D01*
X12179000Y-5504000D02*
X12079000Y-5604000D01*
X12179000Y-5554000D02*
G75*
G02*
X12079000Y-5554000I-50000J0D01*
G01*
X12079000Y-5554000D02*
G75*
G02*
X12179000Y-5554000I50000J0D01*
G01*
X12090000Y-15145000D02*
X12190000Y-15245000D01*
X12190000Y-15145000D02*
X12090000Y-15245000D01*
X12190000Y-15195000D02*
G75*
G02*
X12090000Y-15195000I-50000J0D01*
G01*
X12090000Y-15195000D02*
G75*
G02*
X12190000Y-15195000I50000J0D01*
G01*
X12120000Y-4560000D02*
X12220000Y-4660000D01*
X12220000Y-4560000D02*
X12120000Y-4660000D01*
X12220000Y-4610000D02*
G75*
G02*
X12120000Y-4610000I-50000J0D01*
G01*
X12120000Y-4610000D02*
G75*
G02*
X12220000Y-4610000I50000J0D01*
G01*
X12120000Y-4814000D02*
X12220000Y-4914000D01*
X12220000Y-4814000D02*
X12120000Y-4914000D01*
X12220000Y-4864000D02*
G75*
G02*
X12120000Y-4864000I-50000J0D01*
G01*
X12120000Y-4864000D02*
G75*
G02*
X12220000Y-4864000I50000J0D01*
G01*
X12333000Y-5250000D02*
X12433000Y-5350000D01*
X12433000Y-5250000D02*
X12333000Y-5350000D01*
X12433000Y-5300000D02*
G75*
G02*
X12333000Y-5300000I-50000J0D01*
G01*
X12333000Y-5300000D02*
G75*
G02*
X12433000Y-5300000I50000J0D01*
G01*
X12333000Y-5504000D02*
X12433000Y-5604000D01*
X12433000Y-5504000D02*
X12333000Y-5604000D01*
X12433000Y-5554000D02*
G75*
G02*
X12333000Y-5554000I-50000J0D01*
G01*
X12333000Y-5554000D02*
G75*
G02*
X12433000Y-5554000I50000J0D01*
G01*
X12344000Y-15145000D02*
X12444000Y-15245000D01*
X12444000Y-15145000D02*
X12344000Y-15245000D01*
X12444000Y-15195000D02*
G75*
G02*
X12344000Y-15195000I-50000J0D01*
G01*
X12344000Y-15195000D02*
G75*
G02*
X12444000Y-15195000I50000J0D01*
G01*
X12374000Y-4560000D02*
X12474000Y-4660000D01*
X12474000Y-4560000D02*
X12374000Y-4660000D01*
X12474000Y-4610000D02*
G75*
G02*
X12374000Y-4610000I-50000J0D01*
G01*
X12374000Y-4610000D02*
G75*
G02*
X12474000Y-4610000I50000J0D01*
G01*
X12374000Y-4814000D02*
X12474000Y-4914000D01*
X12474000Y-4814000D02*
X12374000Y-4914000D01*
X12474000Y-4864000D02*
G75*
G02*
X12374000Y-4864000I-50000J0D01*
G01*
X12374000Y-4864000D02*
G75*
G02*
X12474000Y-4864000I50000J0D01*
G01*
X12587000Y-5250000D02*
X12687000Y-5350000D01*
X12687000Y-5250000D02*
X12587000Y-5350000D01*
X12687000Y-5300000D02*
G75*
G02*
X12587000Y-5300000I-50000J0D01*
G01*
X12587000Y-5300000D02*
G75*
G02*
X12687000Y-5300000I50000J0D01*
G01*
X12587000Y-5504000D02*
X12687000Y-5604000D01*
X12687000Y-5504000D02*
X12587000Y-5604000D01*
X12687000Y-5554000D02*
G75*
G02*
X12587000Y-5554000I-50000J0D01*
G01*
X12587000Y-5554000D02*
G75*
G02*
X12687000Y-5554000I50000J0D01*
G01*
X12598000Y-15145000D02*
X12698000Y-15245000D01*
X12698000Y-15145000D02*
X12598000Y-15245000D01*
X12698000Y-15195000D02*
G75*
G02*
X12598000Y-15195000I-50000J0D01*
G01*
X12598000Y-15195000D02*
G75*
G02*
X12698000Y-15195000I50000J0D01*
G01*
X12628000Y-4560000D02*
X12728000Y-4660000D01*
X12728000Y-4560000D02*
X12628000Y-4660000D01*
X12728000Y-4610000D02*
G75*
G02*
X12628000Y-4610000I-50000J0D01*
G01*
X12628000Y-4610000D02*
G75*
G02*
X12728000Y-4610000I50000J0D01*
G01*
X12628000Y-4814000D02*
X12728000Y-4914000D01*
X12728000Y-4814000D02*
X12628000Y-4914000D01*
X12728000Y-4864000D02*
G75*
G02*
X12628000Y-4864000I-50000J0D01*
G01*
X12628000Y-4864000D02*
G75*
G02*
X12728000Y-4864000I50000J0D01*
G01*
X12841000Y-5250000D02*
X12941000Y-5350000D01*
X12941000Y-5250000D02*
X12841000Y-5350000D01*
X12941000Y-5300000D02*
G75*
G02*
X12841000Y-5300000I-50000J0D01*
G01*
X12841000Y-5300000D02*
G75*
G02*
X12941000Y-5300000I50000J0D01*
G01*
X12841000Y-5504000D02*
X12941000Y-5604000D01*
X12941000Y-5504000D02*
X12841000Y-5604000D01*
X12941000Y-5554000D02*
G75*
G02*
X12841000Y-5554000I-50000J0D01*
G01*
X12841000Y-5554000D02*
G75*
G02*
X12941000Y-5554000I50000J0D01*
G01*
X12852000Y-15145000D02*
X12952000Y-15245000D01*
X12952000Y-15145000D02*
X12852000Y-15245000D01*
X12952000Y-15195000D02*
G75*
G02*
X12852000Y-15195000I-50000J0D01*
G01*
X12852000Y-15195000D02*
G75*
G02*
X12952000Y-15195000I50000J0D01*
G01*
X12882000Y-4560000D02*
X12982000Y-4660000D01*
X12982000Y-4560000D02*
X12882000Y-4660000D01*
X12982000Y-4610000D02*
G75*
G02*
X12882000Y-4610000I-50000J0D01*
G01*
X12882000Y-4610000D02*
G75*
G02*
X12982000Y-4610000I50000J0D01*
G01*
X12882000Y-4814000D02*
X12982000Y-4914000D01*
X12982000Y-4814000D02*
X12882000Y-4914000D01*
X12982000Y-4864000D02*
G75*
G02*
X12882000Y-4864000I-50000J0D01*
G01*
X12882000Y-4864000D02*
G75*
G02*
X12982000Y-4864000I50000J0D01*
G01*
X13095000Y-5250000D02*
X13195000Y-5350000D01*
X13195000Y-5250000D02*
X13095000Y-5350000D01*
X13195000Y-5300000D02*
G75*
G02*
X13095000Y-5300000I-50000J0D01*
G01*
X13095000Y-5300000D02*
G75*
G02*
X13195000Y-5300000I50000J0D01*
G01*
X13095000Y-5504000D02*
X13195000Y-5604000D01*
X13195000Y-5504000D02*
X13095000Y-5604000D01*
X13195000Y-5554000D02*
G75*
G02*
X13095000Y-5554000I-50000J0D01*
G01*
X13095000Y-5554000D02*
G75*
G02*
X13195000Y-5554000I50000J0D01*
G01*
X13106000Y-15145000D02*
X13206000Y-15245000D01*
X13206000Y-15145000D02*
X13106000Y-15245000D01*
X13206000Y-15195000D02*
G75*
G02*
X13106000Y-15195000I-50000J0D01*
G01*
X13106000Y-15195000D02*
G75*
G02*
X13206000Y-15195000I50000J0D01*
G01*
X13136000Y-4560000D02*
X13236000Y-4660000D01*
X13236000Y-4560000D02*
X13136000Y-4660000D01*
X13236000Y-4610000D02*
G75*
G02*
X13136000Y-4610000I-50000J0D01*
G01*
X13136000Y-4610000D02*
G75*
G02*
X13236000Y-4610000I50000J0D01*
G01*
X13136000Y-4814000D02*
X13236000Y-4914000D01*
X13236000Y-4814000D02*
X13136000Y-4914000D01*
X13236000Y-4864000D02*
G75*
G02*
X13136000Y-4864000I-50000J0D01*
G01*
X13136000Y-4864000D02*
G75*
G02*
X13236000Y-4864000I50000J0D01*
G01*
X13349000Y-5250000D02*
X13449000Y-5350000D01*
X13449000Y-5250000D02*
X13349000Y-5350000D01*
X13449000Y-5300000D02*
G75*
G02*
X13349000Y-5300000I-50000J0D01*
G01*
X13349000Y-5300000D02*
G75*
G02*
X13449000Y-5300000I50000J0D01*
G01*
X13349000Y-5504000D02*
X13449000Y-5604000D01*
X13449000Y-5504000D02*
X13349000Y-5604000D01*
X13449000Y-5554000D02*
G75*
G02*
X13349000Y-5554000I-50000J0D01*
G01*
X13349000Y-5554000D02*
G75*
G02*
X13449000Y-5554000I50000J0D01*
G01*
X13390000Y-4560000D02*
X13490000Y-4660000D01*
X13490000Y-4560000D02*
X13390000Y-4660000D01*
X13490000Y-4610000D02*
G75*
G02*
X13390000Y-4610000I-50000J0D01*
G01*
X13390000Y-4610000D02*
G75*
G02*
X13490000Y-4610000I50000J0D01*
G01*
X13390000Y-4814000D02*
X13490000Y-4914000D01*
X13490000Y-4814000D02*
X13390000Y-4914000D01*
X13490000Y-4864000D02*
G75*
G02*
X13390000Y-4864000I-50000J0D01*
G01*
X13390000Y-4864000D02*
G75*
G02*
X13490000Y-4864000I50000J0D01*
G01*
X13603000Y-5250000D02*
X13703000Y-5350000D01*
X13703000Y-5250000D02*
X13603000Y-5350000D01*
X13703000Y-5300000D02*
G75*
G02*
X13603000Y-5300000I-50000J0D01*
G01*
X13603000Y-5300000D02*
G75*
G02*
X13703000Y-5300000I50000J0D01*
G01*
X13603000Y-5504000D02*
X13703000Y-5604000D01*
X13703000Y-5504000D02*
X13603000Y-5604000D01*
X13703000Y-5554000D02*
G75*
G02*
X13603000Y-5554000I-50000J0D01*
G01*
X13603000Y-5554000D02*
G75*
G02*
X13703000Y-5554000I50000J0D01*
G01*
X13644000Y-4560000D02*
X13744000Y-4660000D01*
X13744000Y-4560000D02*
X13644000Y-4660000D01*
X13744000Y-4610000D02*
G75*
G02*
X13644000Y-4610000I-50000J0D01*
G01*
X13644000Y-4610000D02*
G75*
G02*
X13744000Y-4610000I50000J0D01*
G01*
X13644000Y-4814000D02*
X13744000Y-4914000D01*
X13744000Y-4814000D02*
X13644000Y-4914000D01*
X13744000Y-4864000D02*
G75*
G02*
X13644000Y-4864000I-50000J0D01*
G01*
X13644000Y-4864000D02*
G75*
G02*
X13744000Y-4864000I50000J0D01*
G01*
X13857000Y-5250000D02*
X13957000Y-5350000D01*
X13957000Y-5250000D02*
X13857000Y-5350000D01*
X13957000Y-5300000D02*
G75*
G02*
X13857000Y-5300000I-50000J0D01*
G01*
X13857000Y-5300000D02*
G75*
G02*
X13957000Y-5300000I50000J0D01*
G01*
X13857000Y-5504000D02*
X13957000Y-5604000D01*
X13957000Y-5504000D02*
X13857000Y-5604000D01*
X13957000Y-5554000D02*
G75*
G02*
X13857000Y-5554000I-50000J0D01*
G01*
X13857000Y-5554000D02*
G75*
G02*
X13957000Y-5554000I50000J0D01*
G01*
X13898000Y-4560000D02*
X13998000Y-4660000D01*
X13998000Y-4560000D02*
X13898000Y-4660000D01*
X13998000Y-4610000D02*
G75*
G02*
X13898000Y-4610000I-50000J0D01*
G01*
X13898000Y-4610000D02*
G75*
G02*
X13998000Y-4610000I50000J0D01*
G01*
X13898000Y-4814000D02*
X13998000Y-4914000D01*
X13998000Y-4814000D02*
X13898000Y-4914000D01*
X13998000Y-4864000D02*
G75*
G02*
X13898000Y-4864000I-50000J0D01*
G01*
X13898000Y-4864000D02*
G75*
G02*
X13998000Y-4864000I50000J0D01*
G01*
X14111000Y-5250000D02*
X14211000Y-5350000D01*
X14211000Y-5250000D02*
X14111000Y-5350000D01*
X14211000Y-5300000D02*
G75*
G02*
X14111000Y-5300000I-50000J0D01*
G01*
X14111000Y-5300000D02*
G75*
G02*
X14211000Y-5300000I50000J0D01*
G01*
X14111000Y-5504000D02*
X14211000Y-5604000D01*
X14211000Y-5504000D02*
X14111000Y-5604000D01*
X14211000Y-5554000D02*
G75*
G02*
X14111000Y-5554000I-50000J0D01*
G01*
X14111000Y-5554000D02*
G75*
G02*
X14211000Y-5554000I50000J0D01*
G01*
X14152000Y-4560000D02*
X14252000Y-4660000D01*
X14252000Y-4560000D02*
X14152000Y-4660000D01*
X14252000Y-4610000D02*
G75*
G02*
X14152000Y-4610000I-50000J0D01*
G01*
X14152000Y-4610000D02*
G75*
G02*
X14252000Y-4610000I50000J0D01*
G01*
X14152000Y-4814000D02*
X14252000Y-4914000D01*
X14252000Y-4814000D02*
X14152000Y-4914000D01*
X14252000Y-4864000D02*
G75*
G02*
X14152000Y-4864000I-50000J0D01*
G01*
X14152000Y-4864000D02*
G75*
G02*
X14252000Y-4864000I50000J0D01*
G01*
X14365000Y-5250000D02*
X14465000Y-5350000D01*
X14465000Y-5250000D02*
X14365000Y-5350000D01*
X14465000Y-5300000D02*
G75*
G02*
X14365000Y-5300000I-50000J0D01*
G01*
X14365000Y-5300000D02*
G75*
G02*
X14465000Y-5300000I50000J0D01*
G01*
X14365000Y-5504000D02*
X14465000Y-5604000D01*
X14465000Y-5504000D02*
X14365000Y-5604000D01*
X14465000Y-5554000D02*
G75*
G02*
X14365000Y-5554000I-50000J0D01*
G01*
X14365000Y-5554000D02*
G75*
G02*
X14465000Y-5554000I50000J0D01*
G01*
X14406000Y-4560000D02*
X14506000Y-4660000D01*
X14506000Y-4560000D02*
X14406000Y-4660000D01*
X14506000Y-4610000D02*
G75*
G02*
X14406000Y-4610000I-50000J0D01*
G01*
X14406000Y-4610000D02*
G75*
G02*
X14506000Y-4610000I50000J0D01*
G01*
X14406000Y-4814000D02*
X14506000Y-4914000D01*
X14506000Y-4814000D02*
X14406000Y-4914000D01*
X14506000Y-4864000D02*
G75*
G02*
X14406000Y-4864000I-50000J0D01*
G01*
X14406000Y-4864000D02*
G75*
G02*
X14506000Y-4864000I50000J0D01*
G01*
X15205000Y-9450000D02*
X15305000Y-9550000D01*
X15305000Y-9450000D02*
X15205000Y-9550000D01*
X15305000Y-9500000D02*
G75*
G02*
X15205000Y-9500000I-50000J0D01*
G01*
X15205000Y-9500000D02*
G75*
G02*
X15305000Y-9500000I50000J0D01*
G01*
X15205000Y-9700000D02*
X15305000Y-9800000D01*
X15305000Y-9700000D02*
X15205000Y-9800000D01*
X15305000Y-9750000D02*
G75*
G02*
X15205000Y-9750000I-50000J0D01*
G01*
X15205000Y-9750000D02*
G75*
G02*
X15305000Y-9750000I50000J0D01*
G01*
X16155000Y-5031000D02*
X16255000Y-5131000D01*
X16255000Y-5031000D02*
X16155000Y-5131000D01*
X16255000Y-5081000D02*
G75*
G02*
X16155000Y-5081000I-50000J0D01*
G01*
X16155000Y-5081000D02*
G75*
G02*
X16255000Y-5081000I50000J0D01*
G01*
X16155000Y-5285000D02*
X16255000Y-5385000D01*
X16255000Y-5285000D02*
X16155000Y-5385000D01*
X16255000Y-5335000D02*
G75*
G02*
X16155000Y-5335000I-50000J0D01*
G01*
X16155000Y-5335000D02*
G75*
G02*
X16255000Y-5335000I50000J0D01*
G01*
X16155000Y-5539000D02*
X16255000Y-5639000D01*
X16255000Y-5539000D02*
X16155000Y-5639000D01*
X16255000Y-5589000D02*
G75*
G02*
X16155000Y-5589000I-50000J0D01*
G01*
X16155000Y-5589000D02*
G75*
G02*
X16255000Y-5589000I50000J0D01*
G01*
X16155000Y-5793000D02*
X16255000Y-5893000D01*
X16255000Y-5793000D02*
X16155000Y-5893000D01*
X16255000Y-5843000D02*
G75*
G02*
X16155000Y-5843000I-50000J0D01*
G01*
X16155000Y-5843000D02*
G75*
G02*
X16255000Y-5843000I50000J0D01*
G01*
X16155000Y-6047000D02*
X16255000Y-6147000D01*
X16255000Y-6047000D02*
X16155000Y-6147000D01*
X16255000Y-6097000D02*
G75*
G02*
X16155000Y-6097000I-50000J0D01*
G01*
X16155000Y-6097000D02*
G75*
G02*
X16255000Y-6097000I50000J0D01*
G01*
X16155000Y-6301000D02*
X16255000Y-6401000D01*
X16255000Y-6301000D02*
X16155000Y-6401000D01*
X16255000Y-6351000D02*
G75*
G02*
X16155000Y-6351000I-50000J0D01*
G01*
X16155000Y-6351000D02*
G75*
G02*
X16255000Y-6351000I50000J0D01*
G01*
X16155000Y-6555000D02*
X16255000Y-6655000D01*
X16255000Y-6555000D02*
X16155000Y-6655000D01*
X16255000Y-6605000D02*
G75*
G02*
X16155000Y-6605000I-50000J0D01*
G01*
X16155000Y-6605000D02*
G75*
G02*
X16255000Y-6605000I50000J0D01*
G01*
X16155000Y-6809000D02*
X16255000Y-6909000D01*
X16255000Y-6809000D02*
X16155000Y-6909000D01*
X16255000Y-6859000D02*
G75*
G02*
X16155000Y-6859000I-50000J0D01*
G01*
X16155000Y-6859000D02*
G75*
G02*
X16255000Y-6859000I50000J0D01*
G01*
X16155000Y-7063000D02*
X16255000Y-7163000D01*
X16255000Y-7063000D02*
X16155000Y-7163000D01*
X16255000Y-7113000D02*
G75*
G02*
X16155000Y-7113000I-50000J0D01*
G01*
X16155000Y-7113000D02*
G75*
G02*
X16255000Y-7113000I50000J0D01*
G01*
X16155000Y-7317000D02*
X16255000Y-7417000D01*
X16255000Y-7317000D02*
X16155000Y-7417000D01*
X16255000Y-7367000D02*
G75*
G02*
X16155000Y-7367000I-50000J0D01*
G01*
X16155000Y-7367000D02*
G75*
G02*
X16255000Y-7367000I50000J0D01*
G01*
X16656000Y-7315000D02*
X16756000Y-7415000D01*
X16756000Y-7315000D02*
X16656000Y-7415000D01*
X16756000Y-7365000D02*
G75*
G02*
X16656000Y-7365000I-50000J0D01*
G01*
X16656000Y-7365000D02*
G75*
G02*
X16756000Y-7365000I50000J0D01*
G01*
X16656000Y-7569000D02*
X16756000Y-7669000D01*
X16756000Y-7569000D02*
X16656000Y-7669000D01*
X16756000Y-7619000D02*
G75*
G02*
X16656000Y-7619000I-50000J0D01*
G01*
X16656000Y-7619000D02*
G75*
G02*
X16756000Y-7619000I50000J0D01*
G01*
X16656000Y-7823000D02*
X16756000Y-7923000D01*
X16756000Y-7823000D02*
X16656000Y-7923000D01*
X16756000Y-7873000D02*
G75*
G02*
X16656000Y-7873000I-50000J0D01*
G01*
X16656000Y-7873000D02*
G75*
G02*
X16756000Y-7873000I50000J0D01*
G01*
X16880000Y-8886000D02*
X16980000Y-8986000D01*
X16980000Y-8886000D02*
X16880000Y-8986000D01*
X16980000Y-8936000D02*
G75*
G02*
X16880000Y-8936000I-50000J0D01*
G01*
X16880000Y-8936000D02*
G75*
G02*
X16980000Y-8936000I50000J0D01*
G01*
X16880000Y-9140000D02*
X16980000Y-9240000D01*
X16980000Y-9140000D02*
X16880000Y-9240000D01*
X16980000Y-9190000D02*
G75*
G02*
X16880000Y-9190000I-50000J0D01*
G01*
X16880000Y-9190000D02*
G75*
G02*
X16980000Y-9190000I50000J0D01*
G01*
X16880000Y-9394000D02*
X16980000Y-9494000D01*
X16980000Y-9394000D02*
X16880000Y-9494000D01*
X16980000Y-9444000D02*
G75*
G02*
X16880000Y-9444000I-50000J0D01*
G01*
X16880000Y-9444000D02*
G75*
G02*
X16980000Y-9444000I50000J0D01*
G01*
X16880000Y-9648000D02*
X16980000Y-9748000D01*
X16980000Y-9648000D02*
X16880000Y-9748000D01*
X16980000Y-9698000D02*
G75*
G02*
X16880000Y-9698000I-50000J0D01*
G01*
X16880000Y-9698000D02*
G75*
G02*
X16980000Y-9698000I50000J0D01*
G01*
X16880000Y-9902000D02*
X16980000Y-10002000D01*
X16980000Y-9902000D02*
X16880000Y-10002000D01*
X16980000Y-9952000D02*
G75*
G02*
X16880000Y-9952000I-50000J0D01*
G01*
X16880000Y-9952000D02*
G75*
G02*
X16980000Y-9952000I50000J0D01*
G01*
X16880000Y-10156000D02*
X16980000Y-10256000D01*
X16980000Y-10156000D02*
X16880000Y-10256000D01*
X16980000Y-10206000D02*
G75*
G02*
X16880000Y-10206000I-50000J0D01*
G01*
X16880000Y-10206000D02*
G75*
G02*
X16980000Y-10206000I50000J0D01*
G01*
X16880000Y-10410000D02*
X16980000Y-10510000D01*
X16980000Y-10410000D02*
X16880000Y-10510000D01*
X16980000Y-10460000D02*
G75*
G02*
X16880000Y-10460000I-50000J0D01*
G01*
X16880000Y-10460000D02*
G75*
G02*
X16980000Y-10460000I50000J0D01*
G01*
X16880000Y-10664000D02*
X16980000Y-10764000D01*
X16980000Y-10664000D02*
X16880000Y-10764000D01*
X16980000Y-10714000D02*
G75*
G02*
X16880000Y-10714000I-50000J0D01*
G01*
X16880000Y-10714000D02*
G75*
G02*
X16980000Y-10714000I50000J0D01*
G01*
X16880000Y-10918000D02*
X16980000Y-11018000D01*
X16980000Y-10918000D02*
X16880000Y-11018000D01*
X16980000Y-10968000D02*
G75*
G02*
X16880000Y-10968000I-50000J0D01*
G01*
X16880000Y-10968000D02*
G75*
G02*
X16980000Y-10968000I50000J0D01*
G01*
X16880000Y-11172000D02*
X16980000Y-11272000D01*
X16980000Y-11172000D02*
X16880000Y-11272000D01*
X16980000Y-11222000D02*
G75*
G02*
X16880000Y-11222000I-50000J0D01*
G01*
X16880000Y-11222000D02*
G75*
G02*
X16980000Y-11222000I50000J0D01*
G01*
X16910000Y-7315000D02*
X17010000Y-7415000D01*
X17010000Y-7315000D02*
X16910000Y-7415000D01*
X17010000Y-7365000D02*
G75*
G02*
X16910000Y-7365000I-50000J0D01*
G01*
X16910000Y-7365000D02*
G75*
G02*
X17010000Y-7365000I50000J0D01*
G01*
X16910000Y-7569000D02*
X17010000Y-7669000D01*
X17010000Y-7569000D02*
X16910000Y-7669000D01*
X17010000Y-7619000D02*
G75*
G02*
X16910000Y-7619000I-50000J0D01*
G01*
X16910000Y-7619000D02*
G75*
G02*
X17010000Y-7619000I50000J0D01*
G01*
X16910000Y-7823000D02*
X17010000Y-7923000D01*
X17010000Y-7823000D02*
X16910000Y-7923000D01*
X17010000Y-7873000D02*
G75*
G02*
X16910000Y-7873000I-50000J0D01*
G01*
X16910000Y-7873000D02*
G75*
G02*
X17010000Y-7873000I50000J0D01*
G01*
X17161000Y-7825000D02*
X17261000Y-7925000D01*
X17261000Y-7825000D02*
X17161000Y-7925000D01*
X17261000Y-7875000D02*
G75*
G02*
X17161000Y-7875000I-50000J0D01*
G01*
X17161000Y-7875000D02*
G75*
G02*
X17261000Y-7875000I50000J0D01*
G01*
X17375000Y-11175000D02*
X17475000Y-11275000D01*
X17475000Y-11175000D02*
X17375000Y-11275000D01*
X17475000Y-11225000D02*
G75*
G02*
X17375000Y-11225000I-50000J0D01*
G01*
X17375000Y-11225000D02*
G75*
G02*
X17475000Y-11225000I50000J0D01*
G01*
X17375000Y-11429000D02*
X17475000Y-11529000D01*
X17475000Y-11429000D02*
X17375000Y-11529000D01*
X17475000Y-11479000D02*
G75*
G02*
X17375000Y-11479000I-50000J0D01*
G01*
X17375000Y-11479000D02*
G75*
G02*
X17475000Y-11479000I50000J0D01*
G01*
X17375000Y-11683000D02*
X17475000Y-11783000D01*
X17475000Y-11683000D02*
X17375000Y-11783000D01*
X17475000Y-11733000D02*
G75*
G02*
X17375000Y-11733000I-50000J0D01*
G01*
X17375000Y-11733000D02*
G75*
G02*
X17475000Y-11733000I50000J0D01*
G01*
X17415000Y-7825000D02*
X17515000Y-7925000D01*
X17515000Y-7825000D02*
X17415000Y-7925000D01*
X17515000Y-7875000D02*
G75*
G02*
X17415000Y-7875000I-50000J0D01*
G01*
X17415000Y-7875000D02*
G75*
G02*
X17515000Y-7875000I50000J0D01*
G01*
X17629000Y-11175000D02*
X17729000Y-11275000D01*
X17729000Y-11175000D02*
X17629000Y-11275000D01*
X17729000Y-11225000D02*
G75*
G02*
X17629000Y-11225000I-50000J0D01*
G01*
X17629000Y-11225000D02*
G75*
G02*
X17729000Y-11225000I50000J0D01*
G01*
X17629000Y-11429000D02*
X17729000Y-11529000D01*
X17729000Y-11429000D02*
X17629000Y-11529000D01*
X17729000Y-11479000D02*
G75*
G02*
X17629000Y-11479000I-50000J0D01*
G01*
X17629000Y-11479000D02*
G75*
G02*
X17729000Y-11479000I50000J0D01*
G01*
X17629000Y-11683000D02*
X17729000Y-11783000D01*
X17729000Y-11683000D02*
X17629000Y-11783000D01*
X17729000Y-11733000D02*
G75*
G02*
X17629000Y-11733000I-50000J0D01*
G01*
X17629000Y-11733000D02*
G75*
G02*
X17729000Y-11733000I50000J0D01*
G01*
X17669000Y-7825000D02*
X17769000Y-7925000D01*
X17769000Y-7825000D02*
X17669000Y-7925000D01*
X17769000Y-7875000D02*
G75*
G02*
X17669000Y-7875000I-50000J0D01*
G01*
X17669000Y-7875000D02*
G75*
G02*
X17769000Y-7875000I50000J0D01*
G01*
X17880000Y-11683500D02*
X17980000Y-11783500D01*
X17980000Y-11683500D02*
X17880000Y-11783500D01*
X17980000Y-11733500D02*
G75*
G02*
X17880000Y-11733500I-50000J0D01*
G01*
X17880000Y-11733500D02*
G75*
G02*
X17980000Y-11733500I50000J0D01*
G01*
X18134000Y-11683500D02*
X18234000Y-11783500D01*
X18234000Y-11683500D02*
X18134000Y-11783500D01*
X18234000Y-11733500D02*
G75*
G02*
X18134000Y-11733500I-50000J0D01*
G01*
X18134000Y-11733500D02*
G75*
G02*
X18234000Y-11733500I50000J0D01*
G01*
X18388000Y-11683500D02*
X18488000Y-11783500D01*
X18488000Y-11683500D02*
X18388000Y-11783500D01*
X18488000Y-11733500D02*
G75*
G02*
X18388000Y-11733500I-50000J0D01*
G01*
X18388000Y-11733500D02*
G75*
G02*
X18488000Y-11733500I50000J0D01*
G01*
X20205000Y-13751000D02*
X20305000Y-13851000D01*
X20305000Y-13751000D02*
X20205000Y-13851000D01*
X20305000Y-13801000D02*
G75*
G02*
X20205000Y-13801000I-50000J0D01*
G01*
X20205000Y-13801000D02*
G75*
G02*
X20305000Y-13801000I50000J0D01*
G01*
X20205000Y-14005000D02*
X20305000Y-14105000D01*
X20305000Y-14005000D02*
X20205000Y-14105000D01*
X20305000Y-14055000D02*
G75*
G02*
X20205000Y-14055000I-50000J0D01*
G01*
X20205000Y-14055000D02*
G75*
G02*
X20305000Y-14055000I50000J0D01*
G01*
X20205000Y-14259000D02*
X20305000Y-14359000D01*
X20305000Y-14259000D02*
X20205000Y-14359000D01*
X20305000Y-14309000D02*
G75*
G02*
X20205000Y-14309000I-50000J0D01*
G01*
X20205000Y-14309000D02*
G75*
G02*
X20305000Y-14309000I50000J0D01*
G01*
X20232500Y-14832500D02*
X20332500Y-14932500D01*
X20332500Y-14832500D02*
X20232500Y-14932500D01*
X20332500Y-14882500D02*
G75*
G02*
X20232500Y-14882500I-50000J0D01*
G01*
X20232500Y-14882500D02*
G75*
G02*
X20332500Y-14882500I50000J0D01*
G01*
X20232500Y-15086500D02*
X20332500Y-15186500D01*
X20332500Y-15086500D02*
X20232500Y-15186500D01*
X20332500Y-15136500D02*
G75*
G02*
X20232500Y-15136500I-50000J0D01*
G01*
X20232500Y-15136500D02*
G75*
G02*
X20332500Y-15136500I50000J0D01*
G01*
X20232500Y-15340500D02*
X20332500Y-15440500D01*
X20332500Y-15340500D02*
X20232500Y-15440500D01*
X20332500Y-15390500D02*
G75*
G02*
X20232500Y-15390500I-50000J0D01*
G01*
X20232500Y-15390500D02*
G75*
G02*
X20332500Y-15390500I50000J0D01*
G01*
D13*
X7295000Y-4960000D02*
X7435000Y-5100000D01*
X7435000Y-4960000D02*
X7295000Y-5100000D01*
X7365000Y-4960000D02*
X7365000Y-5100000D01*
X7295000Y-5030000D02*
X7435000Y-5030000D01*
X7795000Y-4960000D02*
X7935000Y-5100000D01*
X7935000Y-4960000D02*
X7795000Y-5100000D01*
X7865000Y-4960000D02*
X7865000Y-5100000D01*
X7795000Y-5030000D02*
X7935000Y-5030000D01*
X8445000Y-4960000D02*
X8585000Y-5100000D01*
X8585000Y-4960000D02*
X8445000Y-5100000D01*
X8515000Y-4960000D02*
X8515000Y-5100000D01*
X8445000Y-5030000D02*
X8585000Y-5030000D01*
X8945000Y-4960000D02*
X9085000Y-5100000D01*
X9085000Y-4960000D02*
X8945000Y-5100000D01*
X9015000Y-4960000D02*
X9015000Y-5100000D01*
X8945000Y-5030000D02*
X9085000Y-5030000D01*
X9620000Y-4960000D02*
X9760000Y-5100000D01*
X9760000Y-4960000D02*
X9620000Y-5100000D01*
X9690000Y-4960000D02*
X9690000Y-5100000D01*
X9620000Y-5030000D02*
X9760000Y-5030000D01*
X10120000Y-4960000D02*
X10260000Y-5100000D01*
X10260000Y-4960000D02*
X10120000Y-5100000D01*
X10190000Y-4960000D02*
X10190000Y-5100000D01*
X10120000Y-5030000D02*
X10260000Y-5030000D01*
D14*
X12940000Y-6285000D02*
X13320000Y-6665000D01*
X13320000Y-6285000D02*
X12940000Y-6665000D01*
X13264352Y-6609352D02*
X13264352Y-6340648D01*
X12995648Y-6340648D01*
X12995648Y-6609352D01*
X13264352Y-6609352D01*
D11*
X5053277Y-16098984D02*
X5053277Y-15898984D01*
X5053277Y-15898984D02*
X5100896Y-15898984D01*
X5100896Y-15898984D02*
X5129467Y-15908508D01*
X5129467Y-15908508D02*
X5148515Y-15927555D01*
X5148515Y-15927555D02*
X5158039Y-15946603D01*
X5158039Y-15946603D02*
X5167563Y-15984698D01*
X5167563Y-15984698D02*
X5167563Y-16013269D01*
X5167563Y-16013269D02*
X5158039Y-16051365D01*
X5158039Y-16051365D02*
X5148515Y-16070412D01*
X5148515Y-16070412D02*
X5129467Y-16089460D01*
X5129467Y-16089460D02*
X5100896Y-16098984D01*
X5100896Y-16098984D02*
X5053277Y-16098984D01*
X5253277Y-16098984D02*
X5253277Y-15965650D01*
X5253277Y-16003746D02*
X5262801Y-15984698D01*
X5262801Y-15984698D02*
X5272324Y-15975174D01*
X5272324Y-15975174D02*
X5291372Y-15965650D01*
X5291372Y-15965650D02*
X5310420Y-15965650D01*
X5377086Y-16098984D02*
X5377086Y-15965650D01*
X5377086Y-15898984D02*
X5367563Y-15908508D01*
X5367563Y-15908508D02*
X5377086Y-15918031D01*
X5377086Y-15918031D02*
X5386610Y-15908508D01*
X5386610Y-15908508D02*
X5377086Y-15898984D01*
X5377086Y-15898984D02*
X5377086Y-15918031D01*
X5500896Y-16098984D02*
X5481848Y-16089460D01*
X5481848Y-16089460D02*
X5472324Y-16070412D01*
X5472324Y-16070412D02*
X5472324Y-15898984D01*
X5605658Y-16098984D02*
X5586610Y-16089460D01*
X5586610Y-16089460D02*
X5577086Y-16070412D01*
X5577086Y-16070412D02*
X5577086Y-15898984D01*
X5834229Y-16098984D02*
X5834229Y-15898984D01*
X5834229Y-15898984D02*
X5900896Y-16041841D01*
X5900896Y-16041841D02*
X5967562Y-15898984D01*
X5967562Y-15898984D02*
X5967562Y-16098984D01*
X6148515Y-16098984D02*
X6148515Y-15994222D01*
X6148515Y-15994222D02*
X6138991Y-15975174D01*
X6138991Y-15975174D02*
X6119943Y-15965650D01*
X6119943Y-15965650D02*
X6081848Y-15965650D01*
X6081848Y-15965650D02*
X6062801Y-15975174D01*
X6148515Y-16089460D02*
X6129467Y-16098984D01*
X6129467Y-16098984D02*
X6081848Y-16098984D01*
X6081848Y-16098984D02*
X6062801Y-16089460D01*
X6062801Y-16089460D02*
X6053277Y-16070412D01*
X6053277Y-16070412D02*
X6053277Y-16051365D01*
X6053277Y-16051365D02*
X6062801Y-16032317D01*
X6062801Y-16032317D02*
X6081848Y-16022793D01*
X6081848Y-16022793D02*
X6129467Y-16022793D01*
X6129467Y-16022793D02*
X6148515Y-16013269D01*
X6243753Y-15965650D02*
X6243753Y-16165650D01*
X6243753Y-15975174D02*
X6262801Y-15965650D01*
X6262801Y-15965650D02*
X6300896Y-15965650D01*
X6300896Y-15965650D02*
X6319943Y-15975174D01*
X6319943Y-15975174D02*
X6329467Y-15984698D01*
X6329467Y-15984698D02*
X6338991Y-16003746D01*
X6338991Y-16003746D02*
X6338991Y-16060888D01*
X6338991Y-16060888D02*
X6329467Y-16079936D01*
X6329467Y-16079936D02*
X6319943Y-16089460D01*
X6319943Y-16089460D02*
X6300896Y-16098984D01*
X6300896Y-16098984D02*
X6262801Y-16098984D01*
X6262801Y-16098984D02*
X6243753Y-16089460D01*
X6424705Y-16079936D02*
X6434229Y-16089460D01*
X6434229Y-16089460D02*
X6424705Y-16098984D01*
X6424705Y-16098984D02*
X6415182Y-16089460D01*
X6415182Y-16089460D02*
X6424705Y-16079936D01*
X6424705Y-16079936D02*
X6424705Y-16098984D01*
X6424705Y-15975174D02*
X6434229Y-15984698D01*
X6434229Y-15984698D02*
X6424705Y-15994222D01*
X6424705Y-15994222D02*
X6415182Y-15984698D01*
X6415182Y-15984698D02*
X6424705Y-15975174D01*
X6424705Y-15975174D02*
X6424705Y-15994222D01*
D12*
X4762500Y-16412500D02*
X4792500Y-16442500D01*
X4792500Y-16412500D02*
X4762500Y-16442500D01*
D11*
X5091372Y-16318984D02*
X5110420Y-16318984D01*
X5110420Y-16318984D02*
X5129467Y-16328508D01*
X5129467Y-16328508D02*
X5138991Y-16338031D01*
X5138991Y-16338031D02*
X5148515Y-16357079D01*
X5148515Y-16357079D02*
X5158039Y-16395174D01*
X5158039Y-16395174D02*
X5158039Y-16442793D01*
X5158039Y-16442793D02*
X5148515Y-16480888D01*
X5148515Y-16480888D02*
X5138991Y-16499936D01*
X5138991Y-16499936D02*
X5129467Y-16509460D01*
X5129467Y-16509460D02*
X5110420Y-16518984D01*
X5110420Y-16518984D02*
X5091372Y-16518984D01*
X5091372Y-16518984D02*
X5072324Y-16509460D01*
X5072324Y-16509460D02*
X5062801Y-16499936D01*
X5062801Y-16499936D02*
X5053277Y-16480888D01*
X5053277Y-16480888D02*
X5043753Y-16442793D01*
X5043753Y-16442793D02*
X5043753Y-16395174D01*
X5043753Y-16395174D02*
X5053277Y-16357079D01*
X5053277Y-16357079D02*
X5062801Y-16338031D01*
X5062801Y-16338031D02*
X5072324Y-16328508D01*
X5072324Y-16328508D02*
X5091372Y-16318984D01*
X5243753Y-16499936D02*
X5253277Y-16509460D01*
X5253277Y-16509460D02*
X5243753Y-16518984D01*
X5243753Y-16518984D02*
X5234229Y-16509460D01*
X5234229Y-16509460D02*
X5243753Y-16499936D01*
X5243753Y-16499936D02*
X5243753Y-16518984D01*
X5319944Y-16318984D02*
X5443753Y-16318984D01*
X5443753Y-16318984D02*
X5377086Y-16395174D01*
X5377086Y-16395174D02*
X5405658Y-16395174D01*
X5405658Y-16395174D02*
X5424705Y-16404698D01*
X5424705Y-16404698D02*
X5434229Y-16414222D01*
X5434229Y-16414222D02*
X5443753Y-16433269D01*
X5443753Y-16433269D02*
X5443753Y-16480888D01*
X5443753Y-16480888D02*
X5434229Y-16499936D01*
X5434229Y-16499936D02*
X5424705Y-16509460D01*
X5424705Y-16509460D02*
X5405658Y-16518984D01*
X5405658Y-16518984D02*
X5348515Y-16518984D01*
X5348515Y-16518984D02*
X5329467Y-16509460D01*
X5329467Y-16509460D02*
X5319944Y-16499936D01*
X5567563Y-16318984D02*
X5586610Y-16318984D01*
X5586610Y-16318984D02*
X5605658Y-16328508D01*
X5605658Y-16328508D02*
X5615182Y-16338031D01*
X5615182Y-16338031D02*
X5624705Y-16357079D01*
X5624705Y-16357079D02*
X5634229Y-16395174D01*
X5634229Y-16395174D02*
X5634229Y-16442793D01*
X5634229Y-16442793D02*
X5624705Y-16480888D01*
X5624705Y-16480888D02*
X5615182Y-16499936D01*
X5615182Y-16499936D02*
X5605658Y-16509460D01*
X5605658Y-16509460D02*
X5586610Y-16518984D01*
X5586610Y-16518984D02*
X5567563Y-16518984D01*
X5567563Y-16518984D02*
X5548515Y-16509460D01*
X5548515Y-16509460D02*
X5538991Y-16499936D01*
X5538991Y-16499936D02*
X5529467Y-16480888D01*
X5529467Y-16480888D02*
X5519944Y-16442793D01*
X5519944Y-16442793D02*
X5519944Y-16395174D01*
X5519944Y-16395174D02*
X5529467Y-16357079D01*
X5529467Y-16357079D02*
X5538991Y-16338031D01*
X5538991Y-16338031D02*
X5548515Y-16328508D01*
X5548515Y-16328508D02*
X5567563Y-16318984D01*
X5758039Y-16318984D02*
X5777086Y-16318984D01*
X5777086Y-16318984D02*
X5796134Y-16328508D01*
X5796134Y-16328508D02*
X5805658Y-16338031D01*
X5805658Y-16338031D02*
X5815182Y-16357079D01*
X5815182Y-16357079D02*
X5824705Y-16395174D01*
X5824705Y-16395174D02*
X5824705Y-16442793D01*
X5824705Y-16442793D02*
X5815182Y-16480888D01*
X5815182Y-16480888D02*
X5805658Y-16499936D01*
X5805658Y-16499936D02*
X5796134Y-16509460D01*
X5796134Y-16509460D02*
X5777086Y-16518984D01*
X5777086Y-16518984D02*
X5758039Y-16518984D01*
X5758039Y-16518984D02*
X5738991Y-16509460D01*
X5738991Y-16509460D02*
X5729467Y-16499936D01*
X5729467Y-16499936D02*
X5719943Y-16480888D01*
X5719943Y-16480888D02*
X5710420Y-16442793D01*
X5710420Y-16442793D02*
X5710420Y-16395174D01*
X5710420Y-16395174D02*
X5719943Y-16357079D01*
X5719943Y-16357079D02*
X5729467Y-16338031D01*
X5729467Y-16338031D02*
X5738991Y-16328508D01*
X5738991Y-16328508D02*
X5758039Y-16318984D01*
X5910420Y-16518984D02*
X5910420Y-16385650D01*
X5910420Y-16404698D02*
X5919943Y-16395174D01*
X5919943Y-16395174D02*
X5938991Y-16385650D01*
X5938991Y-16385650D02*
X5967563Y-16385650D01*
X5967563Y-16385650D02*
X5986610Y-16395174D01*
X5986610Y-16395174D02*
X5996134Y-16414222D01*
X5996134Y-16414222D02*
X5996134Y-16518984D01*
X5996134Y-16414222D02*
X6005658Y-16395174D01*
X6005658Y-16395174D02*
X6024705Y-16385650D01*
X6024705Y-16385650D02*
X6053277Y-16385650D01*
X6053277Y-16385650D02*
X6072324Y-16395174D01*
X6072324Y-16395174D02*
X6081848Y-16414222D01*
X6081848Y-16414222D02*
X6081848Y-16518984D01*
X6177086Y-16518984D02*
X6177086Y-16385650D01*
X6177086Y-16404698D02*
X6186610Y-16395174D01*
X6186610Y-16395174D02*
X6205658Y-16385650D01*
X6205658Y-16385650D02*
X6234229Y-16385650D01*
X6234229Y-16385650D02*
X6253277Y-16395174D01*
X6253277Y-16395174D02*
X6262801Y-16414222D01*
X6262801Y-16414222D02*
X6262801Y-16518984D01*
X6262801Y-16414222D02*
X6272324Y-16395174D01*
X6272324Y-16395174D02*
X6291372Y-16385650D01*
X6291372Y-16385650D02*
X6319943Y-16385650D01*
X6319943Y-16385650D02*
X6338991Y-16395174D01*
X6338991Y-16395174D02*
X6348515Y-16414222D01*
X6348515Y-16414222D02*
X6348515Y-16518984D01*
X6738991Y-16309460D02*
X6567563Y-16566603D01*
X6996134Y-16318984D02*
X7015182Y-16318984D01*
X7015182Y-16318984D02*
X7034229Y-16328508D01*
X7034229Y-16328508D02*
X7043753Y-16338031D01*
X7043753Y-16338031D02*
X7053277Y-16357079D01*
X7053277Y-16357079D02*
X7062801Y-16395174D01*
X7062801Y-16395174D02*
X7062801Y-16442793D01*
X7062801Y-16442793D02*
X7053277Y-16480888D01*
X7053277Y-16480888D02*
X7043753Y-16499936D01*
X7043753Y-16499936D02*
X7034229Y-16509460D01*
X7034229Y-16509460D02*
X7015182Y-16518984D01*
X7015182Y-16518984D02*
X6996134Y-16518984D01*
X6996134Y-16518984D02*
X6977086Y-16509460D01*
X6977086Y-16509460D02*
X6967563Y-16499936D01*
X6967563Y-16499936D02*
X6958039Y-16480888D01*
X6958039Y-16480888D02*
X6948515Y-16442793D01*
X6948515Y-16442793D02*
X6948515Y-16395174D01*
X6948515Y-16395174D02*
X6958039Y-16357079D01*
X6958039Y-16357079D02*
X6967563Y-16338031D01*
X6967563Y-16338031D02*
X6977086Y-16328508D01*
X6977086Y-16328508D02*
X6996134Y-16318984D01*
X7148515Y-16499936D02*
X7158039Y-16509460D01*
X7158039Y-16509460D02*
X7148515Y-16518984D01*
X7148515Y-16518984D02*
X7138991Y-16509460D01*
X7138991Y-16509460D02*
X7148515Y-16499936D01*
X7148515Y-16499936D02*
X7148515Y-16518984D01*
X7281848Y-16318984D02*
X7300896Y-16318984D01*
X7300896Y-16318984D02*
X7319944Y-16328508D01*
X7319944Y-16328508D02*
X7329467Y-16338031D01*
X7329467Y-16338031D02*
X7338991Y-16357079D01*
X7338991Y-16357079D02*
X7348515Y-16395174D01*
X7348515Y-16395174D02*
X7348515Y-16442793D01*
X7348515Y-16442793D02*
X7338991Y-16480888D01*
X7338991Y-16480888D02*
X7329467Y-16499936D01*
X7329467Y-16499936D02*
X7319944Y-16509460D01*
X7319944Y-16509460D02*
X7300896Y-16518984D01*
X7300896Y-16518984D02*
X7281848Y-16518984D01*
X7281848Y-16518984D02*
X7262801Y-16509460D01*
X7262801Y-16509460D02*
X7253277Y-16499936D01*
X7253277Y-16499936D02*
X7243753Y-16480888D01*
X7243753Y-16480888D02*
X7234229Y-16442793D01*
X7234229Y-16442793D02*
X7234229Y-16395174D01*
X7234229Y-16395174D02*
X7243753Y-16357079D01*
X7243753Y-16357079D02*
X7253277Y-16338031D01*
X7253277Y-16338031D02*
X7262801Y-16328508D01*
X7262801Y-16328508D02*
X7281848Y-16318984D01*
X7538991Y-16518984D02*
X7424706Y-16518984D01*
X7481848Y-16518984D02*
X7481848Y-16318984D01*
X7481848Y-16318984D02*
X7462801Y-16347555D01*
X7462801Y-16347555D02*
X7443753Y-16366603D01*
X7443753Y-16366603D02*
X7424706Y-16376127D01*
X7729467Y-16518984D02*
X7615182Y-16518984D01*
X7672325Y-16518984D02*
X7672325Y-16318984D01*
X7672325Y-16318984D02*
X7653277Y-16347555D01*
X7653277Y-16347555D02*
X7634229Y-16366603D01*
X7634229Y-16366603D02*
X7615182Y-16376127D01*
X7843753Y-16404698D02*
X7824706Y-16395174D01*
X7824706Y-16395174D02*
X7815182Y-16385650D01*
X7815182Y-16385650D02*
X7805658Y-16366603D01*
X7805658Y-16366603D02*
X7805658Y-16357079D01*
X7805658Y-16357079D02*
X7815182Y-16338031D01*
X7815182Y-16338031D02*
X7824706Y-16328508D01*
X7824706Y-16328508D02*
X7843753Y-16318984D01*
X7843753Y-16318984D02*
X7881848Y-16318984D01*
X7881848Y-16318984D02*
X7900896Y-16328508D01*
X7900896Y-16328508D02*
X7910420Y-16338031D01*
X7910420Y-16338031D02*
X7919944Y-16357079D01*
X7919944Y-16357079D02*
X7919944Y-16366603D01*
X7919944Y-16366603D02*
X7910420Y-16385650D01*
X7910420Y-16385650D02*
X7900896Y-16395174D01*
X7900896Y-16395174D02*
X7881848Y-16404698D01*
X7881848Y-16404698D02*
X7843753Y-16404698D01*
X7843753Y-16404698D02*
X7824706Y-16414222D01*
X7824706Y-16414222D02*
X7815182Y-16423746D01*
X7815182Y-16423746D02*
X7805658Y-16442793D01*
X7805658Y-16442793D02*
X7805658Y-16480888D01*
X7805658Y-16480888D02*
X7815182Y-16499936D01*
X7815182Y-16499936D02*
X7824706Y-16509460D01*
X7824706Y-16509460D02*
X7843753Y-16518984D01*
X7843753Y-16518984D02*
X7881848Y-16518984D01*
X7881848Y-16518984D02*
X7900896Y-16509460D01*
X7900896Y-16509460D02*
X7910420Y-16499936D01*
X7910420Y-16499936D02*
X7919944Y-16480888D01*
X7919944Y-16480888D02*
X7919944Y-16442793D01*
X7919944Y-16442793D02*
X7910420Y-16423746D01*
X7910420Y-16423746D02*
X7900896Y-16414222D01*
X7900896Y-16414222D02*
X7881848Y-16404698D01*
X7996134Y-16318984D02*
X7996134Y-16357079D01*
X8072325Y-16318984D02*
X8072325Y-16357079D01*
X8367563Y-16595174D02*
X8358039Y-16585650D01*
X8358039Y-16585650D02*
X8338991Y-16557079D01*
X8338991Y-16557079D02*
X8329468Y-16538031D01*
X8329468Y-16538031D02*
X8319944Y-16509460D01*
X8319944Y-16509460D02*
X8310420Y-16461841D01*
X8310420Y-16461841D02*
X8310420Y-16423746D01*
X8310420Y-16423746D02*
X8319944Y-16376127D01*
X8319944Y-16376127D02*
X8329468Y-16347555D01*
X8329468Y-16347555D02*
X8338991Y-16328508D01*
X8338991Y-16328508D02*
X8358039Y-16299936D01*
X8358039Y-16299936D02*
X8367563Y-16290412D01*
X8434230Y-16338031D02*
X8443753Y-16328508D01*
X8443753Y-16328508D02*
X8462801Y-16318984D01*
X8462801Y-16318984D02*
X8510420Y-16318984D01*
X8510420Y-16318984D02*
X8529468Y-16328508D01*
X8529468Y-16328508D02*
X8538991Y-16338031D01*
X8538991Y-16338031D02*
X8548515Y-16357079D01*
X8548515Y-16357079D02*
X8548515Y-16376127D01*
X8548515Y-16376127D02*
X8538991Y-16404698D01*
X8538991Y-16404698D02*
X8424706Y-16518984D01*
X8424706Y-16518984D02*
X8548515Y-16518984D01*
X8662801Y-16404698D02*
X8643753Y-16395174D01*
X8643753Y-16395174D02*
X8634230Y-16385650D01*
X8634230Y-16385650D02*
X8624706Y-16366603D01*
X8624706Y-16366603D02*
X8624706Y-16357079D01*
X8624706Y-16357079D02*
X8634230Y-16338031D01*
X8634230Y-16338031D02*
X8643753Y-16328508D01*
X8643753Y-16328508D02*
X8662801Y-16318984D01*
X8662801Y-16318984D02*
X8700896Y-16318984D01*
X8700896Y-16318984D02*
X8719944Y-16328508D01*
X8719944Y-16328508D02*
X8729468Y-16338031D01*
X8729468Y-16338031D02*
X8738991Y-16357079D01*
X8738991Y-16357079D02*
X8738991Y-16366603D01*
X8738991Y-16366603D02*
X8729468Y-16385650D01*
X8729468Y-16385650D02*
X8719944Y-16395174D01*
X8719944Y-16395174D02*
X8700896Y-16404698D01*
X8700896Y-16404698D02*
X8662801Y-16404698D01*
X8662801Y-16404698D02*
X8643753Y-16414222D01*
X8643753Y-16414222D02*
X8634230Y-16423746D01*
X8634230Y-16423746D02*
X8624706Y-16442793D01*
X8624706Y-16442793D02*
X8624706Y-16480888D01*
X8624706Y-16480888D02*
X8634230Y-16499936D01*
X8634230Y-16499936D02*
X8643753Y-16509460D01*
X8643753Y-16509460D02*
X8662801Y-16518984D01*
X8662801Y-16518984D02*
X8700896Y-16518984D01*
X8700896Y-16518984D02*
X8719944Y-16509460D01*
X8719944Y-16509460D02*
X8729468Y-16499936D01*
X8729468Y-16499936D02*
X8738991Y-16480888D01*
X8738991Y-16480888D02*
X8738991Y-16442793D01*
X8738991Y-16442793D02*
X8729468Y-16423746D01*
X8729468Y-16423746D02*
X8719944Y-16414222D01*
X8719944Y-16414222D02*
X8700896Y-16404698D01*
X8910420Y-16385650D02*
X8910420Y-16518984D01*
X8862801Y-16309460D02*
X8815182Y-16452317D01*
X8815182Y-16452317D02*
X8938991Y-16452317D01*
X9167563Y-16518984D02*
X9167563Y-16318984D01*
X9253277Y-16518984D02*
X9253277Y-16414222D01*
X9253277Y-16414222D02*
X9243753Y-16395174D01*
X9243753Y-16395174D02*
X9224706Y-16385650D01*
X9224706Y-16385650D02*
X9196134Y-16385650D01*
X9196134Y-16385650D02*
X9177087Y-16395174D01*
X9177087Y-16395174D02*
X9167563Y-16404698D01*
X9377087Y-16518984D02*
X9358039Y-16509460D01*
X9358039Y-16509460D02*
X9348515Y-16499936D01*
X9348515Y-16499936D02*
X9338992Y-16480888D01*
X9338992Y-16480888D02*
X9338992Y-16423746D01*
X9338992Y-16423746D02*
X9348515Y-16404698D01*
X9348515Y-16404698D02*
X9358039Y-16395174D01*
X9358039Y-16395174D02*
X9377087Y-16385650D01*
X9377087Y-16385650D02*
X9405658Y-16385650D01*
X9405658Y-16385650D02*
X9424706Y-16395174D01*
X9424706Y-16395174D02*
X9434230Y-16404698D01*
X9434230Y-16404698D02*
X9443753Y-16423746D01*
X9443753Y-16423746D02*
X9443753Y-16480888D01*
X9443753Y-16480888D02*
X9434230Y-16499936D01*
X9434230Y-16499936D02*
X9424706Y-16509460D01*
X9424706Y-16509460D02*
X9405658Y-16518984D01*
X9405658Y-16518984D02*
X9377087Y-16518984D01*
X9558039Y-16518984D02*
X9538992Y-16509460D01*
X9538992Y-16509460D02*
X9529468Y-16490412D01*
X9529468Y-16490412D02*
X9529468Y-16318984D01*
X9710420Y-16509460D02*
X9691373Y-16518984D01*
X9691373Y-16518984D02*
X9653277Y-16518984D01*
X9653277Y-16518984D02*
X9634230Y-16509460D01*
X9634230Y-16509460D02*
X9624706Y-16490412D01*
X9624706Y-16490412D02*
X9624706Y-16414222D01*
X9624706Y-16414222D02*
X9634230Y-16395174D01*
X9634230Y-16395174D02*
X9653277Y-16385650D01*
X9653277Y-16385650D02*
X9691373Y-16385650D01*
X9691373Y-16385650D02*
X9710420Y-16395174D01*
X9710420Y-16395174D02*
X9719944Y-16414222D01*
X9719944Y-16414222D02*
X9719944Y-16433269D01*
X9719944Y-16433269D02*
X9624706Y-16452317D01*
X9796134Y-16509460D02*
X9815182Y-16518984D01*
X9815182Y-16518984D02*
X9853277Y-16518984D01*
X9853277Y-16518984D02*
X9872325Y-16509460D01*
X9872325Y-16509460D02*
X9881849Y-16490412D01*
X9881849Y-16490412D02*
X9881849Y-16480888D01*
X9881849Y-16480888D02*
X9872325Y-16461841D01*
X9872325Y-16461841D02*
X9853277Y-16452317D01*
X9853277Y-16452317D02*
X9824706Y-16452317D01*
X9824706Y-16452317D02*
X9805658Y-16442793D01*
X9805658Y-16442793D02*
X9796134Y-16423746D01*
X9796134Y-16423746D02*
X9796134Y-16414222D01*
X9796134Y-16414222D02*
X9805658Y-16395174D01*
X9805658Y-16395174D02*
X9824706Y-16385650D01*
X9824706Y-16385650D02*
X9853277Y-16385650D01*
X9853277Y-16385650D02*
X9872325Y-16395174D01*
X9948515Y-16595174D02*
X9958039Y-16585650D01*
X9958039Y-16585650D02*
X9977087Y-16557079D01*
X9977087Y-16557079D02*
X9986611Y-16538031D01*
X9986611Y-16538031D02*
X9996134Y-16509460D01*
X9996134Y-16509460D02*
X10005658Y-16461841D01*
X10005658Y-16461841D02*
X10005658Y-16423746D01*
X10005658Y-16423746D02*
X9996134Y-16376127D01*
X9996134Y-16376127D02*
X9986611Y-16347555D01*
X9986611Y-16347555D02*
X9977087Y-16328508D01*
X9977087Y-16328508D02*
X9958039Y-16299936D01*
X9958039Y-16299936D02*
X9948515Y-16290412D01*
D12*
X4792500Y-16691500D02*
G75*
G02*
X4747500Y-16691500I-22500J0D01*
G01*
X4747500Y-16691500D02*
G75*
G02*
X4792500Y-16691500I22500J0D01*
G01*
D11*
X5091372Y-16582984D02*
X5110420Y-16582984D01*
X5110420Y-16582984D02*
X5129467Y-16592508D01*
X5129467Y-16592508D02*
X5138991Y-16602031D01*
X5138991Y-16602031D02*
X5148515Y-16621079D01*
X5148515Y-16621079D02*
X5158039Y-16659174D01*
X5158039Y-16659174D02*
X5158039Y-16706793D01*
X5158039Y-16706793D02*
X5148515Y-16744888D01*
X5148515Y-16744888D02*
X5138991Y-16763936D01*
X5138991Y-16763936D02*
X5129467Y-16773460D01*
X5129467Y-16773460D02*
X5110420Y-16782984D01*
X5110420Y-16782984D02*
X5091372Y-16782984D01*
X5091372Y-16782984D02*
X5072324Y-16773460D01*
X5072324Y-16773460D02*
X5062801Y-16763936D01*
X5062801Y-16763936D02*
X5053277Y-16744888D01*
X5053277Y-16744888D02*
X5043753Y-16706793D01*
X5043753Y-16706793D02*
X5043753Y-16659174D01*
X5043753Y-16659174D02*
X5053277Y-16621079D01*
X5053277Y-16621079D02*
X5062801Y-16602031D01*
X5062801Y-16602031D02*
X5072324Y-16592508D01*
X5072324Y-16592508D02*
X5091372Y-16582984D01*
X5243753Y-16763936D02*
X5253277Y-16773460D01*
X5253277Y-16773460D02*
X5243753Y-16782984D01*
X5243753Y-16782984D02*
X5234229Y-16773460D01*
X5234229Y-16773460D02*
X5243753Y-16763936D01*
X5243753Y-16763936D02*
X5243753Y-16782984D01*
X5424705Y-16649650D02*
X5424705Y-16782984D01*
X5377086Y-16573460D02*
X5329467Y-16716317D01*
X5329467Y-16716317D02*
X5453277Y-16716317D01*
X5624705Y-16582984D02*
X5529467Y-16582984D01*
X5529467Y-16582984D02*
X5519944Y-16678222D01*
X5519944Y-16678222D02*
X5529467Y-16668698D01*
X5529467Y-16668698D02*
X5548515Y-16659174D01*
X5548515Y-16659174D02*
X5596134Y-16659174D01*
X5596134Y-16659174D02*
X5615182Y-16668698D01*
X5615182Y-16668698D02*
X5624705Y-16678222D01*
X5624705Y-16678222D02*
X5634229Y-16697269D01*
X5634229Y-16697269D02*
X5634229Y-16744888D01*
X5634229Y-16744888D02*
X5624705Y-16763936D01*
X5624705Y-16763936D02*
X5615182Y-16773460D01*
X5615182Y-16773460D02*
X5596134Y-16782984D01*
X5596134Y-16782984D02*
X5548515Y-16782984D01*
X5548515Y-16782984D02*
X5529467Y-16773460D01*
X5529467Y-16773460D02*
X5519944Y-16763936D01*
X5758039Y-16582984D02*
X5777086Y-16582984D01*
X5777086Y-16582984D02*
X5796134Y-16592508D01*
X5796134Y-16592508D02*
X5805658Y-16602031D01*
X5805658Y-16602031D02*
X5815182Y-16621079D01*
X5815182Y-16621079D02*
X5824705Y-16659174D01*
X5824705Y-16659174D02*
X5824705Y-16706793D01*
X5824705Y-16706793D02*
X5815182Y-16744888D01*
X5815182Y-16744888D02*
X5805658Y-16763936D01*
X5805658Y-16763936D02*
X5796134Y-16773460D01*
X5796134Y-16773460D02*
X5777086Y-16782984D01*
X5777086Y-16782984D02*
X5758039Y-16782984D01*
X5758039Y-16782984D02*
X5738991Y-16773460D01*
X5738991Y-16773460D02*
X5729467Y-16763936D01*
X5729467Y-16763936D02*
X5719943Y-16744888D01*
X5719943Y-16744888D02*
X5710420Y-16706793D01*
X5710420Y-16706793D02*
X5710420Y-16659174D01*
X5710420Y-16659174D02*
X5719943Y-16621079D01*
X5719943Y-16621079D02*
X5729467Y-16602031D01*
X5729467Y-16602031D02*
X5738991Y-16592508D01*
X5738991Y-16592508D02*
X5758039Y-16582984D01*
X5910420Y-16782984D02*
X5910420Y-16649650D01*
X5910420Y-16668698D02*
X5919943Y-16659174D01*
X5919943Y-16659174D02*
X5938991Y-16649650D01*
X5938991Y-16649650D02*
X5967563Y-16649650D01*
X5967563Y-16649650D02*
X5986610Y-16659174D01*
X5986610Y-16659174D02*
X5996134Y-16678222D01*
X5996134Y-16678222D02*
X5996134Y-16782984D01*
X5996134Y-16678222D02*
X6005658Y-16659174D01*
X6005658Y-16659174D02*
X6024705Y-16649650D01*
X6024705Y-16649650D02*
X6053277Y-16649650D01*
X6053277Y-16649650D02*
X6072324Y-16659174D01*
X6072324Y-16659174D02*
X6081848Y-16678222D01*
X6081848Y-16678222D02*
X6081848Y-16782984D01*
X6177086Y-16782984D02*
X6177086Y-16649650D01*
X6177086Y-16668698D02*
X6186610Y-16659174D01*
X6186610Y-16659174D02*
X6205658Y-16649650D01*
X6205658Y-16649650D02*
X6234229Y-16649650D01*
X6234229Y-16649650D02*
X6253277Y-16659174D01*
X6253277Y-16659174D02*
X6262801Y-16678222D01*
X6262801Y-16678222D02*
X6262801Y-16782984D01*
X6262801Y-16678222D02*
X6272324Y-16659174D01*
X6272324Y-16659174D02*
X6291372Y-16649650D01*
X6291372Y-16649650D02*
X6319943Y-16649650D01*
X6319943Y-16649650D02*
X6338991Y-16659174D01*
X6338991Y-16659174D02*
X6348515Y-16678222D01*
X6348515Y-16678222D02*
X6348515Y-16782984D01*
X6738991Y-16573460D02*
X6567563Y-16830603D01*
X6996134Y-16582984D02*
X7015182Y-16582984D01*
X7015182Y-16582984D02*
X7034229Y-16592508D01*
X7034229Y-16592508D02*
X7043753Y-16602031D01*
X7043753Y-16602031D02*
X7053277Y-16621079D01*
X7053277Y-16621079D02*
X7062801Y-16659174D01*
X7062801Y-16659174D02*
X7062801Y-16706793D01*
X7062801Y-16706793D02*
X7053277Y-16744888D01*
X7053277Y-16744888D02*
X7043753Y-16763936D01*
X7043753Y-16763936D02*
X7034229Y-16773460D01*
X7034229Y-16773460D02*
X7015182Y-16782984D01*
X7015182Y-16782984D02*
X6996134Y-16782984D01*
X6996134Y-16782984D02*
X6977086Y-16773460D01*
X6977086Y-16773460D02*
X6967563Y-16763936D01*
X6967563Y-16763936D02*
X6958039Y-16744888D01*
X6958039Y-16744888D02*
X6948515Y-16706793D01*
X6948515Y-16706793D02*
X6948515Y-16659174D01*
X6948515Y-16659174D02*
X6958039Y-16621079D01*
X6958039Y-16621079D02*
X6967563Y-16602031D01*
X6967563Y-16602031D02*
X6977086Y-16592508D01*
X6977086Y-16592508D02*
X6996134Y-16582984D01*
X7148515Y-16763936D02*
X7158039Y-16773460D01*
X7158039Y-16773460D02*
X7148515Y-16782984D01*
X7148515Y-16782984D02*
X7138991Y-16773460D01*
X7138991Y-16773460D02*
X7148515Y-16763936D01*
X7148515Y-16763936D02*
X7148515Y-16782984D01*
X7281848Y-16582984D02*
X7300896Y-16582984D01*
X7300896Y-16582984D02*
X7319944Y-16592508D01*
X7319944Y-16592508D02*
X7329467Y-16602031D01*
X7329467Y-16602031D02*
X7338991Y-16621079D01*
X7338991Y-16621079D02*
X7348515Y-16659174D01*
X7348515Y-16659174D02*
X7348515Y-16706793D01*
X7348515Y-16706793D02*
X7338991Y-16744888D01*
X7338991Y-16744888D02*
X7329467Y-16763936D01*
X7329467Y-16763936D02*
X7319944Y-16773460D01*
X7319944Y-16773460D02*
X7300896Y-16782984D01*
X7300896Y-16782984D02*
X7281848Y-16782984D01*
X7281848Y-16782984D02*
X7262801Y-16773460D01*
X7262801Y-16773460D02*
X7253277Y-16763936D01*
X7253277Y-16763936D02*
X7243753Y-16744888D01*
X7243753Y-16744888D02*
X7234229Y-16706793D01*
X7234229Y-16706793D02*
X7234229Y-16659174D01*
X7234229Y-16659174D02*
X7243753Y-16621079D01*
X7243753Y-16621079D02*
X7253277Y-16602031D01*
X7253277Y-16602031D02*
X7262801Y-16592508D01*
X7262801Y-16592508D02*
X7281848Y-16582984D01*
X7538991Y-16782984D02*
X7424706Y-16782984D01*
X7481848Y-16782984D02*
X7481848Y-16582984D01*
X7481848Y-16582984D02*
X7462801Y-16611555D01*
X7462801Y-16611555D02*
X7443753Y-16630603D01*
X7443753Y-16630603D02*
X7424706Y-16640127D01*
X7605658Y-16582984D02*
X7738991Y-16582984D01*
X7738991Y-16582984D02*
X7653277Y-16782984D01*
X7796134Y-16582984D02*
X7929467Y-16582984D01*
X7929467Y-16582984D02*
X7843753Y-16782984D01*
X7996134Y-16582984D02*
X7996134Y-16621079D01*
X8072325Y-16582984D02*
X8072325Y-16621079D01*
X8367563Y-16859174D02*
X8358039Y-16849650D01*
X8358039Y-16849650D02*
X8338991Y-16821079D01*
X8338991Y-16821079D02*
X8329468Y-16802031D01*
X8329468Y-16802031D02*
X8319944Y-16773460D01*
X8319944Y-16773460D02*
X8310420Y-16725841D01*
X8310420Y-16725841D02*
X8310420Y-16687746D01*
X8310420Y-16687746D02*
X8319944Y-16640127D01*
X8319944Y-16640127D02*
X8329468Y-16611555D01*
X8329468Y-16611555D02*
X8338991Y-16592508D01*
X8338991Y-16592508D02*
X8358039Y-16563936D01*
X8358039Y-16563936D02*
X8367563Y-16554412D01*
X8481849Y-16582984D02*
X8500896Y-16582984D01*
X8500896Y-16582984D02*
X8519944Y-16592508D01*
X8519944Y-16592508D02*
X8529468Y-16602031D01*
X8529468Y-16602031D02*
X8538991Y-16621079D01*
X8538991Y-16621079D02*
X8548515Y-16659174D01*
X8548515Y-16659174D02*
X8548515Y-16706793D01*
X8548515Y-16706793D02*
X8538991Y-16744888D01*
X8538991Y-16744888D02*
X8529468Y-16763936D01*
X8529468Y-16763936D02*
X8519944Y-16773460D01*
X8519944Y-16773460D02*
X8500896Y-16782984D01*
X8500896Y-16782984D02*
X8481849Y-16782984D01*
X8481849Y-16782984D02*
X8462801Y-16773460D01*
X8462801Y-16773460D02*
X8453277Y-16763936D01*
X8453277Y-16763936D02*
X8443753Y-16744888D01*
X8443753Y-16744888D02*
X8434230Y-16706793D01*
X8434230Y-16706793D02*
X8434230Y-16659174D01*
X8434230Y-16659174D02*
X8443753Y-16621079D01*
X8443753Y-16621079D02*
X8453277Y-16602031D01*
X8453277Y-16602031D02*
X8462801Y-16592508D01*
X8462801Y-16592508D02*
X8481849Y-16582984D01*
X8786611Y-16782984D02*
X8786611Y-16582984D01*
X8872325Y-16782984D02*
X8872325Y-16678222D01*
X8872325Y-16678222D02*
X8862801Y-16659174D01*
X8862801Y-16659174D02*
X8843753Y-16649650D01*
X8843753Y-16649650D02*
X8815182Y-16649650D01*
X8815182Y-16649650D02*
X8796134Y-16659174D01*
X8796134Y-16659174D02*
X8786611Y-16668698D01*
X8996134Y-16782984D02*
X8977087Y-16773460D01*
X8977087Y-16773460D02*
X8967563Y-16763936D01*
X8967563Y-16763936D02*
X8958039Y-16744888D01*
X8958039Y-16744888D02*
X8958039Y-16687746D01*
X8958039Y-16687746D02*
X8967563Y-16668698D01*
X8967563Y-16668698D02*
X8977087Y-16659174D01*
X8977087Y-16659174D02*
X8996134Y-16649650D01*
X8996134Y-16649650D02*
X9024706Y-16649650D01*
X9024706Y-16649650D02*
X9043753Y-16659174D01*
X9043753Y-16659174D02*
X9053277Y-16668698D01*
X9053277Y-16668698D02*
X9062801Y-16687746D01*
X9062801Y-16687746D02*
X9062801Y-16744888D01*
X9062801Y-16744888D02*
X9053277Y-16763936D01*
X9053277Y-16763936D02*
X9043753Y-16773460D01*
X9043753Y-16773460D02*
X9024706Y-16782984D01*
X9024706Y-16782984D02*
X8996134Y-16782984D01*
X9177087Y-16782984D02*
X9158039Y-16773460D01*
X9158039Y-16773460D02*
X9148515Y-16754412D01*
X9148515Y-16754412D02*
X9148515Y-16582984D01*
X9329468Y-16773460D02*
X9310420Y-16782984D01*
X9310420Y-16782984D02*
X9272325Y-16782984D01*
X9272325Y-16782984D02*
X9253277Y-16773460D01*
X9253277Y-16773460D02*
X9243753Y-16754412D01*
X9243753Y-16754412D02*
X9243753Y-16678222D01*
X9243753Y-16678222D02*
X9253277Y-16659174D01*
X9253277Y-16659174D02*
X9272325Y-16649650D01*
X9272325Y-16649650D02*
X9310420Y-16649650D01*
X9310420Y-16649650D02*
X9329468Y-16659174D01*
X9329468Y-16659174D02*
X9338992Y-16678222D01*
X9338992Y-16678222D02*
X9338992Y-16697269D01*
X9338992Y-16697269D02*
X9243753Y-16716317D01*
X9415182Y-16773460D02*
X9434230Y-16782984D01*
X9434230Y-16782984D02*
X9472325Y-16782984D01*
X9472325Y-16782984D02*
X9491373Y-16773460D01*
X9491373Y-16773460D02*
X9500896Y-16754412D01*
X9500896Y-16754412D02*
X9500896Y-16744888D01*
X9500896Y-16744888D02*
X9491373Y-16725841D01*
X9491373Y-16725841D02*
X9472325Y-16716317D01*
X9472325Y-16716317D02*
X9443753Y-16716317D01*
X9443753Y-16716317D02*
X9424706Y-16706793D01*
X9424706Y-16706793D02*
X9415182Y-16687746D01*
X9415182Y-16687746D02*
X9415182Y-16678222D01*
X9415182Y-16678222D02*
X9424706Y-16659174D01*
X9424706Y-16659174D02*
X9443753Y-16649650D01*
X9443753Y-16649650D02*
X9472325Y-16649650D01*
X9472325Y-16649650D02*
X9491373Y-16659174D01*
X9738992Y-16706793D02*
X9891373Y-16706793D01*
X9815182Y-16782984D02*
X9815182Y-16630603D01*
X10224706Y-16649650D02*
X10224706Y-16782984D01*
X10177087Y-16573460D02*
X10129468Y-16716317D01*
X10129468Y-16716317D02*
X10253277Y-16716317D01*
X10472325Y-16773460D02*
X10491373Y-16782984D01*
X10491373Y-16782984D02*
X10529468Y-16782984D01*
X10529468Y-16782984D02*
X10548516Y-16773460D01*
X10548516Y-16773460D02*
X10558039Y-16754412D01*
X10558039Y-16754412D02*
X10558039Y-16744888D01*
X10558039Y-16744888D02*
X10548516Y-16725841D01*
X10548516Y-16725841D02*
X10529468Y-16716317D01*
X10529468Y-16716317D02*
X10500896Y-16716317D01*
X10500896Y-16716317D02*
X10481849Y-16706793D01*
X10481849Y-16706793D02*
X10472325Y-16687746D01*
X10472325Y-16687746D02*
X10472325Y-16678222D01*
X10472325Y-16678222D02*
X10481849Y-16659174D01*
X10481849Y-16659174D02*
X10500896Y-16649650D01*
X10500896Y-16649650D02*
X10529468Y-16649650D01*
X10529468Y-16649650D02*
X10548516Y-16659174D01*
X10672325Y-16782984D02*
X10653277Y-16773460D01*
X10653277Y-16773460D02*
X10643754Y-16754412D01*
X10643754Y-16754412D02*
X10643754Y-16582984D01*
X10777087Y-16782984D02*
X10758039Y-16773460D01*
X10758039Y-16773460D02*
X10748516Y-16763936D01*
X10748516Y-16763936D02*
X10738992Y-16744888D01*
X10738992Y-16744888D02*
X10738992Y-16687746D01*
X10738992Y-16687746D02*
X10748516Y-16668698D01*
X10748516Y-16668698D02*
X10758039Y-16659174D01*
X10758039Y-16659174D02*
X10777087Y-16649650D01*
X10777087Y-16649650D02*
X10805658Y-16649650D01*
X10805658Y-16649650D02*
X10824706Y-16659174D01*
X10824706Y-16659174D02*
X10834230Y-16668698D01*
X10834230Y-16668698D02*
X10843754Y-16687746D01*
X10843754Y-16687746D02*
X10843754Y-16744888D01*
X10843754Y-16744888D02*
X10834230Y-16763936D01*
X10834230Y-16763936D02*
X10824706Y-16773460D01*
X10824706Y-16773460D02*
X10805658Y-16782984D01*
X10805658Y-16782984D02*
X10777087Y-16782984D01*
X10900897Y-16649650D02*
X10977087Y-16649650D01*
X10929468Y-16582984D02*
X10929468Y-16754412D01*
X10929468Y-16754412D02*
X10938992Y-16773460D01*
X10938992Y-16773460D02*
X10958039Y-16782984D01*
X10958039Y-16782984D02*
X10977087Y-16782984D01*
X11034230Y-16773460D02*
X11053277Y-16782984D01*
X11053277Y-16782984D02*
X11091373Y-16782984D01*
X11091373Y-16782984D02*
X11110420Y-16773460D01*
X11110420Y-16773460D02*
X11119944Y-16754412D01*
X11119944Y-16754412D02*
X11119944Y-16744888D01*
X11119944Y-16744888D02*
X11110420Y-16725841D01*
X11110420Y-16725841D02*
X11091373Y-16716317D01*
X11091373Y-16716317D02*
X11062801Y-16716317D01*
X11062801Y-16716317D02*
X11043754Y-16706793D01*
X11043754Y-16706793D02*
X11034230Y-16687746D01*
X11034230Y-16687746D02*
X11034230Y-16678222D01*
X11034230Y-16678222D02*
X11043754Y-16659174D01*
X11043754Y-16659174D02*
X11062801Y-16649650D01*
X11062801Y-16649650D02*
X11091373Y-16649650D01*
X11091373Y-16649650D02*
X11110420Y-16659174D01*
X11186611Y-16859174D02*
X11196135Y-16849650D01*
X11196135Y-16849650D02*
X11215182Y-16821079D01*
X11215182Y-16821079D02*
X11224706Y-16802031D01*
X11224706Y-16802031D02*
X11234230Y-16773460D01*
X11234230Y-16773460D02*
X11243754Y-16725841D01*
X11243754Y-16725841D02*
X11243754Y-16687746D01*
X11243754Y-16687746D02*
X11234230Y-16640127D01*
X11234230Y-16640127D02*
X11224706Y-16611555D01*
X11224706Y-16611555D02*
X11215182Y-16592508D01*
X11215182Y-16592508D02*
X11196135Y-16563936D01*
X11196135Y-16563936D02*
X11186611Y-16554412D01*
D12*
X4760000Y-16923000D02*
X4760000Y-16988000D01*
X4727500Y-16955500D02*
X4792500Y-16955500D01*
D11*
X5091372Y-16846984D02*
X5110420Y-16846984D01*
X5110420Y-16846984D02*
X5129467Y-16856508D01*
X5129467Y-16856508D02*
X5138991Y-16866031D01*
X5138991Y-16866031D02*
X5148515Y-16885079D01*
X5148515Y-16885079D02*
X5158039Y-16923174D01*
X5158039Y-16923174D02*
X5158039Y-16970793D01*
X5158039Y-16970793D02*
X5148515Y-17008889D01*
X5148515Y-17008889D02*
X5138991Y-17027936D01*
X5138991Y-17027936D02*
X5129467Y-17037460D01*
X5129467Y-17037460D02*
X5110420Y-17046984D01*
X5110420Y-17046984D02*
X5091372Y-17046984D01*
X5091372Y-17046984D02*
X5072324Y-17037460D01*
X5072324Y-17037460D02*
X5062801Y-17027936D01*
X5062801Y-17027936D02*
X5053277Y-17008889D01*
X5053277Y-17008889D02*
X5043753Y-16970793D01*
X5043753Y-16970793D02*
X5043753Y-16923174D01*
X5043753Y-16923174D02*
X5053277Y-16885079D01*
X5053277Y-16885079D02*
X5062801Y-16866031D01*
X5062801Y-16866031D02*
X5072324Y-16856508D01*
X5072324Y-16856508D02*
X5091372Y-16846984D01*
X5243753Y-17027936D02*
X5253277Y-17037460D01*
X5253277Y-17037460D02*
X5243753Y-17046984D01*
X5243753Y-17046984D02*
X5234229Y-17037460D01*
X5234229Y-17037460D02*
X5243753Y-17027936D01*
X5243753Y-17027936D02*
X5243753Y-17046984D01*
X5424705Y-16846984D02*
X5386610Y-16846984D01*
X5386610Y-16846984D02*
X5367563Y-16856508D01*
X5367563Y-16856508D02*
X5358039Y-16866031D01*
X5358039Y-16866031D02*
X5338991Y-16894603D01*
X5338991Y-16894603D02*
X5329467Y-16932698D01*
X5329467Y-16932698D02*
X5329467Y-17008889D01*
X5329467Y-17008889D02*
X5338991Y-17027936D01*
X5338991Y-17027936D02*
X5348515Y-17037460D01*
X5348515Y-17037460D02*
X5367563Y-17046984D01*
X5367563Y-17046984D02*
X5405658Y-17046984D01*
X5405658Y-17046984D02*
X5424705Y-17037460D01*
X5424705Y-17037460D02*
X5434229Y-17027936D01*
X5434229Y-17027936D02*
X5443753Y-17008889D01*
X5443753Y-17008889D02*
X5443753Y-16961270D01*
X5443753Y-16961270D02*
X5434229Y-16942222D01*
X5434229Y-16942222D02*
X5424705Y-16932698D01*
X5424705Y-16932698D02*
X5405658Y-16923174D01*
X5405658Y-16923174D02*
X5367563Y-16923174D01*
X5367563Y-16923174D02*
X5348515Y-16932698D01*
X5348515Y-16932698D02*
X5338991Y-16942222D01*
X5338991Y-16942222D02*
X5329467Y-16961270D01*
X5624705Y-16846984D02*
X5529467Y-16846984D01*
X5529467Y-16846984D02*
X5519944Y-16942222D01*
X5519944Y-16942222D02*
X5529467Y-16932698D01*
X5529467Y-16932698D02*
X5548515Y-16923174D01*
X5548515Y-16923174D02*
X5596134Y-16923174D01*
X5596134Y-16923174D02*
X5615182Y-16932698D01*
X5615182Y-16932698D02*
X5624705Y-16942222D01*
X5624705Y-16942222D02*
X5634229Y-16961270D01*
X5634229Y-16961270D02*
X5634229Y-17008889D01*
X5634229Y-17008889D02*
X5624705Y-17027936D01*
X5624705Y-17027936D02*
X5615182Y-17037460D01*
X5615182Y-17037460D02*
X5596134Y-17046984D01*
X5596134Y-17046984D02*
X5548515Y-17046984D01*
X5548515Y-17046984D02*
X5529467Y-17037460D01*
X5529467Y-17037460D02*
X5519944Y-17027936D01*
X5758039Y-16846984D02*
X5777086Y-16846984D01*
X5777086Y-16846984D02*
X5796134Y-16856508D01*
X5796134Y-16856508D02*
X5805658Y-16866031D01*
X5805658Y-16866031D02*
X5815182Y-16885079D01*
X5815182Y-16885079D02*
X5824705Y-16923174D01*
X5824705Y-16923174D02*
X5824705Y-16970793D01*
X5824705Y-16970793D02*
X5815182Y-17008889D01*
X5815182Y-17008889D02*
X5805658Y-17027936D01*
X5805658Y-17027936D02*
X5796134Y-17037460D01*
X5796134Y-17037460D02*
X5777086Y-17046984D01*
X5777086Y-17046984D02*
X5758039Y-17046984D01*
X5758039Y-17046984D02*
X5738991Y-17037460D01*
X5738991Y-17037460D02*
X5729467Y-17027936D01*
X5729467Y-17027936D02*
X5719943Y-17008889D01*
X5719943Y-17008889D02*
X5710420Y-16970793D01*
X5710420Y-16970793D02*
X5710420Y-16923174D01*
X5710420Y-16923174D02*
X5719943Y-16885079D01*
X5719943Y-16885079D02*
X5729467Y-16866031D01*
X5729467Y-16866031D02*
X5738991Y-16856508D01*
X5738991Y-16856508D02*
X5758039Y-16846984D01*
X5910420Y-17046984D02*
X5910420Y-16913650D01*
X5910420Y-16932698D02*
X5919943Y-16923174D01*
X5919943Y-16923174D02*
X5938991Y-16913650D01*
X5938991Y-16913650D02*
X5967563Y-16913650D01*
X5967563Y-16913650D02*
X5986610Y-16923174D01*
X5986610Y-16923174D02*
X5996134Y-16942222D01*
X5996134Y-16942222D02*
X5996134Y-17046984D01*
X5996134Y-16942222D02*
X6005658Y-16923174D01*
X6005658Y-16923174D02*
X6024705Y-16913650D01*
X6024705Y-16913650D02*
X6053277Y-16913650D01*
X6053277Y-16913650D02*
X6072324Y-16923174D01*
X6072324Y-16923174D02*
X6081848Y-16942222D01*
X6081848Y-16942222D02*
X6081848Y-17046984D01*
X6177086Y-17046984D02*
X6177086Y-16913650D01*
X6177086Y-16932698D02*
X6186610Y-16923174D01*
X6186610Y-16923174D02*
X6205658Y-16913650D01*
X6205658Y-16913650D02*
X6234229Y-16913650D01*
X6234229Y-16913650D02*
X6253277Y-16923174D01*
X6253277Y-16923174D02*
X6262801Y-16942222D01*
X6262801Y-16942222D02*
X6262801Y-17046984D01*
X6262801Y-16942222D02*
X6272324Y-16923174D01*
X6272324Y-16923174D02*
X6291372Y-16913650D01*
X6291372Y-16913650D02*
X6319943Y-16913650D01*
X6319943Y-16913650D02*
X6338991Y-16923174D01*
X6338991Y-16923174D02*
X6348515Y-16942222D01*
X6348515Y-16942222D02*
X6348515Y-17046984D01*
X6738991Y-16837460D02*
X6567563Y-17094603D01*
X6996134Y-16846984D02*
X7015182Y-16846984D01*
X7015182Y-16846984D02*
X7034229Y-16856508D01*
X7034229Y-16856508D02*
X7043753Y-16866031D01*
X7043753Y-16866031D02*
X7053277Y-16885079D01*
X7053277Y-16885079D02*
X7062801Y-16923174D01*
X7062801Y-16923174D02*
X7062801Y-16970793D01*
X7062801Y-16970793D02*
X7053277Y-17008889D01*
X7053277Y-17008889D02*
X7043753Y-17027936D01*
X7043753Y-17027936D02*
X7034229Y-17037460D01*
X7034229Y-17037460D02*
X7015182Y-17046984D01*
X7015182Y-17046984D02*
X6996134Y-17046984D01*
X6996134Y-17046984D02*
X6977086Y-17037460D01*
X6977086Y-17037460D02*
X6967563Y-17027936D01*
X6967563Y-17027936D02*
X6958039Y-17008889D01*
X6958039Y-17008889D02*
X6948515Y-16970793D01*
X6948515Y-16970793D02*
X6948515Y-16923174D01*
X6948515Y-16923174D02*
X6958039Y-16885079D01*
X6958039Y-16885079D02*
X6967563Y-16866031D01*
X6967563Y-16866031D02*
X6977086Y-16856508D01*
X6977086Y-16856508D02*
X6996134Y-16846984D01*
X7148515Y-17027936D02*
X7158039Y-17037460D01*
X7158039Y-17037460D02*
X7148515Y-17046984D01*
X7148515Y-17046984D02*
X7138991Y-17037460D01*
X7138991Y-17037460D02*
X7148515Y-17027936D01*
X7148515Y-17027936D02*
X7148515Y-17046984D01*
X7281848Y-16846984D02*
X7300896Y-16846984D01*
X7300896Y-16846984D02*
X7319944Y-16856508D01*
X7319944Y-16856508D02*
X7329467Y-16866031D01*
X7329467Y-16866031D02*
X7338991Y-16885079D01*
X7338991Y-16885079D02*
X7348515Y-16923174D01*
X7348515Y-16923174D02*
X7348515Y-16970793D01*
X7348515Y-16970793D02*
X7338991Y-17008889D01*
X7338991Y-17008889D02*
X7329467Y-17027936D01*
X7329467Y-17027936D02*
X7319944Y-17037460D01*
X7319944Y-17037460D02*
X7300896Y-17046984D01*
X7300896Y-17046984D02*
X7281848Y-17046984D01*
X7281848Y-17046984D02*
X7262801Y-17037460D01*
X7262801Y-17037460D02*
X7253277Y-17027936D01*
X7253277Y-17027936D02*
X7243753Y-17008889D01*
X7243753Y-17008889D02*
X7234229Y-16970793D01*
X7234229Y-16970793D02*
X7234229Y-16923174D01*
X7234229Y-16923174D02*
X7243753Y-16885079D01*
X7243753Y-16885079D02*
X7253277Y-16866031D01*
X7253277Y-16866031D02*
X7262801Y-16856508D01*
X7262801Y-16856508D02*
X7281848Y-16846984D01*
X7424706Y-16866031D02*
X7434229Y-16856508D01*
X7434229Y-16856508D02*
X7453277Y-16846984D01*
X7453277Y-16846984D02*
X7500896Y-16846984D01*
X7500896Y-16846984D02*
X7519944Y-16856508D01*
X7519944Y-16856508D02*
X7529467Y-16866031D01*
X7529467Y-16866031D02*
X7538991Y-16885079D01*
X7538991Y-16885079D02*
X7538991Y-16904127D01*
X7538991Y-16904127D02*
X7529467Y-16932698D01*
X7529467Y-16932698D02*
X7415182Y-17046984D01*
X7415182Y-17046984D02*
X7538991Y-17046984D01*
X7719944Y-16846984D02*
X7624706Y-16846984D01*
X7624706Y-16846984D02*
X7615182Y-16942222D01*
X7615182Y-16942222D02*
X7624706Y-16932698D01*
X7624706Y-16932698D02*
X7643753Y-16923174D01*
X7643753Y-16923174D02*
X7691372Y-16923174D01*
X7691372Y-16923174D02*
X7710420Y-16932698D01*
X7710420Y-16932698D02*
X7719944Y-16942222D01*
X7719944Y-16942222D02*
X7729467Y-16961270D01*
X7729467Y-16961270D02*
X7729467Y-17008889D01*
X7729467Y-17008889D02*
X7719944Y-17027936D01*
X7719944Y-17027936D02*
X7710420Y-17037460D01*
X7710420Y-17037460D02*
X7691372Y-17046984D01*
X7691372Y-17046984D02*
X7643753Y-17046984D01*
X7643753Y-17046984D02*
X7624706Y-17037460D01*
X7624706Y-17037460D02*
X7615182Y-17027936D01*
X7900896Y-16846984D02*
X7862801Y-16846984D01*
X7862801Y-16846984D02*
X7843753Y-16856508D01*
X7843753Y-16856508D02*
X7834229Y-16866031D01*
X7834229Y-16866031D02*
X7815182Y-16894603D01*
X7815182Y-16894603D02*
X7805658Y-16932698D01*
X7805658Y-16932698D02*
X7805658Y-17008889D01*
X7805658Y-17008889D02*
X7815182Y-17027936D01*
X7815182Y-17027936D02*
X7824706Y-17037460D01*
X7824706Y-17037460D02*
X7843753Y-17046984D01*
X7843753Y-17046984D02*
X7881848Y-17046984D01*
X7881848Y-17046984D02*
X7900896Y-17037460D01*
X7900896Y-17037460D02*
X7910420Y-17027936D01*
X7910420Y-17027936D02*
X7919944Y-17008889D01*
X7919944Y-17008889D02*
X7919944Y-16961270D01*
X7919944Y-16961270D02*
X7910420Y-16942222D01*
X7910420Y-16942222D02*
X7900896Y-16932698D01*
X7900896Y-16932698D02*
X7881848Y-16923174D01*
X7881848Y-16923174D02*
X7843753Y-16923174D01*
X7843753Y-16923174D02*
X7824706Y-16932698D01*
X7824706Y-16932698D02*
X7815182Y-16942222D01*
X7815182Y-16942222D02*
X7805658Y-16961270D01*
X7996134Y-16846984D02*
X7996134Y-16885079D01*
X8072325Y-16846984D02*
X8072325Y-16885079D01*
X8367563Y-17123174D02*
X8358039Y-17113650D01*
X8358039Y-17113650D02*
X8338991Y-17085079D01*
X8338991Y-17085079D02*
X8329468Y-17066031D01*
X8329468Y-17066031D02*
X8319944Y-17037460D01*
X8319944Y-17037460D02*
X8310420Y-16989841D01*
X8310420Y-16989841D02*
X8310420Y-16951746D01*
X8310420Y-16951746D02*
X8319944Y-16904127D01*
X8319944Y-16904127D02*
X8329468Y-16875555D01*
X8329468Y-16875555D02*
X8338991Y-16856508D01*
X8338991Y-16856508D02*
X8358039Y-16827936D01*
X8358039Y-16827936D02*
X8367563Y-16818412D01*
X8548515Y-17046984D02*
X8434230Y-17046984D01*
X8491372Y-17046984D02*
X8491372Y-16846984D01*
X8491372Y-16846984D02*
X8472325Y-16875555D01*
X8472325Y-16875555D02*
X8453277Y-16894603D01*
X8453277Y-16894603D02*
X8434230Y-16904127D01*
X8624706Y-16866031D02*
X8634230Y-16856508D01*
X8634230Y-16856508D02*
X8653277Y-16846984D01*
X8653277Y-16846984D02*
X8700896Y-16846984D01*
X8700896Y-16846984D02*
X8719944Y-16856508D01*
X8719944Y-16856508D02*
X8729468Y-16866031D01*
X8729468Y-16866031D02*
X8738991Y-16885079D01*
X8738991Y-16885079D02*
X8738991Y-16904127D01*
X8738991Y-16904127D02*
X8729468Y-16932698D01*
X8729468Y-16932698D02*
X8615182Y-17046984D01*
X8615182Y-17046984D02*
X8738991Y-17046984D01*
X8977087Y-17046984D02*
X8977087Y-16846984D01*
X9062801Y-17046984D02*
X9062801Y-16942222D01*
X9062801Y-16942222D02*
X9053277Y-16923174D01*
X9053277Y-16923174D02*
X9034230Y-16913650D01*
X9034230Y-16913650D02*
X9005658Y-16913650D01*
X9005658Y-16913650D02*
X8986611Y-16923174D01*
X8986611Y-16923174D02*
X8977087Y-16932698D01*
X9186611Y-17046984D02*
X9167563Y-17037460D01*
X9167563Y-17037460D02*
X9158039Y-17027936D01*
X9158039Y-17027936D02*
X9148515Y-17008889D01*
X9148515Y-17008889D02*
X9148515Y-16951746D01*
X9148515Y-16951746D02*
X9158039Y-16932698D01*
X9158039Y-16932698D02*
X9167563Y-16923174D01*
X9167563Y-16923174D02*
X9186611Y-16913650D01*
X9186611Y-16913650D02*
X9215182Y-16913650D01*
X9215182Y-16913650D02*
X9234230Y-16923174D01*
X9234230Y-16923174D02*
X9243753Y-16932698D01*
X9243753Y-16932698D02*
X9253277Y-16951746D01*
X9253277Y-16951746D02*
X9253277Y-17008889D01*
X9253277Y-17008889D02*
X9243753Y-17027936D01*
X9243753Y-17027936D02*
X9234230Y-17037460D01*
X9234230Y-17037460D02*
X9215182Y-17046984D01*
X9215182Y-17046984D02*
X9186611Y-17046984D01*
X9367563Y-17046984D02*
X9348515Y-17037460D01*
X9348515Y-17037460D02*
X9338992Y-17018412D01*
X9338992Y-17018412D02*
X9338992Y-16846984D01*
X9519944Y-17037460D02*
X9500896Y-17046984D01*
X9500896Y-17046984D02*
X9462801Y-17046984D01*
X9462801Y-17046984D02*
X9443753Y-17037460D01*
X9443753Y-17037460D02*
X9434230Y-17018412D01*
X9434230Y-17018412D02*
X9434230Y-16942222D01*
X9434230Y-16942222D02*
X9443753Y-16923174D01*
X9443753Y-16923174D02*
X9462801Y-16913650D01*
X9462801Y-16913650D02*
X9500896Y-16913650D01*
X9500896Y-16913650D02*
X9519944Y-16923174D01*
X9519944Y-16923174D02*
X9529468Y-16942222D01*
X9529468Y-16942222D02*
X9529468Y-16961270D01*
X9529468Y-16961270D02*
X9434230Y-16980317D01*
X9605658Y-17037460D02*
X9624706Y-17046984D01*
X9624706Y-17046984D02*
X9662801Y-17046984D01*
X9662801Y-17046984D02*
X9681849Y-17037460D01*
X9681849Y-17037460D02*
X9691373Y-17018412D01*
X9691373Y-17018412D02*
X9691373Y-17008889D01*
X9691373Y-17008889D02*
X9681849Y-16989841D01*
X9681849Y-16989841D02*
X9662801Y-16980317D01*
X9662801Y-16980317D02*
X9634230Y-16980317D01*
X9634230Y-16980317D02*
X9615182Y-16970793D01*
X9615182Y-16970793D02*
X9605658Y-16951746D01*
X9605658Y-16951746D02*
X9605658Y-16942222D01*
X9605658Y-16942222D02*
X9615182Y-16923174D01*
X9615182Y-16923174D02*
X9634230Y-16913650D01*
X9634230Y-16913650D02*
X9662801Y-16913650D01*
X9662801Y-16913650D02*
X9681849Y-16923174D01*
X9758039Y-17123174D02*
X9767563Y-17113650D01*
X9767563Y-17113650D02*
X9786611Y-17085079D01*
X9786611Y-17085079D02*
X9796134Y-17066031D01*
X9796134Y-17066031D02*
X9805658Y-17037460D01*
X9805658Y-17037460D02*
X9815182Y-16989841D01*
X9815182Y-16989841D02*
X9815182Y-16951746D01*
X9815182Y-16951746D02*
X9805658Y-16904127D01*
X9805658Y-16904127D02*
X9796134Y-16875555D01*
X9796134Y-16875555D02*
X9786611Y-16856508D01*
X9786611Y-16856508D02*
X9767563Y-16827936D01*
X9767563Y-16827936D02*
X9758039Y-16818412D01*
D12*
X4782249Y-17244249D02*
X4782249Y-17194751D01*
X4732751Y-17194751D01*
X4732751Y-17244249D01*
X4782249Y-17244249D01*
D11*
X5091372Y-17110984D02*
X5110420Y-17110984D01*
X5110420Y-17110984D02*
X5129467Y-17120508D01*
X5129467Y-17120508D02*
X5138991Y-17130031D01*
X5138991Y-17130031D02*
X5148515Y-17149079D01*
X5148515Y-17149079D02*
X5158039Y-17187174D01*
X5158039Y-17187174D02*
X5158039Y-17234793D01*
X5158039Y-17234793D02*
X5148515Y-17272889D01*
X5148515Y-17272889D02*
X5138991Y-17291936D01*
X5138991Y-17291936D02*
X5129467Y-17301460D01*
X5129467Y-17301460D02*
X5110420Y-17310984D01*
X5110420Y-17310984D02*
X5091372Y-17310984D01*
X5091372Y-17310984D02*
X5072324Y-17301460D01*
X5072324Y-17301460D02*
X5062801Y-17291936D01*
X5062801Y-17291936D02*
X5053277Y-17272889D01*
X5053277Y-17272889D02*
X5043753Y-17234793D01*
X5043753Y-17234793D02*
X5043753Y-17187174D01*
X5043753Y-17187174D02*
X5053277Y-17149079D01*
X5053277Y-17149079D02*
X5062801Y-17130031D01*
X5062801Y-17130031D02*
X5072324Y-17120508D01*
X5072324Y-17120508D02*
X5091372Y-17110984D01*
X5243753Y-17291936D02*
X5253277Y-17301460D01*
X5253277Y-17301460D02*
X5243753Y-17310984D01*
X5243753Y-17310984D02*
X5234229Y-17301460D01*
X5234229Y-17301460D02*
X5243753Y-17291936D01*
X5243753Y-17291936D02*
X5243753Y-17310984D01*
X5319944Y-17110984D02*
X5453277Y-17110984D01*
X5453277Y-17110984D02*
X5367563Y-17310984D01*
X5567563Y-17110984D02*
X5586610Y-17110984D01*
X5586610Y-17110984D02*
X5605658Y-17120508D01*
X5605658Y-17120508D02*
X5615182Y-17130031D01*
X5615182Y-17130031D02*
X5624705Y-17149079D01*
X5624705Y-17149079D02*
X5634229Y-17187174D01*
X5634229Y-17187174D02*
X5634229Y-17234793D01*
X5634229Y-17234793D02*
X5624705Y-17272889D01*
X5624705Y-17272889D02*
X5615182Y-17291936D01*
X5615182Y-17291936D02*
X5605658Y-17301460D01*
X5605658Y-17301460D02*
X5586610Y-17310984D01*
X5586610Y-17310984D02*
X5567563Y-17310984D01*
X5567563Y-17310984D02*
X5548515Y-17301460D01*
X5548515Y-17301460D02*
X5538991Y-17291936D01*
X5538991Y-17291936D02*
X5529467Y-17272889D01*
X5529467Y-17272889D02*
X5519944Y-17234793D01*
X5519944Y-17234793D02*
X5519944Y-17187174D01*
X5519944Y-17187174D02*
X5529467Y-17149079D01*
X5529467Y-17149079D02*
X5538991Y-17130031D01*
X5538991Y-17130031D02*
X5548515Y-17120508D01*
X5548515Y-17120508D02*
X5567563Y-17110984D01*
X5758039Y-17110984D02*
X5777086Y-17110984D01*
X5777086Y-17110984D02*
X5796134Y-17120508D01*
X5796134Y-17120508D02*
X5805658Y-17130031D01*
X5805658Y-17130031D02*
X5815182Y-17149079D01*
X5815182Y-17149079D02*
X5824705Y-17187174D01*
X5824705Y-17187174D02*
X5824705Y-17234793D01*
X5824705Y-17234793D02*
X5815182Y-17272889D01*
X5815182Y-17272889D02*
X5805658Y-17291936D01*
X5805658Y-17291936D02*
X5796134Y-17301460D01*
X5796134Y-17301460D02*
X5777086Y-17310984D01*
X5777086Y-17310984D02*
X5758039Y-17310984D01*
X5758039Y-17310984D02*
X5738991Y-17301460D01*
X5738991Y-17301460D02*
X5729467Y-17291936D01*
X5729467Y-17291936D02*
X5719943Y-17272889D01*
X5719943Y-17272889D02*
X5710420Y-17234793D01*
X5710420Y-17234793D02*
X5710420Y-17187174D01*
X5710420Y-17187174D02*
X5719943Y-17149079D01*
X5719943Y-17149079D02*
X5729467Y-17130031D01*
X5729467Y-17130031D02*
X5738991Y-17120508D01*
X5738991Y-17120508D02*
X5758039Y-17110984D01*
X5910420Y-17310984D02*
X5910420Y-17177650D01*
X5910420Y-17196698D02*
X5919943Y-17187174D01*
X5919943Y-17187174D02*
X5938991Y-17177650D01*
X5938991Y-17177650D02*
X5967563Y-17177650D01*
X5967563Y-17177650D02*
X5986610Y-17187174D01*
X5986610Y-17187174D02*
X5996134Y-17206222D01*
X5996134Y-17206222D02*
X5996134Y-17310984D01*
X5996134Y-17206222D02*
X6005658Y-17187174D01*
X6005658Y-17187174D02*
X6024705Y-17177650D01*
X6024705Y-17177650D02*
X6053277Y-17177650D01*
X6053277Y-17177650D02*
X6072324Y-17187174D01*
X6072324Y-17187174D02*
X6081848Y-17206222D01*
X6081848Y-17206222D02*
X6081848Y-17310984D01*
X6177086Y-17310984D02*
X6177086Y-17177650D01*
X6177086Y-17196698D02*
X6186610Y-17187174D01*
X6186610Y-17187174D02*
X6205658Y-17177650D01*
X6205658Y-17177650D02*
X6234229Y-17177650D01*
X6234229Y-17177650D02*
X6253277Y-17187174D01*
X6253277Y-17187174D02*
X6262801Y-17206222D01*
X6262801Y-17206222D02*
X6262801Y-17310984D01*
X6262801Y-17206222D02*
X6272324Y-17187174D01*
X6272324Y-17187174D02*
X6291372Y-17177650D01*
X6291372Y-17177650D02*
X6319943Y-17177650D01*
X6319943Y-17177650D02*
X6338991Y-17187174D01*
X6338991Y-17187174D02*
X6348515Y-17206222D01*
X6348515Y-17206222D02*
X6348515Y-17310984D01*
X6738991Y-17101460D02*
X6567563Y-17358603D01*
X6996134Y-17110984D02*
X7015182Y-17110984D01*
X7015182Y-17110984D02*
X7034229Y-17120508D01*
X7034229Y-17120508D02*
X7043753Y-17130031D01*
X7043753Y-17130031D02*
X7053277Y-17149079D01*
X7053277Y-17149079D02*
X7062801Y-17187174D01*
X7062801Y-17187174D02*
X7062801Y-17234793D01*
X7062801Y-17234793D02*
X7053277Y-17272889D01*
X7053277Y-17272889D02*
X7043753Y-17291936D01*
X7043753Y-17291936D02*
X7034229Y-17301460D01*
X7034229Y-17301460D02*
X7015182Y-17310984D01*
X7015182Y-17310984D02*
X6996134Y-17310984D01*
X6996134Y-17310984D02*
X6977086Y-17301460D01*
X6977086Y-17301460D02*
X6967563Y-17291936D01*
X6967563Y-17291936D02*
X6958039Y-17272889D01*
X6958039Y-17272889D02*
X6948515Y-17234793D01*
X6948515Y-17234793D02*
X6948515Y-17187174D01*
X6948515Y-17187174D02*
X6958039Y-17149079D01*
X6958039Y-17149079D02*
X6967563Y-17130031D01*
X6967563Y-17130031D02*
X6977086Y-17120508D01*
X6977086Y-17120508D02*
X6996134Y-17110984D01*
X7148515Y-17291936D02*
X7158039Y-17301460D01*
X7158039Y-17301460D02*
X7148515Y-17310984D01*
X7148515Y-17310984D02*
X7138991Y-17301460D01*
X7138991Y-17301460D02*
X7148515Y-17291936D01*
X7148515Y-17291936D02*
X7148515Y-17310984D01*
X7281848Y-17110984D02*
X7300896Y-17110984D01*
X7300896Y-17110984D02*
X7319944Y-17120508D01*
X7319944Y-17120508D02*
X7329467Y-17130031D01*
X7329467Y-17130031D02*
X7338991Y-17149079D01*
X7338991Y-17149079D02*
X7348515Y-17187174D01*
X7348515Y-17187174D02*
X7348515Y-17234793D01*
X7348515Y-17234793D02*
X7338991Y-17272889D01*
X7338991Y-17272889D02*
X7329467Y-17291936D01*
X7329467Y-17291936D02*
X7319944Y-17301460D01*
X7319944Y-17301460D02*
X7300896Y-17310984D01*
X7300896Y-17310984D02*
X7281848Y-17310984D01*
X7281848Y-17310984D02*
X7262801Y-17301460D01*
X7262801Y-17301460D02*
X7253277Y-17291936D01*
X7253277Y-17291936D02*
X7243753Y-17272889D01*
X7243753Y-17272889D02*
X7234229Y-17234793D01*
X7234229Y-17234793D02*
X7234229Y-17187174D01*
X7234229Y-17187174D02*
X7243753Y-17149079D01*
X7243753Y-17149079D02*
X7253277Y-17130031D01*
X7253277Y-17130031D02*
X7262801Y-17120508D01*
X7262801Y-17120508D02*
X7281848Y-17110984D01*
X7424706Y-17130031D02*
X7434229Y-17120508D01*
X7434229Y-17120508D02*
X7453277Y-17110984D01*
X7453277Y-17110984D02*
X7500896Y-17110984D01*
X7500896Y-17110984D02*
X7519944Y-17120508D01*
X7519944Y-17120508D02*
X7529467Y-17130031D01*
X7529467Y-17130031D02*
X7538991Y-17149079D01*
X7538991Y-17149079D02*
X7538991Y-17168127D01*
X7538991Y-17168127D02*
X7529467Y-17196698D01*
X7529467Y-17196698D02*
X7415182Y-17310984D01*
X7415182Y-17310984D02*
X7538991Y-17310984D01*
X7605658Y-17110984D02*
X7738991Y-17110984D01*
X7738991Y-17110984D02*
X7653277Y-17310984D01*
X7900896Y-17110984D02*
X7862801Y-17110984D01*
X7862801Y-17110984D02*
X7843753Y-17120508D01*
X7843753Y-17120508D02*
X7834229Y-17130031D01*
X7834229Y-17130031D02*
X7815182Y-17158603D01*
X7815182Y-17158603D02*
X7805658Y-17196698D01*
X7805658Y-17196698D02*
X7805658Y-17272889D01*
X7805658Y-17272889D02*
X7815182Y-17291936D01*
X7815182Y-17291936D02*
X7824706Y-17301460D01*
X7824706Y-17301460D02*
X7843753Y-17310984D01*
X7843753Y-17310984D02*
X7881848Y-17310984D01*
X7881848Y-17310984D02*
X7900896Y-17301460D01*
X7900896Y-17301460D02*
X7910420Y-17291936D01*
X7910420Y-17291936D02*
X7919944Y-17272889D01*
X7919944Y-17272889D02*
X7919944Y-17225270D01*
X7919944Y-17225270D02*
X7910420Y-17206222D01*
X7910420Y-17206222D02*
X7900896Y-17196698D01*
X7900896Y-17196698D02*
X7881848Y-17187174D01*
X7881848Y-17187174D02*
X7843753Y-17187174D01*
X7843753Y-17187174D02*
X7824706Y-17196698D01*
X7824706Y-17196698D02*
X7815182Y-17206222D01*
X7815182Y-17206222D02*
X7805658Y-17225270D01*
X7996134Y-17110984D02*
X7996134Y-17149079D01*
X8072325Y-17110984D02*
X8072325Y-17149079D01*
X8367563Y-17387174D02*
X8358039Y-17377650D01*
X8358039Y-17377650D02*
X8338991Y-17349079D01*
X8338991Y-17349079D02*
X8329468Y-17330031D01*
X8329468Y-17330031D02*
X8319944Y-17301460D01*
X8319944Y-17301460D02*
X8310420Y-17253841D01*
X8310420Y-17253841D02*
X8310420Y-17215746D01*
X8310420Y-17215746D02*
X8319944Y-17168127D01*
X8319944Y-17168127D02*
X8329468Y-17139555D01*
X8329468Y-17139555D02*
X8338991Y-17120508D01*
X8338991Y-17120508D02*
X8358039Y-17091936D01*
X8358039Y-17091936D02*
X8367563Y-17082412D01*
X8548515Y-17310984D02*
X8434230Y-17310984D01*
X8491372Y-17310984D02*
X8491372Y-17110984D01*
X8491372Y-17110984D02*
X8472325Y-17139555D01*
X8472325Y-17139555D02*
X8453277Y-17158603D01*
X8453277Y-17158603D02*
X8434230Y-17168127D01*
X8672325Y-17110984D02*
X8691372Y-17110984D01*
X8691372Y-17110984D02*
X8710420Y-17120508D01*
X8710420Y-17120508D02*
X8719944Y-17130031D01*
X8719944Y-17130031D02*
X8729468Y-17149079D01*
X8729468Y-17149079D02*
X8738991Y-17187174D01*
X8738991Y-17187174D02*
X8738991Y-17234793D01*
X8738991Y-17234793D02*
X8729468Y-17272889D01*
X8729468Y-17272889D02*
X8719944Y-17291936D01*
X8719944Y-17291936D02*
X8710420Y-17301460D01*
X8710420Y-17301460D02*
X8691372Y-17310984D01*
X8691372Y-17310984D02*
X8672325Y-17310984D01*
X8672325Y-17310984D02*
X8653277Y-17301460D01*
X8653277Y-17301460D02*
X8643753Y-17291936D01*
X8643753Y-17291936D02*
X8634230Y-17272889D01*
X8634230Y-17272889D02*
X8624706Y-17234793D01*
X8624706Y-17234793D02*
X8624706Y-17187174D01*
X8624706Y-17187174D02*
X8634230Y-17149079D01*
X8634230Y-17149079D02*
X8643753Y-17130031D01*
X8643753Y-17130031D02*
X8653277Y-17120508D01*
X8653277Y-17120508D02*
X8672325Y-17110984D01*
X8977087Y-17310984D02*
X8977087Y-17110984D01*
X9062801Y-17310984D02*
X9062801Y-17206222D01*
X9062801Y-17206222D02*
X9053277Y-17187174D01*
X9053277Y-17187174D02*
X9034230Y-17177650D01*
X9034230Y-17177650D02*
X9005658Y-17177650D01*
X9005658Y-17177650D02*
X8986611Y-17187174D01*
X8986611Y-17187174D02*
X8977087Y-17196698D01*
X9186611Y-17310984D02*
X9167563Y-17301460D01*
X9167563Y-17301460D02*
X9158039Y-17291936D01*
X9158039Y-17291936D02*
X9148515Y-17272889D01*
X9148515Y-17272889D02*
X9148515Y-17215746D01*
X9148515Y-17215746D02*
X9158039Y-17196698D01*
X9158039Y-17196698D02*
X9167563Y-17187174D01*
X9167563Y-17187174D02*
X9186611Y-17177650D01*
X9186611Y-17177650D02*
X9215182Y-17177650D01*
X9215182Y-17177650D02*
X9234230Y-17187174D01*
X9234230Y-17187174D02*
X9243753Y-17196698D01*
X9243753Y-17196698D02*
X9253277Y-17215746D01*
X9253277Y-17215746D02*
X9253277Y-17272889D01*
X9253277Y-17272889D02*
X9243753Y-17291936D01*
X9243753Y-17291936D02*
X9234230Y-17301460D01*
X9234230Y-17301460D02*
X9215182Y-17310984D01*
X9215182Y-17310984D02*
X9186611Y-17310984D01*
X9367563Y-17310984D02*
X9348515Y-17301460D01*
X9348515Y-17301460D02*
X9338992Y-17282412D01*
X9338992Y-17282412D02*
X9338992Y-17110984D01*
X9519944Y-17301460D02*
X9500896Y-17310984D01*
X9500896Y-17310984D02*
X9462801Y-17310984D01*
X9462801Y-17310984D02*
X9443753Y-17301460D01*
X9443753Y-17301460D02*
X9434230Y-17282412D01*
X9434230Y-17282412D02*
X9434230Y-17206222D01*
X9434230Y-17206222D02*
X9443753Y-17187174D01*
X9443753Y-17187174D02*
X9462801Y-17177650D01*
X9462801Y-17177650D02*
X9500896Y-17177650D01*
X9500896Y-17177650D02*
X9519944Y-17187174D01*
X9519944Y-17187174D02*
X9529468Y-17206222D01*
X9529468Y-17206222D02*
X9529468Y-17225270D01*
X9529468Y-17225270D02*
X9434230Y-17244317D01*
X9605658Y-17301460D02*
X9624706Y-17310984D01*
X9624706Y-17310984D02*
X9662801Y-17310984D01*
X9662801Y-17310984D02*
X9681849Y-17301460D01*
X9681849Y-17301460D02*
X9691373Y-17282412D01*
X9691373Y-17282412D02*
X9691373Y-17272889D01*
X9691373Y-17272889D02*
X9681849Y-17253841D01*
X9681849Y-17253841D02*
X9662801Y-17244317D01*
X9662801Y-17244317D02*
X9634230Y-17244317D01*
X9634230Y-17244317D02*
X9615182Y-17234793D01*
X9615182Y-17234793D02*
X9605658Y-17215746D01*
X9605658Y-17215746D02*
X9605658Y-17206222D01*
X9605658Y-17206222D02*
X9615182Y-17187174D01*
X9615182Y-17187174D02*
X9634230Y-17177650D01*
X9634230Y-17177650D02*
X9662801Y-17177650D01*
X9662801Y-17177650D02*
X9681849Y-17187174D01*
X9758039Y-17387174D02*
X9767563Y-17377650D01*
X9767563Y-17377650D02*
X9786611Y-17349079D01*
X9786611Y-17349079D02*
X9796134Y-17330031D01*
X9796134Y-17330031D02*
X9805658Y-17301460D01*
X9805658Y-17301460D02*
X9815182Y-17253841D01*
X9815182Y-17253841D02*
X9815182Y-17215746D01*
X9815182Y-17215746D02*
X9805658Y-17168127D01*
X9805658Y-17168127D02*
X9796134Y-17139555D01*
X9796134Y-17139555D02*
X9786611Y-17120508D01*
X9786611Y-17120508D02*
X9767563Y-17091936D01*
X9767563Y-17091936D02*
X9758039Y-17082412D01*
D12*
X4752500Y-17523500D02*
X4792500Y-17483500D01*
X4752500Y-17443500D01*
X4712500Y-17483500D01*
X4752500Y-17523500D01*
D11*
X5091372Y-17374984D02*
X5110420Y-17374984D01*
X5110420Y-17374984D02*
X5129467Y-17384508D01*
X5129467Y-17384508D02*
X5138991Y-17394031D01*
X5138991Y-17394031D02*
X5148515Y-17413079D01*
X5148515Y-17413079D02*
X5158039Y-17451174D01*
X5158039Y-17451174D02*
X5158039Y-17498793D01*
X5158039Y-17498793D02*
X5148515Y-17536889D01*
X5148515Y-17536889D02*
X5138991Y-17555936D01*
X5138991Y-17555936D02*
X5129467Y-17565460D01*
X5129467Y-17565460D02*
X5110420Y-17574984D01*
X5110420Y-17574984D02*
X5091372Y-17574984D01*
X5091372Y-17574984D02*
X5072324Y-17565460D01*
X5072324Y-17565460D02*
X5062801Y-17555936D01*
X5062801Y-17555936D02*
X5053277Y-17536889D01*
X5053277Y-17536889D02*
X5043753Y-17498793D01*
X5043753Y-17498793D02*
X5043753Y-17451174D01*
X5043753Y-17451174D02*
X5053277Y-17413079D01*
X5053277Y-17413079D02*
X5062801Y-17394031D01*
X5062801Y-17394031D02*
X5072324Y-17384508D01*
X5072324Y-17384508D02*
X5091372Y-17374984D01*
X5243753Y-17555936D02*
X5253277Y-17565460D01*
X5253277Y-17565460D02*
X5243753Y-17574984D01*
X5243753Y-17574984D02*
X5234229Y-17565460D01*
X5234229Y-17565460D02*
X5243753Y-17555936D01*
X5243753Y-17555936D02*
X5243753Y-17574984D01*
X5367563Y-17460698D02*
X5348515Y-17451174D01*
X5348515Y-17451174D02*
X5338991Y-17441650D01*
X5338991Y-17441650D02*
X5329467Y-17422603D01*
X5329467Y-17422603D02*
X5329467Y-17413079D01*
X5329467Y-17413079D02*
X5338991Y-17394031D01*
X5338991Y-17394031D02*
X5348515Y-17384508D01*
X5348515Y-17384508D02*
X5367563Y-17374984D01*
X5367563Y-17374984D02*
X5405658Y-17374984D01*
X5405658Y-17374984D02*
X5424705Y-17384508D01*
X5424705Y-17384508D02*
X5434229Y-17394031D01*
X5434229Y-17394031D02*
X5443753Y-17413079D01*
X5443753Y-17413079D02*
X5443753Y-17422603D01*
X5443753Y-17422603D02*
X5434229Y-17441650D01*
X5434229Y-17441650D02*
X5424705Y-17451174D01*
X5424705Y-17451174D02*
X5405658Y-17460698D01*
X5405658Y-17460698D02*
X5367563Y-17460698D01*
X5367563Y-17460698D02*
X5348515Y-17470222D01*
X5348515Y-17470222D02*
X5338991Y-17479746D01*
X5338991Y-17479746D02*
X5329467Y-17498793D01*
X5329467Y-17498793D02*
X5329467Y-17536889D01*
X5329467Y-17536889D02*
X5338991Y-17555936D01*
X5338991Y-17555936D02*
X5348515Y-17565460D01*
X5348515Y-17565460D02*
X5367563Y-17574984D01*
X5367563Y-17574984D02*
X5405658Y-17574984D01*
X5405658Y-17574984D02*
X5424705Y-17565460D01*
X5424705Y-17565460D02*
X5434229Y-17555936D01*
X5434229Y-17555936D02*
X5443753Y-17536889D01*
X5443753Y-17536889D02*
X5443753Y-17498793D01*
X5443753Y-17498793D02*
X5434229Y-17479746D01*
X5434229Y-17479746D02*
X5424705Y-17470222D01*
X5424705Y-17470222D02*
X5405658Y-17460698D01*
X5567563Y-17374984D02*
X5586610Y-17374984D01*
X5586610Y-17374984D02*
X5605658Y-17384508D01*
X5605658Y-17384508D02*
X5615182Y-17394031D01*
X5615182Y-17394031D02*
X5624705Y-17413079D01*
X5624705Y-17413079D02*
X5634229Y-17451174D01*
X5634229Y-17451174D02*
X5634229Y-17498793D01*
X5634229Y-17498793D02*
X5624705Y-17536889D01*
X5624705Y-17536889D02*
X5615182Y-17555936D01*
X5615182Y-17555936D02*
X5605658Y-17565460D01*
X5605658Y-17565460D02*
X5586610Y-17574984D01*
X5586610Y-17574984D02*
X5567563Y-17574984D01*
X5567563Y-17574984D02*
X5548515Y-17565460D01*
X5548515Y-17565460D02*
X5538991Y-17555936D01*
X5538991Y-17555936D02*
X5529467Y-17536889D01*
X5529467Y-17536889D02*
X5519944Y-17498793D01*
X5519944Y-17498793D02*
X5519944Y-17451174D01*
X5519944Y-17451174D02*
X5529467Y-17413079D01*
X5529467Y-17413079D02*
X5538991Y-17394031D01*
X5538991Y-17394031D02*
X5548515Y-17384508D01*
X5548515Y-17384508D02*
X5567563Y-17374984D01*
X5758039Y-17374984D02*
X5777086Y-17374984D01*
X5777086Y-17374984D02*
X5796134Y-17384508D01*
X5796134Y-17384508D02*
X5805658Y-17394031D01*
X5805658Y-17394031D02*
X5815182Y-17413079D01*
X5815182Y-17413079D02*
X5824705Y-17451174D01*
X5824705Y-17451174D02*
X5824705Y-17498793D01*
X5824705Y-17498793D02*
X5815182Y-17536889D01*
X5815182Y-17536889D02*
X5805658Y-17555936D01*
X5805658Y-17555936D02*
X5796134Y-17565460D01*
X5796134Y-17565460D02*
X5777086Y-17574984D01*
X5777086Y-17574984D02*
X5758039Y-17574984D01*
X5758039Y-17574984D02*
X5738991Y-17565460D01*
X5738991Y-17565460D02*
X5729467Y-17555936D01*
X5729467Y-17555936D02*
X5719943Y-17536889D01*
X5719943Y-17536889D02*
X5710420Y-17498793D01*
X5710420Y-17498793D02*
X5710420Y-17451174D01*
X5710420Y-17451174D02*
X5719943Y-17413079D01*
X5719943Y-17413079D02*
X5729467Y-17394031D01*
X5729467Y-17394031D02*
X5738991Y-17384508D01*
X5738991Y-17384508D02*
X5758039Y-17374984D01*
X5910420Y-17574984D02*
X5910420Y-17441650D01*
X5910420Y-17460698D02*
X5919943Y-17451174D01*
X5919943Y-17451174D02*
X5938991Y-17441650D01*
X5938991Y-17441650D02*
X5967563Y-17441650D01*
X5967563Y-17441650D02*
X5986610Y-17451174D01*
X5986610Y-17451174D02*
X5996134Y-17470222D01*
X5996134Y-17470222D02*
X5996134Y-17574984D01*
X5996134Y-17470222D02*
X6005658Y-17451174D01*
X6005658Y-17451174D02*
X6024705Y-17441650D01*
X6024705Y-17441650D02*
X6053277Y-17441650D01*
X6053277Y-17441650D02*
X6072324Y-17451174D01*
X6072324Y-17451174D02*
X6081848Y-17470222D01*
X6081848Y-17470222D02*
X6081848Y-17574984D01*
X6177086Y-17574984D02*
X6177086Y-17441650D01*
X6177086Y-17460698D02*
X6186610Y-17451174D01*
X6186610Y-17451174D02*
X6205658Y-17441650D01*
X6205658Y-17441650D02*
X6234229Y-17441650D01*
X6234229Y-17441650D02*
X6253277Y-17451174D01*
X6253277Y-17451174D02*
X6262801Y-17470222D01*
X6262801Y-17470222D02*
X6262801Y-17574984D01*
X6262801Y-17470222D02*
X6272324Y-17451174D01*
X6272324Y-17451174D02*
X6291372Y-17441650D01*
X6291372Y-17441650D02*
X6319943Y-17441650D01*
X6319943Y-17441650D02*
X6338991Y-17451174D01*
X6338991Y-17451174D02*
X6348515Y-17470222D01*
X6348515Y-17470222D02*
X6348515Y-17574984D01*
X6738991Y-17365460D02*
X6567563Y-17622603D01*
X6996134Y-17374984D02*
X7015182Y-17374984D01*
X7015182Y-17374984D02*
X7034229Y-17384508D01*
X7034229Y-17384508D02*
X7043753Y-17394031D01*
X7043753Y-17394031D02*
X7053277Y-17413079D01*
X7053277Y-17413079D02*
X7062801Y-17451174D01*
X7062801Y-17451174D02*
X7062801Y-17498793D01*
X7062801Y-17498793D02*
X7053277Y-17536889D01*
X7053277Y-17536889D02*
X7043753Y-17555936D01*
X7043753Y-17555936D02*
X7034229Y-17565460D01*
X7034229Y-17565460D02*
X7015182Y-17574984D01*
X7015182Y-17574984D02*
X6996134Y-17574984D01*
X6996134Y-17574984D02*
X6977086Y-17565460D01*
X6977086Y-17565460D02*
X6967563Y-17555936D01*
X6967563Y-17555936D02*
X6958039Y-17536889D01*
X6958039Y-17536889D02*
X6948515Y-17498793D01*
X6948515Y-17498793D02*
X6948515Y-17451174D01*
X6948515Y-17451174D02*
X6958039Y-17413079D01*
X6958039Y-17413079D02*
X6967563Y-17394031D01*
X6967563Y-17394031D02*
X6977086Y-17384508D01*
X6977086Y-17384508D02*
X6996134Y-17374984D01*
X7148515Y-17555936D02*
X7158039Y-17565460D01*
X7158039Y-17565460D02*
X7148515Y-17574984D01*
X7148515Y-17574984D02*
X7138991Y-17565460D01*
X7138991Y-17565460D02*
X7148515Y-17555936D01*
X7148515Y-17555936D02*
X7148515Y-17574984D01*
X7281848Y-17374984D02*
X7300896Y-17374984D01*
X7300896Y-17374984D02*
X7319944Y-17384508D01*
X7319944Y-17384508D02*
X7329467Y-17394031D01*
X7329467Y-17394031D02*
X7338991Y-17413079D01*
X7338991Y-17413079D02*
X7348515Y-17451174D01*
X7348515Y-17451174D02*
X7348515Y-17498793D01*
X7348515Y-17498793D02*
X7338991Y-17536889D01*
X7338991Y-17536889D02*
X7329467Y-17555936D01*
X7329467Y-17555936D02*
X7319944Y-17565460D01*
X7319944Y-17565460D02*
X7300896Y-17574984D01*
X7300896Y-17574984D02*
X7281848Y-17574984D01*
X7281848Y-17574984D02*
X7262801Y-17565460D01*
X7262801Y-17565460D02*
X7253277Y-17555936D01*
X7253277Y-17555936D02*
X7243753Y-17536889D01*
X7243753Y-17536889D02*
X7234229Y-17498793D01*
X7234229Y-17498793D02*
X7234229Y-17451174D01*
X7234229Y-17451174D02*
X7243753Y-17413079D01*
X7243753Y-17413079D02*
X7253277Y-17394031D01*
X7253277Y-17394031D02*
X7262801Y-17384508D01*
X7262801Y-17384508D02*
X7281848Y-17374984D01*
X7415182Y-17374984D02*
X7538991Y-17374984D01*
X7538991Y-17374984D02*
X7472325Y-17451174D01*
X7472325Y-17451174D02*
X7500896Y-17451174D01*
X7500896Y-17451174D02*
X7519944Y-17460698D01*
X7519944Y-17460698D02*
X7529467Y-17470222D01*
X7529467Y-17470222D02*
X7538991Y-17489270D01*
X7538991Y-17489270D02*
X7538991Y-17536889D01*
X7538991Y-17536889D02*
X7529467Y-17555936D01*
X7529467Y-17555936D02*
X7519944Y-17565460D01*
X7519944Y-17565460D02*
X7500896Y-17574984D01*
X7500896Y-17574984D02*
X7443753Y-17574984D01*
X7443753Y-17574984D02*
X7424706Y-17565460D01*
X7424706Y-17565460D02*
X7415182Y-17555936D01*
X7729467Y-17574984D02*
X7615182Y-17574984D01*
X7672325Y-17574984D02*
X7672325Y-17374984D01*
X7672325Y-17374984D02*
X7653277Y-17403555D01*
X7653277Y-17403555D02*
X7634229Y-17422603D01*
X7634229Y-17422603D02*
X7615182Y-17432127D01*
X7910420Y-17374984D02*
X7815182Y-17374984D01*
X7815182Y-17374984D02*
X7805658Y-17470222D01*
X7805658Y-17470222D02*
X7815182Y-17460698D01*
X7815182Y-17460698D02*
X7834229Y-17451174D01*
X7834229Y-17451174D02*
X7881848Y-17451174D01*
X7881848Y-17451174D02*
X7900896Y-17460698D01*
X7900896Y-17460698D02*
X7910420Y-17470222D01*
X7910420Y-17470222D02*
X7919944Y-17489270D01*
X7919944Y-17489270D02*
X7919944Y-17536889D01*
X7919944Y-17536889D02*
X7910420Y-17555936D01*
X7910420Y-17555936D02*
X7900896Y-17565460D01*
X7900896Y-17565460D02*
X7881848Y-17574984D01*
X7881848Y-17574984D02*
X7834229Y-17574984D01*
X7834229Y-17574984D02*
X7815182Y-17565460D01*
X7815182Y-17565460D02*
X7805658Y-17555936D01*
X7996134Y-17374984D02*
X7996134Y-17413079D01*
X8072325Y-17374984D02*
X8072325Y-17413079D01*
X8367563Y-17651174D02*
X8358039Y-17641650D01*
X8358039Y-17641650D02*
X8338991Y-17613079D01*
X8338991Y-17613079D02*
X8329468Y-17594031D01*
X8329468Y-17594031D02*
X8319944Y-17565460D01*
X8319944Y-17565460D02*
X8310420Y-17517841D01*
X8310420Y-17517841D02*
X8310420Y-17479746D01*
X8310420Y-17479746D02*
X8319944Y-17432127D01*
X8319944Y-17432127D02*
X8329468Y-17403555D01*
X8329468Y-17403555D02*
X8338991Y-17384508D01*
X8338991Y-17384508D02*
X8358039Y-17355936D01*
X8358039Y-17355936D02*
X8367563Y-17346412D01*
X8472325Y-17460698D02*
X8453277Y-17451174D01*
X8453277Y-17451174D02*
X8443753Y-17441650D01*
X8443753Y-17441650D02*
X8434230Y-17422603D01*
X8434230Y-17422603D02*
X8434230Y-17413079D01*
X8434230Y-17413079D02*
X8443753Y-17394031D01*
X8443753Y-17394031D02*
X8453277Y-17384508D01*
X8453277Y-17384508D02*
X8472325Y-17374984D01*
X8472325Y-17374984D02*
X8510420Y-17374984D01*
X8510420Y-17374984D02*
X8529468Y-17384508D01*
X8529468Y-17384508D02*
X8538991Y-17394031D01*
X8538991Y-17394031D02*
X8548515Y-17413079D01*
X8548515Y-17413079D02*
X8548515Y-17422603D01*
X8548515Y-17422603D02*
X8538991Y-17441650D01*
X8538991Y-17441650D02*
X8529468Y-17451174D01*
X8529468Y-17451174D02*
X8510420Y-17460698D01*
X8510420Y-17460698D02*
X8472325Y-17460698D01*
X8472325Y-17460698D02*
X8453277Y-17470222D01*
X8453277Y-17470222D02*
X8443753Y-17479746D01*
X8443753Y-17479746D02*
X8434230Y-17498793D01*
X8434230Y-17498793D02*
X8434230Y-17536889D01*
X8434230Y-17536889D02*
X8443753Y-17555936D01*
X8443753Y-17555936D02*
X8453277Y-17565460D01*
X8453277Y-17565460D02*
X8472325Y-17574984D01*
X8472325Y-17574984D02*
X8510420Y-17574984D01*
X8510420Y-17574984D02*
X8529468Y-17565460D01*
X8529468Y-17565460D02*
X8538991Y-17555936D01*
X8538991Y-17555936D02*
X8548515Y-17536889D01*
X8548515Y-17536889D02*
X8548515Y-17498793D01*
X8548515Y-17498793D02*
X8538991Y-17479746D01*
X8538991Y-17479746D02*
X8529468Y-17470222D01*
X8529468Y-17470222D02*
X8510420Y-17460698D01*
X8786611Y-17574984D02*
X8786611Y-17374984D01*
X8872325Y-17574984D02*
X8872325Y-17470222D01*
X8872325Y-17470222D02*
X8862801Y-17451174D01*
X8862801Y-17451174D02*
X8843753Y-17441650D01*
X8843753Y-17441650D02*
X8815182Y-17441650D01*
X8815182Y-17441650D02*
X8796134Y-17451174D01*
X8796134Y-17451174D02*
X8786611Y-17460698D01*
X8996134Y-17574984D02*
X8977087Y-17565460D01*
X8977087Y-17565460D02*
X8967563Y-17555936D01*
X8967563Y-17555936D02*
X8958039Y-17536889D01*
X8958039Y-17536889D02*
X8958039Y-17479746D01*
X8958039Y-17479746D02*
X8967563Y-17460698D01*
X8967563Y-17460698D02*
X8977087Y-17451174D01*
X8977087Y-17451174D02*
X8996134Y-17441650D01*
X8996134Y-17441650D02*
X9024706Y-17441650D01*
X9024706Y-17441650D02*
X9043753Y-17451174D01*
X9043753Y-17451174D02*
X9053277Y-17460698D01*
X9053277Y-17460698D02*
X9062801Y-17479746D01*
X9062801Y-17479746D02*
X9062801Y-17536889D01*
X9062801Y-17536889D02*
X9053277Y-17555936D01*
X9053277Y-17555936D02*
X9043753Y-17565460D01*
X9043753Y-17565460D02*
X9024706Y-17574984D01*
X9024706Y-17574984D02*
X8996134Y-17574984D01*
X9177087Y-17574984D02*
X9158039Y-17565460D01*
X9158039Y-17565460D02*
X9148515Y-17546412D01*
X9148515Y-17546412D02*
X9148515Y-17374984D01*
X9329468Y-17565460D02*
X9310420Y-17574984D01*
X9310420Y-17574984D02*
X9272325Y-17574984D01*
X9272325Y-17574984D02*
X9253277Y-17565460D01*
X9253277Y-17565460D02*
X9243753Y-17546412D01*
X9243753Y-17546412D02*
X9243753Y-17470222D01*
X9243753Y-17470222D02*
X9253277Y-17451174D01*
X9253277Y-17451174D02*
X9272325Y-17441650D01*
X9272325Y-17441650D02*
X9310420Y-17441650D01*
X9310420Y-17441650D02*
X9329468Y-17451174D01*
X9329468Y-17451174D02*
X9338992Y-17470222D01*
X9338992Y-17470222D02*
X9338992Y-17489270D01*
X9338992Y-17489270D02*
X9243753Y-17508317D01*
X9415182Y-17565460D02*
X9434230Y-17574984D01*
X9434230Y-17574984D02*
X9472325Y-17574984D01*
X9472325Y-17574984D02*
X9491373Y-17565460D01*
X9491373Y-17565460D02*
X9500896Y-17546412D01*
X9500896Y-17546412D02*
X9500896Y-17536889D01*
X9500896Y-17536889D02*
X9491373Y-17517841D01*
X9491373Y-17517841D02*
X9472325Y-17508317D01*
X9472325Y-17508317D02*
X9443753Y-17508317D01*
X9443753Y-17508317D02*
X9424706Y-17498793D01*
X9424706Y-17498793D02*
X9415182Y-17479746D01*
X9415182Y-17479746D02*
X9415182Y-17470222D01*
X9415182Y-17470222D02*
X9424706Y-17451174D01*
X9424706Y-17451174D02*
X9443753Y-17441650D01*
X9443753Y-17441650D02*
X9472325Y-17441650D01*
X9472325Y-17441650D02*
X9491373Y-17451174D01*
X9567563Y-17651174D02*
X9577087Y-17641650D01*
X9577087Y-17641650D02*
X9596134Y-17613079D01*
X9596134Y-17613079D02*
X9605658Y-17594031D01*
X9605658Y-17594031D02*
X9615182Y-17565460D01*
X9615182Y-17565460D02*
X9624706Y-17517841D01*
X9624706Y-17517841D02*
X9624706Y-17479746D01*
X9624706Y-17479746D02*
X9615182Y-17432127D01*
X9615182Y-17432127D02*
X9605658Y-17403555D01*
X9605658Y-17403555D02*
X9596134Y-17384508D01*
X9596134Y-17384508D02*
X9577087Y-17355936D01*
X9577087Y-17355936D02*
X9567563Y-17346412D01*
D12*
X4692500Y-17697500D02*
X4792500Y-17797500D01*
X4792500Y-17697500D02*
X4692500Y-17797500D01*
X4792500Y-17747500D02*
G75*
G02*
X4692500Y-17747500I-50000J0D01*
G01*
X4692500Y-17747500D02*
G75*
G02*
X4792500Y-17747500I50000J0D01*
G01*
D11*
X5158039Y-17838984D02*
X5043753Y-17838984D01*
X5100896Y-17838984D02*
X5100896Y-17638984D01*
X5100896Y-17638984D02*
X5081848Y-17667555D01*
X5081848Y-17667555D02*
X5062801Y-17686603D01*
X5062801Y-17686603D02*
X5043753Y-17696127D01*
X5243753Y-17819936D02*
X5253277Y-17829460D01*
X5253277Y-17829460D02*
X5243753Y-17838984D01*
X5243753Y-17838984D02*
X5234229Y-17829460D01*
X5234229Y-17829460D02*
X5243753Y-17819936D01*
X5243753Y-17819936D02*
X5243753Y-17838984D01*
X5377086Y-17638984D02*
X5396134Y-17638984D01*
X5396134Y-17638984D02*
X5415182Y-17648508D01*
X5415182Y-17648508D02*
X5424705Y-17658031D01*
X5424705Y-17658031D02*
X5434229Y-17677079D01*
X5434229Y-17677079D02*
X5443753Y-17715174D01*
X5443753Y-17715174D02*
X5443753Y-17762793D01*
X5443753Y-17762793D02*
X5434229Y-17800889D01*
X5434229Y-17800889D02*
X5424705Y-17819936D01*
X5424705Y-17819936D02*
X5415182Y-17829460D01*
X5415182Y-17829460D02*
X5396134Y-17838984D01*
X5396134Y-17838984D02*
X5377086Y-17838984D01*
X5377086Y-17838984D02*
X5358039Y-17829460D01*
X5358039Y-17829460D02*
X5348515Y-17819936D01*
X5348515Y-17819936D02*
X5338991Y-17800889D01*
X5338991Y-17800889D02*
X5329467Y-17762793D01*
X5329467Y-17762793D02*
X5329467Y-17715174D01*
X5329467Y-17715174D02*
X5338991Y-17677079D01*
X5338991Y-17677079D02*
X5348515Y-17658031D01*
X5348515Y-17658031D02*
X5358039Y-17648508D01*
X5358039Y-17648508D02*
X5377086Y-17638984D01*
X5567563Y-17638984D02*
X5586610Y-17638984D01*
X5586610Y-17638984D02*
X5605658Y-17648508D01*
X5605658Y-17648508D02*
X5615182Y-17658031D01*
X5615182Y-17658031D02*
X5624705Y-17677079D01*
X5624705Y-17677079D02*
X5634229Y-17715174D01*
X5634229Y-17715174D02*
X5634229Y-17762793D01*
X5634229Y-17762793D02*
X5624705Y-17800889D01*
X5624705Y-17800889D02*
X5615182Y-17819936D01*
X5615182Y-17819936D02*
X5605658Y-17829460D01*
X5605658Y-17829460D02*
X5586610Y-17838984D01*
X5586610Y-17838984D02*
X5567563Y-17838984D01*
X5567563Y-17838984D02*
X5548515Y-17829460D01*
X5548515Y-17829460D02*
X5538991Y-17819936D01*
X5538991Y-17819936D02*
X5529467Y-17800889D01*
X5529467Y-17800889D02*
X5519944Y-17762793D01*
X5519944Y-17762793D02*
X5519944Y-17715174D01*
X5519944Y-17715174D02*
X5529467Y-17677079D01*
X5529467Y-17677079D02*
X5538991Y-17658031D01*
X5538991Y-17658031D02*
X5548515Y-17648508D01*
X5548515Y-17648508D02*
X5567563Y-17638984D01*
X5758039Y-17638984D02*
X5777086Y-17638984D01*
X5777086Y-17638984D02*
X5796134Y-17648508D01*
X5796134Y-17648508D02*
X5805658Y-17658031D01*
X5805658Y-17658031D02*
X5815182Y-17677079D01*
X5815182Y-17677079D02*
X5824705Y-17715174D01*
X5824705Y-17715174D02*
X5824705Y-17762793D01*
X5824705Y-17762793D02*
X5815182Y-17800889D01*
X5815182Y-17800889D02*
X5805658Y-17819936D01*
X5805658Y-17819936D02*
X5796134Y-17829460D01*
X5796134Y-17829460D02*
X5777086Y-17838984D01*
X5777086Y-17838984D02*
X5758039Y-17838984D01*
X5758039Y-17838984D02*
X5738991Y-17829460D01*
X5738991Y-17829460D02*
X5729467Y-17819936D01*
X5729467Y-17819936D02*
X5719943Y-17800889D01*
X5719943Y-17800889D02*
X5710420Y-17762793D01*
X5710420Y-17762793D02*
X5710420Y-17715174D01*
X5710420Y-17715174D02*
X5719943Y-17677079D01*
X5719943Y-17677079D02*
X5729467Y-17658031D01*
X5729467Y-17658031D02*
X5738991Y-17648508D01*
X5738991Y-17648508D02*
X5758039Y-17638984D01*
X5910420Y-17838984D02*
X5910420Y-17705650D01*
X5910420Y-17724698D02*
X5919943Y-17715174D01*
X5919943Y-17715174D02*
X5938991Y-17705650D01*
X5938991Y-17705650D02*
X5967563Y-17705650D01*
X5967563Y-17705650D02*
X5986610Y-17715174D01*
X5986610Y-17715174D02*
X5996134Y-17734222D01*
X5996134Y-17734222D02*
X5996134Y-17838984D01*
X5996134Y-17734222D02*
X6005658Y-17715174D01*
X6005658Y-17715174D02*
X6024705Y-17705650D01*
X6024705Y-17705650D02*
X6053277Y-17705650D01*
X6053277Y-17705650D02*
X6072324Y-17715174D01*
X6072324Y-17715174D02*
X6081848Y-17734222D01*
X6081848Y-17734222D02*
X6081848Y-17838984D01*
X6177086Y-17838984D02*
X6177086Y-17705650D01*
X6177086Y-17724698D02*
X6186610Y-17715174D01*
X6186610Y-17715174D02*
X6205658Y-17705650D01*
X6205658Y-17705650D02*
X6234229Y-17705650D01*
X6234229Y-17705650D02*
X6253277Y-17715174D01*
X6253277Y-17715174D02*
X6262801Y-17734222D01*
X6262801Y-17734222D02*
X6262801Y-17838984D01*
X6262801Y-17734222D02*
X6272324Y-17715174D01*
X6272324Y-17715174D02*
X6291372Y-17705650D01*
X6291372Y-17705650D02*
X6319943Y-17705650D01*
X6319943Y-17705650D02*
X6338991Y-17715174D01*
X6338991Y-17715174D02*
X6348515Y-17734222D01*
X6348515Y-17734222D02*
X6348515Y-17838984D01*
X6738991Y-17629460D02*
X6567563Y-17886603D01*
X6996134Y-17638984D02*
X7015182Y-17638984D01*
X7015182Y-17638984D02*
X7034229Y-17648508D01*
X7034229Y-17648508D02*
X7043753Y-17658031D01*
X7043753Y-17658031D02*
X7053277Y-17677079D01*
X7053277Y-17677079D02*
X7062801Y-17715174D01*
X7062801Y-17715174D02*
X7062801Y-17762793D01*
X7062801Y-17762793D02*
X7053277Y-17800889D01*
X7053277Y-17800889D02*
X7043753Y-17819936D01*
X7043753Y-17819936D02*
X7034229Y-17829460D01*
X7034229Y-17829460D02*
X7015182Y-17838984D01*
X7015182Y-17838984D02*
X6996134Y-17838984D01*
X6996134Y-17838984D02*
X6977086Y-17829460D01*
X6977086Y-17829460D02*
X6967563Y-17819936D01*
X6967563Y-17819936D02*
X6958039Y-17800889D01*
X6958039Y-17800889D02*
X6948515Y-17762793D01*
X6948515Y-17762793D02*
X6948515Y-17715174D01*
X6948515Y-17715174D02*
X6958039Y-17677079D01*
X6958039Y-17677079D02*
X6967563Y-17658031D01*
X6967563Y-17658031D02*
X6977086Y-17648508D01*
X6977086Y-17648508D02*
X6996134Y-17638984D01*
X7148515Y-17819936D02*
X7158039Y-17829460D01*
X7158039Y-17829460D02*
X7148515Y-17838984D01*
X7148515Y-17838984D02*
X7138991Y-17829460D01*
X7138991Y-17829460D02*
X7148515Y-17819936D01*
X7148515Y-17819936D02*
X7148515Y-17838984D01*
X7281848Y-17638984D02*
X7300896Y-17638984D01*
X7300896Y-17638984D02*
X7319944Y-17648508D01*
X7319944Y-17648508D02*
X7329467Y-17658031D01*
X7329467Y-17658031D02*
X7338991Y-17677079D01*
X7338991Y-17677079D02*
X7348515Y-17715174D01*
X7348515Y-17715174D02*
X7348515Y-17762793D01*
X7348515Y-17762793D02*
X7338991Y-17800889D01*
X7338991Y-17800889D02*
X7329467Y-17819936D01*
X7329467Y-17819936D02*
X7319944Y-17829460D01*
X7319944Y-17829460D02*
X7300896Y-17838984D01*
X7300896Y-17838984D02*
X7281848Y-17838984D01*
X7281848Y-17838984D02*
X7262801Y-17829460D01*
X7262801Y-17829460D02*
X7253277Y-17819936D01*
X7253277Y-17819936D02*
X7243753Y-17800889D01*
X7243753Y-17800889D02*
X7234229Y-17762793D01*
X7234229Y-17762793D02*
X7234229Y-17715174D01*
X7234229Y-17715174D02*
X7243753Y-17677079D01*
X7243753Y-17677079D02*
X7253277Y-17658031D01*
X7253277Y-17658031D02*
X7262801Y-17648508D01*
X7262801Y-17648508D02*
X7281848Y-17638984D01*
X7415182Y-17638984D02*
X7538991Y-17638984D01*
X7538991Y-17638984D02*
X7472325Y-17715174D01*
X7472325Y-17715174D02*
X7500896Y-17715174D01*
X7500896Y-17715174D02*
X7519944Y-17724698D01*
X7519944Y-17724698D02*
X7529467Y-17734222D01*
X7529467Y-17734222D02*
X7538991Y-17753270D01*
X7538991Y-17753270D02*
X7538991Y-17800889D01*
X7538991Y-17800889D02*
X7529467Y-17819936D01*
X7529467Y-17819936D02*
X7519944Y-17829460D01*
X7519944Y-17829460D02*
X7500896Y-17838984D01*
X7500896Y-17838984D02*
X7443753Y-17838984D01*
X7443753Y-17838984D02*
X7424706Y-17829460D01*
X7424706Y-17829460D02*
X7415182Y-17819936D01*
X7634229Y-17838984D02*
X7672325Y-17838984D01*
X7672325Y-17838984D02*
X7691372Y-17829460D01*
X7691372Y-17829460D02*
X7700896Y-17819936D01*
X7700896Y-17819936D02*
X7719944Y-17791365D01*
X7719944Y-17791365D02*
X7729467Y-17753270D01*
X7729467Y-17753270D02*
X7729467Y-17677079D01*
X7729467Y-17677079D02*
X7719944Y-17658031D01*
X7719944Y-17658031D02*
X7710420Y-17648508D01*
X7710420Y-17648508D02*
X7691372Y-17638984D01*
X7691372Y-17638984D02*
X7653277Y-17638984D01*
X7653277Y-17638984D02*
X7634229Y-17648508D01*
X7634229Y-17648508D02*
X7624706Y-17658031D01*
X7624706Y-17658031D02*
X7615182Y-17677079D01*
X7615182Y-17677079D02*
X7615182Y-17724698D01*
X7615182Y-17724698D02*
X7624706Y-17743746D01*
X7624706Y-17743746D02*
X7634229Y-17753270D01*
X7634229Y-17753270D02*
X7653277Y-17762793D01*
X7653277Y-17762793D02*
X7691372Y-17762793D01*
X7691372Y-17762793D02*
X7710420Y-17753270D01*
X7710420Y-17753270D02*
X7719944Y-17743746D01*
X7719944Y-17743746D02*
X7729467Y-17724698D01*
X7900896Y-17705650D02*
X7900896Y-17838984D01*
X7853277Y-17629460D02*
X7805658Y-17772317D01*
X7805658Y-17772317D02*
X7929467Y-17772317D01*
X7996134Y-17638984D02*
X7996134Y-17677079D01*
X8072325Y-17638984D02*
X8072325Y-17677079D01*
X8367563Y-17915174D02*
X8358039Y-17905650D01*
X8358039Y-17905650D02*
X8338991Y-17877079D01*
X8338991Y-17877079D02*
X8329468Y-17858031D01*
X8329468Y-17858031D02*
X8319944Y-17829460D01*
X8319944Y-17829460D02*
X8310420Y-17781841D01*
X8310420Y-17781841D02*
X8310420Y-17743746D01*
X8310420Y-17743746D02*
X8319944Y-17696127D01*
X8319944Y-17696127D02*
X8329468Y-17667555D01*
X8329468Y-17667555D02*
X8338991Y-17648508D01*
X8338991Y-17648508D02*
X8358039Y-17619936D01*
X8358039Y-17619936D02*
X8367563Y-17610412D01*
X8548515Y-17838984D02*
X8434230Y-17838984D01*
X8491372Y-17838984D02*
X8491372Y-17638984D01*
X8491372Y-17638984D02*
X8472325Y-17667555D01*
X8472325Y-17667555D02*
X8453277Y-17686603D01*
X8453277Y-17686603D02*
X8434230Y-17696127D01*
X8643753Y-17838984D02*
X8681849Y-17838984D01*
X8681849Y-17838984D02*
X8700896Y-17829460D01*
X8700896Y-17829460D02*
X8710420Y-17819936D01*
X8710420Y-17819936D02*
X8729468Y-17791365D01*
X8729468Y-17791365D02*
X8738991Y-17753270D01*
X8738991Y-17753270D02*
X8738991Y-17677079D01*
X8738991Y-17677079D02*
X8729468Y-17658031D01*
X8729468Y-17658031D02*
X8719944Y-17648508D01*
X8719944Y-17648508D02*
X8700896Y-17638984D01*
X8700896Y-17638984D02*
X8662801Y-17638984D01*
X8662801Y-17638984D02*
X8643753Y-17648508D01*
X8643753Y-17648508D02*
X8634230Y-17658031D01*
X8634230Y-17658031D02*
X8624706Y-17677079D01*
X8624706Y-17677079D02*
X8624706Y-17724698D01*
X8624706Y-17724698D02*
X8634230Y-17743746D01*
X8634230Y-17743746D02*
X8643753Y-17753270D01*
X8643753Y-17753270D02*
X8662801Y-17762793D01*
X8662801Y-17762793D02*
X8700896Y-17762793D01*
X8700896Y-17762793D02*
X8719944Y-17753270D01*
X8719944Y-17753270D02*
X8729468Y-17743746D01*
X8729468Y-17743746D02*
X8738991Y-17724698D01*
X8853277Y-17724698D02*
X8834230Y-17715174D01*
X8834230Y-17715174D02*
X8824706Y-17705650D01*
X8824706Y-17705650D02*
X8815182Y-17686603D01*
X8815182Y-17686603D02*
X8815182Y-17677079D01*
X8815182Y-17677079D02*
X8824706Y-17658031D01*
X8824706Y-17658031D02*
X8834230Y-17648508D01*
X8834230Y-17648508D02*
X8853277Y-17638984D01*
X8853277Y-17638984D02*
X8891372Y-17638984D01*
X8891372Y-17638984D02*
X8910420Y-17648508D01*
X8910420Y-17648508D02*
X8919944Y-17658031D01*
X8919944Y-17658031D02*
X8929468Y-17677079D01*
X8929468Y-17677079D02*
X8929468Y-17686603D01*
X8929468Y-17686603D02*
X8919944Y-17705650D01*
X8919944Y-17705650D02*
X8910420Y-17715174D01*
X8910420Y-17715174D02*
X8891372Y-17724698D01*
X8891372Y-17724698D02*
X8853277Y-17724698D01*
X8853277Y-17724698D02*
X8834230Y-17734222D01*
X8834230Y-17734222D02*
X8824706Y-17743746D01*
X8824706Y-17743746D02*
X8815182Y-17762793D01*
X8815182Y-17762793D02*
X8815182Y-17800889D01*
X8815182Y-17800889D02*
X8824706Y-17819936D01*
X8824706Y-17819936D02*
X8834230Y-17829460D01*
X8834230Y-17829460D02*
X8853277Y-17838984D01*
X8853277Y-17838984D02*
X8891372Y-17838984D01*
X8891372Y-17838984D02*
X8910420Y-17829460D01*
X8910420Y-17829460D02*
X8919944Y-17819936D01*
X8919944Y-17819936D02*
X8929468Y-17800889D01*
X8929468Y-17800889D02*
X8929468Y-17762793D01*
X8929468Y-17762793D02*
X8919944Y-17743746D01*
X8919944Y-17743746D02*
X8910420Y-17734222D01*
X8910420Y-17734222D02*
X8891372Y-17724698D01*
X9167563Y-17838984D02*
X9167563Y-17638984D01*
X9253277Y-17838984D02*
X9253277Y-17734222D01*
X9253277Y-17734222D02*
X9243753Y-17715174D01*
X9243753Y-17715174D02*
X9224706Y-17705650D01*
X9224706Y-17705650D02*
X9196134Y-17705650D01*
X9196134Y-17705650D02*
X9177087Y-17715174D01*
X9177087Y-17715174D02*
X9167563Y-17724698D01*
X9377087Y-17838984D02*
X9358039Y-17829460D01*
X9358039Y-17829460D02*
X9348515Y-17819936D01*
X9348515Y-17819936D02*
X9338992Y-17800889D01*
X9338992Y-17800889D02*
X9338992Y-17743746D01*
X9338992Y-17743746D02*
X9348515Y-17724698D01*
X9348515Y-17724698D02*
X9358039Y-17715174D01*
X9358039Y-17715174D02*
X9377087Y-17705650D01*
X9377087Y-17705650D02*
X9405658Y-17705650D01*
X9405658Y-17705650D02*
X9424706Y-17715174D01*
X9424706Y-17715174D02*
X9434230Y-17724698D01*
X9434230Y-17724698D02*
X9443753Y-17743746D01*
X9443753Y-17743746D02*
X9443753Y-17800889D01*
X9443753Y-17800889D02*
X9434230Y-17819936D01*
X9434230Y-17819936D02*
X9424706Y-17829460D01*
X9424706Y-17829460D02*
X9405658Y-17838984D01*
X9405658Y-17838984D02*
X9377087Y-17838984D01*
X9558039Y-17838984D02*
X9538992Y-17829460D01*
X9538992Y-17829460D02*
X9529468Y-17810412D01*
X9529468Y-17810412D02*
X9529468Y-17638984D01*
X9710420Y-17829460D02*
X9691373Y-17838984D01*
X9691373Y-17838984D02*
X9653277Y-17838984D01*
X9653277Y-17838984D02*
X9634230Y-17829460D01*
X9634230Y-17829460D02*
X9624706Y-17810412D01*
X9624706Y-17810412D02*
X9624706Y-17734222D01*
X9624706Y-17734222D02*
X9634230Y-17715174D01*
X9634230Y-17715174D02*
X9653277Y-17705650D01*
X9653277Y-17705650D02*
X9691373Y-17705650D01*
X9691373Y-17705650D02*
X9710420Y-17715174D01*
X9710420Y-17715174D02*
X9719944Y-17734222D01*
X9719944Y-17734222D02*
X9719944Y-17753270D01*
X9719944Y-17753270D02*
X9624706Y-17772317D01*
X9796134Y-17829460D02*
X9815182Y-17838984D01*
X9815182Y-17838984D02*
X9853277Y-17838984D01*
X9853277Y-17838984D02*
X9872325Y-17829460D01*
X9872325Y-17829460D02*
X9881849Y-17810412D01*
X9881849Y-17810412D02*
X9881849Y-17800889D01*
X9881849Y-17800889D02*
X9872325Y-17781841D01*
X9872325Y-17781841D02*
X9853277Y-17772317D01*
X9853277Y-17772317D02*
X9824706Y-17772317D01*
X9824706Y-17772317D02*
X9805658Y-17762793D01*
X9805658Y-17762793D02*
X9796134Y-17743746D01*
X9796134Y-17743746D02*
X9796134Y-17734222D01*
X9796134Y-17734222D02*
X9805658Y-17715174D01*
X9805658Y-17715174D02*
X9824706Y-17705650D01*
X9824706Y-17705650D02*
X9853277Y-17705650D01*
X9853277Y-17705650D02*
X9872325Y-17715174D01*
X9948515Y-17915174D02*
X9958039Y-17905650D01*
X9958039Y-17905650D02*
X9977087Y-17877079D01*
X9977087Y-17877079D02*
X9986611Y-17858031D01*
X9986611Y-17858031D02*
X9996134Y-17829460D01*
X9996134Y-17829460D02*
X10005658Y-17781841D01*
X10005658Y-17781841D02*
X10005658Y-17743746D01*
X10005658Y-17743746D02*
X9996134Y-17696127D01*
X9996134Y-17696127D02*
X9986611Y-17667555D01*
X9986611Y-17667555D02*
X9977087Y-17648508D01*
X9977087Y-17648508D02*
X9958039Y-17619936D01*
X9958039Y-17619936D02*
X9948515Y-17610412D01*
D13*
X4652500Y-17941500D02*
X4792500Y-18081500D01*
X4792500Y-17941500D02*
X4652500Y-18081500D01*
X4722500Y-17941500D02*
X4722500Y-18081500D01*
X4652500Y-18011500D02*
X4792500Y-18011500D01*
D11*
X5158039Y-18102984D02*
X5043753Y-18102984D01*
X5100896Y-18102984D02*
X5100896Y-17902984D01*
X5100896Y-17902984D02*
X5081848Y-17931555D01*
X5081848Y-17931555D02*
X5062801Y-17950603D01*
X5062801Y-17950603D02*
X5043753Y-17960127D01*
X5243753Y-18083936D02*
X5253277Y-18093460D01*
X5253277Y-18093460D02*
X5243753Y-18102984D01*
X5243753Y-18102984D02*
X5234229Y-18093460D01*
X5234229Y-18093460D02*
X5243753Y-18083936D01*
X5243753Y-18083936D02*
X5243753Y-18102984D01*
X5424705Y-17969650D02*
X5424705Y-18102984D01*
X5377086Y-17893460D02*
X5329467Y-18036317D01*
X5329467Y-18036317D02*
X5453277Y-18036317D01*
X5567563Y-17902984D02*
X5586610Y-17902984D01*
X5586610Y-17902984D02*
X5605658Y-17912508D01*
X5605658Y-17912508D02*
X5615182Y-17922031D01*
X5615182Y-17922031D02*
X5624705Y-17941079D01*
X5624705Y-17941079D02*
X5634229Y-17979174D01*
X5634229Y-17979174D02*
X5634229Y-18026793D01*
X5634229Y-18026793D02*
X5624705Y-18064889D01*
X5624705Y-18064889D02*
X5615182Y-18083936D01*
X5615182Y-18083936D02*
X5605658Y-18093460D01*
X5605658Y-18093460D02*
X5586610Y-18102984D01*
X5586610Y-18102984D02*
X5567563Y-18102984D01*
X5567563Y-18102984D02*
X5548515Y-18093460D01*
X5548515Y-18093460D02*
X5538991Y-18083936D01*
X5538991Y-18083936D02*
X5529467Y-18064889D01*
X5529467Y-18064889D02*
X5519944Y-18026793D01*
X5519944Y-18026793D02*
X5519944Y-17979174D01*
X5519944Y-17979174D02*
X5529467Y-17941079D01*
X5529467Y-17941079D02*
X5538991Y-17922031D01*
X5538991Y-17922031D02*
X5548515Y-17912508D01*
X5548515Y-17912508D02*
X5567563Y-17902984D01*
X5758039Y-17902984D02*
X5777086Y-17902984D01*
X5777086Y-17902984D02*
X5796134Y-17912508D01*
X5796134Y-17912508D02*
X5805658Y-17922031D01*
X5805658Y-17922031D02*
X5815182Y-17941079D01*
X5815182Y-17941079D02*
X5824705Y-17979174D01*
X5824705Y-17979174D02*
X5824705Y-18026793D01*
X5824705Y-18026793D02*
X5815182Y-18064889D01*
X5815182Y-18064889D02*
X5805658Y-18083936D01*
X5805658Y-18083936D02*
X5796134Y-18093460D01*
X5796134Y-18093460D02*
X5777086Y-18102984D01*
X5777086Y-18102984D02*
X5758039Y-18102984D01*
X5758039Y-18102984D02*
X5738991Y-18093460D01*
X5738991Y-18093460D02*
X5729467Y-18083936D01*
X5729467Y-18083936D02*
X5719943Y-18064889D01*
X5719943Y-18064889D02*
X5710420Y-18026793D01*
X5710420Y-18026793D02*
X5710420Y-17979174D01*
X5710420Y-17979174D02*
X5719943Y-17941079D01*
X5719943Y-17941079D02*
X5729467Y-17922031D01*
X5729467Y-17922031D02*
X5738991Y-17912508D01*
X5738991Y-17912508D02*
X5758039Y-17902984D01*
X5910420Y-18102984D02*
X5910420Y-17969650D01*
X5910420Y-17988698D02*
X5919943Y-17979174D01*
X5919943Y-17979174D02*
X5938991Y-17969650D01*
X5938991Y-17969650D02*
X5967563Y-17969650D01*
X5967563Y-17969650D02*
X5986610Y-17979174D01*
X5986610Y-17979174D02*
X5996134Y-17998222D01*
X5996134Y-17998222D02*
X5996134Y-18102984D01*
X5996134Y-17998222D02*
X6005658Y-17979174D01*
X6005658Y-17979174D02*
X6024705Y-17969650D01*
X6024705Y-17969650D02*
X6053277Y-17969650D01*
X6053277Y-17969650D02*
X6072324Y-17979174D01*
X6072324Y-17979174D02*
X6081848Y-17998222D01*
X6081848Y-17998222D02*
X6081848Y-18102984D01*
X6177086Y-18102984D02*
X6177086Y-17969650D01*
X6177086Y-17988698D02*
X6186610Y-17979174D01*
X6186610Y-17979174D02*
X6205658Y-17969650D01*
X6205658Y-17969650D02*
X6234229Y-17969650D01*
X6234229Y-17969650D02*
X6253277Y-17979174D01*
X6253277Y-17979174D02*
X6262801Y-17998222D01*
X6262801Y-17998222D02*
X6262801Y-18102984D01*
X6262801Y-17998222D02*
X6272324Y-17979174D01*
X6272324Y-17979174D02*
X6291372Y-17969650D01*
X6291372Y-17969650D02*
X6319943Y-17969650D01*
X6319943Y-17969650D02*
X6338991Y-17979174D01*
X6338991Y-17979174D02*
X6348515Y-17998222D01*
X6348515Y-17998222D02*
X6348515Y-18102984D01*
X6738991Y-17893460D02*
X6567563Y-18150603D01*
X6996134Y-17902984D02*
X7015182Y-17902984D01*
X7015182Y-17902984D02*
X7034229Y-17912508D01*
X7034229Y-17912508D02*
X7043753Y-17922031D01*
X7043753Y-17922031D02*
X7053277Y-17941079D01*
X7053277Y-17941079D02*
X7062801Y-17979174D01*
X7062801Y-17979174D02*
X7062801Y-18026793D01*
X7062801Y-18026793D02*
X7053277Y-18064889D01*
X7053277Y-18064889D02*
X7043753Y-18083936D01*
X7043753Y-18083936D02*
X7034229Y-18093460D01*
X7034229Y-18093460D02*
X7015182Y-18102984D01*
X7015182Y-18102984D02*
X6996134Y-18102984D01*
X6996134Y-18102984D02*
X6977086Y-18093460D01*
X6977086Y-18093460D02*
X6967563Y-18083936D01*
X6967563Y-18083936D02*
X6958039Y-18064889D01*
X6958039Y-18064889D02*
X6948515Y-18026793D01*
X6948515Y-18026793D02*
X6948515Y-17979174D01*
X6948515Y-17979174D02*
X6958039Y-17941079D01*
X6958039Y-17941079D02*
X6967563Y-17922031D01*
X6967563Y-17922031D02*
X6977086Y-17912508D01*
X6977086Y-17912508D02*
X6996134Y-17902984D01*
X7148515Y-18083936D02*
X7158039Y-18093460D01*
X7158039Y-18093460D02*
X7148515Y-18102984D01*
X7148515Y-18102984D02*
X7138991Y-18093460D01*
X7138991Y-18093460D02*
X7148515Y-18083936D01*
X7148515Y-18083936D02*
X7148515Y-18102984D01*
X7281848Y-17902984D02*
X7300896Y-17902984D01*
X7300896Y-17902984D02*
X7319944Y-17912508D01*
X7319944Y-17912508D02*
X7329467Y-17922031D01*
X7329467Y-17922031D02*
X7338991Y-17941079D01*
X7338991Y-17941079D02*
X7348515Y-17979174D01*
X7348515Y-17979174D02*
X7348515Y-18026793D01*
X7348515Y-18026793D02*
X7338991Y-18064889D01*
X7338991Y-18064889D02*
X7329467Y-18083936D01*
X7329467Y-18083936D02*
X7319944Y-18093460D01*
X7319944Y-18093460D02*
X7300896Y-18102984D01*
X7300896Y-18102984D02*
X7281848Y-18102984D01*
X7281848Y-18102984D02*
X7262801Y-18093460D01*
X7262801Y-18093460D02*
X7253277Y-18083936D01*
X7253277Y-18083936D02*
X7243753Y-18064889D01*
X7243753Y-18064889D02*
X7234229Y-18026793D01*
X7234229Y-18026793D02*
X7234229Y-17979174D01*
X7234229Y-17979174D02*
X7243753Y-17941079D01*
X7243753Y-17941079D02*
X7253277Y-17922031D01*
X7253277Y-17922031D02*
X7262801Y-17912508D01*
X7262801Y-17912508D02*
X7281848Y-17902984D01*
X7529467Y-17902984D02*
X7434229Y-17902984D01*
X7434229Y-17902984D02*
X7424706Y-17998222D01*
X7424706Y-17998222D02*
X7434229Y-17988698D01*
X7434229Y-17988698D02*
X7453277Y-17979174D01*
X7453277Y-17979174D02*
X7500896Y-17979174D01*
X7500896Y-17979174D02*
X7519944Y-17988698D01*
X7519944Y-17988698D02*
X7529467Y-17998222D01*
X7529467Y-17998222D02*
X7538991Y-18017270D01*
X7538991Y-18017270D02*
X7538991Y-18064889D01*
X7538991Y-18064889D02*
X7529467Y-18083936D01*
X7529467Y-18083936D02*
X7519944Y-18093460D01*
X7519944Y-18093460D02*
X7500896Y-18102984D01*
X7500896Y-18102984D02*
X7453277Y-18102984D01*
X7453277Y-18102984D02*
X7434229Y-18093460D01*
X7434229Y-18093460D02*
X7424706Y-18083936D01*
X7719944Y-17902984D02*
X7624706Y-17902984D01*
X7624706Y-17902984D02*
X7615182Y-17998222D01*
X7615182Y-17998222D02*
X7624706Y-17988698D01*
X7624706Y-17988698D02*
X7643753Y-17979174D01*
X7643753Y-17979174D02*
X7691372Y-17979174D01*
X7691372Y-17979174D02*
X7710420Y-17988698D01*
X7710420Y-17988698D02*
X7719944Y-17998222D01*
X7719944Y-17998222D02*
X7729467Y-18017270D01*
X7729467Y-18017270D02*
X7729467Y-18064889D01*
X7729467Y-18064889D02*
X7719944Y-18083936D01*
X7719944Y-18083936D02*
X7710420Y-18093460D01*
X7710420Y-18093460D02*
X7691372Y-18102984D01*
X7691372Y-18102984D02*
X7643753Y-18102984D01*
X7643753Y-18102984D02*
X7624706Y-18093460D01*
X7624706Y-18093460D02*
X7615182Y-18083936D01*
X7919944Y-18102984D02*
X7805658Y-18102984D01*
X7862801Y-18102984D02*
X7862801Y-17902984D01*
X7862801Y-17902984D02*
X7843753Y-17931555D01*
X7843753Y-17931555D02*
X7824706Y-17950603D01*
X7824706Y-17950603D02*
X7805658Y-17960127D01*
X7996134Y-17902984D02*
X7996134Y-17941079D01*
X8072325Y-17902984D02*
X8072325Y-17941079D01*
X8367563Y-18179174D02*
X8358039Y-18169650D01*
X8358039Y-18169650D02*
X8338991Y-18141079D01*
X8338991Y-18141079D02*
X8329468Y-18122031D01*
X8329468Y-18122031D02*
X8319944Y-18093460D01*
X8319944Y-18093460D02*
X8310420Y-18045841D01*
X8310420Y-18045841D02*
X8310420Y-18007746D01*
X8310420Y-18007746D02*
X8319944Y-17960127D01*
X8319944Y-17960127D02*
X8329468Y-17931555D01*
X8329468Y-17931555D02*
X8338991Y-17912508D01*
X8338991Y-17912508D02*
X8358039Y-17883936D01*
X8358039Y-17883936D02*
X8367563Y-17874412D01*
X8529468Y-17902984D02*
X8491372Y-17902984D01*
X8491372Y-17902984D02*
X8472325Y-17912508D01*
X8472325Y-17912508D02*
X8462801Y-17922031D01*
X8462801Y-17922031D02*
X8443753Y-17950603D01*
X8443753Y-17950603D02*
X8434230Y-17988698D01*
X8434230Y-17988698D02*
X8434230Y-18064889D01*
X8434230Y-18064889D02*
X8443753Y-18083936D01*
X8443753Y-18083936D02*
X8453277Y-18093460D01*
X8453277Y-18093460D02*
X8472325Y-18102984D01*
X8472325Y-18102984D02*
X8510420Y-18102984D01*
X8510420Y-18102984D02*
X8529468Y-18093460D01*
X8529468Y-18093460D02*
X8538991Y-18083936D01*
X8538991Y-18083936D02*
X8548515Y-18064889D01*
X8548515Y-18064889D02*
X8548515Y-18017270D01*
X8548515Y-18017270D02*
X8538991Y-17998222D01*
X8538991Y-17998222D02*
X8529468Y-17988698D01*
X8529468Y-17988698D02*
X8510420Y-17979174D01*
X8510420Y-17979174D02*
X8472325Y-17979174D01*
X8472325Y-17979174D02*
X8453277Y-17988698D01*
X8453277Y-17988698D02*
X8443753Y-17998222D01*
X8443753Y-17998222D02*
X8434230Y-18017270D01*
X8786611Y-18102984D02*
X8786611Y-17902984D01*
X8872325Y-18102984D02*
X8872325Y-17998222D01*
X8872325Y-17998222D02*
X8862801Y-17979174D01*
X8862801Y-17979174D02*
X8843753Y-17969650D01*
X8843753Y-17969650D02*
X8815182Y-17969650D01*
X8815182Y-17969650D02*
X8796134Y-17979174D01*
X8796134Y-17979174D02*
X8786611Y-17988698D01*
X8996134Y-18102984D02*
X8977087Y-18093460D01*
X8977087Y-18093460D02*
X8967563Y-18083936D01*
X8967563Y-18083936D02*
X8958039Y-18064889D01*
X8958039Y-18064889D02*
X8958039Y-18007746D01*
X8958039Y-18007746D02*
X8967563Y-17988698D01*
X8967563Y-17988698D02*
X8977087Y-17979174D01*
X8977087Y-17979174D02*
X8996134Y-17969650D01*
X8996134Y-17969650D02*
X9024706Y-17969650D01*
X9024706Y-17969650D02*
X9043753Y-17979174D01*
X9043753Y-17979174D02*
X9053277Y-17988698D01*
X9053277Y-17988698D02*
X9062801Y-18007746D01*
X9062801Y-18007746D02*
X9062801Y-18064889D01*
X9062801Y-18064889D02*
X9053277Y-18083936D01*
X9053277Y-18083936D02*
X9043753Y-18093460D01*
X9043753Y-18093460D02*
X9024706Y-18102984D01*
X9024706Y-18102984D02*
X8996134Y-18102984D01*
X9177087Y-18102984D02*
X9158039Y-18093460D01*
X9158039Y-18093460D02*
X9148515Y-18074412D01*
X9148515Y-18074412D02*
X9148515Y-17902984D01*
X9329468Y-18093460D02*
X9310420Y-18102984D01*
X9310420Y-18102984D02*
X9272325Y-18102984D01*
X9272325Y-18102984D02*
X9253277Y-18093460D01*
X9253277Y-18093460D02*
X9243753Y-18074412D01*
X9243753Y-18074412D02*
X9243753Y-17998222D01*
X9243753Y-17998222D02*
X9253277Y-17979174D01*
X9253277Y-17979174D02*
X9272325Y-17969650D01*
X9272325Y-17969650D02*
X9310420Y-17969650D01*
X9310420Y-17969650D02*
X9329468Y-17979174D01*
X9329468Y-17979174D02*
X9338992Y-17998222D01*
X9338992Y-17998222D02*
X9338992Y-18017270D01*
X9338992Y-18017270D02*
X9243753Y-18036317D01*
X9415182Y-18093460D02*
X9434230Y-18102984D01*
X9434230Y-18102984D02*
X9472325Y-18102984D01*
X9472325Y-18102984D02*
X9491373Y-18093460D01*
X9491373Y-18093460D02*
X9500896Y-18074412D01*
X9500896Y-18074412D02*
X9500896Y-18064889D01*
X9500896Y-18064889D02*
X9491373Y-18045841D01*
X9491373Y-18045841D02*
X9472325Y-18036317D01*
X9472325Y-18036317D02*
X9443753Y-18036317D01*
X9443753Y-18036317D02*
X9424706Y-18026793D01*
X9424706Y-18026793D02*
X9415182Y-18007746D01*
X9415182Y-18007746D02*
X9415182Y-17998222D01*
X9415182Y-17998222D02*
X9424706Y-17979174D01*
X9424706Y-17979174D02*
X9443753Y-17969650D01*
X9443753Y-17969650D02*
X9472325Y-17969650D01*
X9472325Y-17969650D02*
X9491373Y-17979174D01*
X9567563Y-18179174D02*
X9577087Y-18169650D01*
X9577087Y-18169650D02*
X9596134Y-18141079D01*
X9596134Y-18141079D02*
X9605658Y-18122031D01*
X9605658Y-18122031D02*
X9615182Y-18093460D01*
X9615182Y-18093460D02*
X9624706Y-18045841D01*
X9624706Y-18045841D02*
X9624706Y-18007746D01*
X9624706Y-18007746D02*
X9615182Y-17960127D01*
X9615182Y-17960127D02*
X9605658Y-17931555D01*
X9605658Y-17931555D02*
X9596134Y-17912508D01*
X9596134Y-17912508D02*
X9577087Y-17883936D01*
X9577087Y-17883936D02*
X9567563Y-17874412D01*
X4592500Y-18175500D02*
X4792500Y-18375500D01*
X4792500Y-18175500D02*
X4592500Y-18375500D01*
X4763211Y-18346211D02*
X4763211Y-18204789D01*
X4621789Y-18204789D01*
X4621789Y-18346211D01*
X4763211Y-18346211D01*
X5034229Y-18166984D02*
X5158039Y-18166984D01*
X5158039Y-18166984D02*
X5091372Y-18243174D01*
X5091372Y-18243174D02*
X5119944Y-18243174D01*
X5119944Y-18243174D02*
X5138991Y-18252698D01*
X5138991Y-18252698D02*
X5148515Y-18262222D01*
X5148515Y-18262222D02*
X5158039Y-18281270D01*
X5158039Y-18281270D02*
X5158039Y-18328889D01*
X5158039Y-18328889D02*
X5148515Y-18347936D01*
X5148515Y-18347936D02*
X5138991Y-18357460D01*
X5138991Y-18357460D02*
X5119944Y-18366984D01*
X5119944Y-18366984D02*
X5062801Y-18366984D01*
X5062801Y-18366984D02*
X5043753Y-18357460D01*
X5043753Y-18357460D02*
X5034229Y-18347936D01*
X5243753Y-18347936D02*
X5253277Y-18357460D01*
X5253277Y-18357460D02*
X5243753Y-18366984D01*
X5243753Y-18366984D02*
X5234229Y-18357460D01*
X5234229Y-18357460D02*
X5243753Y-18347936D01*
X5243753Y-18347936D02*
X5243753Y-18366984D01*
X5367563Y-18252698D02*
X5348515Y-18243174D01*
X5348515Y-18243174D02*
X5338991Y-18233650D01*
X5338991Y-18233650D02*
X5329467Y-18214603D01*
X5329467Y-18214603D02*
X5329467Y-18205079D01*
X5329467Y-18205079D02*
X5338991Y-18186031D01*
X5338991Y-18186031D02*
X5348515Y-18176508D01*
X5348515Y-18176508D02*
X5367563Y-18166984D01*
X5367563Y-18166984D02*
X5405658Y-18166984D01*
X5405658Y-18166984D02*
X5424705Y-18176508D01*
X5424705Y-18176508D02*
X5434229Y-18186031D01*
X5434229Y-18186031D02*
X5443753Y-18205079D01*
X5443753Y-18205079D02*
X5443753Y-18214603D01*
X5443753Y-18214603D02*
X5434229Y-18233650D01*
X5434229Y-18233650D02*
X5424705Y-18243174D01*
X5424705Y-18243174D02*
X5405658Y-18252698D01*
X5405658Y-18252698D02*
X5367563Y-18252698D01*
X5367563Y-18252698D02*
X5348515Y-18262222D01*
X5348515Y-18262222D02*
X5338991Y-18271746D01*
X5338991Y-18271746D02*
X5329467Y-18290793D01*
X5329467Y-18290793D02*
X5329467Y-18328889D01*
X5329467Y-18328889D02*
X5338991Y-18347936D01*
X5338991Y-18347936D02*
X5348515Y-18357460D01*
X5348515Y-18357460D02*
X5367563Y-18366984D01*
X5367563Y-18366984D02*
X5405658Y-18366984D01*
X5405658Y-18366984D02*
X5424705Y-18357460D01*
X5424705Y-18357460D02*
X5434229Y-18347936D01*
X5434229Y-18347936D02*
X5443753Y-18328889D01*
X5443753Y-18328889D02*
X5443753Y-18290793D01*
X5443753Y-18290793D02*
X5434229Y-18271746D01*
X5434229Y-18271746D02*
X5424705Y-18262222D01*
X5424705Y-18262222D02*
X5405658Y-18252698D01*
X5567563Y-18166984D02*
X5586610Y-18166984D01*
X5586610Y-18166984D02*
X5605658Y-18176508D01*
X5605658Y-18176508D02*
X5615182Y-18186031D01*
X5615182Y-18186031D02*
X5624705Y-18205079D01*
X5624705Y-18205079D02*
X5634229Y-18243174D01*
X5634229Y-18243174D02*
X5634229Y-18290793D01*
X5634229Y-18290793D02*
X5624705Y-18328889D01*
X5624705Y-18328889D02*
X5615182Y-18347936D01*
X5615182Y-18347936D02*
X5605658Y-18357460D01*
X5605658Y-18357460D02*
X5586610Y-18366984D01*
X5586610Y-18366984D02*
X5567563Y-18366984D01*
X5567563Y-18366984D02*
X5548515Y-18357460D01*
X5548515Y-18357460D02*
X5538991Y-18347936D01*
X5538991Y-18347936D02*
X5529467Y-18328889D01*
X5529467Y-18328889D02*
X5519944Y-18290793D01*
X5519944Y-18290793D02*
X5519944Y-18243174D01*
X5519944Y-18243174D02*
X5529467Y-18205079D01*
X5529467Y-18205079D02*
X5538991Y-18186031D01*
X5538991Y-18186031D02*
X5548515Y-18176508D01*
X5548515Y-18176508D02*
X5567563Y-18166984D01*
X5758039Y-18166984D02*
X5777086Y-18166984D01*
X5777086Y-18166984D02*
X5796134Y-18176508D01*
X5796134Y-18176508D02*
X5805658Y-18186031D01*
X5805658Y-18186031D02*
X5815182Y-18205079D01*
X5815182Y-18205079D02*
X5824705Y-18243174D01*
X5824705Y-18243174D02*
X5824705Y-18290793D01*
X5824705Y-18290793D02*
X5815182Y-18328889D01*
X5815182Y-18328889D02*
X5805658Y-18347936D01*
X5805658Y-18347936D02*
X5796134Y-18357460D01*
X5796134Y-18357460D02*
X5777086Y-18366984D01*
X5777086Y-18366984D02*
X5758039Y-18366984D01*
X5758039Y-18366984D02*
X5738991Y-18357460D01*
X5738991Y-18357460D02*
X5729467Y-18347936D01*
X5729467Y-18347936D02*
X5719943Y-18328889D01*
X5719943Y-18328889D02*
X5710420Y-18290793D01*
X5710420Y-18290793D02*
X5710420Y-18243174D01*
X5710420Y-18243174D02*
X5719943Y-18205079D01*
X5719943Y-18205079D02*
X5729467Y-18186031D01*
X5729467Y-18186031D02*
X5738991Y-18176508D01*
X5738991Y-18176508D02*
X5758039Y-18166984D01*
X5910420Y-18366984D02*
X5910420Y-18233650D01*
X5910420Y-18252698D02*
X5919943Y-18243174D01*
X5919943Y-18243174D02*
X5938991Y-18233650D01*
X5938991Y-18233650D02*
X5967563Y-18233650D01*
X5967563Y-18233650D02*
X5986610Y-18243174D01*
X5986610Y-18243174D02*
X5996134Y-18262222D01*
X5996134Y-18262222D02*
X5996134Y-18366984D01*
X5996134Y-18262222D02*
X6005658Y-18243174D01*
X6005658Y-18243174D02*
X6024705Y-18233650D01*
X6024705Y-18233650D02*
X6053277Y-18233650D01*
X6053277Y-18233650D02*
X6072324Y-18243174D01*
X6072324Y-18243174D02*
X6081848Y-18262222D01*
X6081848Y-18262222D02*
X6081848Y-18366984D01*
X6177086Y-18366984D02*
X6177086Y-18233650D01*
X6177086Y-18252698D02*
X6186610Y-18243174D01*
X6186610Y-18243174D02*
X6205658Y-18233650D01*
X6205658Y-18233650D02*
X6234229Y-18233650D01*
X6234229Y-18233650D02*
X6253277Y-18243174D01*
X6253277Y-18243174D02*
X6262801Y-18262222D01*
X6262801Y-18262222D02*
X6262801Y-18366984D01*
X6262801Y-18262222D02*
X6272324Y-18243174D01*
X6272324Y-18243174D02*
X6291372Y-18233650D01*
X6291372Y-18233650D02*
X6319943Y-18233650D01*
X6319943Y-18233650D02*
X6338991Y-18243174D01*
X6338991Y-18243174D02*
X6348515Y-18262222D01*
X6348515Y-18262222D02*
X6348515Y-18366984D01*
X6738991Y-18157460D02*
X6567563Y-18414603D01*
X6996134Y-18166984D02*
X7015182Y-18166984D01*
X7015182Y-18166984D02*
X7034229Y-18176508D01*
X7034229Y-18176508D02*
X7043753Y-18186031D01*
X7043753Y-18186031D02*
X7053277Y-18205079D01*
X7053277Y-18205079D02*
X7062801Y-18243174D01*
X7062801Y-18243174D02*
X7062801Y-18290793D01*
X7062801Y-18290793D02*
X7053277Y-18328889D01*
X7053277Y-18328889D02*
X7043753Y-18347936D01*
X7043753Y-18347936D02*
X7034229Y-18357460D01*
X7034229Y-18357460D02*
X7015182Y-18366984D01*
X7015182Y-18366984D02*
X6996134Y-18366984D01*
X6996134Y-18366984D02*
X6977086Y-18357460D01*
X6977086Y-18357460D02*
X6967563Y-18347936D01*
X6967563Y-18347936D02*
X6958039Y-18328889D01*
X6958039Y-18328889D02*
X6948515Y-18290793D01*
X6948515Y-18290793D02*
X6948515Y-18243174D01*
X6948515Y-18243174D02*
X6958039Y-18205079D01*
X6958039Y-18205079D02*
X6967563Y-18186031D01*
X6967563Y-18186031D02*
X6977086Y-18176508D01*
X6977086Y-18176508D02*
X6996134Y-18166984D01*
X7148515Y-18347936D02*
X7158039Y-18357460D01*
X7158039Y-18357460D02*
X7148515Y-18366984D01*
X7148515Y-18366984D02*
X7138991Y-18357460D01*
X7138991Y-18357460D02*
X7148515Y-18347936D01*
X7148515Y-18347936D02*
X7148515Y-18366984D01*
X7348515Y-18366984D02*
X7234229Y-18366984D01*
X7291372Y-18366984D02*
X7291372Y-18166984D01*
X7291372Y-18166984D02*
X7272325Y-18195555D01*
X7272325Y-18195555D02*
X7253277Y-18214603D01*
X7253277Y-18214603D02*
X7234229Y-18224127D01*
X7519944Y-18233650D02*
X7519944Y-18366984D01*
X7472325Y-18157460D02*
X7424706Y-18300317D01*
X7424706Y-18300317D02*
X7548515Y-18300317D01*
X7634229Y-18366984D02*
X7672325Y-18366984D01*
X7672325Y-18366984D02*
X7691372Y-18357460D01*
X7691372Y-18357460D02*
X7700896Y-18347936D01*
X7700896Y-18347936D02*
X7719944Y-18319365D01*
X7719944Y-18319365D02*
X7729467Y-18281270D01*
X7729467Y-18281270D02*
X7729467Y-18205079D01*
X7729467Y-18205079D02*
X7719944Y-18186031D01*
X7719944Y-18186031D02*
X7710420Y-18176508D01*
X7710420Y-18176508D02*
X7691372Y-18166984D01*
X7691372Y-18166984D02*
X7653277Y-18166984D01*
X7653277Y-18166984D02*
X7634229Y-18176508D01*
X7634229Y-18176508D02*
X7624706Y-18186031D01*
X7624706Y-18186031D02*
X7615182Y-18205079D01*
X7615182Y-18205079D02*
X7615182Y-18252698D01*
X7615182Y-18252698D02*
X7624706Y-18271746D01*
X7624706Y-18271746D02*
X7634229Y-18281270D01*
X7634229Y-18281270D02*
X7653277Y-18290793D01*
X7653277Y-18290793D02*
X7691372Y-18290793D01*
X7691372Y-18290793D02*
X7710420Y-18281270D01*
X7710420Y-18281270D02*
X7719944Y-18271746D01*
X7719944Y-18271746D02*
X7729467Y-18252698D01*
X7900896Y-18166984D02*
X7862801Y-18166984D01*
X7862801Y-18166984D02*
X7843753Y-18176508D01*
X7843753Y-18176508D02*
X7834229Y-18186031D01*
X7834229Y-18186031D02*
X7815182Y-18214603D01*
X7815182Y-18214603D02*
X7805658Y-18252698D01*
X7805658Y-18252698D02*
X7805658Y-18328889D01*
X7805658Y-18328889D02*
X7815182Y-18347936D01*
X7815182Y-18347936D02*
X7824706Y-18357460D01*
X7824706Y-18357460D02*
X7843753Y-18366984D01*
X7843753Y-18366984D02*
X7881848Y-18366984D01*
X7881848Y-18366984D02*
X7900896Y-18357460D01*
X7900896Y-18357460D02*
X7910420Y-18347936D01*
X7910420Y-18347936D02*
X7919944Y-18328889D01*
X7919944Y-18328889D02*
X7919944Y-18281270D01*
X7919944Y-18281270D02*
X7910420Y-18262222D01*
X7910420Y-18262222D02*
X7900896Y-18252698D01*
X7900896Y-18252698D02*
X7881848Y-18243174D01*
X7881848Y-18243174D02*
X7843753Y-18243174D01*
X7843753Y-18243174D02*
X7824706Y-18252698D01*
X7824706Y-18252698D02*
X7815182Y-18262222D01*
X7815182Y-18262222D02*
X7805658Y-18281270D01*
X7996134Y-18166984D02*
X7996134Y-18205079D01*
X8072325Y-18166984D02*
X8072325Y-18205079D01*
X8367563Y-18443174D02*
X8358039Y-18433650D01*
X8358039Y-18433650D02*
X8338991Y-18405079D01*
X8338991Y-18405079D02*
X8329468Y-18386031D01*
X8329468Y-18386031D02*
X8319944Y-18357460D01*
X8319944Y-18357460D02*
X8310420Y-18309841D01*
X8310420Y-18309841D02*
X8310420Y-18271746D01*
X8310420Y-18271746D02*
X8319944Y-18224127D01*
X8319944Y-18224127D02*
X8329468Y-18195555D01*
X8329468Y-18195555D02*
X8338991Y-18176508D01*
X8338991Y-18176508D02*
X8358039Y-18147936D01*
X8358039Y-18147936D02*
X8367563Y-18138412D01*
X8548515Y-18366984D02*
X8434230Y-18366984D01*
X8491372Y-18366984D02*
X8491372Y-18166984D01*
X8491372Y-18166984D02*
X8472325Y-18195555D01*
X8472325Y-18195555D02*
X8453277Y-18214603D01*
X8453277Y-18214603D02*
X8434230Y-18224127D01*
X8786611Y-18366984D02*
X8786611Y-18166984D01*
X8872325Y-18366984D02*
X8872325Y-18262222D01*
X8872325Y-18262222D02*
X8862801Y-18243174D01*
X8862801Y-18243174D02*
X8843753Y-18233650D01*
X8843753Y-18233650D02*
X8815182Y-18233650D01*
X8815182Y-18233650D02*
X8796134Y-18243174D01*
X8796134Y-18243174D02*
X8786611Y-18252698D01*
X8996134Y-18366984D02*
X8977087Y-18357460D01*
X8977087Y-18357460D02*
X8967563Y-18347936D01*
X8967563Y-18347936D02*
X8958039Y-18328889D01*
X8958039Y-18328889D02*
X8958039Y-18271746D01*
X8958039Y-18271746D02*
X8967563Y-18252698D01*
X8967563Y-18252698D02*
X8977087Y-18243174D01*
X8977087Y-18243174D02*
X8996134Y-18233650D01*
X8996134Y-18233650D02*
X9024706Y-18233650D01*
X9024706Y-18233650D02*
X9043753Y-18243174D01*
X9043753Y-18243174D02*
X9053277Y-18252698D01*
X9053277Y-18252698D02*
X9062801Y-18271746D01*
X9062801Y-18271746D02*
X9062801Y-18328889D01*
X9062801Y-18328889D02*
X9053277Y-18347936D01*
X9053277Y-18347936D02*
X9043753Y-18357460D01*
X9043753Y-18357460D02*
X9024706Y-18366984D01*
X9024706Y-18366984D02*
X8996134Y-18366984D01*
X9177087Y-18366984D02*
X9158039Y-18357460D01*
X9158039Y-18357460D02*
X9148515Y-18338412D01*
X9148515Y-18338412D02*
X9148515Y-18166984D01*
X9329468Y-18357460D02*
X9310420Y-18366984D01*
X9310420Y-18366984D02*
X9272325Y-18366984D01*
X9272325Y-18366984D02*
X9253277Y-18357460D01*
X9253277Y-18357460D02*
X9243753Y-18338412D01*
X9243753Y-18338412D02*
X9243753Y-18262222D01*
X9243753Y-18262222D02*
X9253277Y-18243174D01*
X9253277Y-18243174D02*
X9272325Y-18233650D01*
X9272325Y-18233650D02*
X9310420Y-18233650D01*
X9310420Y-18233650D02*
X9329468Y-18243174D01*
X9329468Y-18243174D02*
X9338992Y-18262222D01*
X9338992Y-18262222D02*
X9338992Y-18281270D01*
X9338992Y-18281270D02*
X9243753Y-18300317D01*
X9405658Y-18443174D02*
X9415182Y-18433650D01*
X9415182Y-18433650D02*
X9434230Y-18405079D01*
X9434230Y-18405079D02*
X9443753Y-18386031D01*
X9443753Y-18386031D02*
X9453277Y-18357460D01*
X9453277Y-18357460D02*
X9462801Y-18309841D01*
X9462801Y-18309841D02*
X9462801Y-18271746D01*
X9462801Y-18271746D02*
X9453277Y-18224127D01*
X9453277Y-18224127D02*
X9443753Y-18195555D01*
X9443753Y-18195555D02*
X9434230Y-18176508D01*
X9434230Y-18176508D02*
X9415182Y-18147936D01*
X9415182Y-18147936D02*
X9405658Y-18138412D01*
M02*
