G04 #@! TF.GenerationSoftware,KiCad,Pcbnew,8.0.8*
G04 #@! TF.CreationDate,2025-02-06T14:00:49-05:00*
G04 #@! TF.ProjectId,AAV_embedded,4141565f-656d-4626-9564-6465642e6b69,rev?*
G04 #@! TF.SameCoordinates,Original*
G04 #@! TF.FileFunction,Soldermask,Top*
G04 #@! TF.FilePolarity,Negative*
%FSLAX46Y46*%
G04 Gerber Fmt 4.6, Leading zero omitted, Abs format (unit mm)*
G04 Created by KiCad (PCBNEW 8.0.8) date 2025-02-06 14:00:49*
%MOMM*%
%LPD*%
G01*
G04 APERTURE LIST*
G04 Aperture macros list*
%AMRoundRect*
0 Rectangle with rounded corners*
0 $1 Rounding radius*
0 $2 $3 $4 $5 $6 $7 $8 $9 X,Y pos of 4 corners*
0 Add a 4 corners polygon primitive as box body*
4,1,4,$2,$3,$4,$5,$6,$7,$8,$9,$2,$3,0*
0 Add four circle primitives for the rounded corners*
1,1,$1+$1,$2,$3*
1,1,$1+$1,$4,$5*
1,1,$1+$1,$6,$7*
1,1,$1+$1,$8,$9*
0 Add four rect primitives between the rounded corners*
20,1,$1+$1,$2,$3,$4,$5,0*
20,1,$1+$1,$4,$5,$6,$7,0*
20,1,$1+$1,$6,$7,$8,$9,0*
20,1,$1+$1,$8,$9,$2,$3,0*%
G04 Aperture macros list end*
%ADD10C,1.803200*%
%ADD11RoundRect,0.250000X0.312500X0.625000X-0.312500X0.625000X-0.312500X-0.625000X0.312500X-0.625000X0*%
%ADD12RoundRect,0.250000X-0.312500X-0.625000X0.312500X-0.625000X0.312500X0.625000X-0.312500X0.625000X0*%
%ADD13R,1.120000X2.160000*%
%ADD14R,1.700000X1.700000*%
%ADD15O,1.700000X1.700000*%
%ADD16RoundRect,0.150000X-0.825000X-0.150000X0.825000X-0.150000X0.825000X0.150000X-0.825000X0.150000X0*%
%ADD17RoundRect,0.250000X-0.650000X0.325000X-0.650000X-0.325000X0.650000X-0.325000X0.650000X0.325000X0*%
%ADD18RoundRect,0.250000X0.625000X-0.312500X0.625000X0.312500X-0.625000X0.312500X-0.625000X-0.312500X0*%
%ADD19RoundRect,0.243750X0.243750X0.456250X-0.243750X0.456250X-0.243750X-0.456250X0.243750X-0.456250X0*%
%ADD20RoundRect,0.250000X-0.625000X0.312500X-0.625000X-0.312500X0.625000X-0.312500X0.625000X0.312500X0*%
%ADD21R,1.000000X1.500000*%
%ADD22RoundRect,0.250000X0.650000X-0.325000X0.650000X0.325000X-0.650000X0.325000X-0.650000X-0.325000X0*%
%ADD23R,1.500000X1.000000*%
%ADD24RoundRect,0.200000X0.200000X0.800000X-0.200000X0.800000X-0.200000X-0.800000X0.200000X-0.800000X0*%
%ADD25C,1.500000*%
%ADD26R,1.000000X1.000000*%
%ADD27O,1.000000X1.000000*%
%ADD28RoundRect,0.101600X0.300000X0.850000X-0.300000X0.850000X-0.300000X-0.850000X0.300000X-0.850000X0*%
%ADD29RoundRect,0.101600X-0.500000X1.350000X-0.500000X-1.350000X0.500000X-1.350000X0.500000X1.350000X0*%
%ADD30C,1.440000*%
%ADD31RoundRect,0.250000X-0.325000X-0.650000X0.325000X-0.650000X0.325000X0.650000X-0.325000X0.650000X0*%
%ADD32RoundRect,0.250000X-0.750000X0.600000X-0.750000X-0.600000X0.750000X-0.600000X0.750000X0.600000X0*%
%ADD33O,2.000000X1.700000*%
%ADD34RoundRect,0.075000X-0.075000X-0.300000X0.075000X-0.300000X0.075000X0.300000X-0.075000X0.300000X0*%
%ADD35RoundRect,0.062500X-0.062500X-0.312500X0.062500X-0.312500X0.062500X0.312500X-0.062500X0.312500X0*%
%ADD36O,0.950000X1.950000*%
%ADD37O,0.950000X2.150000*%
%ADD38RoundRect,0.150000X-0.875000X-0.150000X0.875000X-0.150000X0.875000X0.150000X-0.875000X0.150000X0*%
%ADD39R,2.160000X1.120000*%
%ADD40R,0.240000X0.900000*%
%ADD41R,0.900000X0.240000*%
%ADD42R,1.000000X2.900000*%
%ADD43RoundRect,0.250000X0.325000X0.650000X-0.325000X0.650000X-0.325000X-0.650000X0.325000X-0.650000X0*%
%ADD44C,6.203200*%
%ADD45RoundRect,0.250000X0.312500X1.450000X-0.312500X1.450000X-0.312500X-1.450000X0.312500X-1.450000X0*%
%ADD46C,1.600000*%
%ADD47C,1.100000*%
%ADD48RoundRect,0.101600X0.150000X0.775000X-0.150000X0.775000X-0.150000X-0.775000X0.150000X-0.775000X0*%
%ADD49RoundRect,0.101600X0.600000X1.375000X-0.600000X1.375000X-0.600000X-1.375000X0.600000X-1.375000X0*%
%ADD50R,2.800000X2.800000*%
%ADD51C,2.800000*%
%ADD52RoundRect,0.150000X0.512500X0.150000X-0.512500X0.150000X-0.512500X-0.150000X0.512500X-0.150000X0*%
%ADD53RoundRect,0.243750X-0.243750X-0.456250X0.243750X-0.456250X0.243750X0.456250X-0.243750X0.456250X0*%
%ADD54RoundRect,0.162500X0.617500X0.162500X-0.617500X0.162500X-0.617500X-0.162500X0.617500X-0.162500X0*%
G04 APERTURE END LIST*
D10*
G04 #@! TO.C,J22*
X66200000Y-135350000D03*
X64200000Y-135350000D03*
X62200000Y-135350000D03*
X60200000Y-135350000D03*
G04 #@! TD*
G04 #@! TO.C,J4*
X76950000Y-135350000D03*
X74950000Y-135350000D03*
X72950000Y-135350000D03*
X70950000Y-135350000D03*
G04 #@! TD*
D11*
G04 #@! TO.C,R16*
X185512500Y-143100000D03*
X182587500Y-143100000D03*
G04 #@! TD*
D12*
G04 #@! TO.C,R2*
X182537500Y-140500000D03*
X185462500Y-140500000D03*
G04 #@! TD*
D13*
G04 #@! TO.C,SW2*
X119450000Y-113950000D03*
X116910000Y-113950000D03*
X114370000Y-113950000D03*
X114370000Y-120680000D03*
X116910000Y-120680000D03*
X119450000Y-120680000D03*
G04 #@! TD*
D14*
G04 #@! TO.C,J14*
X169300000Y-89360000D03*
D15*
X169300000Y-91900000D03*
X169300000Y-94440000D03*
X169300000Y-96980000D03*
X169300000Y-99520000D03*
X169300000Y-102060000D03*
X169300000Y-104600000D03*
X169300000Y-107140000D03*
X169300000Y-109680000D03*
X169300000Y-112220000D03*
G04 #@! TD*
D16*
G04 #@! TO.C,U7*
X139725000Y-94845000D03*
X139725000Y-96115000D03*
X139725000Y-97385000D03*
X139725000Y-98655000D03*
X144675000Y-98655000D03*
X144675000Y-97385000D03*
X144675000Y-96115000D03*
X144675000Y-94845000D03*
G04 #@! TD*
D14*
G04 #@! TO.C,J24*
X57100000Y-46360000D03*
D15*
X57100000Y-48900000D03*
X57100000Y-51440000D03*
X57100000Y-53980000D03*
X57100000Y-56520000D03*
G04 #@! TD*
D11*
G04 #@! TO.C,R27*
X163462500Y-102400000D03*
X160537500Y-102400000D03*
G04 #@! TD*
D17*
G04 #@! TO.C,C3*
X137130000Y-97435000D03*
X137130000Y-100385000D03*
G04 #@! TD*
D14*
G04 #@! TO.C,J13*
X179300000Y-117335000D03*
D15*
X181840000Y-117335000D03*
X184380000Y-117335000D03*
G04 #@! TD*
D18*
G04 #@! TO.C,R9*
X78110000Y-142262500D03*
X78110000Y-139337500D03*
G04 #@! TD*
D19*
G04 #@! TO.C,D2*
X154825000Y-71475000D03*
X152950000Y-71475000D03*
G04 #@! TD*
D18*
G04 #@! TO.C,R10*
X83000000Y-142262500D03*
X83000000Y-139337500D03*
G04 #@! TD*
D20*
G04 #@! TO.C,R13*
X120325000Y-134262500D03*
X120325000Y-137187500D03*
G04 #@! TD*
D17*
G04 #@! TO.C,C11*
X147125000Y-87225000D03*
X147125000Y-90175000D03*
G04 #@! TD*
D21*
G04 #@! TO.C,JP7*
X127450000Y-74200000D03*
X126150000Y-74200000D03*
X124850000Y-74200000D03*
G04 #@! TD*
D12*
G04 #@! TO.C,R7*
X99175000Y-136750000D03*
X102100000Y-136750000D03*
G04 #@! TD*
D18*
G04 #@! TO.C,R8*
X74225000Y-142287500D03*
X74225000Y-139362500D03*
G04 #@! TD*
D10*
G04 #@! TO.C,J19*
X158150000Y-155500000D03*
X160150000Y-155500000D03*
G04 #@! TD*
D22*
G04 #@! TO.C,C5*
X143425000Y-119000000D03*
X143425000Y-116050000D03*
G04 #@! TD*
D23*
G04 #@! TO.C,JP2*
X148200000Y-105650000D03*
X148200000Y-106950000D03*
X148200000Y-108250000D03*
G04 #@! TD*
D14*
G04 #@! TO.C,J6*
X116320000Y-151950000D03*
D15*
X118860000Y-151950000D03*
X121400000Y-151950000D03*
X123940000Y-151950000D03*
X126480000Y-151950000D03*
X129020000Y-151950000D03*
X131560000Y-151950000D03*
G04 #@! TD*
D21*
G04 #@! TO.C,JP3*
X178600000Y-125800000D03*
X179900000Y-125800000D03*
X181200000Y-125800000D03*
G04 #@! TD*
D14*
G04 #@! TO.C,J2*
X53800000Y-119930000D03*
D15*
X56340000Y-119930000D03*
X53800000Y-117390000D03*
X56340000Y-117390000D03*
X53800000Y-114850000D03*
X56340000Y-114850000D03*
X53800000Y-112310000D03*
X56340000Y-112310000D03*
X53800000Y-109770000D03*
X56340000Y-109770000D03*
X53800000Y-107230000D03*
X56340000Y-107230000D03*
X53800000Y-104690000D03*
X56340000Y-104690000D03*
X53800000Y-102150000D03*
X56340000Y-102150000D03*
X53800000Y-99610000D03*
X56340000Y-99610000D03*
X53800000Y-97070000D03*
X56340000Y-97070000D03*
X53800000Y-94530000D03*
X56340000Y-94530000D03*
X53800000Y-91990000D03*
X56340000Y-91990000D03*
X53800000Y-89450000D03*
X56340000Y-89450000D03*
X53800000Y-86910000D03*
X56340000Y-86910000D03*
X53800000Y-84370000D03*
X56340000Y-84370000D03*
X53800000Y-81830000D03*
X56340000Y-81830000D03*
X53800000Y-79290000D03*
X56340000Y-79290000D03*
X53800000Y-76750000D03*
X56340000Y-76750000D03*
X53800000Y-74210000D03*
X56340000Y-74210000D03*
X53800000Y-71670000D03*
X56340000Y-71670000D03*
G04 #@! TD*
D14*
G04 #@! TO.C,J34*
X144150000Y-53000000D03*
D15*
X144150000Y-55540000D03*
X141610000Y-53000000D03*
X141610000Y-55540000D03*
X139070000Y-53000000D03*
X139070000Y-55540000D03*
X136530000Y-53000000D03*
X136530000Y-55540000D03*
X133990000Y-53000000D03*
X133990000Y-55540000D03*
X131450000Y-53000000D03*
X131450000Y-55540000D03*
X128910000Y-53000000D03*
X128910000Y-55540000D03*
X126370000Y-53000000D03*
X126370000Y-55540000D03*
X123830000Y-53000000D03*
X123830000Y-55540000D03*
X121290000Y-53000000D03*
X121290000Y-55540000D03*
X118750000Y-53000000D03*
X118750000Y-55540000D03*
X116210000Y-53000000D03*
X116210000Y-55540000D03*
X113670000Y-53000000D03*
X113670000Y-55540000D03*
X111130000Y-53000000D03*
X111130000Y-55540000D03*
X108590000Y-53000000D03*
X108590000Y-55540000D03*
G04 #@! TD*
D17*
G04 #@! TO.C,C4*
X160650000Y-111550000D03*
X160650000Y-114500000D03*
G04 #@! TD*
D24*
G04 #@! TO.C,SW9*
X169950000Y-46850000D03*
X165750000Y-46850000D03*
G04 #@! TD*
D25*
G04 #@! TO.C,Y1*
X139200000Y-117275000D03*
X139200000Y-122175000D03*
G04 #@! TD*
D26*
G04 #@! TO.C,J5*
X197370000Y-148600000D03*
D27*
X196100000Y-148600000D03*
G04 #@! TD*
D28*
G04 #@! TO.C,J20*
X142400000Y-152650000D03*
X143650000Y-152650000D03*
X144900000Y-152650000D03*
X146150000Y-152650000D03*
X147400000Y-152650000D03*
X148650000Y-152650000D03*
D29*
X150500000Y-155850000D03*
X140550000Y-155850000D03*
G04 #@! TD*
D30*
G04 #@! TO.C,POT1*
X175630000Y-126100000D03*
X173090000Y-128640000D03*
X170550000Y-126100000D03*
G04 #@! TD*
D31*
G04 #@! TO.C,C10*
X128175000Y-138050000D03*
X131125000Y-138050000D03*
G04 #@! TD*
D32*
G04 #@! TO.C,J21*
X152550000Y-95000000D03*
D33*
X152550000Y-97500000D03*
G04 #@! TD*
D14*
G04 #@! TO.C,J26*
X66150000Y-46120000D03*
D15*
X66150000Y-48660000D03*
X66150000Y-51200000D03*
X66150000Y-53740000D03*
X66150000Y-56280000D03*
G04 #@! TD*
D17*
G04 #@! TO.C,C2*
X178050000Y-140800000D03*
X178050000Y-143750000D03*
G04 #@! TD*
D24*
G04 #@! TO.C,SW6*
X117200000Y-103100000D03*
X113000000Y-103100000D03*
G04 #@! TD*
D34*
G04 #@! TO.C,J3*
X75550000Y-151000000D03*
D35*
X76050000Y-151000000D03*
D34*
X82650000Y-151000000D03*
D35*
X77850000Y-151000000D03*
X78350000Y-151000000D03*
X78850000Y-151000000D03*
X79350000Y-151000000D03*
X79850000Y-151000000D03*
X80350000Y-151000000D03*
X82150000Y-151000000D03*
X82100000Y-152250000D03*
X80600000Y-152250000D03*
X80100000Y-152250000D03*
X79600000Y-152250000D03*
X78600000Y-152250000D03*
X78100000Y-152250000D03*
X77600000Y-152250000D03*
X76100000Y-152250000D03*
D36*
X74650000Y-151175000D03*
D37*
X74650000Y-154375000D03*
D36*
X83550000Y-151175000D03*
D37*
X83550000Y-154375000D03*
G04 #@! TD*
D21*
G04 #@! TO.C,JP8*
X117400000Y-72857500D03*
X118700000Y-72857500D03*
X120000000Y-72857500D03*
G04 #@! TD*
D12*
G04 #@! TO.C,R15*
X178487500Y-134550000D03*
X181412500Y-134550000D03*
G04 #@! TD*
D18*
G04 #@! TO.C,R1*
X160675000Y-120062500D03*
X160675000Y-117137500D03*
G04 #@! TD*
D24*
G04 #@! TO.C,SW8*
X179250000Y-46750000D03*
X175050000Y-46750000D03*
G04 #@! TD*
D12*
G04 #@! TO.C,R5*
X99175000Y-134100000D03*
X102100000Y-134100000D03*
G04 #@! TD*
D23*
G04 #@! TO.C,JP1*
X154200000Y-105150000D03*
X154200000Y-106450000D03*
X154200000Y-107750000D03*
G04 #@! TD*
D38*
G04 #@! TO.C,U6*
X147650000Y-111540000D03*
X147650000Y-112810000D03*
X147650000Y-114080000D03*
X147650000Y-115350000D03*
X147650000Y-116620000D03*
X147650000Y-117890000D03*
X147650000Y-119160000D03*
X147650000Y-120430000D03*
X147650000Y-121700000D03*
X156950000Y-121700000D03*
X156950000Y-120430000D03*
X156950000Y-119160000D03*
X156950000Y-117890000D03*
X156950000Y-116620000D03*
X156950000Y-115350000D03*
X156950000Y-114080000D03*
X156950000Y-112810000D03*
X156950000Y-111540000D03*
G04 #@! TD*
D18*
G04 #@! TO.C,R14*
X120300000Y-132537500D03*
X120300000Y-129612500D03*
G04 #@! TD*
D24*
G04 #@! TO.C,SW7*
X126550000Y-103100000D03*
X122350000Y-103100000D03*
G04 #@! TD*
D39*
G04 #@! TO.C,SW5*
X198665000Y-138000000D03*
X191935000Y-138000000D03*
G04 #@! TD*
D13*
G04 #@! TO.C,SW4*
X90100000Y-147850000D03*
X90100000Y-154580000D03*
G04 #@! TD*
D40*
G04 #@! TO.C,U5*
X129400000Y-131500000D03*
D41*
X128350000Y-132050000D03*
X128350000Y-132550000D03*
X128350000Y-133050000D03*
X128350000Y-133550000D03*
X128350000Y-134050000D03*
X128350000Y-134550000D03*
X128350000Y-135050000D03*
X128350000Y-135550000D03*
D40*
X129400000Y-136100000D03*
X129900000Y-136100000D03*
D41*
X130950000Y-135550000D03*
X130950000Y-135050000D03*
X130950000Y-134550000D03*
X130950000Y-134050000D03*
X130950000Y-133550000D03*
X130950000Y-133050000D03*
X130950000Y-132550000D03*
X130950000Y-132050000D03*
D40*
X129900000Y-131500000D03*
D42*
X129650000Y-133800000D03*
G04 #@! TD*
D14*
G04 #@! TO.C,J10*
X169600000Y-73650000D03*
D15*
X167060000Y-73650000D03*
X169600000Y-76190000D03*
X167060000Y-76190000D03*
X169600000Y-78730000D03*
X167060000Y-78730000D03*
G04 #@! TD*
D12*
G04 #@! TO.C,R28*
X160487500Y-97050000D03*
X163412500Y-97050000D03*
G04 #@! TD*
D43*
G04 #@! TO.C,C9*
X133425000Y-129100000D03*
X130475000Y-129100000D03*
G04 #@! TD*
D38*
G04 #@! TO.C,U2*
X107500000Y-131530000D03*
X107500000Y-132800000D03*
X107500000Y-134070000D03*
X107500000Y-135340000D03*
X107500000Y-136610000D03*
X107500000Y-137880000D03*
X107500000Y-139150000D03*
X107500000Y-140420000D03*
X107500000Y-141690000D03*
X107500000Y-142960000D03*
X107500000Y-144230000D03*
X107500000Y-145500000D03*
X116800000Y-145500000D03*
X116800000Y-144230000D03*
X116800000Y-142960000D03*
X116800000Y-141690000D03*
X116800000Y-140420000D03*
X116800000Y-139150000D03*
X116800000Y-137880000D03*
X116800000Y-136610000D03*
X116800000Y-135340000D03*
X116800000Y-134070000D03*
X116800000Y-132800000D03*
X116800000Y-131530000D03*
G04 #@! TD*
D44*
G04 #@! TO.C,*
X131300000Y-64750000D03*
G04 #@! TD*
D14*
G04 #@! TO.C,J7*
X108430000Y-152200000D03*
D15*
X105890000Y-152200000D03*
X103350000Y-152200000D03*
X100810000Y-152200000D03*
X98270000Y-152200000D03*
G04 #@! TD*
D39*
G04 #@! TO.C,SW10*
X173085000Y-152180000D03*
X173085000Y-154720000D03*
X179815000Y-154720000D03*
X179815000Y-152180000D03*
G04 #@! TD*
D21*
G04 #@! TO.C,JP4*
X178550000Y-131950000D03*
X179850000Y-131950000D03*
X181150000Y-131950000D03*
G04 #@! TD*
D19*
G04 #@! TO.C,D5*
X163237500Y-104850000D03*
X161362500Y-104850000D03*
G04 #@! TD*
D12*
G04 #@! TO.C,R6*
X99112500Y-131300000D03*
X102037500Y-131300000D03*
G04 #@! TD*
D45*
G04 #@! TO.C,F2*
X67250000Y-117350000D03*
X62975000Y-117350000D03*
G04 #@! TD*
D14*
G04 #@! TO.C,J25*
X52550000Y-46370000D03*
D15*
X52550000Y-48910000D03*
X52550000Y-51450000D03*
X52550000Y-53990000D03*
X52550000Y-56530000D03*
G04 #@! TD*
D14*
G04 #@! TO.C,J12*
X172110000Y-78750000D03*
D15*
X174650000Y-78750000D03*
X177190000Y-78750000D03*
G04 #@! TD*
D46*
G04 #@! TO.C,J33*
X116500000Y-85150000D03*
D47*
X136500000Y-85150000D03*
D48*
X135750000Y-90425000D03*
X135500000Y-82875000D03*
X135250000Y-90425000D03*
X135000000Y-82875000D03*
X134750000Y-90425000D03*
X134500000Y-82875000D03*
X134250000Y-90425000D03*
X134000000Y-82875000D03*
X133750000Y-90425000D03*
X133500000Y-82875000D03*
X133250000Y-90425000D03*
X133000000Y-82875000D03*
X132750000Y-90425000D03*
X132500000Y-82875000D03*
X132250000Y-90425000D03*
X132000000Y-82875000D03*
X131750000Y-90425000D03*
X131500000Y-82875000D03*
X131250000Y-90425000D03*
X131000000Y-82875000D03*
X130750000Y-90425000D03*
X130500000Y-82875000D03*
X130250000Y-90425000D03*
X128000000Y-82875000D03*
X127750000Y-90425000D03*
X127500000Y-82875000D03*
X127250000Y-90425000D03*
X127000000Y-82875000D03*
X126750000Y-90425000D03*
X126500000Y-82875000D03*
X126250000Y-90425000D03*
X126000000Y-82875000D03*
X125750000Y-90425000D03*
X125500000Y-82875000D03*
X125250000Y-90425000D03*
X125000000Y-82875000D03*
X124750000Y-90425000D03*
X124500000Y-82875000D03*
X124250000Y-90425000D03*
X124000000Y-82875000D03*
X123750000Y-90425000D03*
X123500000Y-82875000D03*
X123250000Y-90425000D03*
X123000000Y-82875000D03*
X122750000Y-90425000D03*
X122500000Y-82875000D03*
X122250000Y-90425000D03*
X122000000Y-82875000D03*
X121750000Y-90425000D03*
X121500000Y-82875000D03*
X121250000Y-90425000D03*
X121000000Y-82875000D03*
X120750000Y-90425000D03*
X120500000Y-82875000D03*
X120250000Y-90425000D03*
X120000000Y-82875000D03*
X119750000Y-90425000D03*
X119500000Y-82875000D03*
X119250000Y-90425000D03*
X119000000Y-82875000D03*
X118750000Y-90425000D03*
X118500000Y-82875000D03*
X118250000Y-90425000D03*
X118000000Y-82875000D03*
X117750000Y-90425000D03*
X117500000Y-82875000D03*
X117250000Y-90425000D03*
D49*
X136850000Y-89650000D03*
X116150000Y-89650000D03*
G04 #@! TD*
D14*
G04 #@! TO.C,J27*
X52300000Y-140170000D03*
D15*
X52300000Y-142710000D03*
X52300000Y-145250000D03*
X52300000Y-147790000D03*
X52300000Y-150330000D03*
G04 #@! TD*
D11*
G04 #@! TO.C,R26*
X155175000Y-58400000D03*
X152250000Y-58400000D03*
G04 #@! TD*
D20*
G04 #@! TO.C,R3*
X169800000Y-152325000D03*
X169800000Y-155250000D03*
G04 #@! TD*
D50*
G04 #@! TO.C,J18*
X96900000Y-50300000D03*
D51*
X101900000Y-50300000D03*
G04 #@! TD*
D52*
G04 #@! TO.C,U1*
X173587500Y-144700000D03*
X173587500Y-143750000D03*
X173587500Y-142800000D03*
X171312500Y-142800000D03*
X171312500Y-143750000D03*
X171312500Y-144700000D03*
G04 #@! TD*
D11*
G04 #@! TO.C,R11*
X126862500Y-115750000D03*
X123937500Y-115750000D03*
G04 #@! TD*
G04 #@! TO.C,R12*
X126842500Y-118060000D03*
X123917500Y-118060000D03*
G04 #@! TD*
D19*
G04 #@! TO.C,D4*
X154737500Y-56000000D03*
X152862500Y-56000000D03*
G04 #@! TD*
D11*
G04 #@! TO.C,R25*
X155325000Y-69000000D03*
X152400000Y-69000000D03*
G04 #@! TD*
D14*
G04 #@! TO.C,J28*
X56900000Y-140170000D03*
D15*
X56900000Y-142710000D03*
X56900000Y-145250000D03*
X56900000Y-147790000D03*
X56900000Y-150330000D03*
G04 #@! TD*
D50*
G04 #@! TO.C,J16*
X73650000Y-50300000D03*
D51*
X78650000Y-50300000D03*
G04 #@! TD*
D50*
G04 #@! TO.C,J17*
X85150000Y-50300000D03*
D51*
X90150000Y-50300000D03*
G04 #@! TD*
D22*
G04 #@! TO.C,C6*
X143425000Y-123650000D03*
X143425000Y-120700000D03*
G04 #@! TD*
D14*
G04 #@! TO.C,J29*
X61500000Y-140170000D03*
D15*
X61500000Y-142710000D03*
X61500000Y-145250000D03*
X61500000Y-147790000D03*
X61500000Y-150330000D03*
G04 #@! TD*
D14*
G04 #@! TO.C,J15*
X202825000Y-148825000D03*
D15*
X202825000Y-151365000D03*
X202825000Y-153905000D03*
G04 #@! TD*
D26*
G04 #@! TO.C,J1*
X141880000Y-72050000D03*
D27*
X141880000Y-70780000D03*
X143150000Y-72050000D03*
X143150000Y-70780000D03*
X144420000Y-72050000D03*
X144420000Y-70780000D03*
X145690000Y-72050000D03*
X145690000Y-70780000D03*
X146960000Y-72050000D03*
X146960000Y-70780000D03*
G04 #@! TD*
D14*
G04 #@! TO.C,J23*
X61700000Y-46360000D03*
D15*
X61700000Y-48900000D03*
X61700000Y-51440000D03*
X61700000Y-53980000D03*
X61700000Y-56520000D03*
G04 #@! TD*
D14*
G04 #@! TO.C,J30*
X66100000Y-140170000D03*
D15*
X66100000Y-142710000D03*
X66100000Y-145250000D03*
X66100000Y-147790000D03*
X66100000Y-150330000D03*
G04 #@! TD*
D30*
G04 #@! TO.C,POT2*
X175440000Y-131710000D03*
X172900000Y-134250000D03*
X170360000Y-131710000D03*
G04 #@! TD*
D53*
G04 #@! TO.C,D3*
X196512500Y-145975000D03*
X198387500Y-145975000D03*
G04 #@! TD*
D14*
G04 #@! TO.C,J9*
X162050000Y-50810000D03*
D15*
X162050000Y-53350000D03*
X162050000Y-55890000D03*
X162050000Y-58430000D03*
X162050000Y-60970000D03*
X162050000Y-63510000D03*
X162050000Y-66050000D03*
X162050000Y-68590000D03*
X162050000Y-71130000D03*
X162050000Y-73670000D03*
G04 #@! TD*
D31*
G04 #@! TO.C,C8*
X113900000Y-129375000D03*
X116850000Y-129375000D03*
G04 #@! TD*
D12*
G04 #@! TO.C,R21*
X195987500Y-143625000D03*
X198912500Y-143625000D03*
G04 #@! TD*
G04 #@! TO.C,R4*
X178437500Y-128500000D03*
X181362500Y-128500000D03*
G04 #@! TD*
D53*
G04 #@! TO.C,D6*
X161312500Y-94650000D03*
X163187500Y-94650000D03*
G04 #@! TD*
D17*
G04 #@! TO.C,C1*
X175725000Y-140800000D03*
X175725000Y-143750000D03*
G04 #@! TD*
D54*
G04 #@! TO.C,U3*
X152050000Y-87200000D03*
X152050000Y-86250000D03*
X152050000Y-85300000D03*
X149350000Y-85300000D03*
X149350000Y-87200000D03*
G04 #@! TD*
D14*
G04 #@! TO.C,J32*
X109000000Y-48640000D03*
D15*
X109000000Y-46100000D03*
X111540000Y-48640000D03*
X111540000Y-46100000D03*
X114080000Y-48640000D03*
X114080000Y-46100000D03*
X116620000Y-48640000D03*
X116620000Y-46100000D03*
X119160000Y-48640000D03*
X119160000Y-46100000D03*
X121700000Y-48640000D03*
X121700000Y-46100000D03*
X124240000Y-48640000D03*
X124240000Y-46100000D03*
X126780000Y-48640000D03*
X126780000Y-46100000D03*
X129320000Y-48640000D03*
X129320000Y-46100000D03*
X131860000Y-48640000D03*
X131860000Y-46100000D03*
X134400000Y-48640000D03*
X134400000Y-46100000D03*
X136940000Y-48640000D03*
X136940000Y-46100000D03*
X139480000Y-48640000D03*
X139480000Y-46100000D03*
X142020000Y-48640000D03*
X142020000Y-46100000D03*
X144560000Y-48640000D03*
X144560000Y-46100000D03*
G04 #@! TD*
D14*
G04 #@! TO.C,J8*
X202550000Y-138010000D03*
D15*
X202550000Y-140550000D03*
X202550000Y-143090000D03*
G04 #@! TD*
D14*
G04 #@! TO.C,J11*
X176790000Y-112250000D03*
D15*
X174250000Y-112250000D03*
X176790000Y-114790000D03*
X174250000Y-114790000D03*
X176790000Y-117330000D03*
X174250000Y-117330000D03*
G04 #@! TD*
M02*
