G04 #@! TF.GenerationSoftware,KiCad,Pcbnew,8.0.8*
G04 #@! TF.CreationDate,2025-02-06T14:00:49-05:00*
G04 #@! TF.ProjectId,AAV_embedded,4141565f-656d-4626-9564-6465642e6b69,rev?*
G04 #@! TF.SameCoordinates,Original*
G04 #@! TF.FileFunction,Soldermask,Bot*
G04 #@! TF.FilePolarity,Negative*
%FSLAX46Y46*%
G04 Gerber Fmt 4.6, Leading zero omitted, Abs format (unit mm)*
G04 Created by KiCad (PCBNEW 8.0.8) date 2025-02-06 14:00:49*
%MOMM*%
%LPD*%
G01*
G04 APERTURE LIST*
G04 Aperture macros list*
%AMRoundRect*
0 Rectangle with rounded corners*
0 $1 Rounding radius*
0 $2 $3 $4 $5 $6 $7 $8 $9 X,Y pos of 4 corners*
0 Add a 4 corners polygon primitive as box body*
4,1,4,$2,$3,$4,$5,$6,$7,$8,$9,$2,$3,0*
0 Add four circle primitives for the rounded corners*
1,1,$1+$1,$2,$3*
1,1,$1+$1,$4,$5*
1,1,$1+$1,$6,$7*
1,1,$1+$1,$8,$9*
0 Add four rect primitives between the rounded corners*
20,1,$1+$1,$2,$3,$4,$5,0*
20,1,$1+$1,$4,$5,$6,$7,0*
20,1,$1+$1,$6,$7,$8,$9,0*
20,1,$1+$1,$8,$9,$2,$3,0*%
G04 Aperture macros list end*
%ADD10C,1.803200*%
%ADD11R,1.700000X1.700000*%
%ADD12O,1.700000X1.700000*%
%ADD13C,1.500000*%
%ADD14R,1.000000X1.000000*%
%ADD15O,1.000000X1.000000*%
%ADD16C,1.440000*%
%ADD17RoundRect,0.250000X-0.750000X0.600000X-0.750000X-0.600000X0.750000X-0.600000X0.750000X0.600000X0*%
%ADD18O,2.000000X1.700000*%
%ADD19O,0.950000X1.950000*%
%ADD20O,0.950000X2.150000*%
%ADD21C,6.203200*%
%ADD22C,1.600000*%
%ADD23C,1.100000*%
%ADD24R,2.800000X2.800000*%
%ADD25C,2.800000*%
G04 APERTURE END LIST*
D10*
G04 #@! TO.C,J22*
X66200000Y-135350000D03*
X64200000Y-135350000D03*
X62200000Y-135350000D03*
X60200000Y-135350000D03*
G04 #@! TD*
G04 #@! TO.C,J4*
X76950000Y-135350000D03*
X74950000Y-135350000D03*
X72950000Y-135350000D03*
X70950000Y-135350000D03*
G04 #@! TD*
D11*
G04 #@! TO.C,J14*
X169300000Y-89360000D03*
D12*
X169300000Y-91900000D03*
X169300000Y-94440000D03*
X169300000Y-96980000D03*
X169300000Y-99520000D03*
X169300000Y-102060000D03*
X169300000Y-104600000D03*
X169300000Y-107140000D03*
X169300000Y-109680000D03*
X169300000Y-112220000D03*
G04 #@! TD*
D11*
G04 #@! TO.C,J24*
X57100000Y-46360000D03*
D12*
X57100000Y-48900000D03*
X57100000Y-51440000D03*
X57100000Y-53980000D03*
X57100000Y-56520000D03*
G04 #@! TD*
D11*
G04 #@! TO.C,J13*
X179300000Y-117335000D03*
D12*
X181840000Y-117335000D03*
X184380000Y-117335000D03*
G04 #@! TD*
D10*
G04 #@! TO.C,J19*
X158150000Y-155500000D03*
X160150000Y-155500000D03*
G04 #@! TD*
D11*
G04 #@! TO.C,J6*
X116320000Y-151950000D03*
D12*
X118860000Y-151950000D03*
X121400000Y-151950000D03*
X123940000Y-151950000D03*
X126480000Y-151950000D03*
X129020000Y-151950000D03*
X131560000Y-151950000D03*
G04 #@! TD*
D11*
G04 #@! TO.C,J2*
X53800000Y-119930000D03*
D12*
X56340000Y-119930000D03*
X53800000Y-117390000D03*
X56340000Y-117390000D03*
X53800000Y-114850000D03*
X56340000Y-114850000D03*
X53800000Y-112310000D03*
X56340000Y-112310000D03*
X53800000Y-109770000D03*
X56340000Y-109770000D03*
X53800000Y-107230000D03*
X56340000Y-107230000D03*
X53800000Y-104690000D03*
X56340000Y-104690000D03*
X53800000Y-102150000D03*
X56340000Y-102150000D03*
X53800000Y-99610000D03*
X56340000Y-99610000D03*
X53800000Y-97070000D03*
X56340000Y-97070000D03*
X53800000Y-94530000D03*
X56340000Y-94530000D03*
X53800000Y-91990000D03*
X56340000Y-91990000D03*
X53800000Y-89450000D03*
X56340000Y-89450000D03*
X53800000Y-86910000D03*
X56340000Y-86910000D03*
X53800000Y-84370000D03*
X56340000Y-84370000D03*
X53800000Y-81830000D03*
X56340000Y-81830000D03*
X53800000Y-79290000D03*
X56340000Y-79290000D03*
X53800000Y-76750000D03*
X56340000Y-76750000D03*
X53800000Y-74210000D03*
X56340000Y-74210000D03*
X53800000Y-71670000D03*
X56340000Y-71670000D03*
G04 #@! TD*
D11*
G04 #@! TO.C,J34*
X144150000Y-53000000D03*
D12*
X144150000Y-55540000D03*
X141610000Y-53000000D03*
X141610000Y-55540000D03*
X139070000Y-53000000D03*
X139070000Y-55540000D03*
X136530000Y-53000000D03*
X136530000Y-55540000D03*
X133990000Y-53000000D03*
X133990000Y-55540000D03*
X131450000Y-53000000D03*
X131450000Y-55540000D03*
X128910000Y-53000000D03*
X128910000Y-55540000D03*
X126370000Y-53000000D03*
X126370000Y-55540000D03*
X123830000Y-53000000D03*
X123830000Y-55540000D03*
X121290000Y-53000000D03*
X121290000Y-55540000D03*
X118750000Y-53000000D03*
X118750000Y-55540000D03*
X116210000Y-53000000D03*
X116210000Y-55540000D03*
X113670000Y-53000000D03*
X113670000Y-55540000D03*
X111130000Y-53000000D03*
X111130000Y-55540000D03*
X108590000Y-53000000D03*
X108590000Y-55540000D03*
G04 #@! TD*
D13*
G04 #@! TO.C,Y1*
X139200000Y-117275000D03*
X139200000Y-122175000D03*
G04 #@! TD*
D14*
G04 #@! TO.C,J5*
X197370000Y-148600000D03*
D15*
X196100000Y-148600000D03*
G04 #@! TD*
D16*
G04 #@! TO.C,POT1*
X175630000Y-126100000D03*
X173090000Y-128640000D03*
X170550000Y-126100000D03*
G04 #@! TD*
D17*
G04 #@! TO.C,J21*
X152550000Y-95000000D03*
D18*
X152550000Y-97500000D03*
G04 #@! TD*
D11*
G04 #@! TO.C,J26*
X66150000Y-46120000D03*
D12*
X66150000Y-48660000D03*
X66150000Y-51200000D03*
X66150000Y-53740000D03*
X66150000Y-56280000D03*
G04 #@! TD*
D19*
G04 #@! TO.C,J3*
X74650000Y-151175000D03*
D20*
X74650000Y-154375000D03*
D19*
X83550000Y-151175000D03*
D20*
X83550000Y-154375000D03*
G04 #@! TD*
D11*
G04 #@! TO.C,J10*
X169600000Y-73650000D03*
D12*
X167060000Y-73650000D03*
X169600000Y-76190000D03*
X167060000Y-76190000D03*
X169600000Y-78730000D03*
X167060000Y-78730000D03*
G04 #@! TD*
D21*
G04 #@! TO.C,*
X131300000Y-64750000D03*
G04 #@! TD*
D11*
G04 #@! TO.C,J7*
X108430000Y-152200000D03*
D12*
X105890000Y-152200000D03*
X103350000Y-152200000D03*
X100810000Y-152200000D03*
X98270000Y-152200000D03*
G04 #@! TD*
D11*
G04 #@! TO.C,J25*
X52550000Y-46370000D03*
D12*
X52550000Y-48910000D03*
X52550000Y-51450000D03*
X52550000Y-53990000D03*
X52550000Y-56530000D03*
G04 #@! TD*
D11*
G04 #@! TO.C,J12*
X172110000Y-78750000D03*
D12*
X174650000Y-78750000D03*
X177190000Y-78750000D03*
G04 #@! TD*
D22*
G04 #@! TO.C,J33*
X116500000Y-85150000D03*
D23*
X136500000Y-85150000D03*
G04 #@! TD*
D11*
G04 #@! TO.C,J27*
X52300000Y-140170000D03*
D12*
X52300000Y-142710000D03*
X52300000Y-145250000D03*
X52300000Y-147790000D03*
X52300000Y-150330000D03*
G04 #@! TD*
D24*
G04 #@! TO.C,J18*
X96900000Y-50300000D03*
D25*
X101900000Y-50300000D03*
G04 #@! TD*
D11*
G04 #@! TO.C,J28*
X56900000Y-140170000D03*
D12*
X56900000Y-142710000D03*
X56900000Y-145250000D03*
X56900000Y-147790000D03*
X56900000Y-150330000D03*
G04 #@! TD*
D24*
G04 #@! TO.C,J16*
X73650000Y-50300000D03*
D25*
X78650000Y-50300000D03*
G04 #@! TD*
D24*
G04 #@! TO.C,J17*
X85150000Y-50300000D03*
D25*
X90150000Y-50300000D03*
G04 #@! TD*
D11*
G04 #@! TO.C,J29*
X61500000Y-140170000D03*
D12*
X61500000Y-142710000D03*
X61500000Y-145250000D03*
X61500000Y-147790000D03*
X61500000Y-150330000D03*
G04 #@! TD*
D11*
G04 #@! TO.C,J15*
X202825000Y-148825000D03*
D12*
X202825000Y-151365000D03*
X202825000Y-153905000D03*
G04 #@! TD*
D14*
G04 #@! TO.C,J1*
X141880000Y-72050000D03*
D15*
X141880000Y-70780000D03*
X143150000Y-72050000D03*
X143150000Y-70780000D03*
X144420000Y-72050000D03*
X144420000Y-70780000D03*
X145690000Y-72050000D03*
X145690000Y-70780000D03*
X146960000Y-72050000D03*
X146960000Y-70780000D03*
G04 #@! TD*
D11*
G04 #@! TO.C,J23*
X61700000Y-46360000D03*
D12*
X61700000Y-48900000D03*
X61700000Y-51440000D03*
X61700000Y-53980000D03*
X61700000Y-56520000D03*
G04 #@! TD*
D11*
G04 #@! TO.C,J30*
X66100000Y-140170000D03*
D12*
X66100000Y-142710000D03*
X66100000Y-145250000D03*
X66100000Y-147790000D03*
X66100000Y-150330000D03*
G04 #@! TD*
D16*
G04 #@! TO.C,POT2*
X175440000Y-131710000D03*
X172900000Y-134250000D03*
X170360000Y-131710000D03*
G04 #@! TD*
D11*
G04 #@! TO.C,J9*
X162050000Y-50810000D03*
D12*
X162050000Y-53350000D03*
X162050000Y-55890000D03*
X162050000Y-58430000D03*
X162050000Y-60970000D03*
X162050000Y-63510000D03*
X162050000Y-66050000D03*
X162050000Y-68590000D03*
X162050000Y-71130000D03*
X162050000Y-73670000D03*
G04 #@! TD*
D11*
G04 #@! TO.C,J32*
X109000000Y-48640000D03*
D12*
X109000000Y-46100000D03*
X111540000Y-48640000D03*
X111540000Y-46100000D03*
X114080000Y-48640000D03*
X114080000Y-46100000D03*
X116620000Y-48640000D03*
X116620000Y-46100000D03*
X119160000Y-48640000D03*
X119160000Y-46100000D03*
X121700000Y-48640000D03*
X121700000Y-46100000D03*
X124240000Y-48640000D03*
X124240000Y-46100000D03*
X126780000Y-48640000D03*
X126780000Y-46100000D03*
X129320000Y-48640000D03*
X129320000Y-46100000D03*
X131860000Y-48640000D03*
X131860000Y-46100000D03*
X134400000Y-48640000D03*
X134400000Y-46100000D03*
X136940000Y-48640000D03*
X136940000Y-46100000D03*
X139480000Y-48640000D03*
X139480000Y-46100000D03*
X142020000Y-48640000D03*
X142020000Y-46100000D03*
X144560000Y-48640000D03*
X144560000Y-46100000D03*
G04 #@! TD*
D11*
G04 #@! TO.C,J8*
X202550000Y-138010000D03*
D12*
X202550000Y-140550000D03*
X202550000Y-143090000D03*
G04 #@! TD*
D11*
G04 #@! TO.C,J11*
X176790000Y-112250000D03*
D12*
X174250000Y-112250000D03*
X176790000Y-114790000D03*
X174250000Y-114790000D03*
X176790000Y-117330000D03*
X174250000Y-117330000D03*
G04 #@! TD*
M02*
