M48
; DRILL file {KiCad 8.0.8} date 2025-02-06T14:00:49-0500
; FORMAT={-:-/ absolute / metric / decimal}
; #@! TF.CreationDate,2025-02-06T14:00:49-05:00
; #@! TF.GenerationSoftware,Kicad,Pcbnew,8.0.8
; #@! TF.FileFunction,Plated,1,4,PTH
FMAT,2
METRIC
; #@! TA.AperFunction,Plated,PTH,ViaDrill
T1C0.300
; #@! TA.AperFunction,Plated,PTH,ComponentDrill
T2C0.450
; #@! TA.AperFunction,Plated,PTH,ComponentDrill
T3C0.650
; #@! TA.AperFunction,Plated,PTH,ComponentDrill
T4C0.700
; #@! TA.AperFunction,Plated,PTH,ComponentDrill
T5C0.800
; #@! TA.AperFunction,Plated,PTH,ComponentDrill
T6C1.000
; #@! TA.AperFunction,Plated,PTH,ComponentDrill
T7C1.400
; #@! TA.AperFunction,Plated,PTH,ComponentDrill
T8C3.800
%
G90
G05
T1
X60.662Y-92.112
X61.15Y-109.17
X61.2Y-93.65
X69.05Y-117.25
X74.27Y-143.73
X76.6Y-153.71
X78.11Y-138.06
X79.0Y-146.65
X79.029Y-153.13
X79.826Y-153.2
X81.4Y-148.28
X82.99Y-138.02
X90.1Y-147.85
X98.25Y-61.25
X98.67Y-156.3
X99.175Y-138.425
X101.11Y-156.75
X102.527Y-60.7
X102.85Y-79.45
X103.0Y-108.57
X103.05Y-109.77
X103.5Y-52.0
X103.783Y-62.417
X105.76Y-145.51
X105.781Y-46.731
X106.123Y-51.559
X106.899Y-112.825
X106.9Y-107.075
X107.724Y-111.95
X107.75Y-106.125
X107.946Y-64.262
X108.675Y-105.4
X108.675Y-111.075
X109.013Y-58.437
X109.075Y-136.65
X109.13Y-139.19
X109.16Y-140.41
X109.16Y-144.23
X109.175Y-141.675
X109.18Y-142.93
X109.755Y-51.9
X111.25Y-58.6
X111.4Y-80.8
X112.2Y-99.3
X112.249Y-73.651
X112.526Y-77.874
X112.743Y-72.82
X112.8Y-98.55
X113.0Y-84.3
X113.449Y-97.873
X113.674Y-74.226
X113.674Y-75.076
X113.875Y-127.75
X114.044Y-97.273
X114.2Y-136.95
X114.35Y-115.675
X114.45Y-63.55
X114.474Y-75.876
X114.625Y-96.674
X114.9Y-81.8
X115.2Y-60.05
X115.2Y-94.748
X115.6Y-95.65
X115.638Y-93.462
X115.7Y-59.25
X115.924Y-80.9
X116.288Y-94.112
X116.595Y-96.427
X116.7Y-58.8
X116.8Y-127.55
X116.8Y-132.8
X116.8Y-134.07
X117.15Y-103.1
X117.2Y-101.25
X117.35Y-58.0
X117.45Y-81.0
X117.6Y-71.05
X117.7Y-88.825
X118.15Y-101.15
X118.39Y-145.48
X118.75Y-51.55
X119.33Y-77.07
X119.5Y-58.65
X119.55Y-63.1
X119.8Y-155.05
X119.837Y-75.8
X119.85Y-51.45
X119.9Y-74.6
X120.0Y-72.858
X120.27Y-128.47
X120.325Y-135.95
X120.38Y-77.27
X120.473Y-62.05
X121.3Y-88.635
X121.55Y-74.05
X121.625Y-108.85
X121.67Y-65.65
X121.724Y-76.775
X121.925Y-129.3
X122.3Y-95.773
X122.324Y-77.375
X122.35Y-103.1
X122.54Y-130.24
X122.6Y-80.419
X122.6Y-85.8
X123.1Y-81.3
X123.4Y-110.5
X123.578Y-79.55
X123.75Y-92.05
X123.834Y-88.635
X123.875Y-120.075
X123.894Y-96.144
X124.178Y-61.372
X124.45Y-78.642
X124.49Y-95.4
X124.5Y-97.55
X124.505Y-70.427
X124.7Y-74.2
X125.0Y-60.7
X125.175Y-148.075
X125.325Y-147.275
X125.4Y-92.1
X125.51Y-127.88
X125.761Y-88.075
X125.8Y-59.95
X126.15Y-71.05
X126.198Y-92.15
X126.23Y-126.79
X126.25Y-74.3
X126.358Y-88.675
X126.43Y-136.35
X126.544Y-61.306
X126.55Y-103.1
X126.624Y-80.074
X126.65Y-85.05
X126.71Y-133.65
X126.72Y-131.75
X126.75Y-72.4
X126.798Y-92.796
X126.84Y-123.55
X127.03Y-138.05
X127.2Y-89.05
X127.36Y-146.08
X127.43Y-131.0
X127.55Y-75.65
X127.55Y-92.15
X127.8Y-154.45
X128.15Y-76.2
X128.475Y-96.625
X128.539Y-86.82
X128.698Y-67.899
X128.78Y-125.77
X128.85Y-59.4
X128.914Y-86.113
X129.0Y-91.4
X129.0Y-130.375
X129.374Y-68.326
X129.46Y-58.677
X129.731Y-92.121
X129.799Y-77.326
X129.9Y-74.05
X130.0Y-123.05
X130.301Y-124.245
X130.413Y-81.479
X130.441Y-86.139
X130.45Y-127.55
X130.717Y-124.928
X130.774Y-68.876
X130.99Y-80.879
X130.999Y-76.149
X131.038Y-74.949
X131.19Y-139.78
X131.374Y-97.124
X131.4Y-125.6
X131.769Y-69.12
X132.02Y-146.83
X132.238Y-74.449
X132.349Y-58.499
X132.4Y-106.1
X132.4Y-109.7
X132.407Y-57.057
X132.475Y-138.05
X132.625Y-107.2
X132.65Y-69.15
X132.65Y-92.2
X132.65Y-99.6
X132.7Y-61.45
X132.732Y-79.682
X132.899Y-72.0
X132.95Y-81.05
X132.98Y-136.173
X132.99Y-132.54
X133.05Y-50.9
X133.087Y-84.118
X133.405Y-79.05
X133.45Y-99.4
X133.643Y-80.65
X133.659Y-78.209
X133.695Y-92.2
X133.735Y-87.635
X133.76Y-133.45
X133.78Y-136.15
X134.196Y-84.717
X134.55Y-76.3
X134.55Y-77.5
X134.55Y-80.65
X134.8Y-129.1
X134.9Y-58.65
X135.325Y-97.4
X135.5Y-132.09
X135.75Y-89.05
X136.2Y-50.851
X136.404Y-78.65
X136.5Y-82.6
X136.642Y-70.044
X137.17Y-101.84
X137.792Y-59.292
X137.985Y-96.115
X138.1Y-83.45
X138.392Y-61.2
X138.525Y-65.425
X138.9Y-83.45
X139.1Y-102.0
X139.725Y-131.575
X139.998Y-93.483
X140.014Y-92.683
X140.049Y-91.799
X140.485Y-85.55
X140.485Y-88.535
X141.426Y-87.55
X142.04Y-86.8
X142.32Y-151.23
X143.425Y-114.875
X143.45Y-124.9
X143.62Y-151.15
X144.6Y-75.55
X144.9Y-151.18
X145.25Y-43.95
X145.425Y-87.175
X145.75Y-121.7
X146.15Y-150.98
X146.4Y-82.55
X146.85Y-49.95
X146.95Y-103.275
X147.34Y-150.99
X147.45Y-78.4
X147.45Y-79.3
X148.0Y-92.35
X148.65Y-151.0
X148.675Y-90.2
X148.75Y-57.225
X151.85Y-103.8
X153.475Y-85.325
X155.125Y-114.1
X155.125Y-116.675
X155.15Y-115.375
X155.175Y-117.9
X155.3Y-55.9
X156.8Y-71.5
X158.3Y-80.55
X159.03Y-94.64
X160.65Y-110.3
X160.65Y-115.65
X160.7Y-121.2
X161.85Y-87.2
X163.2Y-135.475
X163.475Y-104.8
X165.05Y-108.85
X165.35Y-88.075
X166.05Y-105.325
X166.7Y-93.125
X169.85Y-155.25
X169.95Y-46.85
X171.9Y-147.8
X172.275Y-150.4
X172.95Y-154.65
X173.625Y-141.875
X175.7Y-139.45
X178.075Y-139.45
X178.55Y-134.4
X179.25Y-46.75
X179.85Y-124.05
X185.463Y-140.5
X187.012Y-150.688
T3
X141.88Y-70.78
X141.88Y-72.05
X143.15Y-70.78
X143.15Y-72.05
X144.42Y-70.78
X144.42Y-72.05
X145.69Y-70.78
X145.69Y-72.05
X146.96Y-70.78
X146.96Y-72.05
X196.1Y-148.6
X197.37Y-148.6
T4
X60.2Y-135.35
X62.2Y-135.35
X64.2Y-135.35
X66.2Y-135.35
X70.95Y-135.35
X72.95Y-135.35
X74.95Y-135.35
X76.95Y-135.35
X158.15Y-155.5
X160.15Y-155.5
T5
X139.2Y-117.275
X139.2Y-122.175
X170.36Y-131.71
X170.55Y-126.1
X172.9Y-134.25
X173.09Y-128.64
X175.44Y-131.71
X175.63Y-126.1
T6
X52.3Y-140.17
X52.3Y-142.71
X52.3Y-145.25
X52.3Y-147.79
X52.3Y-150.33
X52.55Y-46.37
X52.55Y-48.91
X52.55Y-51.45
X52.55Y-53.99
X52.55Y-56.53
X53.8Y-71.67
X53.8Y-74.21
X53.8Y-76.75
X53.8Y-79.29
X53.8Y-81.83
X53.8Y-84.37
X53.8Y-86.91
X53.8Y-89.45
X53.8Y-91.99
X53.8Y-94.53
X53.8Y-97.07
X53.8Y-99.61
X53.8Y-102.15
X53.8Y-104.69
X53.8Y-107.23
X53.8Y-109.77
X53.8Y-112.31
X53.8Y-114.85
X53.8Y-117.39
X53.8Y-119.93
X56.34Y-71.67
X56.34Y-74.21
X56.34Y-76.75
X56.34Y-79.29
X56.34Y-81.83
X56.34Y-84.37
X56.34Y-86.91
X56.34Y-89.45
X56.34Y-91.99
X56.34Y-94.53
X56.34Y-97.07
X56.34Y-99.61
X56.34Y-102.15
X56.34Y-104.69
X56.34Y-107.23
X56.34Y-109.77
X56.34Y-112.31
X56.34Y-114.85
X56.34Y-117.39
X56.34Y-119.93
X56.9Y-140.17
X56.9Y-142.71
X56.9Y-145.25
X56.9Y-147.79
X56.9Y-150.33
X57.1Y-46.36
X57.1Y-48.9
X57.1Y-51.44
X57.1Y-53.98
X57.1Y-56.52
X61.5Y-140.17
X61.5Y-142.71
X61.5Y-145.25
X61.5Y-147.79
X61.5Y-150.33
X61.7Y-46.36
X61.7Y-48.9
X61.7Y-51.44
X61.7Y-53.98
X61.7Y-56.52
X66.1Y-140.17
X66.1Y-142.71
X66.1Y-145.25
X66.1Y-147.79
X66.1Y-150.33
X66.15Y-46.12
X66.15Y-48.66
X66.15Y-51.2
X66.15Y-53.74
X66.15Y-56.28
X98.27Y-152.2
X100.81Y-152.2
X103.35Y-152.2
X105.89Y-152.2
X108.43Y-152.2
X108.59Y-53.0
X108.59Y-55.54
X109.0Y-46.1
X109.0Y-48.64
X111.13Y-53.0
X111.13Y-55.54
X111.54Y-46.1
X111.54Y-48.64
X113.67Y-53.0
X113.67Y-55.54
X114.08Y-46.1
X114.08Y-48.64
X116.21Y-53.0
X116.21Y-55.54
X116.32Y-151.95
X116.62Y-46.1
X116.62Y-48.64
X118.75Y-53.0
X118.75Y-55.54
X118.86Y-151.95
X119.16Y-46.1
X119.16Y-48.64
X121.29Y-53.0
X121.29Y-55.54
X121.4Y-151.95
X121.7Y-46.1
X121.7Y-48.64
X123.83Y-53.0
X123.83Y-55.54
X123.94Y-151.95
X124.24Y-46.1
X124.24Y-48.64
X126.37Y-53.0
X126.37Y-55.54
X126.48Y-151.95
X126.78Y-46.1
X126.78Y-48.64
X128.91Y-53.0
X128.91Y-55.54
X129.02Y-151.95
X129.32Y-46.1
X129.32Y-48.64
X131.45Y-53.0
X131.45Y-55.54
X131.56Y-151.95
X131.86Y-46.1
X131.86Y-48.64
X133.99Y-53.0
X133.99Y-55.54
X134.4Y-46.1
X134.4Y-48.64
X136.53Y-53.0
X136.53Y-55.54
X136.94Y-46.1
X136.94Y-48.64
X139.07Y-53.0
X139.07Y-55.54
X139.48Y-46.1
X139.48Y-48.64
X141.61Y-53.0
X141.61Y-55.54
X142.02Y-46.1
X142.02Y-48.64
X144.15Y-53.0
X144.15Y-55.54
X144.56Y-46.1
X144.56Y-48.64
X152.55Y-95.0
X152.55Y-97.5
X162.05Y-50.81
X162.05Y-53.35
X162.05Y-55.89
X162.05Y-58.43
X162.05Y-60.97
X162.05Y-63.51
X162.05Y-66.05
X162.05Y-68.59
X162.05Y-71.13
X162.05Y-73.67
X167.06Y-73.65
X167.06Y-76.19
X167.06Y-78.73
X169.3Y-89.36
X169.3Y-91.9
X169.3Y-94.44
X169.3Y-96.98
X169.3Y-99.52
X169.3Y-102.06
X169.3Y-104.6
X169.3Y-107.14
X169.3Y-109.68
X169.3Y-112.22
X169.6Y-73.65
X169.6Y-76.19
X169.6Y-78.73
X172.11Y-78.75
X174.25Y-112.25
X174.25Y-114.79
X174.25Y-117.33
X174.65Y-78.75
X176.79Y-112.25
X176.79Y-114.79
X176.79Y-117.33
X177.19Y-78.75
X179.3Y-117.335
X181.84Y-117.335
X184.38Y-117.335
X202.55Y-138.01
X202.55Y-140.55
X202.55Y-143.09
X202.825Y-148.825
X202.825Y-151.365
X202.825Y-153.905
T7
X73.65Y-50.3
X78.65Y-50.3
X85.15Y-50.3
X90.15Y-50.3
X96.9Y-50.3
X101.9Y-50.3
T8
X131.3Y-64.75
T2
G00X74.65Y-150.675
M15
G01X74.65Y-151.675
M16
G05
G00X74.65Y-153.775
M15
G01X74.65Y-154.975
M16
G05
G00X83.55Y-150.675
M15
G01X83.55Y-151.675
M16
G05
G00X83.55Y-153.775
M15
G01X83.55Y-154.975
M16
G05
M30
